<svg xmlns="http://www.w3.org/2000/svg" xmlns:xlink="http://www.w3.org/1999/xlink" viewBox="0 0 340 456"><defs><style>.cls-1{isolation:isolate;}.cls-2{fill:#f1f1f1;}.cls-3{fill:#a4a4a4;}.cls-4{fill:gray;}.cls-10,.cls-14,.cls-5{fill:none;stroke-miterlimit:10;}.cls-5{stroke:#c6c6c6;stroke-width:0.5px;}.cls-6{fill:#17aa67;}.cls-7{fill:#23d186;}.cls-8{opacity:0.2;mix-blend-mode:multiply;}.cls-9{fill:#3b3d45;}.cls-10{stroke:#000;stroke-width:5px;}.cls-11{fill:#3d9aba;}.cls-12{fill:#aba59b;}.cls-13{fill:#87837e;}.cls-14{stroke:#b5b5b6;}</style></defs><g class="cls-1"><g id="레이어_1" data-name="레이어 1"><g class="cls-1"><polygon class="cls-2" points="321.3 0 318.3 443.9 0 443.9 2.9 0 321.3 0"/><polygon class="cls-3" points="321.3 0 340 0.9 337.1 444.7 318.3 443.9 321.3 0"/><polygon class="cls-4" points="318.3 443.9 337.1 444.7 18.7 444.7 0 443.9 318.3 443.9"/></g><line class="cls-5" x1="41.2" y1="0.4" x2="41.2" y2="443.9"/><line class="cls-5" x1="269.8" y1="0.4" x2="269.8" y2="443.9"/><line class="cls-5" x1="41.2" y1="136.3" x2="269.8" y2="136.3"/><circle class="cls-6" cx="94.6" cy="68.5" r="34"/><circle class="cls-7" cx="95.8" cy="70.6" r="34"/><image class="cls-8" width="167" height="167" transform="translate(55.4 242)" xlink:href="%E1%84%82%E1%85%A2%E1%86%BC%E1%84%91%E1%85%AE%E1%86%BC%E1%84%80%E1%85%B511.png"/><circle class="cls-9" cx="137.8" cy="324.6" r="77.2"/><circle class="cls-10" cx="137.8" cy="324.6" r="77.2"/><path class="cls-11" d="M259.2,295.5c5.5,12.1-3.7,22.5-9.7,31.7-33.9,51.7-18.9-1.4-29.2-11.1-15.7-14.7-5.8-29.3,3.6-32.6C238.4,278.3,253.6,283.1,259.2,295.5Z" transform="translate(-90.6 -28)"/><path class="cls-11" d="M183.6,305.6c13.2-1.5,20.3,10.4,27.2,19,38.6,48.2-7.2,17.5-19.6,24.4-18.9,10.3-29.7-3.6-30-13.6C160.8,320,170.1,307.1,183.6,305.6Z" transform="translate(-90.6 -28)"/><path class="cls-11" d="M169.8,380.7c2.7-13.1,16.2-16.1,26.5-20,57.8-21.9,14.4,12.2,17.1,26.1,4.1,21.1-12.6,27.1-22.1,24.3C176.5,406.7,167.1,393.9,169.8,380.7Z" transform="translate(-90.6 -28)"/><path class="cls-11" d="M236.9,416.9c-11.5-6.6-10.3-20.4-10.8-31.4-2.9-61.7,16.1-9.9,30.2-8.2,21.3,2.7,21.8,20.4,16.2,28.6C263.8,418.6,248.7,423.6,236.9,416.9Z" transform="translate(-90.6 -28)"/><path class="cls-11" d="M289.6,360.7c-9.8,8.9-22.6,3.5-33.2.6-59.6-16.3-4.5-18.4,1.5-31.2,9.2-19.5,26.1-14.5,32.2-6.6C299.5,335.7,299.6,351.6,289.6,360.7Z" transform="translate(-90.6 -28)"/><circle class="cls-12" cx="137.8" cy="324.6" r="15.4"/><circle class="cls-13" cx="137.8" cy="324.6" r="3.8"/><line class="cls-14" x1="23.4" y1="443.9" x2="23.4" y2="454"/><line class="cls-14" x1="315.9" y1="443.9" x2="315.9" y2="454.8"/><line class="cls-14" x1="22.9" y1="454.3" x2="316.4" y2="454.3"/><line class="cls-14" x1="34.7" y1="443.9" x2="34.7" y2="455.5"/><line class="cls-14" x1="326.7" y1="444.1" x2="326.7" y2="455.9"/><line class="cls-14" x1="34.1" y1="455.5" x2="327.2" y2="455.5"/></g></g></svg>