<svg id="레이어_1" data-name="레이어 1" xmlns="http://www.w3.org/2000/svg" xmlns:xlink="http://www.w3.org/1999/xlink" viewBox="0 0 222.4 209.6"><defs><style>.cls-1{fill:url(#무제_그라디언트_41);}.cls-2{fill:#706f6f;}.cls-3{fill:#878686;}.cls-4{fill:url(#무제_그라디언트_59);}.cls-5{fill:url(#무제_그라디언트_31);}.cls-6{fill:url(#무제_그라디언트_59-2);}.cls-7{fill:url(#무제_그라디언트_52);}.cls-8{fill:url(#무제_그라디언트_59-3);}.cls-9{fill:#e2e0e0;}.cls-10,.cls-17,.cls-20,.cls-32,.cls-34{fill:none;stroke-miterlimit:10;}.cls-10{stroke:#969595;stroke-width:7px;}.cls-11{fill:#e2e1e0;}.cls-12{fill:url(#무제_그라디언트_10);}.cls-13{fill:url(#무제_그라디언트_4);}.cls-14{fill:#d1d1d1;}.cls-15{fill:#c6c6c6;}.cls-16{fill:#efefef;}.cls-17{stroke:#afafaf;}.cls-17,.cls-20,.cls-32,.cls-34{stroke-width:5px;}.cls-18{fill:#ccc;}.cls-19{fill:#d8d8d8;}.cls-20{stroke:#c6c6c6;}.cls-21{fill:url(#무제_그라디언트_57);}.cls-22{fill:url(#무제_그라디언트_78);}.cls-23{fill:url(#무제_그라디언트_65);}.cls-24{fill:url(#무제_그라디언트_80);}.cls-25{fill:url(#무제_그라디언트_65-2);}.cls-26{fill:url(#무제_그라디언트_71);}.cls-27{fill:url(#무제_그라디언트_71-2);}.cls-28{fill:url(#무제_그라디언트_62);}.cls-29{fill:url(#무제_그라디언트_71-3);}.cls-30{fill:url(#무제_그라디언트_62-2);}.cls-31{fill:url(#무제_그라디언트_71-4);}.cls-32{stroke:#d3d1d1;}.cls-33{fill:url(#무제_그라디언트_59-4);}.cls-34{stroke:#adacac;}.cls-35{fill:#606060;}.cls-36{fill:#3a3a3a;}.cls-37{fill:#4c4b4b;}</style><linearGradient id="무제_그라디언트_41" x1="217.36" y1="306.65" x2="235.15" y2="337.47" gradientUnits="userSpaceOnUse"><stop offset="0.02" stop-color="#595757"/><stop offset="0.4" stop-color="#9fa0a0"/><stop offset="0.78" stop-color="#595757"/></linearGradient><linearGradient id="무제_그라디언트_59" x1="13.65" y1="170.75" x2="26.97" y2="193.83" gradientUnits="userSpaceOnUse"><stop offset="0.02" stop-color="#595757"/><stop offset="0.4" stop-color="#898989"/><stop offset="0.78" stop-color="#595757"/></linearGradient><linearGradient id="무제_그라디언트_31" x1="214.74" y1="270.13" x2="232.53" y2="300.95" gradientUnits="userSpaceOnUse"><stop offset="0.05" stop-color="#595757"/><stop offset="0.4" stop-color="#727171"/><stop offset="0.78" stop-color="#595757"/></linearGradient><linearGradient id="무제_그라디언트_59-2" x1="11.97" y1="134.41" x2="25.29" y2="157.48" xlink:href="#무제_그라디언트_59"/><linearGradient id="무제_그라디언트_52" x1="214.74" y1="231.44" x2="232.53" y2="262.26" xlink:href="#무제_그라디언트_59"/><linearGradient id="무제_그라디언트_59-3" x1="12.9" y1="99.39" x2="26.23" y2="122.47" xlink:href="#무제_그라디언트_59"/><linearGradient id="무제_그라디언트_10" x1="59.11" y1="52.25" x2="215.78" y2="52.25" gradientUnits="userSpaceOnUse"><stop offset="0" stop-color="#efefef"/><stop offset="1" stop-color="#b5b5b6"/></linearGradient><linearGradient id="무제_그라디언트_4" x1="173.59" y1="24.47" x2="173.59" y2="187.36" xlink:href="#무제_그라디언트_10"/><linearGradient id="무제_그라디언트_57" x1="216.69" y1="198.26" x2="234.48" y2="229.07" gradientUnits="userSpaceOnUse"><stop offset="0.05" stop-color="#595757"/><stop offset="0.4" stop-color="#898989"/><stop offset="0.78" stop-color="#595757"/></linearGradient><linearGradient id="무제_그라디언트_78" x1="243.46" y1="214.95" x2="249.7" y2="226.01" gradientTransform="translate(-1.5 2.4) rotate(-0.6)" gradientUnits="userSpaceOnUse"><stop offset="0" stop-color="#898989"/><stop offset="0.49" stop-color="#b5b5b6"/><stop offset="1" stop-color="#727171"/></linearGradient><linearGradient id="무제_그라디언트_65" x1="12.6" y1="65.39" x2="25.93" y2="88.47" gradientUnits="userSpaceOnUse"><stop offset="0.02" stop-color="#c9caca"/><stop offset="0.4" stop-color="#fff"/><stop offset="0.78" stop-color="#c9caca"/></linearGradient><linearGradient id="무제_그라디언트_80" x1="188.98" y1="259.63" x2="200.95" y2="259.63" gradientUnits="userSpaceOnUse"><stop offset="0" stop-color="#898989"/><stop offset="0.62" stop-color="#b5b5b6"/><stop offset="1" stop-color="#727171"/></linearGradient><linearGradient id="무제_그라디언트_65-2" x1="12.66" y1="64.43" x2="25.99" y2="87.51" xlink:href="#무제_그라디언트_65"/><linearGradient id="무제_그라디언트_71" x1="10.87" y1="177.21" x2="13.12" y2="177.21" gradientUnits="userSpaceOnUse"><stop offset="0" stop-color="#3e3a39"/><stop offset="0.54" stop-color="#727171"/><stop offset="1" stop-color="#3e3a39"/></linearGradient><linearGradient id="무제_그라디언트_71-2" x1="10.87" y1="141.33" x2="13.12" y2="141.33" xlink:href="#무제_그라디언트_71"/><linearGradient id="무제_그라디언트_62" x1="377.35" y1="362.39" x2="404.29" y2="362.39" gradientTransform="translate(-177.5 702.1) rotate(-90)" xlink:href="#무제_그라디언트_71"/><linearGradient id="무제_그라디언트_71-3" x1="503.53" y1="287.51" x2="535.71" y2="287.51" gradientTransform="translate(443.7 -208.4) rotate(90)" xlink:href="#무제_그라디언트_71"/><linearGradient id="무제_그라디언트_62-2" x1="341.47" y1="362.39" x2="368.41" y2="362.39" gradientTransform="translate(-177.5 702.1) rotate(-90)" xlink:href="#무제_그라디언트_71"/><linearGradient id="무제_그라디언트_71-4" x1="539.41" y1="287.51" x2="571.59" y2="287.51" gradientTransform="translate(443.7 -208.4) rotate(90)" xlink:href="#무제_그라디언트_71"/><linearGradient id="무제_그라디언트_59-4" x1="12.9" y1="63.85" x2="26.23" y2="86.93" xlink:href="#무제_그라디언트_59"/></defs><path class="cls-1" d="M259,282.6c7.8-4.9,19.1-6.4,26.1-.1s7.3,18.8.2,26L178.7,368.6c9.1-7.4,13.4-17.9,2.8-26.1-6.8-5.3-11.1-7.5-26.1.1Z" transform="translate(-148.5 -169.9)"/><circle class="cls-2" cx="22.5" cy="181.7" r="18.3"/><circle class="cls-3" cx="20" cy="182.9" r="18.3"/><circle class="cls-4" cx="20.3" cy="182.3" r="13.3"/><path class="cls-5" d="M256.4,246.1c7.7-4.9,19.1-6.4,26.1-.1s7.3,18.8.1,26L176.1,332.1c9.1-7.4,13.4-17.9,2.8-26.1-6.9-5.3-11.1-7.5-26.1.1Z" transform="translate(-148.5 -169.9)"/><circle class="cls-2" cx="20.8" cy="145.4" r="18.3"/><circle class="cls-3" cx="18.3" cy="146.5" r="18.3"/><circle class="cls-6" cx="18.6" cy="145.9" r="13.3"/><path class="cls-7" d="M256.4,207.4c7.7-4.9,19.1-6.4,26.1-.1s7.3,18.8.1,26L176.1,293.4c9.1-7.4,13.4-17.9,2.8-26.1-6.9-5.3-11.1-7.5-26.1.1Z" transform="translate(-148.5 -169.9)"/><circle class="cls-2" cx="21.7" cy="110.4" r="18.3"/><circle class="cls-3" cx="19.3" cy="111.5" r="18.3"/><circle class="cls-8" cx="19.6" cy="110.9" r="13.3"/><circle class="cls-9" cx="124.9" cy="86" r="18.3"/><circle class="cls-9" cx="127.3" cy="122.6" r="18.3"/><polyline class="cls-10" points="122.6 185.5 122.6 201.4 73.9 201.7"/><polyline class="cls-10" points="214.4 108 214.4 137.4 184.3 136.1"/><rect class="cls-11" x="148.7" y="20.3" width="72" height="105.64" rx="12.1"/><polygon class="cls-12" points="215.8 24.5 155.6 24.5 59.1 80 130.4 80 215.8 24.5"/><polygon class="cls-13" points="131.4 187.4 215.8 122.9 215.8 24.5 131.4 78.5 131.4 187.4"/><polygon class="cls-14" points="173 16.1 196 17.3 163 35 137.9 33.6 173 16.1"/><polygon class="cls-15" points="195.5 26.1 196 17.3 163 35 162.6 43.9 195.5 26.1"/><rect class="cls-16" x="294.3" y="196.1" width="8.9" height="25.15" transform="translate(-74.1 326) rotate(-86.9)"/><polyline class="cls-17" points="79.5 198.9 131 198.9 207.1 139.4 207.1 60.5"/><polygon class="cls-16" points="222.4 25.5 222.4 50.1 207.1 60.5 207.1 35.5 222.4 25.5"/><polygon class="cls-18" points="199.4 34.8 199.4 59.1 207.1 60.5 207.1 35.5 199.4 34.8"/><polygon class="cls-19" points="222.4 25.5 214.7 24.5 199.4 34.8 207.1 35.5 222.4 25.5"/><polyline class="cls-20" points="79.5 192.5 129.9 192.5 136.5 187.6 136.5 112.4 148.7 84.9 131.4 82.3"/><path class="cls-21" d="M258.4,174.2c7.7-4.9,19-6.4,26-.1s7.3,18.8.2,26L178,260.2c9.1-7.4,13.4-17.9,2.8-26.1-6.8-5.3-11.1-7.5-26,.1Z" transform="translate(-148.5 -169.9)"/><path class="cls-22" d="M292.4,187a6.1,6.1,0,0,1,8.3,1.5,6,6,0,0,1-2.2,8.1l-98.2,58.2a1.1,1.1,0,0,1-1.7-.8c-.2-1.1,1.4-3.7.6-5.1s-5-3-7.9-1.2Z" transform="translate(-148.5 -169.9)"/><polygon class="cls-19" points="55.2 93 42.2 93 37.6 93.9 52.1 93.9 55.2 93"/><circle class="cls-23" cx="19.3" cy="76.9" r="13.3"/><path class="cls-24" d="M189,251.9a5.6,5.6,0,0,1,5.9-5.5,5.8,5.8,0,0,1,5.5,5.9l.5,20.5a5.7,5.7,0,1,0-11.3-.4Z" transform="translate(-148.5 -169.9)"/><rect class="cls-16" x="37.7" y="93" width="14.5" height="19.77"/><polygon class="cls-18" points="52.1 113.3 55.2 112.3 55.2 110.8 55.2 92.6 52.1 93.5 52.1 113.3"/><circle class="cls-25" cx="19.3" cy="76" r="13.3"/><ellipse class="cls-26" cx="12" cy="177.2" rx="1.1" ry="16.1"/><ellipse class="cls-27" cx="12" cy="141.3" rx="1.1" ry="16.1"/><path class="cls-28" d="M216,324.7H153.8c4,0,2.4-6.7,2.4-14.1s1.6-12.8-2.4-12.8H216Z" transform="translate(-148.5 -169.9)"/><path class="cls-29" d="M153.1,327.3c-.7,0-1.2-7.2-1.2-16s.5-16.1,1.2-16.1h7.4c-.6,0-1.1,7.2-1.1,16.1s.5,16,1.1,16Z" transform="translate(-148.5 -169.9)"/><path class="cls-30" d="M216,360.6H153.8c4,0,2.4-6.7,2.4-14.2s1.6-12.7-2.4-12.7H216Z" transform="translate(-148.5 -169.9)"/><path class="cls-31" d="M153.1,363.2c-.7,0-1.2-7.2-1.2-16.1s.5-16,1.2-16h7.4c-.6,0-1.1,7.2-1.1,16s.5,16.1,1.1,16.1Z" transform="translate(-148.5 -169.9)"/><rect class="cls-16" x="50.8" y="75.4" width="84" height="116.31" rx="11.1"/><polyline class="cls-32" points="29.9 71.9 55.2 71.9 55.2 200 44.1 200"/><rect class="cls-16" x="41.3" y="128.9" width="49" height="80.73"/><polygon class="cls-18" points="90.3 209.6 101 205.9 101 199.5 101 125.1 90.3 128.9 90.3 209.6"/><polygon class="cls-19" points="101 125.1 56.7 125.1 41.3 128.9 90.3 128.9 101 125.1"/><rect class="cls-19" x="47.6" y="136.2" width="36.5" height="14.07"/><circle class="cls-2" cx="21.7" cy="74.8" r="18.3"/><circle class="cls-3" cx="19.3" cy="76" r="18.3"/><circle class="cls-33" cx="19.6" cy="75.4" r="13.3"/><rect class="cls-16" x="0.3" y="69.6" width="18.8" height="41.35"/><polygon class="cls-18" points="19.1 110.9 23.2 109 23.2 105.8 23.2 67.7 19.1 69.6 19.1 110.9"/><polygon class="cls-19" points="23.2 67.7 6.2 67.7 0.3 69.6 19.1 69.6 23.2 67.7"/><polyline class="cls-34" points="12.1 68.6 12.1 64.7 32 64.7 32 205.2 24.6 205.2"/><polygon class="cls-35" points="40.6 193.6 23.3 193.6 19.5 194.3 36.8 194.3 40.6 193.6"/><polygon class="cls-36" points="36.8 209.6 40.6 208.9 40.6 207.7 40.6 193.6 36.8 194.3 36.8 209.6"/><rect class="cls-37" x="19.5" y="194.3" width="17.3" height="15.3"/></svg>