<svg id="레이어_1" data-name="레이어 1" xmlns="http://www.w3.org/2000/svg" xmlns:xlink="http://www.w3.org/1999/xlink" viewBox="0 0 414.8 170.3"><defs><style>.cls-1{fill:url(#무제_그라디언트_4);}.cls-2{fill:url(#무제_그라디언트_2);}.cls-3{fill:#dcdddd;}</style><linearGradient id="무제_그라디언트_4" x1="280.4" y1="-51.99" x2="286.52" y2="355.5" gradientUnits="userSpaceOnUse"><stop offset="0.33" stop-color="#58bbf4"/><stop offset="0.4" stop-color="#4299cf"/><stop offset="0.54" stop-color="#0b4472"/><stop offset="0.54" stop-color="#0a4371"/></linearGradient><linearGradient id="무제_그라디언트_2" x1="96.36" y1="-85.52" x2="100.68" y2="201.55" gradientUnits="userSpaceOnUse"><stop offset="0.6" stop-color="#58646b"/><stop offset="0.88" stop-color="#333f48"/><stop offset="1" stop-color="#232f39"/></linearGradient></defs><rect class="cls-1" x="163.3" width="238.4" height="170.31"/><rect class="cls-2" x="32.7" width="132.5" height="170.31"/><path class="cls-3" d="M70.8,341.5H69.4a11.8,11.8,0,0,1-11.8-11.8V183a11.8,11.8,0,0,1,11.8-11.8h1.4Z" transform="translate(-38.1 -171.2)"/><path class="cls-3" d="M439.8,171.2h1.3A11.8,11.8,0,0,1,452.9,183V329.7a11.7,11.7,0,0,1-11.8,11.8h-1.3Z" transform="translate(-38.1 -171.2)"/><path class="cls-3" d="M59.2,282.6H49.1c-6.1,0-11-6-11-13.5V242.9c0-7.5,4.9-13.5,11-13.5H59.2" transform="translate(-38.1 -171.2)"/></svg>