<svg id="레이어_1" data-name="레이어 1" xmlns="http://www.w3.org/2000/svg" viewBox="0 0 327.5 394.5"><defs><style>.cls-1{fill:#cac6c6;}.cls-2,.cls-3,.cls-4{fill:none;stroke-miterlimit:10;}.cls-2{stroke:#b1b1b2;}.cls-2,.cls-4{stroke-width:0.5px;}.cls-3,.cls-4{stroke:#8f8f93;}.cls-3{stroke-width:2px;}.cls-5{fill:#a09f9f;}.cls-6{fill:#d8d8d8;}.cls-7{fill:#42d999;opacity:0.3;}.cls-8{fill:#a1a1ae;}.cls-9{fill:#c6c6c6;}</style></defs><rect class="cls-1" y="358.9" width="327.5" height="35.63"/><line class="cls-2" x1="182.3" y1="394.5" x2="182.3" y2="358.9"/><line class="cls-3" x1="92.9" y1="1.4" x2="92.9" y2="14.7"/><line class="cls-4" x1="97.7" y1="1.4" x2="97.7" y2="14.7"/><line class="cls-4" x1="102.4" y1="1.4" x2="102.4" y2="14.7"/><line class="cls-4" x1="107.2" y1="1.4" x2="107.2" y2="14.7"/><line class="cls-4" x1="111.9" y1="1.4" x2="111.9" y2="14.7"/><line class="cls-4" x1="116.6" y1="1.4" x2="116.6" y2="14.7"/><line class="cls-4" x1="121.4" y1="1.4" x2="121.4" y2="14.7"/><line class="cls-4" x1="126.1" y1="1.4" x2="126.1" y2="14.7"/><line class="cls-4" x1="130.9" y1="1.4" x2="130.9" y2="14.7"/><line class="cls-4" x1="135.6" y1="1.4" x2="135.6" y2="14.7"/><line class="cls-4" x1="140.3" y1="1.4" x2="140.3" y2="14.7"/><line class="cls-4" x1="145.1" y1="1.4" x2="145.1" y2="14.7"/><line class="cls-4" x1="149.8" y1="1.4" x2="149.8" y2="14.7"/><line class="cls-4" x1="154.5" y1="1.4" x2="154.5" y2="14.7"/><line class="cls-4" x1="159.3" y1="1.4" x2="159.3" y2="14.7"/><line class="cls-4" x1="164" y1="1.4" x2="164" y2="14.7"/><line class="cls-4" x1="168.8" y1="1.4" x2="168.8" y2="14.7"/><line class="cls-4" x1="173.5" y1="1.4" x2="173.5" y2="14.7"/><line class="cls-4" x1="178.2" y1="1.4" x2="178.2" y2="14.7"/><line class="cls-4" x1="183" y1="1.4" x2="183" y2="14.7"/><line class="cls-4" x1="187.7" y1="1.4" x2="187.7" y2="14.7"/><line class="cls-4" x1="192.5" y1="1.4" x2="192.5" y2="14.7"/><line class="cls-4" x1="197.2" y1="1.4" x2="197.2" y2="14.7"/><line class="cls-4" x1="201.9" y1="1.4" x2="201.9" y2="14.7"/><line class="cls-4" x1="206.7" y1="1.4" x2="206.7" y2="14.7"/><line class="cls-4" x1="211.4" y1="1.4" x2="211.4" y2="14.7"/><line class="cls-4" x1="216.2" y1="1.4" x2="216.2" y2="14.7"/><line class="cls-4" x1="220.9" y1="1.4" x2="220.9" y2="14.7"/><line class="cls-4" x1="225.6" y1="1.4" x2="225.6" y2="14.7"/><line class="cls-4" x1="230.4" y1="1.4" x2="230.4" y2="14.7"/><line class="cls-4" x1="235.1" y1="1.4" x2="235.1" y2="14.7"/><line class="cls-3" x1="239.9" y1="1.4" x2="239.9" y2="14.7"/><line class="cls-3" x1="91.9" y1="1" x2="240.9" y2="1"/><rect class="cls-5" y="12.7" width="327.5" height="346.2"/><rect class="cls-6" y="8.9" width="327.5" height="346.2"/><line class="cls-2" x1="182.3" y1="12.7" x2="182.3" y2="358.9"/><rect class="cls-7" x="214.5" y="41.1" width="82.1" height="49.76"/><rect class="cls-8" x="188" y="168.4" width="10.9" height="57.82"/><rect class="cls-8" x="165.7" y="168.4" width="10.9" height="57.82"/><rect class="cls-9" x="17.4" y="39.1" width="138.4" height="138.39"/><line class="cls-4" x1="17.4" y1="39.2" x2="17.4" y2="177.6"/><line class="cls-4" x1="23.5" y1="39" x2="23.5" y2="177.3"/><line class="cls-4" x1="30.2" y1="39" x2="30.2" y2="177.3"/><line class="cls-4" x1="36.8" y1="39" x2="36.8" y2="177.3"/><line class="cls-4" x1="43.4" y1="39" x2="43.4" y2="177.3"/><line class="cls-4" x1="50.1" y1="39" x2="50.1" y2="177.3"/><line class="cls-4" x1="56.7" y1="39" x2="56.7" y2="177.3"/><line class="cls-4" x1="63.3" y1="39" x2="63.3" y2="177.3"/><line class="cls-4" x1="70" y1="39" x2="70" y2="177.3"/><line class="cls-4" x1="76.6" y1="39" x2="76.6" y2="177.3"/><line class="cls-4" x1="83.3" y1="39" x2="83.3" y2="177.3"/><line class="cls-4" x1="89.9" y1="39" x2="89.9" y2="177.3"/><line class="cls-4" x1="96.5" y1="39" x2="96.5" y2="177.3"/><line class="cls-4" x1="103.2" y1="39" x2="103.2" y2="177.3"/><line class="cls-4" x1="109.8" y1="39" x2="109.8" y2="177.3"/><line class="cls-4" x1="116.4" y1="39" x2="116.4" y2="177.3"/><line class="cls-4" x1="123.1" y1="39" x2="123.1" y2="177.3"/><line class="cls-4" x1="129.7" y1="39" x2="129.7" y2="177.3"/><line class="cls-4" x1="136.3" y1="39" x2="136.3" y2="177.3"/><line class="cls-4" x1="143" y1="39" x2="143" y2="177.3"/><line class="cls-4" x1="149.6" y1="39" x2="149.6" y2="177.3"/><line class="cls-4" x1="155.8" y1="39.2" x2="155.8" y2="177.6"/><line class="cls-4" x1="17.5" y1="177.3" x2="155.9" y2="177.3"/><line class="cls-4" x1="17.4" y1="171.7" x2="155.8" y2="171.7"/><line class="cls-4" x1="17.4" y1="165" x2="155.8" y2="165"/><line class="cls-4" x1="17.4" y1="158.4" x2="155.8" y2="158.4"/><line class="cls-4" x1="17.4" y1="151.8" x2="155.8" y2="151.8"/><line class="cls-4" x1="17.4" y1="145.1" x2="155.8" y2="145.1"/><line class="cls-4" x1="17.4" y1="138.5" x2="155.8" y2="138.5"/><line class="cls-4" x1="17.4" y1="131.9" x2="155.8" y2="131.9"/><line class="cls-4" x1="17.4" y1="125.2" x2="155.8" y2="125.2"/><line class="cls-4" x1="17.4" y1="118.6" x2="155.8" y2="118.6"/><line class="cls-4" x1="17.4" y1="111.9" x2="155.8" y2="111.9"/><line class="cls-4" x1="17.4" y1="105.3" x2="155.8" y2="105.3"/><line class="cls-4" x1="17.4" y1="98.7" x2="155.8" y2="98.7"/><line class="cls-4" x1="17.4" y1="92" x2="155.8" y2="92"/><line class="cls-4" x1="17.4" y1="85.4" x2="155.8" y2="85.4"/><line class="cls-4" x1="17.4" y1="78.8" x2="155.8" y2="78.8"/><line class="cls-4" x1="17.4" y1="72.1" x2="155.8" y2="72.1"/><line class="cls-4" x1="17.4" y1="65.5" x2="155.8" y2="65.5"/><line class="cls-4" x1="17.4" y1="58.9" x2="155.8" y2="58.9"/><line class="cls-4" x1="17.4" y1="52.2" x2="155.8" y2="52.2"/><line class="cls-4" x1="17.4" y1="45.6" x2="155.8" y2="45.6"/><line class="cls-4" x1="17.1" y1="39.2" x2="156" y2="39.2"/><rect class="cls-9" x="17.6" y="192" width="138.4" height="138.39"/><line class="cls-4" x1="17.4" y1="192.1" x2="17.4" y2="330.5"/><line class="cls-4" x1="23.5" y1="191.9" x2="23.5" y2="330.3"/><line class="cls-4" x1="30.2" y1="191.9" x2="30.2" y2="330.3"/><line class="cls-4" x1="36.8" y1="191.9" x2="36.8" y2="330.3"/><line class="cls-4" x1="43.4" y1="191.9" x2="43.4" y2="330.3"/><line class="cls-4" x1="50.1" y1="191.9" x2="50.1" y2="330.3"/><line class="cls-4" x1="56.7" y1="191.9" x2="56.7" y2="330.3"/><line class="cls-4" x1="63.3" y1="191.9" x2="63.3" y2="330.3"/><line class="cls-4" x1="70" y1="191.9" x2="70" y2="330.3"/><line class="cls-4" x1="76.6" y1="191.9" x2="76.6" y2="330.3"/><line class="cls-4" x1="83.3" y1="191.9" x2="83.3" y2="330.3"/><line class="cls-4" x1="89.9" y1="191.9" x2="89.9" y2="330.3"/><line class="cls-4" x1="96.5" y1="191.9" x2="96.5" y2="330.3"/><line class="cls-4" x1="103.2" y1="191.9" x2="103.2" y2="330.3"/><line class="cls-4" x1="109.8" y1="191.9" x2="109.8" y2="330.3"/><line class="cls-4" x1="116.4" y1="191.9" x2="116.4" y2="330.3"/><line class="cls-4" x1="123.1" y1="191.9" x2="123.1" y2="330.3"/><line class="cls-4" x1="129.7" y1="191.9" x2="129.7" y2="330.3"/><line class="cls-4" x1="136.3" y1="191.9" x2="136.3" y2="330.3"/><line class="cls-4" x1="143" y1="191.9" x2="143" y2="330.3"/><line class="cls-4" x1="149.6" y1="191.9" x2="149.6" y2="330.3"/><line class="cls-4" x1="155.8" y1="192.1" x2="155.8" y2="330.5"/><line class="cls-4" x1="17.5" y1="330.3" x2="155.9" y2="330.3"/><line class="cls-4" x1="17.4" y1="324.6" x2="155.8" y2="324.6"/><line class="cls-4" x1="17.4" y1="318" x2="155.8" y2="318"/><line class="cls-4" x1="17.4" y1="311.3" x2="155.8" y2="311.3"/><line class="cls-4" x1="17.4" y1="304.7" x2="155.8" y2="304.7"/><line class="cls-4" x1="17.4" y1="298.1" x2="155.8" y2="298.1"/><line class="cls-4" x1="17.4" y1="291.4" x2="155.8" y2="291.4"/><line class="cls-4" x1="17.4" y1="284.8" x2="155.8" y2="284.8"/><line class="cls-4" x1="17.4" y1="278.2" x2="155.8" y2="278.2"/><line class="cls-4" x1="17.4" y1="271.5" x2="155.8" y2="271.5"/><line class="cls-4" x1="17.4" y1="264.9" x2="155.8" y2="264.9"/><line class="cls-4" x1="17.4" y1="258.3" x2="155.8" y2="258.3"/><line class="cls-4" x1="17.4" y1="251.6" x2="155.8" y2="251.6"/><line class="cls-4" x1="17.4" y1="245" x2="155.8" y2="245"/><line class="cls-4" x1="17.4" y1="238.4" x2="155.8" y2="238.4"/><line class="cls-4" x1="17.4" y1="231.7" x2="155.8" y2="231.7"/><line class="cls-4" x1="17.4" y1="225.1" x2="155.8" y2="225.1"/><line class="cls-4" x1="17.4" y1="218.4" x2="155.8" y2="218.4"/><line class="cls-4" x1="17.4" y1="211.8" x2="155.8" y2="211.8"/><line class="cls-4" x1="17.4" y1="205.2" x2="155.8" y2="205.2"/><line class="cls-4" x1="17.4" y1="198.5" x2="155.8" y2="198.5"/><line class="cls-4" x1="17.1" y1="192.1" x2="156" y2="192.1"/><line class="cls-4" x1="193.7" y1="251.8" x2="193.7" y2="329.4"/><line class="cls-4" x1="199.2" y1="251.6" x2="199.2" y2="329.3"/><line class="cls-4" x1="205.1" y1="251.6" x2="205.1" y2="329.3"/><line class="cls-4" x1="211.1" y1="251.6" x2="211.1" y2="329.3"/><line class="cls-4" x1="217" y1="251.6" x2="217" y2="329.3"/><line class="cls-4" x1="222.9" y1="251.6" x2="222.9" y2="329.3"/><line class="cls-4" x1="228.9" y1="251.6" x2="228.9" y2="329.3"/><line class="cls-4" x1="234.8" y1="251.6" x2="234.8" y2="329.3"/><line class="cls-4" x1="240.7" y1="251.6" x2="240.7" y2="329.3"/><line class="cls-4" x1="246.7" y1="251.6" x2="246.7" y2="329.3"/><line class="cls-4" x1="252.6" y1="251.6" x2="252.6" y2="329.3"/><line class="cls-4" x1="258.5" y1="251.6" x2="258.5" y2="329.3"/><line class="cls-4" x1="264.4" y1="251.6" x2="264.4" y2="329.3"/><line class="cls-4" x1="270.4" y1="251.6" x2="270.4" y2="329.3"/><line class="cls-4" x1="276.3" y1="251.6" x2="276.3" y2="329.3"/><line class="cls-4" x1="282.2" y1="251.6" x2="282.2" y2="329.3"/><line class="cls-4" x1="288.2" y1="251.6" x2="288.2" y2="329.3"/><line class="cls-4" x1="294.1" y1="251.6" x2="294.1" y2="329.3"/><line class="cls-4" x1="300" y1="251.6" x2="300" y2="329.3"/><line class="cls-4" x1="306" y1="251.6" x2="306" y2="329.3"/><line class="cls-4" x1="311.9" y1="251.6" x2="311.9" y2="329.3"/><line class="cls-4" x1="317.4" y1="251.8" x2="317.4" y2="329.4"/><line class="cls-4" x1="193.8" y1="329.3" x2="317.5" y2="329.3"/><line class="cls-4" x1="193.7" y1="326.1" x2="317.4" y2="326.1"/><line class="cls-4" x1="193.7" y1="322.3" x2="317.4" y2="322.3"/><line class="cls-4" x1="193.7" y1="318.6" x2="317.4" y2="318.6"/><line class="cls-4" x1="193.7" y1="314.9" x2="317.4" y2="314.9"/><line class="cls-4" x1="193.7" y1="311.2" x2="317.4" y2="311.2"/><line class="cls-4" x1="193.7" y1="307.5" x2="317.4" y2="307.5"/><line class="cls-4" x1="193.7" y1="303.7" x2="317.4" y2="303.7"/><line class="cls-4" x1="193.7" y1="300" x2="317.4" y2="300"/><line class="cls-4" x1="193.7" y1="296.3" x2="317.4" y2="296.3"/><line class="cls-4" x1="193.7" y1="292.6" x2="317.4" y2="292.6"/><line class="cls-4" x1="193.7" y1="288.8" x2="317.4" y2="288.8"/><line class="cls-4" x1="193.7" y1="285.1" x2="317.4" y2="285.1"/><line class="cls-4" x1="193.7" y1="281.4" x2="317.4" y2="281.4"/><line class="cls-4" x1="193.7" y1="277.7" x2="317.4" y2="277.7"/><line class="cls-4" x1="193.7" y1="274" x2="317.4" y2="274"/><line class="cls-4" x1="193.7" y1="270.2" x2="317.4" y2="270.2"/><line class="cls-4" x1="193.7" y1="266.5" x2="317.4" y2="266.5"/><line class="cls-4" x1="193.7" y1="262.8" x2="317.4" y2="262.8"/><line class="cls-4" x1="193.7" y1="259.1" x2="317.4" y2="259.1"/><line class="cls-4" x1="193.7" y1="255.3" x2="317.4" y2="255.3"/><line class="cls-4" x1="193.5" y1="251.8" x2="317.6" y2="251.8"/></svg>