<svg id="레이어_1" data-name="레이어 1" xmlns="http://www.w3.org/2000/svg" xmlns:xlink="http://www.w3.org/1999/xlink" viewBox="0 0 247.3 323.5"><defs><style>.cls-1{fill:#c9c6c5;}.cls-2{fill:url(#무제_그라디언트_27);}.cls-3{fill:url(#무제_그라디언트_27-2);}.cls-4{fill:#d6d6d6;}.cls-5{opacity:0.7;fill:url(#무제_그라디언트_29);}.cls-6{fill:#d6d4d4;}.cls-7{fill:#cccaca;}.cls-8{fill:url(#무제_그라디언트_27-3);}.cls-10,.cls-9{fill:none;stroke-miterlimit:10;}.cls-9{stroke:#e0e0e0;}.cls-10{stroke:#e5e3e3;stroke-width:2px;}.cls-11{fill:url(#무제_그라디언트_48);}</style><linearGradient id="무제_그라디언트_27" x1="131.95" y1="276.94" x2="336.24" y2="276.94" gradientUnits="userSpaceOnUse"><stop offset="0.35" stop-color="#efefef"/><stop offset="0.76" stop-color="#dcdddd"/></linearGradient><linearGradient id="무제_그라디언트_27-2" x1="0" y1="63.27" x2="204.29" y2="63.27" xlink:href="#무제_그라디언트_27"/><linearGradient id="무제_그라디언트_29" x1="41.52" y1="22.27" x2="164.99" y2="22.27" gradientUnits="userSpaceOnUse"><stop offset="0.35" stop-color="#dcdddd"/><stop offset="0.76" stop-color="#c9caca"/></linearGradient><linearGradient id="무제_그라디언트_27-3" x1="131.95" y1="187.73" x2="336.24" y2="187.73" xlink:href="#무제_그라디언트_27"/><linearGradient id="무제_그라디언트_48" x1="234.09" y1="400.08" x2="234.09" y2="363" gradientUnits="userSpaceOnUse"><stop offset="0.32" stop-color="#c9caca"/><stop offset="0.76" stop-color="#dcdddd"/></linearGradient></defs><polygon class="cls-1" points="247.3 92.9 247.3 240.7 198.7 240.7 198.7 230.1 236.6 230.1 236.6 103 198.7 103 198.7 92.9 247.3 92.9"/><path class="cls-2" d="M336.2,362.9c0,4.7-45.7,8.5-102.1,8.5s-102.2-3.8-102.2-8.5V182.5c0,4.7,45.8,8.4,102.2,8.4s102.1-3.7,102.1-8.4Z" transform="translate(-131.9 -93.9)"/><polygon class="cls-3" points="41.5 37.9 0 88.6 204.3 88.6 165 37.9 41.5 37.9"/><polygon class="cls-4" points="62.2 323.3 27.6 323.5 27.6 282.1 62.2 281.9 62.2 323.3"/><polygon class="cls-4" points="175.1 323.3 140.5 323.5 140.5 282.1 175.1 281.9 175.1 323.3"/><rect class="cls-5" x="41.5" y="6.6" width="123.5" height="31.28"/><polygon class="cls-6" points="169.3 8.5 74.3 8.5 37.2 8.5 37.2 0 169.3 0 169.3 8.5"/><rect class="cls-7" y="238.9" width="204.3" height="3.32"/><rect class="cls-7" y="248.5" width="204.3" height="3.32"/><rect class="cls-7" y="258.1" width="204.3" height="3.32"/><path class="cls-8" d="M336.2,182.5c0,5.8-45.7,10.5-102.1,10.5s-102.2-4.7-102.2-10.5Z" transform="translate(-131.9 -93.9)"/><line class="cls-9" y1="89.2" x2="204.3" y2="89.2"/><polyline class="cls-10" points="76.4 8.5 76.4 38.5 48.1 90.2 48.1 273.7"/><path class="cls-10" d="M261.5,102.4V132c12.3,20.5,25.4,42.1,28.3,51V364.2" transform="translate(-131.9 -93.9)"/><path class="cls-11" d="M336.2,363c0,20.5-45.7,37.1-102.1,37.1S131.9,383.5,131.9,363Z" transform="translate(-131.9 -93.9)"/></svg>