<svg id="레이어_1" data-name="레이어 1" xmlns="http://www.w3.org/2000/svg" viewBox="0 0 486.5 486.5"><defs><style>.cls-1{fill:none;stroke-width:25px;}.cls-1,.cls-2{stroke:#25d087;stroke-miterlimit:10;}.cls-2{fill:#25d087;stroke-width:5px;}</style></defs><circle class="cls-1" cx="243.2" cy="243.2" r="230.7"/><path class="cls-1" d="M217.3,298.1a76.5,76.5,0,1,1,76.5-76.5" transform="translate(-7.3 -7.3)"/><path class="cls-2" d="M326.6,221.8c2.6,1.1,3.4,3,3.3,5.7-.1,4.3,0,8.7,0,13,.8.3,1.4-.4,1.9-.7l14.7-8.4c3.6-2,5.6-1.4,7.6,2.1l3,5.3c1.8,3.2,1.2,5.2-1.9,7.1l-23.6,13.4a3,3,0,0,0-1.8,3.1c.1,4.9.1,9.8.1,14.7.8.2,1.1-.4,1.6-.7L348,265c2.1-1.4,3.9-1.4,5.5-.2a4.5,4.5,0,0,1,1.6,3.8v23.1c0,1.6.3,1.8,1.7,1q4.8-3,9.9-5.7a2.3,2.3,0,0,0,1.4-2.4c-.1-9-.1-18-.1-27,0-4.1,1.4-5.5,5.4-5.6h6.1c3.8,0,5.4,1.5,5.4,5.4v18.7c.8.3,1.2-.3,1.7-.5l15.8-9.1c3.5-2,5.5-1.5,7.5,2l3.2,5.5c1.7,3,1.1,5.1-1.9,6.9L393.5,291a20.1,20.1,0,0,0,4.1,2.6l12.5,7.3c3.2,1.9,3.7,3.9,1.9,7.1s-2.1,3.7-3.3,5.6-3.9,3.7-7,1.8l-23.6-13.7a2.7,2.7,0,0,0-3.2,0c-3.3,2-6.7,3.8-10.3,5.8l24.2,10.7,1.3.5a4.3,4.3,0,0,1,2.9,4.1,4.4,4.4,0,0,1-3,4L367,337l-2,.9,11,9.8c.8.7,1.3,0,1.9-.4L401,333.9c3.8-2.2,5.7-1.7,7.9,2.1l2.9,4.9c1.9,3.4,1.4,5.5-1.9,7.4l-16.2,9.3c.1.8.8.9,1.3,1.1l16,9.3c3.3,1.9,3.8,3.9,2,7.2l-3.3,5.6c-1.8,3-3.9,3.6-6.9,1.9l-15.9-9.1-1.7-1c-.6.6-.4,1.4-.4,2,0,5.8,0,11.5-.1,17.2,0,3.9-1.5,5.3-5.4,5.3h-6.1c-3.8-.1-5.2-1.5-5.2-5.3,0-9.1,0-18.3.1-27.4a3.6,3.6,0,0,0-1.3-2.9c-3.5-2.9-6.9-6-10.4-9.1-.3-.2-.5-.7-1.3-.6v24.7c0,1.9-.4,3.6-2.2,4.5s-3.5.5-5.2-.6l-16.2-11.2-1.2-.8c-.7.4-.4,1-.4,1.5,0,4.5,0,9.1-.1,13.6a2.5,2.5,0,0,0,1.5,2.5l23.3,13.4c4,2.2,4.4,4,2.1,8l-2.6,4.6c-2,3.6-4,4.2-7.6,2.1l-14.6-8.4c-2-1.2-2-1.2-2,1v11.9c-.1,3.6-1.6,5.1-5.2,5.2h-6.5c-3.5-.1-5.1-1.6-5.1-5V404.7l-2.6,1.4-14.3,8.2c-3.2,1.8-5.3,1.2-7.2-2s-2.2-3.8-3.2-5.7-1.1-5.1,1.9-6.9l23.8-13.5a2.8,2.8,0,0,0,1.6-2.9c-.1-5,0-9.9,0-14.9-.9-.2-1.3.5-1.8.9l-16.4,11.3c-2.8,1.9-5.9,1-6.8-1.8a10.6,10.6,0,0,1-.2-2.5c0-7.5-.1-15,0-22.5,0-1.5-.3-1.7-1.6-1-3.3,2-6.7,3.9-10.1,5.8a2.1,2.1,0,0,0-1.3,2.2v27.3c0,4-1.4,5.4-5.4,5.4h-6.4c-3.4-.1-5-1.6-5-5.1-.1-5.7,0-11.5-.1-17.2V369l-3.7,2.2-13.8,7.9c-3.4,1.9-5.4,1.4-7.4-2-1.1-1.8-2.2-3.7-3.2-5.6s-1.1-5.1,1.8-6.8l17.6-10.1c-.1-.7-.8-.8-1.3-1.1l-14.9-8.7c-3.5-2-4-4-2-7.5,1-1.7,2-3.5,3.1-5.2,1.9-3.3,3.9-3.8,7.1-2L265,343.9a2.4,2.4,0,0,0,3,0l10.3-5.9-17.6-7.7-7.7-3.5a4.2,4.2,0,0,1-3-3.9c0-2.2,1.2-3.4,3-4.2l23-10.2,1.9-.9-10.7-9.5c-.8-.8-1.3-.4-2,0-7.7,4.5-15.4,9-23.2,13.4-3.9,2.3-5.7,1.8-8-2l-2.7-4.6c-2.1-3.7-1.6-5.6,2-7.8l16-9.2c-.3-.8-1-.9-1.6-1.2l-15.6-9.1c-3.4-1.9-4-4-2.1-7.3l3.1-5.3c2-3.3,4-3.9,7.3-2l15.7,9,1.8,1a19.8,19.8,0,0,0,.3-4.2c0-5,0-10.1.1-15.1s1.5-5.2,5.2-5.3h6.2c3.9,0,5.3,1.4,5.3,5.3,0,9.2,0,18.3-.1,27.4a3,3,0,0,0,1.2,2.7l11.4,10c.6-.5.3-1.2.3-1.7.1-7.8.1-15.5,0-23.3,0-1.9.5-3.5,2.3-4.4a4.6,4.6,0,0,1,5,.6l1.2.8,14.9,10.2c.5.4.9,1,1.9,1,0-4.5-.2-8.9.1-13.4.1-2.5-.7-3.8-2.9-5-7.5-4.1-14.8-8.4-22.2-12.7-3.6-2-4.1-4-2-7.6.9-1.7,1.9-3.4,2.9-5.1,1.9-3.3,4-3.9,7.3-1.9l14.9,8.5a2.7,2.7,0,0,0,1.9.7c0-4.2.1-8.5,0-12.7s.5-4.8,2.9-6.1Z" transform="translate(-7.3 -7.3)"/><path class="cls-1" d="M213.5,113.7c-.4,0-.7-.6-.7-1.3V77.8c0-.7.3-1.2.7-1.2s.6.5.6,1.2v34.6C214.1,113.1,213.8,113.7,213.5,113.7Z" transform="translate(-7.3 -7.3)"/><path class="cls-1" d="M290.9,142.6c-.3-.2,0-.8.5-1.3l24.4-24.5c.5-.5,1.1-.7,1.3-.4s0,.8-.5,1.3l-24.4,24.4C291.7,142.6,291.1,142.8,290.9,142.6Z" transform="translate(-7.3 -7.3)"/><path class="cls-1" d="M138.3,148c-.3.2-.9,0-1.4-.5l-24.4-24.4c-.5-.5-.7-1.1-.5-1.4s.9,0,1.4.5l24.4,24.4C138.3,147.1,138.5,147.7,138.3,148Z" transform="translate(-7.3 -7.3)"/><path class="cls-1" d="M109.3,225.4c0,.3-.5.6-1.2.6H73.5c-.7,0-1.3-.3-1.3-.6s.6-.6,1.3-.6h34.6C108.8,224.8,109.3,225.1,109.3,225.4Z" transform="translate(-7.3 -7.3)"/><path class="cls-1" d="M143.6,300.6c.3.2.1.8-.4,1.3l-24.5,24.5c-.5.5-1.1.7-1.3.4s0-.8.5-1.3l24.4-24.4C142.8,300.6,143.4,300.4,143.6,300.6Z" transform="translate(-7.3 -7.3)"/></svg>