<svg id="레이어_1" data-name="레이어 1" xmlns="http://www.w3.org/2000/svg" viewBox="0 0 486.5 486.5"><defs><style>.cls-1,.cls-2{fill:none;stroke:#25d087;stroke-miterlimit:10;}.cls-1{stroke-width:25px;}.cls-2{stroke-width:20px;}.cls-3{fill:#25d087;}</style></defs><path class="cls-1" d="M257.3,27c127.5,0,230.8,103.3,230.8,230.7S384.8,488.4,257.3,488.4" transform="translate(-14.1 -14.5)"/><path class="cls-1" d="M26.6,257.7C26.6,130.3,129.9,27,257.3,27" transform="translate(-14.1 -14.5)"/><path class="cls-1" d="M257.3,488.4c-127.4,0-230.7-103.3-230.7-230.7" transform="translate(-14.1 -14.5)"/><rect class="cls-1" x="127.3" y="92.8" width="231.8" height="300.91" rx="12.3"/><line class="cls-1" x1="243.2" y1="92.8" x2="243.2" y2="393.7"/><line class="cls-2" x1="185" y1="310.9" x2="185" y2="199.1"/><polygon class="cls-3" points="205.8 209.5 164.3 209.5 185 188.7 205.8 209.5"/><line class="cls-2" x1="301.9" y1="182.7" x2="301.9" y2="294.5"/><polygon class="cls-3" points="281.1 286.1 322.6 286.1 301.9 306.9 281.1 286.1"/></svg>