<svg id="레이어_1" data-name="레이어 1" xmlns="http://www.w3.org/2000/svg" viewBox="0 0 486.5 486.5"><defs><style>.cls-1{fill:none;stroke:#25d087;stroke-miterlimit:10;stroke-width:25px;}.cls-2{fill:#25d087;}</style></defs><path class="cls-1" d="M255.6,25.7c127.5,0,230.8,103.3,230.8,230.7S383.1,487.1,255.6,487.1" transform="translate(-12.4 -13.2)"/><path class="cls-1" d="M255.6,487.1c-127.4,0-230.7-103.3-230.7-230.7S128.2,25.7,255.6,25.7" transform="translate(-12.4 -13.2)"/><path class="cls-2" d="M302.8,80.3c5.1,1.6,10,3.4,13.8,7.5s6.6,11.5,6.6,18.5q0,40.8-.1,81.5c0,2.7.6,3.6,3.4,3.4s6.4-.1,9.6-.1c8.5.2,14.3,5.5,14.3,13.9.1,28.3.7,56.6-.3,84.9-.4,11.7-5.7,21.9-14,30.1s-14.8,15.6-19.9,25.2a88.2,88.2,0,0,0-10.3,42.6c0,8.2.1,16.5,0,24.7-.1,12.5-7.6,19.9-20,19.9H224.7c-12.3,0-19.8-7.4-20-19.9-.1-10.4.2-20.8-.3-31.2-1-21.4-9.1-39.8-23.9-55.1-6.7-7-13.5-13.7-17-23a55.7,55.7,0,0,1-3.3-19.8V207.1c0-10.7,5.3-16,16.1-16,2.8,0,5.7-.1,8.6.1s2.6-.6,2.6-2.7c-.1-11.6,0-23.1,0-34.7,0-15.6.2-31.2-.1-46.8s8.4-24.3,19.4-26.2c.2,0,.3-.3.4-.5h7.6c5,1.6,10,3.4,13.7,7.5s6.7,11.8,6.7,18.9c-.1,27,0,54-.1,81,0,3,.8,3.5,3.6,3.5q16.7-.3,33.3,0c2.7,0,3.6-.5,3.6-3.5-.2-27-.1-54-.1-81,0-7.1,1.6-13.6,6.6-18.9s8.4-5.6,13.1-7.5Z" transform="translate(-12.4 -13.2)"/></svg>