<svg id="레이어_1" data-name="레이어 1" xmlns="http://www.w3.org/2000/svg" viewBox="0 0 486.5 486.5"><defs><style>.cls-1{fill:none;stroke-width:25px;}.cls-1,.cls-2,.cls-3,.cls-4{stroke:#25d087;stroke-miterlimit:10;}.cls-2,.cls-3,.cls-4{fill:#25d087;stroke-width:5px;}.cls-3{font-size:207.29px;}.cls-3,.cls-4{font-family:ChalkboardSE-Regular, Chalkboard SE;}.cls-4{font-size:200px;}</style></defs><circle class="cls-1" cx="243.2" cy="243.2" r="230.7"/><path class="cls-2" d="M181.1,330.9c0-38.1,29.5-59.9,64.1-59.9,18.3,0,32.3,7.2,41.7,16.4L275.8,302c-9.2-7.5-18.6-11.9-29.6-11.9-24.5,0-41.3,16.3-41.3,40.8s16.6,40.5,40.6,40.5c13.5,0,24.8-6.1,33.8-13.4l10,14.9a69.6,69.6,0,0,1-45.6,17.5C208,390.4,181.1,368.6,181.1,330.9Z" transform="translate(-14.1 -14.5)"/><text class="cls-3" transform="translate(243.2 353.6)">T</text><text class="cls-4" transform="translate(124.8 241.5) scale(1.12 1)">E</text></svg>