<svg id="레이어_1" data-name="레이어 1" xmlns="http://www.w3.org/2000/svg" viewBox="0 0 486.5 486.5"><defs><style>.cls-1,.cls-2{fill:none;stroke:#25d087;stroke-miterlimit:10;}.cls-1{stroke-width:25px;}.cls-2{stroke-width:40px;}.cls-3{fill:#25d087;}</style></defs><circle class="cls-1" cx="243.2" cy="243.2" r="230.7"/><circle class="cls-2" cx="243.2" cy="243.2" r="138.9"/><polygon class="cls-3" points="192 426.1 137.6 426.1 188.8 375.4 246.4 375.4 192 426.1"/><polygon class="cls-3" points="289.7 426.1 344.1 426.1 292.9 375.4 235.3 375.4 289.7 426.1"/><circle class="cls-3" cx="243.2" cy="243.2" r="41.8"/><path class="cls-3" d="M260.7,163.9c13.7,16.6,4.4,33.2,4.4,33.2s-25,18.4-36.3-5.2c-3.4-7.1-12.6-44.6-17.1-51.5S248.1,148.6,260.7,163.9Z" transform="translate(-7.1 -7)"/><path class="cls-3" d="M196.6,181.9c21.4,2,26.6,20.4,26.6,20.4s-4.7,30.6-29.3,21.9c-7.5-2.6-40.5-22.6-48.6-24.3S176.8,180,196.6,181.9Z" transform="translate(-7.1 -7)"/><path class="cls-3" d="M164,240c16.6-13.8,33.2-4.5,33.2-4.5s18.4,25-5.2,36.3c-7.2,3.4-44.6,12.6-51.5,17.1S148.7,252.6,164,240Z" transform="translate(-7.1 -7)"/><path class="cls-3" d="M182,304.1c2-21.5,20.4-26.7,20.4-26.7s30.6,4.7,21.9,29.3c-2.6,7.5-22.6,40.5-24.3,48.6S180.1,323.8,182,304.1Z" transform="translate(-7.1 -7)"/><path class="cls-3" d="M240,336.7c-13.7-16.6-4.4-33.3-4.4-33.3s25-18.3,36.3,5.2c3.4,7.2,12.6,44.6,17.1,51.6S252.7,351.9,240,336.7Z" transform="translate(-7.1 -7)"/><path class="cls-3" d="M304.2,318.7c-21.5-2.1-26.7-20.4-26.7-20.4s4.7-30.7,29.3-22c7.5,2.7,40.5,22.6,48.6,24.3S323.9,320.5,304.2,318.7Z" transform="translate(-7.1 -7)"/><path class="cls-3" d="M336.8,260.6c-16.6,13.7-33.3,4.4-33.3,4.4s-18.3-25,5.2-36.2c7.2-3.5,44.6-12.7,51.5-17.2S352,248,336.8,260.6Z" transform="translate(-7.1 -7)"/><path class="cls-3" d="M318.8,196.5c-2.1,21.4-20.4,26.6-20.4,26.6s-30.7-4.7-22-29.3c2.6-7.5,22.6-40.5,24.3-48.6S320.6,176.8,318.8,196.5Z" transform="translate(-7.1 -7)"/></svg>