<svg id="레이어_1" data-name="레이어 1" xmlns="http://www.w3.org/2000/svg" viewBox="0 0 199.6 390.7"><defs><style>.cls-1{fill:#9ef69e;stroke:lime;}.cls-1,.cls-2,.cls-3,.cls-4{stroke-miterlimit:10;}.cls-2{fill:lime;stroke:#000;}.cls-3,.cls-4{fill:none;}.cls-3{stroke:#077507;}.cls-4{stroke:#002800;}.cls-5{fill:#fff;}.cls-6{fill:#9fffa9;}</style></defs><rect class="cls-1" x="90" y="104.4" width="21.2" height="264.18"/><rect class="cls-2" x="72.1" y="89.4" width="57" height="21.79"/><path class="cls-2" d="M284.4,52.3v81.4h-68V52.3a18.5,18.5,0,0,1,18.5-18.5h31A18.5,18.5,0,0,1,284.4,52.3Z" transform="translate(-149.8 -33.3)"/><polygon class="cls-2" points="100.6 368.6 121 347.8 121 389.4 100.6 368.6"/><polygon class="cls-2" points="99.1 368.6 185.6 388.1 199.1 388.1 199.1 349.1 185.6 349.1 99.1 368.6"/><polygon class="cls-2" points="99.1 368.6 13.9 388.1 0.5 388.1 0.5 349.1 13.9 349.1 99.1 368.6"/><rect x="76.1" y="34.6" width="48.8" height="65.75"/><line class="cls-3" x1="100.6" y1="34.6" x2="100.6" y2="98.7"/><line class="cls-4" x1="86.7" y1="34.6" x2="86.7" y2="98.7"/><line class="cls-4" x1="113.9" y1="34.6" x2="113.9" y2="98.7"/><rect class="cls-5" x="72.6" y="63.5" width="34" height="34.05"/><rect class="cls-6" x="70.4" y="65.8" width="34" height="34.05"/><polygon class="cls-2" points="100.6 368.6 80.1 347.8 80.1 389.4 100.6 368.6"/></svg>