<svg id="레이어_1" data-name="레이어 1" xmlns="http://www.w3.org/2000/svg" xmlns:xlink="http://www.w3.org/1999/xlink" viewBox="0 0 300.4 356.4"><defs><style>.cls-1,.cls-2,.cls-3,.cls-9{stroke:#999;}.cls-1,.cls-2,.cls-3,.cls-4,.cls-9{stroke-miterlimit:10;}.cls-1{fill:url(#무제_그라디언트_9);}.cls-2{fill:url(#무제_그라디언트_9-2);}.cls-3{fill:url(#무제_그라디언트_5);}.cls-4{fill:#fff;stroke:#000;}.cls-5{fill:#4fa569;}.cls-6{fill:#2c8640;}.cls-7{fill:#15793d;}.cls-8{opacity:0.7;fill:url(#무제_그라디언트_11);}.cls-9{fill:#b9bec3;}</style><linearGradient id="무제_그라디언트_9" x1="181.35" y1="424.08" x2="107.59" y2="373.4" gradientUnits="userSpaceOnUse"><stop offset="0" stop-color="#f2f2f2"/><stop offset="0.47" stop-color="#aab0b4"/><stop offset="1" stop-color="#e6e6e6"/></linearGradient><linearGradient id="무제_그라디언트_9-2" x1="189.81" y1="424.08" x2="116.04" y2="373.4" gradientTransform="matrix(-1, 0, 0, 1, 500.27, 0)" xlink:href="#무제_그라디언트_9"/><linearGradient id="무제_그라디언트_5" x1="121.8" y1="182.11" x2="381.07" y2="331.84" gradientUnits="userSpaceOnUse"><stop offset="0" stop-color="#c5c5c5"/><stop offset="1" stop-color="#a09fa1"/></linearGradient><linearGradient id="무제_그라디언트_11" x1="245.9" y1="201.57" x2="245.9" y2="237.2" gradientUnits="userSpaceOnUse"><stop offset="0" stop-color="#fff"/><stop offset="0.07" stop-color="#fff2f7" stop-opacity="0.9"/><stop offset="0.27" stop-color="#ffcfe1" stop-opacity="0.63"/><stop offset="0.46" stop-color="#ffb1ce" stop-opacity="0.41"/><stop offset="0.63" stop-color="#ff9abf" stop-opacity="0.23"/><stop offset="0.78" stop-color="#ff89b5" stop-opacity="0.1"/><stop offset="0.91" stop-color="#ff7fae" stop-opacity="0.03"/><stop offset="1" stop-color="#ff7bac" stop-opacity="0"/></linearGradient></defs><path class="cls-1" d="M174.3,387.5c-11.4,24.8-29,41.2-39.2,36.5s-9.2-28.7,2.3-53.6" transform="translate(-95.7 -68.9)"/><path class="cls-2" d="M317.5,387.5c11.4,24.8,29,41.2,39.2,36.5s9.2-28.7-2.3-53.6" transform="translate(-95.7 -68.9)"/><path class="cls-3" d="M395.6,266.5a149.7,149.7,0,1,1-185-145.4V85.4h65.3v34.5A149.7,149.7,0,0,1,395.6,266.5Z" transform="translate(-95.7 -68.9)"/><circle class="cls-4" cx="150.2" cy="194.9" r="90.9"/><circle class="cls-5" cx="150.2" cy="194.9" r="83.9"/><circle class="cls-6" cx="150.2" cy="194.9" r="71.6"/><ellipse class="cls-7" cx="150.2" cy="194.9" rx="62.5" ry="62.2"/><ellipse class="cls-6" cx="150.2" cy="194.9" rx="55.1" ry="54.8"/><ellipse class="cls-7" cx="150.2" cy="194.9" rx="49.2" ry="49"/><ellipse class="cls-6" cx="150.2" cy="194.9" rx="38.4" ry="38.2"/><circle class="cls-7" cx="150.2" cy="194.9" r="30.3"/><circle class="cls-5" cx="150.2" cy="194.9" r="23.8"/><circle class="cls-7" cx="150.2" cy="194.9" r="18.6"/><circle class="cls-5" cx="150.2" cy="194.9" r="15.1"/><circle class="cls-7" cx="150.2" cy="194.9" r="6.5"/><path class="cls-7" d="M245.9,354.7" transform="translate(-95.7 -68.9)"/><path class="cls-7" d="M245.9,263.8" transform="translate(-95.7 -68.9)"/><path class="cls-7" d="M332.3,291.9" transform="translate(-95.7 -68.9)"/><path class="cls-7" d="M245.9,263.8" transform="translate(-95.7 -68.9)"/><path class="cls-7" d="M299.3,190.3" transform="translate(-95.7 -68.9)"/><path class="cls-7" d="M245.9,263.8" transform="translate(-95.7 -68.9)"/><path class="cls-7" d="M192.5,190.3" transform="translate(-95.7 -68.9)"/><path class="cls-7" d="M245.9,263.8" transform="translate(-95.7 -68.9)"/><path class="cls-7" d="M159.5,291.9" transform="translate(-95.7 -68.9)"/><path class="cls-7" d="M245.9,263.8" transform="translate(-95.7 -68.9)"/><path class="cls-8" d="M302.4,237.2h-113c20.1-38.7,56.5-35.5,56.5-35.5C285.5,199.2,302.4,237.2,302.4,237.2Z" transform="translate(-95.7 -68.9)"/><rect class="cls-9" x="79.7" y="0.5" width="133.6" height="23.38"/></svg>