<svg id="레이어_1" data-name="레이어 1" xmlns="http://www.w3.org/2000/svg" viewBox="0 0 355.6 355.1"><defs><style>.cls-1,.cls-2{fill:none;stroke:#000;stroke-miterlimit:10;}.cls-1{stroke-width:7px;}.cls-2{stroke-width:3px;}</style></defs><line class="cls-1" y1="351.6" x2="78.7" y2="351.6"/><line class="cls-2" x1="0.7" y1="329.5" x2="79.2" y2="334.4"/><line class="cls-2" x1="2.7" y1="307.5" x2="80.8" y2="317.4"/><line class="cls-2" x1="6.2" y1="285.7" x2="83.5" y2="300.4"/><line class="cls-2" x1="11" y1="264.1" x2="87.2" y2="283.7"/><line class="cls-1" x1="17.1" y1="242.9" x2="92" y2="267.2"/><line class="cls-2" x1="24.6" y1="222.1" x2="97.8" y2="251"/><line class="cls-2" x1="33.4" y1="201.8" x2="104.6" y2="235.3"/><line class="cls-2" x1="43.4" y1="182.1" x2="112.3" y2="220"/><line class="cls-2" x1="54.6" y1="163" x2="121.1" y2="205.2"/><line class="cls-1" x1="67" y1="144.7" x2="130.7" y2="191"/><line class="cls-2" x1="80.6" y1="127.3" x2="141.2" y2="177.4"/><line class="cls-2" x1="95.2" y1="110.7" x2="152.5" y2="164.5"/><line class="cls-2" x1="110.8" y1="95" x2="164.7" y2="152.4"/><line class="cls-2" x1="127.4" y1="80.4" x2="177.5" y2="141"/><line class="cls-1" x1="144.8" y1="66.8" x2="191.1" y2="130.5"/><line class="cls-2" x1="163.1" y1="54.4" x2="205.3" y2="120.8"/><line class="cls-2" x1="182.1" y1="43.1" x2="220" y2="112.1"/><line class="cls-2" x1="201.8" y1="33.1" x2="235.3" y2="104.3"/><line class="cls-2" x1="222.1" y1="24.3" x2="251.1" y2="97.4"/><line class="cls-1" x1="242.9" y1="16.8" x2="267.2" y2="91.6"/><line class="cls-2" x1="264.1" y1="10.6" x2="283.7" y2="86.8"/><line class="cls-2" x1="285.7" y1="5.8" x2="300.4" y2="83.1"/><line class="cls-2" x1="307.5" y1="2.3" x2="317.4" y2="80.4"/><line class="cls-2" x1="329.5" y1="0.2" x2="334.5" y2="78.7"/><line class="cls-1" x1="352.1" x2="352.1" y2="78.7"/></svg>