<svg id="레이어_1" data-name="레이어 1" xmlns="http://www.w3.org/2000/svg" xmlns:xlink="http://www.w3.org/1999/xlink" viewBox="0 0 356.4 174.2"><defs><style>.cls-1,.cls-3{fill:#efefef;}.cls-1,.cls-4,.cls-5{stroke:#999;}.cls-1,.cls-3,.cls-4,.cls-5{stroke-miterlimit:10;}.cls-2{fill:#ccc;}.cls-3{stroke:#000;}.cls-4{fill:url(#무제_그라디언트_6);}.cls-5{fill:url(#무제_그라디언트_6-2);}</style><linearGradient id="무제_그라디언트_6" x1="20.77" y1="173.67" x2="20.77" y2="0.5" gradientUnits="userSpaceOnUse"><stop offset="0" stop-color="#b5bbbf"/><stop offset="0.51" stop-color="#eff5f8"/><stop offset="1" stop-color="#b3b9bd"/></linearGradient><linearGradient id="무제_그라디언트_6-2" x1="342.66" y1="135.76" x2="342.66" y2="37.84" xlink:href="#무제_그라디언트_6"/></defs><polygon class="cls-1" points="325.6 89.4 325.6 134.3 52.4 148.9 41.4 149.3 41 149.3 41 24.9 325.6 39.9 325.6 93.9 325.6 89.4"/><polygon class="cls-2" points="132.5 147.8 143.7 147.4 143.7 147.4 132.5 147.8"/><path class="cls-3" d="M131.8,150.5Z" transform="translate(-78.5 -179.2)"/><rect x="321.8" y="37.8" width="8.3" height="97.35"/><polygon class="cls-2" points="126.1 168.1 131.4 167.9 131.4 167.9 126.1 168.1"/><path class="cls-2" d="M119.6,204" transform="translate(-78.5 -179.2)"/><polygon class="cls-2" points="41 24.9 321.8 83.4 41 149.3 41 24.9"/><rect class="cls-4" x="0.5" y="0.5" width="40.5" height="173.17"/><rect class="cls-5" x="329.4" y="37.8" width="26.5" height="97.92"/></svg>