<svg id="레이어_1" data-name="레이어 1" xmlns="http://www.w3.org/2000/svg" xmlns:xlink="http://www.w3.org/1999/xlink" viewBox="0 0 228.3 318.3"><defs><style>.cls-1,.cls-2,.cls-8{stroke:#999;}.cls-1,.cls-2,.cls-3,.cls-8{stroke-miterlimit:10;}.cls-1{fill:url(#무제_그라디언트_15);}.cls-2{fill:url(#무제_그라디언트_16);}.cls-3{fill:#fff;stroke:#000;}.cls-4{fill:#4fa569;}.cls-5{fill:#2c8640;}.cls-6{fill:#15793d;}.cls-7{opacity:0.7;fill:url(#무제_그라디언트_11);}.cls-8{fill:url(#무제_그라디언트_10);}</style><linearGradient id="무제_그라디언트_15" x1="1076.77" y1="227.73" x2="993.63" y2="227.73" gradientTransform="matrix(0, -1, -1, 0, 336.69, 1311.45)" gradientUnits="userSpaceOnUse"><stop offset="0" stop-color="#a9a8aa"/><stop offset="1" stop-color="#c8c7c8"/></linearGradient><linearGradient id="무제_그라디언트_16" x1="1256.43" y1="256.71" x2="1065" y2="142.59" gradientTransform="matrix(0, -1, -1, 0, 499.16, 1408.42)" gradientUnits="userSpaceOnUse"><stop offset="0" stop-color="#a9a8aa"/><stop offset="0.9" stop-color="#c8c7c8"/></linearGradient><linearGradient id="무제_그라디언트_11" x1="1140.54" y1="175.16" x2="1140.54" y2="205.24" gradientTransform="matrix(0, -1, -1, 0, 499.16, 1408.42)" gradientUnits="userSpaceOnUse"><stop offset="0" stop-color="#fff"/><stop offset="0.07" stop-color="#fff2f7" stop-opacity="0.9"/><stop offset="0.27" stop-color="#ffcfe1" stop-opacity="0.63"/><stop offset="0.46" stop-color="#ffb1ce" stop-opacity="0.41"/><stop offset="0.63" stop-color="#ff9abf" stop-opacity="0.23"/><stop offset="0.78" stop-color="#ff89b5" stop-opacity="0.1"/><stop offset="0.91" stop-color="#ff7fae" stop-opacity="0.03"/><stop offset="1" stop-color="#ff7bac" stop-opacity="0"/></linearGradient><linearGradient id="무제_그라디언트_10" x1="112.09" y1="-805.78" x2="188.8" y2="-805.78" gradientTransform="matrix(1, 0, 0, -1, 201.46, -705.33)" gradientUnits="userSpaceOnUse"><stop offset="0" stop-color="#878789"/><stop offset="0.49" stop-color="#f8f8f9"/><stop offset="1" stop-color="#878789"/></linearGradient></defs><polygon class="cls-1" points="62 234.7 47 317.8 171 317.8 156 234.7 62 234.7"/><path class="cls-2" d="M323.9,103.4v69.5a108.5,108.5,0,1,0,56,97.7V103.4Z" transform="translate(-162.5 -97)"/><circle class="cls-3" cx="109" cy="170.9" r="76.7"/><circle class="cls-4" cx="109" cy="170.9" r="70.9"/><circle class="cls-5" cx="109" cy="170.9" r="60.4"/><ellipse class="cls-6" cx="109" cy="170.9" rx="52.5" ry="52.8"/><ellipse class="cls-5" cx="109" cy="170.9" rx="46.3" ry="46.6"/><ellipse class="cls-6" cx="109" cy="170.9" rx="41.3" ry="41.6"/><ellipse class="cls-5" cx="109" cy="170.9" rx="32.2" ry="32.4"/><circle class="cls-6" cx="109" cy="170.9" r="25.6"/><circle class="cls-4" cx="109" cy="170.9" r="20.1"/><circle class="cls-6" cx="109" cy="170.9" r="15.7"/><circle class="cls-4" cx="109" cy="170.9" r="12.8"/><circle class="cls-6" cx="109" cy="170.9" r="5.5"/><path class="cls-6" d="M194.7,267.9" transform="translate(-162.5 -97)"/><path class="cls-6" d="M271.4,267.9" transform="translate(-162.5 -97)"/><path class="cls-6" d="M247.7,194.9" transform="translate(-162.5 -97)"/><path class="cls-6" d="M271.4,267.9" transform="translate(-162.5 -97)"/><path class="cls-6" d="M333.5,222.8" transform="translate(-162.5 -97)"/><path class="cls-6" d="M271.4,267.9" transform="translate(-162.5 -97)"/><path class="cls-6" d="M333.5,313" transform="translate(-162.5 -97)"/><path class="cls-6" d="M271.4,267.9" transform="translate(-162.5 -97)"/><path class="cls-6" d="M247.7,340.8" transform="translate(-162.5 -97)"/><path class="cls-6" d="M271.4,267.9" transform="translate(-162.5 -97)"/><path class="cls-7" d="M293.9,220.2v95.4c32.7-17,30-47.7,30-47.7C326,234.5,293.9,220.2,293.9,220.2Z" transform="translate(-162.5 -97)"/><rect class="cls-8" x="313.6" y="97.5" width="76.7" height="5.95" transform="translate(541.3 103.9) rotate(-180)"/></svg>