<svg id="레이어_1" data-name="레이어 1" xmlns="http://www.w3.org/2000/svg" viewBox="0 0 250.2 350.3"><defs><style>.cls-1{fill:#040000;}.cls-2{fill:#1b2c5e;}.cls-3{fill:#898989;}.cls-4{fill:#2257a7;}.cls-4,.cls-7{stroke:#333;}.cls-4,.cls-5,.cls-7{stroke-miterlimit:10;}.cls-5{fill:#60697a;stroke:#4d4d4d;}.cls-6,.cls-7{fill:#231815;}</style></defs><path class="cls-1" d="M205.6,106v73.5H417.7V106Zm201.8,63.3H215.9V116.1H407.4Z" transform="translate(-167.5 -91.6)"/><rect class="cls-2" x="10" y="297" width="92.7" height="46.09"/><rect class="cls-3" x="198.5" y="51.1" width="7.2" height="63.71"/><rect class="cls-4" x="32" y="227.8" width="48.7" height="42.01"/><rect class="cls-5" x="45.8" y="123.9" width="21.1" height="65.62"/><rect class="cls-5" x="34.6" y="196.7" width="7.1" height="31.06"/><rect class="cls-5" x="71.6" y="196.7" width="7.1" height="31.06"/><rect class="cls-6" x="18.6" y="188.4" width="75.6" height="9.18"/><path class="cls-4" d="M253.9,189.6h-60c-6.8,0-12.4,5.9-12.4,13.1V313.8c0,7.2,5.6,13.1,12.4,13.1h60c6.8,0,12.3-5.9,12.3-13.1V202.7C266.2,195.5,260.7,189.6,253.9,189.6Zm3.1,114c0,7.2-5.6,13.1-12.4,13.1H203.1c-6.8,0-12.3-5.9-12.3-13.1V212.9c0-7.2,5.5-13.1,12.3-13.1h41.5c6.8,0,12.4,5.9,12.4,13.1Z" transform="translate(-167.5 -91.6)"/><rect class="cls-7" x="10" y="0.5" width="96.9" height="60.38"/><rect class="cls-4" x="10" y="60.9" width="177.3" height="44.25"/><rect class="cls-4" x="190" y="61.9" width="21.5" height="42.13"/><rect class="cls-4" x="10" y="105.1" width="92.7" height="22.23"/><rect class="cls-4" x="182.6" y="42.8" width="9.5" height="80.45"/><rect class="cls-4" x="0.5" y="269.3" width="9.5" height="80.45"/><rect class="cls-4" x="102.2" y="269.3" width="9.5" height="80.45"/><path class="cls-4" d="M261.7,383v51.8c0,3.3-3.3,6.1-7.3,6.1H193.3c-3.9,0-7.2-2.8-7.2-6.1V383c2.8-2.1,9.5-2.9,9.6-10.6h-5.6v-11h67.6v11h-5.9C252.2,377,256.3,379.2,261.7,383Z" transform="translate(-167.5 -91.6)"/></svg>