<svg id="레이어_1" data-name="레이어 1" xmlns="http://www.w3.org/2000/svg" xmlns:xlink="http://www.w3.org/1999/xlink" viewBox="0 0 300.4 356.4"><defs><style>.cls-1,.cls-2,.cls-3,.cls-9{stroke:#999;}.cls-1,.cls-2,.cls-3,.cls-4,.cls-9{stroke-miterlimit:10;}.cls-1{fill:url(#무제_그라디언트_9);}.cls-2{fill:url(#무제_그라디언트_9-2);}.cls-3{fill:url(#무제_그라디언트_5);}.cls-4{fill:#fff;stroke:#000;}.cls-5{fill:#858585;}.cls-6{fill:#636363;}.cls-7{fill:#545454;}.cls-8{opacity:0.7;fill:url(#무제_그라디언트_2);}.cls-9{fill:#b9bec3;}</style><linearGradient id="무제_그라디언트_9" x1="185.11" y1="424.81" x2="111.34" y2="374.13" gradientUnits="userSpaceOnUse"><stop offset="0" stop-color="#f2f2f2"/><stop offset="0.47" stop-color="#aab0b4"/><stop offset="1" stop-color="#e6e6e6"/></linearGradient><linearGradient id="무제_그라디언트_9-2" x1="186.06" y1="424.81" x2="112.29" y2="374.13" gradientTransform="matrix(-1, 0, 0, 1, 500.27, 0)" xlink:href="#무제_그라디언트_9"/><linearGradient id="무제_그라디언트_5" x1="125.56" y1="182.84" x2="384.83" y2="332.56" gradientUnits="userSpaceOnUse"><stop offset="0" stop-color="#c5c5c5"/><stop offset="1" stop-color="#a09fa1"/></linearGradient><linearGradient id="무제_그라디언트_2" x1="249.66" y1="202.29" x2="249.66" y2="237.93" gradientUnits="userSpaceOnUse"><stop offset="0" stop-color="#fff"/><stop offset="0.07" stop-color="#f7f7f7" stop-opacity="0.9"/><stop offset="0.27" stop-color="#dfdfdf" stop-opacity="0.63"/><stop offset="0.46" stop-color="#cbcbcb" stop-opacity="0.41"/><stop offset="0.63" stop-color="#bcbcbc" stop-opacity="0.23"/><stop offset="0.78" stop-color="#b1b1b1" stop-opacity="0.1"/><stop offset="0.91" stop-color="#aaa" stop-opacity="0.03"/><stop offset="1" stop-color="#a8a8a8" stop-opacity="0"/></linearGradient></defs><path class="cls-1" d="M178.1,388.2c-11.5,24.9-29,41.2-39.2,36.5s-9.2-28.7,2.3-53.5" transform="translate(-99.5 -69.6)"/><path class="cls-2" d="M321.2,388.2c11.5,24.9,29,41.2,39.2,36.5s9.2-28.7-2.2-53.5" transform="translate(-99.5 -69.6)"/><path class="cls-3" d="M399.3,267.3c0,82.6-67,149.7-149.6,149.7a149.7,149.7,0,0,1-35.3-295.2V86.2h65.2v34.4A149.8,149.8,0,0,1,399.3,267.3Z" transform="translate(-99.5 -69.6)"/><circle class="cls-4" cx="150.2" cy="194.9" r="90.9"/><circle class="cls-5" cx="150.2" cy="194.9" r="83.9"/><circle class="cls-6" cx="150.2" cy="194.9" r="71.6"/><ellipse class="cls-7" cx="150.2" cy="194.9" rx="62.5" ry="62.2"/><ellipse class="cls-6" cx="150.2" cy="194.9" rx="55.1" ry="54.8"/><ellipse class="cls-7" cx="150.2" cy="194.9" rx="49.2" ry="49"/><ellipse class="cls-6" cx="150.2" cy="194.9" rx="38.4" ry="38.2"/><circle class="cls-7" cx="150.2" cy="194.9" r="30.3"/><circle class="cls-5" cx="150.2" cy="194.9" r="23.8"/><circle class="cls-7" cx="150.2" cy="194.9" r="18.6"/><circle class="cls-5" cx="150.2" cy="194.9" r="15.1"/><circle class="cls-7" cx="150.2" cy="194.9" r="6.5"/><path class="cls-7" d="M249.7,355.4" transform="translate(-99.5 -69.6)"/><path class="cls-7" d="M249.7,264.6" transform="translate(-99.5 -69.6)"/><path class="cls-7" d="M336.1,292.6" transform="translate(-99.5 -69.6)"/><path class="cls-7" d="M249.7,264.6" transform="translate(-99.5 -69.6)"/><path class="cls-7" d="M303.1,191.1" transform="translate(-99.5 -69.6)"/><path class="cls-7" d="M249.7,264.6" transform="translate(-99.5 -69.6)"/><path class="cls-7" d="M196.3,191.1" transform="translate(-99.5 -69.6)"/><path class="cls-7" d="M249.7,264.6" transform="translate(-99.5 -69.6)"/><path class="cls-7" d="M163.2,292.6" transform="translate(-99.5 -69.6)"/><path class="cls-7" d="M249.7,264.6" transform="translate(-99.5 -69.6)"/><path class="cls-8" d="M306.2,237.9H193.1c20.1-38.7,56.6-35.5,56.6-35.5C289.2,199.9,306.2,237.9,306.2,237.9Z" transform="translate(-99.5 -69.6)"/><rect class="cls-9" x="79.7" y="0.5" width="133.6" height="23.38"/></svg>