<svg id="레이어_1" data-name="레이어 1" xmlns="http://www.w3.org/2000/svg" xmlns:xlink="http://www.w3.org/1999/xlink" viewBox="0 0 321.2 263.4"><defs><style>.cls-1,.cls-3{fill:#8ebfba;}.cls-2{fill:#fff;}.cls-3,.cls-8{stroke:#658783;}.cls-3,.cls-7,.cls-8,.cls-9{stroke-miterlimit:10;}.cls-4{fill:#658783;}.cls-5{opacity:0.8;}.cls-6{opacity:0.6;fill:url(#무제_그라디언트_25);}.cls-7,.cls-8,.cls-9{fill:none;opacity:0.5;}.cls-7{stroke:#fff;}.cls-9{stroke:#8ebfba;}</style><radialGradient id="무제_그라디언트_25" cx="238.51" cy="211.4" r="108.92" gradientTransform="translate(-85.3 -123.3) scale(1.03 1)" gradientUnits="userSpaceOnUse"><stop offset="0" stop-color="#fff" stop-opacity="0.5"/><stop offset="0.28" stop-color="#fafafa" stop-opacity="0.5"/><stop offset="0.45" stop-color="#e9e9e9" stop-opacity="0.5"/><stop offset="0.59" stop-color="#ccc" stop-opacity="0.5"/><stop offset="0.72" stop-color="#a3a3a3" stop-opacity="0.5"/><stop offset="0.83" stop-color="#6f6f6f" stop-opacity="0.5"/><stop offset="0.94" stop-color="#2f2f2f" stop-opacity="0.5"/><stop offset="1" stop-opacity="0.5"/></radialGradient></defs><polygon class="cls-1" points="307.1 18.5 168 18.5 178.5 0 296.5 0 307.1 18.5"/><polygon class="cls-1" points="153.2 18.5 14.1 18.5 24.6 0 142.6 0 153.2 18.5"/><rect class="cls-1" y="9.3" width="321.2" height="254.11"/><rect class="cls-2" x="11.7" y="20.1" width="297.8" height="232.47"/><circle cx="5.2" cy="14.3" r="2.5"/><circle cx="316.5" cy="14.3" r="2.5"/><rect class="cls-3" x="11.7" y="20.1" width="297.8" height="144.59"/><rect class="cls-4" y="252.5" width="321.2" height="10.82"/><rect class="cls-5" x="18.2" y="20.1" width="284.8" height="136.25"/><rect class="cls-6" x="18.2" y="19.9" width="284.8" height="136.25"/><line class="cls-7" x1="22.4" y1="20.1" x2="22.4" y2="156.3"/><line class="cls-7" x1="28.3" y1="20.1" x2="28.3" y2="156.3"/><line class="cls-8" x1="34.1" y1="20.1" x2="34.1" y2="156.3"/><line class="cls-7" x1="39.9" y1="20.1" x2="39.9" y2="156.3"/><line class="cls-7" x1="45.7" y1="20.1" x2="45.7" y2="156.3"/><line class="cls-7" x1="51.5" y1="20.1" x2="51.5" y2="156.3"/><line class="cls-7" x1="57.3" y1="20.1" x2="57.3" y2="156.3"/><line class="cls-7" x1="63.2" y1="20.1" x2="63.2" y2="156.3"/><line class="cls-7" x1="69" y1="20.1" x2="69" y2="156.3"/><line class="cls-7" x1="74.8" y1="20.1" x2="74.8" y2="156.3"/><line class="cls-7" x1="80.6" y1="20.1" x2="80.6" y2="156.3"/><line class="cls-7" x1="86.4" y1="20.1" x2="86.4" y2="156.3"/><line class="cls-7" x1="92.3" y1="20.1" x2="92.3" y2="156.3"/><line class="cls-7" x1="98.1" y1="20.1" x2="98.1" y2="156.3"/><line class="cls-7" x1="103.9" y1="20.1" x2="103.9" y2="156.3"/><line class="cls-8" x1="109.7" y1="20.1" x2="109.7" y2="156.3"/><line class="cls-7" x1="115.5" y1="20.1" x2="115.5" y2="156.3"/><line class="cls-7" x1="121.4" y1="20.1" x2="121.4" y2="156.3"/><line class="cls-7" x1="127.2" y1="20.1" x2="127.2" y2="156.3"/><line class="cls-7" x1="133" y1="20.1" x2="133" y2="156.3"/><line class="cls-7" x1="138.8" y1="20.1" x2="138.8" y2="156.3"/><line class="cls-7" x1="144.6" y1="20.1" x2="144.6" y2="156.3"/><line class="cls-7" x1="150.4" y1="20.1" x2="150.4" y2="156.3"/><line class="cls-7" x1="156.3" y1="20.1" x2="156.3" y2="156.3"/><line class="cls-7" x1="162.1" y1="20.1" x2="162.1" y2="156.3"/><line class="cls-7" x1="167.9" y1="20.1" x2="167.9" y2="156.3"/><line class="cls-7" x1="173.7" y1="20.1" x2="173.7" y2="156.3"/><line class="cls-7" x1="179.5" y1="20.1" x2="179.5" y2="156.3"/><line class="cls-7" x1="185.4" y1="20.1" x2="185.4" y2="156.3"/><line class="cls-7" x1="191.2" y1="20.1" x2="191.2" y2="156.3"/><line class="cls-7" x1="197" y1="20.1" x2="197" y2="156.3"/><line class="cls-8" x1="202.8" y1="20.1" x2="202.8" y2="156.3"/><line class="cls-7" x1="208.6" y1="20.1" x2="208.6" y2="156.3"/><line class="cls-7" x1="214.5" y1="20.1" x2="214.5" y2="156.3"/><line class="cls-7" x1="220.3" y1="20.1" x2="220.3" y2="156.3"/><line class="cls-7" x1="226.1" y1="20.1" x2="226.1" y2="156.3"/><line class="cls-7" x1="231.9" y1="20.1" x2="231.9" y2="156.3"/><line class="cls-7" x1="237.7" y1="20.1" x2="237.7" y2="156.3"/><line class="cls-7" x1="243.5" y1="20.1" x2="243.5" y2="156.3"/><line class="cls-7" x1="249.4" y1="20.1" x2="249.4" y2="156.3"/><line class="cls-7" x1="255.2" y1="20.1" x2="255.2" y2="156.3"/><line class="cls-7" x1="261" y1="20.1" x2="261" y2="156.3"/><line class="cls-7" x1="266.8" y1="20.1" x2="266.8" y2="156.3"/><line class="cls-7" x1="272.6" y1="20.1" x2="272.6" y2="156.3"/><line class="cls-7" x1="278.5" y1="20.1" x2="278.5" y2="156.3"/><line class="cls-9" x1="284.3" y1="20.1" x2="284.3" y2="156.3"/><line class="cls-7" x1="290.1" y1="20.1" x2="290.1" y2="156.3"/><line class="cls-7" x1="295.9" y1="20.1" x2="295.9" y2="156.3"/><line class="cls-7" x1="301.7" y1="20.1" x2="301.7" y2="156.3"/><line class="cls-8" x1="18.2" y1="25.5" x2="303" y2="25.5"/><line class="cls-9" x1="18.2" y1="32.4" x2="303" y2="32.4"/><line class="cls-8" x1="18.2" y1="39.4" x2="303" y2="39.4"/><line class="cls-8" x1="18.2" y1="46.3" x2="303" y2="46.3"/><line class="cls-7" x1="18.2" y1="53.3" x2="303" y2="53.3"/><line class="cls-8" x1="18.2" y1="60.2" x2="303" y2="60.2"/><line class="cls-9" x1="18.2" y1="67.2" x2="303" y2="67.2"/><line class="cls-8" x1="18.2" y1="74.1" x2="303" y2="74.1"/><line class="cls-8" x1="18.2" y1="81.1" x2="303" y2="81.1"/><line class="cls-7" x1="18.2" y1="88.1" x2="303" y2="88.1"/><line class="cls-8" x1="18.2" y1="95" x2="303" y2="95"/><line class="cls-8" x1="18.2" y1="102" x2="303" y2="102"/><line class="cls-8" x1="18.2" y1="108.9" x2="303" y2="108.9"/><line class="cls-7" x1="18.2" y1="115.9" x2="303" y2="115.9"/><line class="cls-8" x1="18.2" y1="122.8" x2="303" y2="122.8"/><line class="cls-8" x1="18.2" y1="129.8" x2="303" y2="129.8"/><line class="cls-8" x1="18.2" y1="136.7" x2="303" y2="136.7"/><line class="cls-9" x1="18.2" y1="143.7" x2="303" y2="143.7"/><line class="cls-7" x1="18.2" y1="150.6" x2="303" y2="150.6"/></svg>