<svg id="레이어_1" data-name="레이어 1" xmlns="http://www.w3.org/2000/svg" xmlns:xlink="http://www.w3.org/1999/xlink" viewBox="0 0 309.3 310.3"><defs><style>.cls-1,.cls-10,.cls-2,.cls-9{stroke:#999;}.cls-1,.cls-10,.cls-2,.cls-4,.cls-9{stroke-miterlimit:10;}.cls-1{fill:url(#무제_그라디언트_15);}.cls-2{fill:url(#무제_그라디언트_16);}.cls-3{fill:url(#무제_그라디언트_15-2);}.cls-4{fill:#fff;stroke:#000;}.cls-5{fill:#4fa569;}.cls-6{fill:#2c8640;}.cls-7{fill:#15793d;}.cls-8{opacity:0.7;fill:url(#무제_그라디언트_11);}.cls-9{fill:url(#무제_그라디언트_5);}.cls-10{fill:url(#무제_그라디언트_5-2);}</style><linearGradient id="무제_그라디언트_15" x1="163.34" y1="251.79" x2="71.42" y2="251.79" gradientUnits="userSpaceOnUse"><stop offset="0" stop-color="#a9a8aa"/><stop offset="1" stop-color="#c8c7c8"/></linearGradient><linearGradient id="무제_그라디언트_16" x1="362.07" y1="268.89" x2="150.44" y2="142.71" gradientUnits="userSpaceOnUse"><stop offset="0" stop-color="#a9a8aa"/><stop offset="0.9" stop-color="#c8c7c8"/></linearGradient><linearGradient id="무제_그라디언트_15-2" x1="232.44" y1="116.97" x2="232.44" y2="116.93" xlink:href="#무제_그라디언트_15"/><linearGradient id="무제_그라디언트_11" x1="233.95" y1="178.72" x2="233.95" y2="211.98" gradientUnits="userSpaceOnUse"><stop offset="0" stop-color="#fff"/><stop offset="0.07" stop-color="#fff2f7" stop-opacity="0.9"/><stop offset="0.27" stop-color="#ffcfe1" stop-opacity="0.63"/><stop offset="0.46" stop-color="#ffb1ce" stop-opacity="0.41"/><stop offset="0.63" stop-color="#ff9abf" stop-opacity="0.23"/><stop offset="0.78" stop-color="#ff89b5" stop-opacity="0.1"/><stop offset="0.91" stop-color="#ff7fae" stop-opacity="0.03"/><stop offset="1" stop-color="#ff7bac" stop-opacity="0"/></linearGradient><linearGradient id="무제_그라디언트_5" x1="42.39" y1="305.54" x2="191.55" y2="305.54" gradientUnits="userSpaceOnUse"><stop offset="0" stop-color="#878789"/><stop offset="0.49" stop-color="#f8f8f9"/><stop offset="1" stop-color="#878789"/></linearGradient><linearGradient id="무제_그라디언트_5-2" x1="108.66" y1="83.14" x2="193.47" y2="83.14" gradientTransform="translate(268 64.7)" xlink:href="#무제_그라디언트_5"/></defs><rect class="cls-1" x="71.4" y="199.8" width="91.9" height="103.9"/><path class="cls-2" d="M415.8,178.8H338.9a120,120,0,1,1-108-61.8H415.8Z" transform="translate(-113.5 -105)"/><path class="cls-3" d="M234,116.9h0Z" transform="translate(-113.5 -105)"/><circle class="cls-4" cx="120.4" cy="131.9" r="84.8"/><circle class="cls-5" cx="120.4" cy="131.9" r="78.4"/><circle class="cls-6" cx="120.4" cy="131.9" r="66.8"/><ellipse class="cls-7" cx="120.4" cy="131.9" rx="58.4" ry="58"/><ellipse class="cls-6" cx="120.4" cy="131.9" rx="51.5" ry="51.2"/><ellipse class="cls-7" cx="120.4" cy="131.9" rx="46" ry="45.7"/><ellipse class="cls-6" cx="120.4" cy="131.9" rx="35.8" ry="35.6"/><circle class="cls-7" cx="120.4" cy="131.9" r="28.3"/><circle class="cls-5" cx="120.4" cy="131.9" r="22.2"/><circle class="cls-7" cx="120.4" cy="131.9" r="17.4"/><circle class="cls-5" cx="120.4" cy="131.9" r="14.1"/><circle class="cls-7" cx="120.4" cy="131.9" r="6"/><path class="cls-7" d="M234,321.7" transform="translate(-113.5 -105)"/><path class="cls-7" d="M234,236.8" transform="translate(-113.5 -105)"/><path class="cls-7" d="M314.6,263.1" transform="translate(-113.5 -105)"/><path class="cls-7" d="M234,236.8" transform="translate(-113.5 -105)"/><path class="cls-7" d="M283.8,168.2" transform="translate(-113.5 -105)"/><path class="cls-7" d="M234,236.8" transform="translate(-113.5 -105)"/><path class="cls-7" d="M184.1,168.2" transform="translate(-113.5 -105)"/><path class="cls-7" d="M234,236.8" transform="translate(-113.5 -105)"/><path class="cls-7" d="M153.3,263.1" transform="translate(-113.5 -105)"/><path class="cls-7" d="M234,236.8" transform="translate(-113.5 -105)"/><path class="cls-8" d="M286.7,212H181.2C200,175.9,234,178.8,234,178.8,270.9,176.5,286.7,212,286.7,212Z" transform="translate(-113.5 -105)"/><rect class="cls-9" x="42.4" y="301.3" width="149.2" height="8.54"/><rect class="cls-10" x="376.7" y="144.6" width="84.8" height="6.58" transform="translate(453.4 -376.2) rotate(90)"/></svg>