<svg id="레이어_1" data-name="레이어 1" xmlns="http://www.w3.org/2000/svg" xmlns:xlink="http://www.w3.org/1999/xlink" viewBox="0 0 203.6 380.7"><defs><style>.cls-1{fill:url(#무제_그라디언트_20);}.cls-2{fill:url(#무제_그라디언트_20-2);}.cls-3{fill:url(#무제_그라디언트_20-3);}.cls-4{fill:url(#무제_그라디언트_20-4);}.cls-5{fill:url(#무제_그라디언트_14);}.cls-6{fill:url(#무제_그라디언트_14-2);}.cls-7,.cls-9{opacity:0.5;}.cls-8{fill:#22ac38;}.cls-9{fill:none;stroke-miterlimit:10;stroke-width:0.5px;stroke:url(#무제_그라디언트_16);}</style><linearGradient id="무제_그라디언트_20" x1="29.21" y1="308.72" x2="46.71" y2="308.72" gradientUnits="userSpaceOnUse"><stop offset="0"/><stop offset="0.49" stop-color="#3c3c3c"/><stop offset="1" stop-color="#232323"/></linearGradient><linearGradient id="무제_그라디언트_20-2" x1="18.06" y1="316.33" x2="29.42" y2="316.33" xlink:href="#무제_그라디언트_20"/><linearGradient id="무제_그라디언트_20-3" x1="159.76" y1="308.72" x2="177.26" y2="308.72" xlink:href="#무제_그라디언트_20"/><linearGradient id="무제_그라디언트_20-4" x1="174.25" y1="316.33" x2="185.61" y2="316.33" xlink:href="#무제_그라디언트_20"/><linearGradient id="무제_그라디언트_14" x1="0.09" y1="107.25" x2="203.5" y2="107.25" gradientUnits="userSpaceOnUse"><stop offset="0" stop-color="#f3f9fc"/><stop offset="1" stop-color="#8f9498"/></linearGradient><linearGradient id="무제_그라디언트_14-2" x1="0.09" y1="267.81" x2="203.5" y2="267.81" xlink:href="#무제_그라디언트_14"/><linearGradient id="무제_그라디언트_16" x1="148.21" y1="279.12" x2="351.78" y2="279.12" gradientUnits="userSpaceOnUse"><stop offset="0" stop-color="#f3f9fc"/><stop offset="1" stop-color="#fff"/></linearGradient></defs><rect class="cls-1" x="29.2" y="247.1" width="17.5" height="123.32"/><rect x="26.5" y="367.7" width="22.8" height="5.39"/><rect class="cls-2" x="18.1" y="254.7" width="11.4" height="123.32"/><rect x="16.3" y="375.3" width="14.8" height="5.39"/><rect class="cls-3" x="159.8" y="247.1" width="17.5" height="123.32"/><rect x="157.1" y="367.7" width="22.8" height="5.39"/><rect class="cls-4" x="174.3" y="254.7" width="11.4" height="123.32"/><rect x="172.5" y="375.3" width="14.8" height="5.39"/><rect class="cls-5" x="0.1" width="203.4" height="214.5" rx="10.5"/><polygon class="cls-6" points="203.5 195.2 0.1 195.2 0.1 237.8 75.8 340.4 127.8 340.4 203.5 237.8 203.5 195.2"/><rect class="cls-7" x="8.3" y="13.7" width="184.3" height="184.14"/><rect class="cls-8" x="11" y="16.5" width="181.5" height="181.32"/><path class="cls-9" d="M148.3,271.2s94,35.7,203.4,0" transform="translate(-148.2 -56.7)"/></svg>