<svg id="레이어_1" data-name="레이어 1" xmlns="http://www.w3.org/2000/svg" viewBox="0 0 486.5 486.5"><defs><style>.cls-1{fill:none;stroke-width:25px;}.cls-1,.cls-2,.cls-3{stroke:#25d087;stroke-miterlimit:10;}.cls-2,.cls-3{fill:#25d087;}.cls-2{stroke-width:10px;}.cls-3{stroke-width:5px;}</style></defs><circle class="cls-1" cx="243.2" cy="243.2" r="230.7"/><path class="cls-2" d="M255.1,102.8c3.6,1.4,7.5,1.1,11.3,1.8,34.5,6.4,60.4,25,77.1,55.8,11.3,21,14.6,43.6,11.2,67.1-2.9,20.1-10.5,38.1-23.6,53.7-5.8,6.8-12.3,13-20.1,17.4-10.8,6.1-16.5,15.7-20.3,26.9a79.4,79.4,0,0,0-4.4,23.1c-.2,5.1-2,6.7-7.1,6.7H220.3c-5.6,0-7.2-1.6-7.5-7.3a80.6,80.6,0,0,0-8.6-32.6,37.7,37.7,0,0,0-14.3-15.6,89.2,89.2,0,0,1-37-43c-17.3-42.3-12.4-81.8,17.3-117.2,16.9-20.1,39.2-31.2,65-35.5,2.7-.5,5.6-.1,8.2-1.3ZM153.4,210.4c.3,5.1.3,9.6.9,14.1,4.1,28.1,16.5,51.1,41.1,66.5a50.1,50.1,0,0,1,19.3,22.4,91.4,91.4,0,0,1,8,29c.2,1.8.7,2.7,2.8,2.6s1.4-1.8,1.4-2.9c-.1-9.7-1.7-19.3-3.5-28.9-4.8-25.5-13-50.1-23.3-73.9a20.5,20.5,0,0,0-2.9-4.7,22,22,0,0,1-5.5-13.6c-.1-2.9.8-5,3.7-5.9s4.8.3,6.2,3.1,2.8,5.7,4.2,8.5c2.2,4.7,6,6.5,11.1,5.4s9.1-5.4,9.9-12.1c.3-2.5,1.4-4.3,3.9-4.9a4.7,4.7,0,0,1,5.2,1.6c1.1,1.4,1.2,3,1.4,4.7a12.3,12.3,0,0,0,11.1,10.9,12.2,12.2,0,0,0,12.8-8.3c.6-1.7.7-3.6,1.2-5.4a4.5,4.5,0,0,1,4.9-3.7,4.7,4.7,0,0,1,4.9,4.2,19.4,19.4,0,0,1,.2,2.4,12.4,12.4,0,0,0,9.5,11.1c5.2,1.4,9.1-.4,11.5-5.3,1.4-3,2.8-6.1,4.4-9a4.9,4.9,0,0,1,6-2.6c2.6.8,3.7,2.7,3.6,5.3a21.9,21.9,0,0,1-5.4,14.3,12.4,12.4,0,0,0-2.5,3.5A384.7,384.7,0,0,0,281.7,288c-4.9,17.8-8.6,35.9-9.6,54.5-.1,2.9,1.4,2.7,3.1,2.4s1.1-1.8,1.2-2.8a89.2,89.2,0,0,1,5.8-23.4c4.5-11.8,11.2-21.9,22.6-28.3a59.2,59.2,0,0,0,14.6-11.7c25.4-28,32.1-60.7,21.9-96.4-12.5-43.6-55.1-72.1-99.1-68.5a93,93,0,0,0-47.9,17.7C167.5,151.1,154.3,177.9,153.4,210.4Zm132.7,33.1c-6.8-.2-12.8-2.1-17.3-7.1-1.6-1.9-2.4-1.4-4,0a21.2,21.2,0,0,1-18.8,5.9,21.6,21.6,0,0,1-12.5-6.6c-.6-.6-1.1-2.1-2.3-.7-4.8,5.3-10.9,7.6-17.9,7.8a3.9,3.9,0,0,0,.6,2.5c12.5,31.5,21.9,63.7,23.4,97.8.1,1.8,1,1.9,2.3,1.9,6.7-.1,13.3-.1,20,0,1.7,0,2.2-.6,2.3-2.3.1-4,.3-8.1.8-12.2,2.7-24.2,8.8-47.5,17.1-70.3C281.8,254.6,283.9,249.2,286.1,243.5Z" transform="translate(-7.3 -7.3)"/><path class="cls-3" d="M249.7,366.6h29.1c5.7,0,7.3,1.7,7.4,7.3v28.5c-.1,5.4-1.7,7.1-7.2,7.1-7.4.1-7.4.1-7.4,7.5,0,1.3.1,2.5,0,3.7-.3,3.1-2,5.1-5.1,5.1H232.2c-3.1,0-4.9-2-5-5.1a66.1,66.1,0,0,1,0-8.9c0-1.7-.5-2.4-2.3-2.3s-4.5.1-6.7,0-5.5-2-5.6-5.6c-.1-10.5-.1-21,0-31.6.1-4,2.2-5.7,6.7-5.7Zm-.5,16.3c8,0,16-.1,23.9.1,2.2,0,3-.5,2.7-2.7s.7-3.5-2.5-3.5c-16,.2-31.9.1-47.9,0-2.8,0-2.4,1.5-2.5,3.2s0,3.1,2.7,3C233.4,382.8,241.3,382.9,249.2,382.9Zm.2,16.4c7.9,0,15.7-.2,23.6.1,2.8.1,2.8-1.2,2.8-3.2s-.1-3-2.7-3c-15.8.1-31.7.2-47.5,0-2.7,0-2.7,1-2.7,3s.1,3.3,2.8,3.2C233.6,399.2,241.5,399.3,249.4,399.3Zm-.2,16.2c3.4,0,6.7-.1,10.1.1s2.2-1.3,2-2.7,1-3.5-2-3.4c-6.6.1-13.2.1-19.9,0-2.6-.1-2,1.6-2,3s-.7,3.2,2,3.1S245.9,415.5,249.2,415.5Z" transform="translate(-7.3 -7.3)"/></svg>