<svg id="레이어_1" data-name="레이어 1" xmlns="http://www.w3.org/2000/svg" viewBox="0 0 486.5 486.5"><defs><style>.cls-1,.cls-2{fill:none;stroke:#25d087;stroke-miterlimit:10;}.cls-1{stroke-width:25px;}.cls-2{stroke-width:5px;}.cls-3{fill:#25d087;}</style></defs><circle class="cls-1" cx="243.2" cy="243.2" r="230.7"/><path class="cls-1" d="M349.4,209.8h0V376.1H152V209.8h0v-3.4c0-59,44.2-106.8,98.7-106.8s98.7,47.8,98.7,106.8Z" transform="translate(-6.8 -6.8)"/><path class="cls-2" d="M394.3,304.8" transform="translate(-6.8 -6.8)"/><path class="cls-2" d="M394.3,203" transform="translate(-6.8 -6.8)"/><path class="cls-3" d="M195.9,212.1c-3.6,0-6.4-2.6-6.4-5.7,0-18.4,9.7-36.5,28.1-52.5a130,130,0,0,1,27.7-18.5,6.8,6.8,0,0,1,8.7,2.3,5.4,5.4,0,0,1-2.7,7.7h0c-.5.3-49,23.9-49,61C202.3,209.5,199.4,212.1,195.9,212.1Z" transform="translate(-6.8 -6.8)"/><path class="cls-3" d="M386.9,401.8H114.4c.1-23.1,21.4-68.6,42-68.6H345C365.6,333.2,386.9,378.7,386.9,401.8Z" transform="translate(-6.8 -6.8)"/></svg>