<svg id="레이어_1" data-name="레이어 1" xmlns="http://www.w3.org/2000/svg" viewBox="0 0 296.8 296.8"><defs><style>.cls-1{fill:#3b3d45;stroke:#000;stroke-miterlimit:10;stroke-width:6px;}.cls-2{fill:#3d9aba;}.cls-3{fill:#aba59b;}.cls-4{fill:#87837e;}</style></defs><circle class="cls-1" cx="148.4" cy="148.4" r="145.4"/><path class="cls-2" d="M315.7,136.1c10.3,22.8-6.8,42.5-18.2,59.8-63.9,97.3-35.5-2.6-55-20.9-29.6-27.7-10.9-55.2,6.8-61.5C276.7,103.7,305.2,112.9,315.7,136.1Z" transform="translate(-109.2 -97)"/><path class="cls-2" d="M173.3,155.2c24.8-2.8,38.3,19.6,51.2,35.8,72.8,90.8-13.5,33-36.9,45.9-35.4,19.5-55.8-6.8-56.3-25.6C130.4,182.3,147.9,158,173.3,155.2Z" transform="translate(-109.2 -97)"/><path class="cls-2" d="M147.4,296.5c5.1-24.5,30.5-30.3,49.9-37.6,108.9-41.2,27.2,23,32.2,49.2,7.7,39.8-23.6,51-41.7,45.7C160,345.7,142.3,321.5,147.4,296.5Z" transform="translate(-109.2 -97)"/><path class="cls-2" d="M273.9,364.8c-21.8-12.3-19.5-38.3-20.5-59.1-5.5-116.2,30.3-18.7,56.9-15.4,40.1,5,41.1,38.3,30.5,53.8C324.5,368.1,296,377.4,273.9,364.8Z" transform="translate(-109.2 -97)"/><path class="cls-2" d="M373,258.9c-18.5,16.9-42.5,6.7-62.5,1.2-112.3-30.7-8.5-34.6,2.9-58.8,17.2-36.7,49.1-27.4,60.6-12.5C391.7,211.8,391.8,241.7,373,258.9Z" transform="translate(-109.2 -97)"/><circle class="cls-3" cx="148.4" cy="146.6" r="29"/><circle class="cls-4" cx="148.4" cy="146.6" r="7.1"/></svg>