<svg id="레이어_1" data-name="레이어 1" xmlns="http://www.w3.org/2000/svg" viewBox="0 0 486.5 486.5"><defs><style>.cls-1{fill:none;stroke:#25d087;stroke-miterlimit:10;stroke-width:25px;}.cls-2{fill:#25d087;}</style></defs><circle class="cls-1" cx="243.2" cy="243.2" r="230.7"/><path class="cls-2" d="M263.7,205.9c13.6-18.9,30.7-30.3,52.5-34.6,44.4-8.7,88.8,23.8,93.9,68.7.3,2.9.6,5.8.7,8.7.1,9.4-5.3,14.9-14.6,14.9H295c2.1,1.7,3.7,2.9,5.1,4.2,26.2,22.1,36.3,50.3,27.5,83.3s-31.2,52-64.4,58.6a64.1,64.1,0,0,1-11.6,1c-9,.2-14.6-5.4-14.6-14.5-.1-32.1,0-64.3,0-96.5v-5c-3.6,4.7-6.6,8.7-10.1,12.1-23.9,22.6-51.8,29.8-82.8,19.1S95.4,292.5,90.6,260a51,51,0,0,1-.7-8.7c-.1-8.8,5.4-14.4,14.2-14.4H204.8c.3-1.5-1-1.6-1.6-2.1-26.1-19.2-38.4-51.8-31.1-82.6a80.4,80.4,0,0,1,65.3-61.4,97.1,97.1,0,0,1,12.1-1c8.5-.1,14.2,5.5,14.2,14V205.9Zm15.4,30.7h103a53.2,53.2,0,0,0-52-39.8C306.1,196.9,284.7,213.6,279.1,236.6ZM118.5,263.7c6,24.4,28.8,41,54.5,40,22.8-1,45.3-19.5,48.4-40ZM236.9,118.5c-24.3,5.8-41,28.7-40,54.4.9,22.7,19.4,45.2,40,48.5Zm26.9,263.6c24.4-6,41-28.9,40-54.5-1-22.8-19.4-45.2-40-48.5ZM250.3,263.6A13.4,13.4,0,1,0,237,250.4,13.4,13.4,0,0,0,250.3,263.6Z" transform="translate(-7.1 -7)"/></svg>