<svg id="레이어_1" data-name="레이어 1" xmlns="http://www.w3.org/2000/svg" xmlns:xlink="http://www.w3.org/1999/xlink" viewBox="0 0 289.4 191.4"><defs><style>.cls-1{fill:#c4c2c2;}.cls-2{fill:url(#무제_그라디언트_23);}.cls-3{fill:url(#무제_그라디언트_23-2);}.cls-4{fill:url(#무제_그라디언트_23-3);}.cls-5{fill:url(#무제_그라디언트_23-4);}.cls-6{fill:#ccc8c8;}.cls-7{fill:url(#무제_그라디언트_23-5);}</style><linearGradient id="무제_그라디언트_23" x1="357.24" y1="424.85" x2="455.22" y2="424.85" gradientTransform="translate(-177.5 702.1) rotate(-90)" gradientUnits="userSpaceOnUse"><stop offset="0" stop-color="#c9caca"/><stop offset="0.54" stop-color="#fff"/><stop offset="1" stop-color="#b5b5b6"/></linearGradient><linearGradient id="무제_그라디언트_23-2" x1="445.7" y1="316.84" x2="562.73" y2="316.84" gradientTransform="translate(443.7 -208.4) rotate(90)" xlink:href="#무제_그라디언트_23"/><linearGradient id="무제_그라디언트_23-3" x1="347.71" y1="557.77" x2="464.75" y2="557.77" xlink:href="#무제_그라디언트_23"/><linearGradient id="무제_그라디언트_23-4" x1="475.24" y1="324.68" x2="577.15" y2="324.68" gradientTransform="translate(-270.2 -107)" xlink:href="#무제_그라디언트_23"/><linearGradient id="무제_그라디언트_23-5" x1="465.34" y1="293.62" x2="587.06" y2="293.62" gradientTransform="translate(-270.2 -107)" xlink:href="#무제_그라디언트_23"/></defs><ellipse class="cls-1" cx="36" cy="132.8" rx="4.7" ry="58.5"/><ellipse class="cls-1" cx="253.4" cy="132.8" rx="4.7" ry="58.5"/><path class="cls-2" d="M377.9,344.8H116.8c16.5,0,10.1-24.5,10.1-51.5s6.4-46.4-10.1-46.4H377.9Z" transform="translate(-108.9 -163)"/><path class="cls-3" d="M113.6,354.4c-2.6,0-4.7-26.2-4.7-58.5s2.1-58.6,4.7-58.6h31.3c-2.6,0-4.7,26.2-4.7,58.6s2.1,58.5,4.7,58.5Z" transform="translate(-108.9 -163)"/><path class="cls-4" d="M393.6,237.3c2.6,0,4.7,26.2,4.7,58.6s-2.1,58.5-4.7,58.5H362.3c2.6,0,4.7-26.2,4.7-58.5s-2.1-58.6-4.7-58.6Z" transform="translate(-108.9 -163)"/><path class="cls-5" d="M307,246.8c0,5.7-22.9,10.2-51,10.2s-51-4.5-51-10.2V178.4c0,5.7,22.9,10.2,51,10.2s51-4.5,51-10.2Z" transform="translate(-108.9 -163)"/><ellipse class="cls-1" cx="147.1" cy="4.9" rx="60.9" ry="4.9"/><ellipse class="cls-6" cx="147.1" cy="8.7" rx="55.3" ry="4.9"/><path class="cls-7" d="M316.9,200.5c0,2.7-27.3,4.9-60.9,4.9s-60.9-2.2-60.9-4.9V167.9c0,2.7,27.3,4.9,60.9,4.9s60.9-2.2,60.9-4.9Z" transform="translate(-108.9 -163)"/></svg>