<svg id="레이어_1" data-name="레이어 1" xmlns="http://www.w3.org/2000/svg" xmlns:xlink="http://www.w3.org/1999/xlink" viewBox="0 0 359.7 396.2"><defs><style>.cls-1{fill:#c4c2c2;}.cls-2{fill:url(#무제_그라디언트_23);}.cls-3{fill:url(#무제_그라디언트_23-2);}.cls-4{fill:url(#무제_그라디언트_23-3);}.cls-5{fill:url(#무제_그라디언트_23-4);}.cls-6{fill:url(#무제_그라디언트_23-5);}.cls-7{fill:#646464;}.cls-8,.cls-9{fill:#828283;}.cls-8{stroke:#d3d3d3;stroke-miterlimit:10;stroke-width:14px;}.cls-11,.cls-12,.cls-9{opacity:0.8;}.cls-10{fill:#b1c285;}.cls-11{fill:#232323;}.cls-12{fill:#90aa5a;}</style><linearGradient id="무제_그라디언트_23" x1="281.98" y1="417.31" x2="400.86" y2="417.31" gradientTransform="translate(-177.5 702.1) rotate(-90)" gradientUnits="userSpaceOnUse"><stop offset="0" stop-color="#c9caca"/><stop offset="0.54" stop-color="#fff"/><stop offset="1" stop-color="#b5b5b6"/></linearGradient><linearGradient id="무제_그라디언트_23-2" x1="498.02" y1="350.08" x2="640.02" y2="350.08" gradientTransform="translate(443.7 -208.4) rotate(90)" xlink:href="#무제_그라디언트_23"/><linearGradient id="무제_그라디언트_23-3" x1="270.42" y1="578.57" x2="412.42" y2="578.57" xlink:href="#무제_그라디언트_23"/><linearGradient id="무제_그라디언트_23-4" x1="458.67" y1="372.82" x2="582.31" y2="372.82" gradientTransform="translate(-270.2 -107)" xlink:href="#무제_그라디언트_23"/><linearGradient id="무제_그라디언트_23-5" x1="446.65" y1="335.14" x2="594.33" y2="335.14" gradientTransform="translate(-270.2 -107)" xlink:href="#무제_그라디언트_23"/></defs><ellipse class="cls-1" cx="43.7" cy="325.2" rx="5.8" ry="71"/><ellipse class="cls-1" cx="307.4" cy="325.2" rx="5.8" ry="71"/><path class="cls-2" d="M398.2,420.1H81.4c20,0,12.3-29.7,12.3-62.5s7.7-56.4-12.3-56.4H398.2Z" transform="translate(-71.8 -35.5)"/><path class="cls-3" d="M77.5,431.7c-3.1,0-5.7-31.8-5.7-71s2.6-71,5.7-71h38c-3.1,0-5.7,31.7-5.7,71s2.6,71,5.7,71Z" transform="translate(-71.8 -35.5)"/><path class="cls-4" d="M417.2,289.7c3.2,0,5.7,31.7,5.7,71s-2.5,71-5.7,71h-38c3.2,0,5.7-31.8,5.7-71s-2.5-71-5.7-71Z" transform="translate(-71.8 -35.5)"/><path class="cls-5" d="M312.1,301.1c0,6.9-27.7,12.5-61.8,12.5s-61.8-5.6-61.8-12.5V218.2c0,6.8,27.7,12.4,61.8,12.4s61.8-5.6,61.8-12.4Z" transform="translate(-71.8 -35.5)"/><ellipse class="cls-1" cx="178.5" cy="170" rx="73.8" ry="6"/><path class="cls-6" d="M324.1,245c0,3.3-33,5.9-73.8,5.9s-73.8-2.6-73.8-5.9V205.5c0,3.2,33,5.9,73.8,5.9s73.8-2.7,73.8-5.9Z" transform="translate(-71.8 -35.5)"/><rect class="cls-7" x="138.5" y="125.9" width="84.4" height="44.15"/><rect class="cls-8" x="8.5" y="7" width="344.2" height="117.94"/><polygon class="cls-9" points="359.7 132 108 132 172.7 0 359.7 0 359.7 132"/><rect class="cls-10" x="30.1" y="32.4" width="301.1" height="67.14"/><polygon class="cls-11" points="345.9 118 115.1 117.9 165.8 14.1 345.9 13.9 345.9 118"/><polygon class="cls-12" points="331.2 99.5 124 99.5 156.9 32.4 331.2 32.4 331.2 99.5"/></svg>