<svg id="레이어_1" data-name="레이어 1" xmlns="http://www.w3.org/2000/svg" xmlns:xlink="http://www.w3.org/1999/xlink" viewBox="0 0 347.5 120.4"><defs><style>.cls-1{fill:#b5b5b6;}.cls-2{fill:url(#무제_그라디언트_24);}.cls-3,.cls-7{stroke-miterlimit:10;}.cls-3{stroke-width:5px;fill:url(#무제_그라디언트_15);stroke:url(#무제_그라디언트_24-2);}.cls-4{fill:url(#무제_그라디언트_24-3);}.cls-5{fill:#cccaca;}.cls-6{fill:url(#무제_그라디언트_24-4);}.cls-7{stroke-width:4.85px;fill:url(#무제_그라디언트_24-5);stroke:url(#무제_그라디언트_24-6);}</style><linearGradient id="무제_그라디언트_24" x1="93.85" y1="318.36" x2="93.85" y2="202.92" gradientUnits="userSpaceOnUse"><stop offset="0" stop-color="#b5b5b6"/><stop offset="0.45" stop-color="#fcfcfc"/><stop offset="1" stop-color="#b5b5b6"/></linearGradient><linearGradient id="무제_그라디언트_15" x1="309.34" y1="117.94" x2="309.34" y2="2.5" gradientUnits="userSpaceOnUse"><stop offset="0" stop-color="#dcdddd"/><stop offset="1" stop-color="#898989"/></linearGradient><linearGradient id="무제_그라디언트_24-2" x1="309.34" y1="120.44" x2="309.34" y2="0" xlink:href="#무제_그라디언트_24"/><linearGradient id="무제_그라디언트_24-3" x1="217.28" y1="119.3" x2="217.28" y2="119.3" xlink:href="#무제_그라디언트_24"/><linearGradient id="무제_그라디언트_24-4" x1="222.78" y1="309.63" x2="222.78" y2="211.65" xlink:href="#무제_그라디언트_24"/><linearGradient id="무제_그라디언트_24-5" x1="336.56" y1="318.36" x2="336.56" y2="202.92" xlink:href="#무제_그라디언트_24"/><linearGradient id="무제_그라디언트_24-6" x1="335.35" y1="320.78" x2="335.35" y2="200.49" xlink:href="#무제_그라디언트_24"/></defs><ellipse class="cls-1" cx="68.1" cy="60.2" rx="40.1" ry="57.7"/><path class="cls-2" d="M99.3,318.4c-22.2,0-40.1-25.9-40.1-57.8s17.9-57.7,40.1-57.7h29.2c-22.1,0-40.1,25.9-40.1,57.7s18,57.8,40.1,57.8Z" transform="translate(-59.2 -200.4)"/><ellipse class="cls-3" cx="309.3" cy="60.2" rx="35.7" ry="57.7"/><path class="cls-4" d="M217.3,119.3" transform="translate(-59.2 -200.4)"/><ellipse class="cls-5" cx="291.2" cy="61.2" rx="26.8" ry="49"/><path class="cls-6" d="M129.4,309.6c-18.2,0-32.9-21.9-32.9-49s14.7-49,32.9-49H349c-18.1,0-32.8,22-32.8,49s14.7,49,32.8,49Z" transform="translate(-59.2 -200.4)"/><path class="cls-7" d="M341.7,318.4c-21,0-38-25.9-38-57.8s17-57.7,38-57.7h27.7c-21,0-38,25.9-38,57.7s17,57.8,38,57.8Z" transform="translate(-59.2 -200.4)"/></svg>