<svg xmlns="http://www.w3.org/2000/svg" xmlns:xlink="http://www.w3.org/1999/xlink" viewBox="0 0 673.1 673.1"><defs><style>.cls-1{fill:#4399c4;}.cls-2{isolation:isolate;}.cls-3{opacity:0.81;mix-blend-mode:soft-light;}.cls-4{fill:#d3d3d3;}.cls-5{fill:#bababa;}.cls-6{clip-path:url(#clip-path);}.cls-7,.cls-8{fill:none;stroke:#fff;stroke-miterlimit:10;stroke-width:0.5px;}.cls-8{opacity:0.7;}</style><clipPath id="clip-path" transform="translate(-5.1 -1.5)"><path class="cls-1" d="M176.8,435.1H82.5a11.6,11.6,0,0,1-11.6-11.6V329.1a11.6,11.6,0,0,1,11.6-11.6h94.3a11.6,11.6,0,0,1,11.6,11.6v94.4A11.6,11.6,0,0,1,176.8,435.1Zm137.6-11.6V329.1a11.6,11.6,0,0,0-11.6-11.6H208.5a11.6,11.6,0,0,0-11.6,11.6v94.4a11.6,11.6,0,0,0,11.6,11.6h94.3A11.6,11.6,0,0,0,314.4,423.5ZM439.9,298.1V203.8a11.6,11.6,0,0,0-11.6-11.6H334a11.5,11.5,0,0,0-11.6,11.6v94.3A11.5,11.5,0,0,0,334,309.7h94.3A11.6,11.6,0,0,0,439.9,298.1Zm0,124.2V328a11.6,11.6,0,0,0-11.6-11.7H334A11.6,11.6,0,0,0,322.4,328v94.3A11.5,11.5,0,0,0,334,433.9h94.3A11.6,11.6,0,0,0,439.9,422.3Zm0-248.3V79.7A11.6,11.6,0,0,0,428.3,68H334a11.6,11.6,0,0,0-11.6,11.7V174A11.5,11.5,0,0,0,334,185.6h94.3A11.6,11.6,0,0,0,439.9,174Zm-125.5,0V79.7A11.6,11.6,0,0,0,302.8,68H208.5a11.6,11.6,0,0,0-11.6,11.7V174a11.6,11.6,0,0,0,11.6,11.6h94.3A11.6,11.6,0,0,0,314.4,174Zm-126,0V79.7A11.6,11.6,0,0,0,176.8,68H82.5A11.6,11.6,0,0,0,70.9,79.7V174a11.6,11.6,0,0,0,11.6,11.6h94.3A11.6,11.6,0,0,0,188.4,174Zm0,124.1V203.8a11.6,11.6,0,0,0-11.6-11.6H82.5a11.6,11.6,0,0,0-11.6,11.6v94.3a11.6,11.6,0,0,0,11.6,11.6h94.3A11.6,11.6,0,0,0,188.4,298.1Zm125.8,0V203.8a11.6,11.6,0,0,0-11.7-11.6H208.2a11.6,11.6,0,0,0-11.6,11.6v94.3a11.6,11.6,0,0,0,11.6,11.6h94.3A11.6,11.6,0,0,0,314.2,298.1Z"/></clipPath></defs><g class="cls-2"><g id="레이어_1" data-name="레이어 1"><image class="cls-3" width="473" height="477" transform="translate(12.9 15.5)" xlink:href="%E1%84%90%E1%85%A2%E1%84%8B%E1%85%A3%E1%86%BC%E1%84%80%E1%85%AA%E1%86%BC1.png"/><g class="cls-2"><rect class="cls-4" x="58.8" y="60.8" width="381.8" height="377.85"/><rect class="cls-5" x="58.8" y="438.7" width="381.8" height="8.66"/></g><path class="cls-1" d="M176.8,435.1H82.5a11.6,11.6,0,0,1-11.6-11.6V329.1a11.6,11.6,0,0,1,11.6-11.6h94.3a11.6,11.6,0,0,1,11.6,11.6v94.4A11.6,11.6,0,0,1,176.8,435.1Zm137.6-11.6V329.1a11.6,11.6,0,0,0-11.6-11.6H208.5a11.6,11.6,0,0,0-11.6,11.6v94.4a11.6,11.6,0,0,0,11.6,11.6h94.3A11.6,11.6,0,0,0,314.4,423.5ZM439.9,298.1V203.8a11.6,11.6,0,0,0-11.6-11.6H334a11.5,11.5,0,0,0-11.6,11.6v94.3A11.5,11.5,0,0,0,334,309.7h94.3A11.6,11.6,0,0,0,439.9,298.1Zm0,124.2V328a11.6,11.6,0,0,0-11.6-11.7H334A11.6,11.6,0,0,0,322.4,328v94.3A11.5,11.5,0,0,0,334,433.9h94.3A11.6,11.6,0,0,0,439.9,422.3Zm0-248.3V79.7A11.6,11.6,0,0,0,428.3,68H334a11.6,11.6,0,0,0-11.6,11.7V174A11.5,11.5,0,0,0,334,185.6h94.3A11.6,11.6,0,0,0,439.9,174Zm-125.5,0V79.7A11.6,11.6,0,0,0,302.8,68H208.5a11.6,11.6,0,0,0-11.6,11.7V174a11.6,11.6,0,0,0,11.6,11.6h94.3A11.6,11.6,0,0,0,314.4,174Zm-126,0V79.7A11.6,11.6,0,0,0,176.8,68H82.5A11.6,11.6,0,0,0,70.9,79.7V174a11.6,11.6,0,0,0,11.6,11.6h94.3A11.6,11.6,0,0,0,188.4,174Zm0,124.1V203.8a11.6,11.6,0,0,0-11.6-11.6H82.5a11.6,11.6,0,0,0-11.6,11.6v94.3a11.6,11.6,0,0,0,11.6,11.6h94.3A11.6,11.6,0,0,0,188.4,298.1Zm125.8,0V203.8a11.6,11.6,0,0,0-11.7-11.6H208.2a11.6,11.6,0,0,0-11.6,11.6v94.3a11.6,11.6,0,0,0,11.6,11.6h94.3A11.6,11.6,0,0,0,314.2,298.1Z" transform="translate(-5.1 -1.5)"/><g class="cls-6"><image width="528" height="528" transform="scale(1.27)" xlink:href="../%E1%84%8B%E1%85%AF%E1%86%AB.png"/></g><line class="cls-7" x1="65.2" y1="374.2" x2="182.7" y2="374.2"/><line class="cls-7" x1="124" y1="433" x2="124" y2="315.5"/><line class="cls-7" x1="191.2" y1="374.2" x2="308.8" y2="374.2"/><line class="cls-7" x1="250" y1="433" x2="250" y2="315.5"/><line class="cls-7" x1="316.7" y1="374.2" x2="434.2" y2="374.2"/><line class="cls-7" x1="375.5" y1="433" x2="375.5" y2="315.5"/><line class="cls-7" x1="316.7" y1="250.1" x2="434.2" y2="250.1"/><line class="cls-7" x1="375.5" y1="312.8" x2="375.5" y2="195.3"/><line class="cls-7" x1="316.7" y1="125.9" x2="434.2" y2="125.9"/><line class="cls-7" x1="375.5" y1="184.7" x2="375.5" y2="67.2"/><line class="cls-7" x1="191.2" y1="125.9" x2="308.8" y2="125.9"/><line class="cls-7" x1="250" y1="184.7" x2="250" y2="67.2"/><line class="cls-8" x1="65.2" y1="125.9" x2="182.7" y2="125.9"/><line class="cls-8" x1="124" y1="184.7" x2="124" y2="67.2"/><line class="cls-7" x1="65.2" y1="250.1" x2="182.7" y2="250.1"/><line class="cls-7" x1="124" y1="308.9" x2="124" y2="191.3"/><line class="cls-7" x1="190.9" y1="250.1" x2="308.5" y2="250.1"/><line class="cls-7" x1="249.7" y1="308.9" x2="249.7" y2="191.3"/></g></g></svg>