<svg id="레이어_1" data-name="레이어 1" xmlns="http://www.w3.org/2000/svg" xmlns:xlink="http://www.w3.org/1999/xlink" viewBox="0 0 206.1 395.9"><defs><style>.cls-1{fill:url(#무제_그라디언트_8);}.cls-2{fill:#ccc;}.cls-3{fill:#646464;}.cls-4{fill:#969595;}.cls-5{fill:#a3a3a3;}</style><linearGradient id="무제_그라디언트_8" x1="103.08" x2="103.08" y2="386.9" gradientUnits="userSpaceOnUse"><stop offset="0" stop-color="#e2e2e2"/><stop offset="0.46" stop-color="#dfdfdf"/><stop offset="0.8" stop-color="#d5d5d5"/><stop offset="1" stop-color="#ccc"/></linearGradient></defs><rect class="cls-1" width="206.1" height="386.9"/><path class="cls-2" d="M177,466c-5.6,0-11.3-.3-16.9.1s-6.3-1-6.2-5.9c.3-14.8.1-29.6.1-44.4q.1-96.9.1-193.7c9.3.2,18.5-.1,27.9.7,11.5,1,23,2.4,34.3,4.5,29,5.7,56.8,14.4,82.7,28.8,14.4,8,27.9,17.1,39.7,28.5,7.2,7,14.1,14.3,21.1,21.5,0,38.9.1,77.8.1,116.7,0,12.3-.2,24.6.1,36.9.2,4.8-.8,6.9-6.2,6.4s-11.9-.1-17.9-.1Zm44-89.4c0,10.4.1,20.7,0,31.1-.1,2.9.8,4,3.9,4h61.9c3.3,0,4.2-1.1,4.2-4.3q-.2-30.3,0-60.6c0-3.2-.9-4.4-4.2-4.3-20.6.1-41.3.1-61.9,0-3.1,0-4,1.1-3.9,4C221.1,356.5,221,366.6,221,376.6Z" transform="translate(-153.9 -82)"/><path class="cls-3" d="M335.9,471c.2,6.9.2,6.9-6.6,6.9H183.7c-6.8,0-6.8,0-6.6-6.9l17-.2Z" transform="translate(-153.9 -82)"/><path class="cls-4" d="M335.9,471l-141.8-.2-17,.2v-2.1H335.9Z" transform="translate(-153.9 -82)"/><path class="cls-5" d="M221,376.6c0-10.2.1-20.3,0-30.5-.1-2.9.8-4.1,3.9-4h61.9c3.3-.1,4.2,1.1,4.2,4.3-.1,20.5-.1,40.9,0,61.4,0,3.2-.9,4.3-4.2,4.3-20.6-.1-41.3-.1-61.9,0-3.1,0-4-1.1-3.9-4.1C221.1,397.6,221,387.1,221,376.6Z" transform="translate(-153.9 -82)"/><rect class="cls-4" x="25" y="24.9" width="154.2" height="52.25"/></svg>