<svg id="레이어_1" data-name="레이어 1" xmlns="http://www.w3.org/2000/svg" xmlns:xlink="http://www.w3.org/1999/xlink" viewBox="0 0 250.4 350.8"><defs><style>.cls-1{fill:#e0ddda;}.cls-2{fill:#2b9994;}.cls-3{fill:#77736f;}.cls-4{fill:url(#무제_그라디언트_140);}.cls-5{fill:#969595;}.cls-6{fill:url(#무제_그라디언트_140-2);}.cls-7{fill:url(#무제_그라디언트_111);}.cls-8{fill:url(#무제_그라디언트_146);}.cls-9{fill:url(#무제_그라디언트_257);}</style><linearGradient id="무제_그라디언트_140" x1="164.72" y1="365.62" x2="164.72" y2="362.8" gradientTransform="matrix(0.99, 0.15, -0.07, 0.5, -98.18, 74.37)" gradientUnits="userSpaceOnUse"><stop offset="0" stop-color="#d4d4d4"/><stop offset="1" stop-color="#b5b5b6"/></linearGradient><linearGradient id="무제_그라디언트_140-2" x1="330.32" y1="350.88" x2="330.32" y2="348.06" gradientTransform="matrix(0.98, -0.2, 0.1, 0.49, -156, 176.76)" xlink:href="#무제_그라디언트_140"/><linearGradient id="무제_그라디언트_111" x1="250.02" y1="115.35" x2="250.02" y2="78.5" gradientUnits="userSpaceOnUse"><stop offset="0" stop-color="#f7f8f8"/><stop offset="1" stop-color="#b5b5b6"/></linearGradient><linearGradient id="무제_그라디언트_146" x1="253.82" y1="442.6" x2="253.82" y2="384.37" gradientTransform="translate(503.8 768.2) rotate(180)" gradientUnits="userSpaceOnUse"><stop offset="0.28" stop-color="#efefef"/><stop offset="1" stop-color="#898989"/></linearGradient><linearGradient id="무제_그라디언트_257" x1="124.82" y1="226.54" x2="375.23" y2="226.54" gradientUnits="userSpaceOnUse"><stop offset="0" stop-color="#b5b5b6"/><stop offset="0.05" stop-color="#cccccd"/><stop offset="0.12" stop-color="#e8e8e8"/><stop offset="0.19" stop-color="#f9f9f9"/><stop offset="0.23" stop-color="#fff"/><stop offset="1" stop-color="#b5b5b6"/></linearGradient></defs><rect class="cls-1" x="104.6" y="347" width="39.3" height="3.75"/><polygon class="cls-1" points="148.5 343.3 108.8 343.3 104.6 347 143.9 347 148.5 343.3"/><polygon class="cls-1" points="143.9 350.8 148.5 347 148.5 343.3 143.9 347 143.9 350.8"/><rect class="cls-1" x="116.1" y="290.7" width="19.1" height="55.3"/><polygon class="cls-2" points="137.1 285 118 285 116.1 289.6 135.1 289.6 137.1 285"/><polygon class="cls-3" points="135.1 346 137.1 344.2 137.1 285 135.1 290.7 135.1 346"/><rect class="cls-1" x="2" y="336.9" width="33.6" height="3.53"/><polygon class="cls-1" points="35.6 340.4 57.3 336.9 57.3 333.4 35.6 336.9 35.6 340.4"/><polygon class="cls-1" points="57.3 333.4 23.8 333.4 2 336.9 35.6 336.9 57.3 333.4"/><rect class="cls-1" x="187.8" y="336.9" width="33.6" height="3.53"/><polygon class="cls-1" points="221.4 340.4 243.1 336.9 243.1 333.4 221.4 336.9 221.4 340.4"/><polygon class="cls-1" points="243.1 333.4 209.6 333.4 187.8 336.9 221.4 336.9 243.1 333.4"/><polygon class="cls-1" points="34.9 335.6 16.3 335.6 24.9 278.8 43 281.5 34.9 335.6"/><polygon class="cls-4" points="50.2 281.1 32.1 278.4 24.9 278.8 43 281.5 50.2 281.1"/><polygon class="cls-5" points="34.9 335.6 42.1 335.3 50.2 281.1 43 281.5 34.9 335.6"/><polygon class="cls-5" points="211.5 337.2 202 335.9 191.2 285.5 200.4 283.6 211.5 337.2"/><polygon class="cls-6" points="215.5 278.3 197.5 282 190.9 284.9 208.9 281.1 215.5 278.3"/><polygon class="cls-1" points="211.4 337.2 226.9 334.1 215.5 279 200.3 283.6 211.4 337.2"/><path class="cls-7" d="M375.2,107.3c0,4.5-56,8.1-125.2,8.1s-125.2-3.6-125.2-8.1S180.9,78.5,250,78.5,375.2,102.9,375.2,107.3Z" transform="translate(-124.8 -78.5)"/><path class="cls-8" d="M124.8,338.3c0-7,56.1-12.7,125.2-12.7s125.2,5.7,125.2,12.7-56,45.6-125.2,45.6S124.8,345.3,124.8,338.3Z" transform="translate(-124.8 -78.5)"/><path class="cls-9" d="M375.2,337.7c0,4.5-56,8-125.2,8s-125.2-3.5-125.2-8V107.3c0,4.5,56.1,8.1,125.2,8.1s125.2-3.6,125.2-8.1Z" transform="translate(-124.8 -78.5)"/></svg>