<svg id="레이어_1" data-name="레이어 1" xmlns="http://www.w3.org/2000/svg" viewBox="0 0 455.8 368.4"><defs><style>.cls-1,.cls-2{fill:none;}.cls-1,.cls-2,.cls-4{stroke:#909b9b;stroke-miterlimit:10;}.cls-1{stroke-width:5px;}.cls-2{stroke-width:4px;}.cls-3,.cls-4{fill:#909b9b;}</style></defs><line class="cls-1" x1="228.2" y1="294.3" x2="228.2" y2="22"/><line class="cls-1" x1="186.3" y1="112.2" x2="271.1" y2="112.2"/><line class="cls-1" x1="172.1" y1="202.3" x2="283.1" y2="202.3"/><line class="cls-1" x1="283.1" y1="202.3" x2="161.2" y2="286"/><line class="cls-1" x1="172.1" y1="202.3" x2="300.6" y2="292.3"/><line class="cls-1" x1="271.1" y1="112.2" x2="172.1" y2="202.3"/><line class="cls-1" x1="257.4" y1="23.9" x2="186.3" y2="112.2"/><line class="cls-1" x1="200.1" y1="23.9" x2="268.8" y2="112.2"/><path class="cls-2" d="M231.9,102.6s-71.7,154.2-116,145" transform="translate(-31.8 -76.3)"/><path class="cls-2" d="M228.2,113S166.5,316.2,121.7,306.5" transform="translate(-31.8 -76.3)"/><path class="cls-2" d="M289.4,100.2s71.8,154.1,116,144.9" transform="translate(-31.8 -76.3)"/><path class="cls-2" d="M293.1,110.6s61.7,203.2,106.5,193.5" transform="translate(-31.8 -76.3)"/><rect class="cls-3" x="140.7" y="286" width="174.9" height="16.59"/><polygon class="cls-1" points="298.3 292.3 158 292.3 200.1 23.9 257.4 23.9 298.3 292.3"/><polygon class="cls-3" points="259.8 22 198.4 22 189.4 4 268.8 4 259.8 22"/><rect class="cls-3" x="195" width="68.2" height="11.08"/><line class="cls-1" x1="186.3" y1="112.2" x2="283.1" y2="202.3"/><rect class="cls-4" x="0.5" y="356" width="124.9" height="11.85"/><polygon class="cls-1" points="113 360.5 12.9 360.5 42.9 168.9 83.8 168.9 113 360.5"/><line class="cls-1" x1="62.9" y1="361.9" x2="62.9" y2="167.5"/><polygon class="cls-4" points="85.5 167.5 41.7 167.5 35.3 154.6 92 154.6 85.5 167.5"/><rect class="cls-3" x="39.2" y="151.8" width="48.7" height="7.91"/><line class="cls-1" x1="33" y1="231.8" x2="93.6" y2="231.8"/><line class="cls-1" x1="22.9" y1="296.2" x2="102.2" y2="296.2"/><line class="cls-1" x1="102.2" y1="296.2" x2="15.2" y2="356"/><line class="cls-1" x1="22.9" y1="296.2" x2="114.7" y2="360.5"/><line class="cls-1" x1="93.6" y1="231.8" x2="22.9" y2="296.2"/><line class="cls-1" x1="33" y1="231.8" x2="102.2" y2="296.2"/><line class="cls-1" x1="83.8" y1="168.9" x2="33" y2="231.8"/><line class="cls-1" x1="42.9" y1="168.9" x2="92" y2="231.8"/><rect class="cls-3" x="330.9" y="356" width="124.9" height="11.85"/><polygon class="cls-1" points="443.5 360.5 343.3 360.5 373.3 168.9 414.2 168.9 443.5 360.5"/><line class="cls-1" x1="393.4" y1="361.9" x2="393.4" y2="167.5"/><polygon class="cls-3" points="416.3 167.5 371.6 167.5 365 154.6 422.8 154.6 416.3 167.5"/><rect class="cls-3" x="369.7" y="151.8" width="48.7" height="7.91"/><line class="cls-1" x1="363.5" y1="231.8" x2="424.1" y2="231.8"/><line class="cls-1" x1="353.4" y1="296.2" x2="432.6" y2="296.2"/><line class="cls-1" x1="432.6" y1="296.2" x2="345.6" y2="356"/><line class="cls-1" x1="353.4" y1="296.2" x2="445.1" y2="360.5"/><line class="cls-1" x1="424.1" y1="231.8" x2="353.4" y2="296.2"/><line class="cls-1" x1="363.5" y1="231.8" x2="432.6" y2="296.2"/><line class="cls-1" x1="414.2" y1="168.9" x2="363.5" y2="231.8"/><line class="cls-1" x1="374.4" y1="170.3" x2="422.4" y2="231.8"/></svg>