<svg id="레이어_1" data-name="레이어 1" xmlns="http://www.w3.org/2000/svg" xmlns:xlink="http://www.w3.org/1999/xlink" viewBox="0 0 354 287.4"><defs><style>.cls-1{fill:#c4c2c2;}.cls-2{fill:url(#무제_그라디언트_23);}.cls-3{fill:url(#무제_그라디언트_23-2);}.cls-4{fill:url(#무제_그라디언트_23-3);}.cls-5{fill:url(#무제_그라디언트_23-4);}.cls-6{fill:url(#무제_그라디언트_23-5);}.cls-7{fill:url(#무제_그라디언트_23-6);}.cls-8{fill:#ccc;}.cls-9{fill:url(#무제_그라디언트_23-7);}.cls-10{fill:red;}.cls-11{fill:url(#무제_그라디언트_23-8);}</style><linearGradient id="무제_그라디언트_23" x1="156.33" y1="542.12" x2="254.31" y2="542.12" gradientTransform="translate(461.3 897.9) rotate(180)" gradientUnits="userSpaceOnUse"><stop offset="0" stop-color="#c9caca"/><stop offset="0.54" stop-color="#fff"/><stop offset="1" stop-color="#b5b5b6"/></linearGradient><linearGradient id="무제_그라디언트_23-2" x1="146.8" y1="514.69" x2="263.84" y2="514.69" xlink:href="#무제_그라디언트_23"/><linearGradient id="무제_그라디언트_23-3" x1="396.7" y1="305.06" x2="494.69" y2="305.06" gradientTransform="translate(-177.5 702.1) rotate(-90)" xlink:href="#무제_그라디언트_23"/><linearGradient id="무제_그라디언트_23-4" x1="387.18" y1="275.2" x2="504.21" y2="275.2" gradientTransform="translate(372.9 -189.3) rotate(90)" xlink:href="#무제_그라디언트_23"/><linearGradient id="무제_그라디언트_23-5" x1="347.71" y1="565.84" x2="445.7" y2="565.84" gradientTransform="translate(948.3 -140.3) rotate(90)" xlink:href="#무제_그라디언트_23"/><linearGradient id="무제_그라디언트_23-6" x1="477.7" y1="274.32" x2="575.69" y2="274.32" gradientTransform="translate(-270.2 -107)" xlink:href="#무제_그라디언트_23"/><linearGradient id="무제_그라디언트_23-7" x1="468.18" y1="244.46" x2="585.21" y2="244.46" gradientTransform="translate(-270.2 -107)" xlink:href="#무제_그라디언트_23"/><linearGradient id="무제_그라디언트_23-8" x1="387.74" y1="593.23" x2="504.78" y2="593.23" gradientTransform="translate(-177.5 702.1) rotate(-90)" xlink:href="#무제_그라디언트_23"/></defs><ellipse class="cls-1" cx="36" cy="141.6" rx="4.7" ry="58.5"/><ellipse class="cls-1" cx="318" cy="141.1" rx="4.7" ry="58.5"/><path class="cls-2" d="M207,327.8c0-5.4,21.9-9.8,49-9.8s49,4.4,49,9.8v65.8c0-5.5-21.9-9.9-49-9.9s-49,4.4-49,9.9Z" transform="translate(-79.7 -114.8)"/><path class="cls-3" d="M197.5,368.9c0-2.6,26.2-4.7,58.5-4.7s58.5,2.1,58.5,4.7v32.9c.1.3-26.8.6-58.5,0s-54.9-.1-58.5,0Z" transform="translate(-79.7 -114.8)"/><path class="cls-4" d="M155.5,207.4c5.5,0,9.9,21.9,9.9,49s-4.4,49-9.9,49H89.8c5.4,0,9.8-22,9.8-49s-4.4-49-9.8-49Z" transform="translate(-79.7 -114.8)"/><path class="cls-5" d="M84.4,314.9c-2.6,0-4.7-26.2-4.7-58.5s2.1-58.5,4.7-58.5h31.3c-2.6,0-4.7,26.2-4.7,58.5s2.1,58.5,4.7,58.5Z" transform="translate(-79.7 -114.8)"/><path class="cls-6" d="M354.5,305.4c-5.5,0-9.9-22-9.9-49s4.4-49,9.9-49h65.7c-5.4,0-9.8,21.9-9.8,49s4.4,49,9.8,49Z" transform="translate(-79.7 -114.8)"/><path class="cls-7" d="M305.5,195.3c0,5.5-21.9,9.9-49,9.9s-49-4.4-49-9.9V129.6c0,5.4,21.9,9.8,49,9.8s49-4.4,49-9.8Z" transform="translate(-79.7 -114.8)"/><ellipse class="cls-1" cx="176.8" cy="4.7" rx="58.5" ry="4.7"/><ellipse class="cls-8" cx="176.8" cy="8.4" rx="53.2" ry="4.7"/><path class="cls-9" d="M315,150.8c0,2.6-26.2,4.7-58.5,4.7s-58.5-2.1-58.5-4.7V119.5c0,2.6,26.2,4.7,58.5,4.7s58.5-2.1,58.5-4.7Z" transform="translate(-79.7 -114.8)"/><rect class="cls-10" x="69.1" y="68" width="214.8" height="147.27" rx="17.2"/><path class="cls-11" d="M429.1,197.3c2.5,0,4.6,26.2,4.6,58.5s-2.1,58.5-4.6,58.5H397.7c2.6,0,4.7-26.2,4.7-58.5s-2.1-58.5-4.7-58.5Z" transform="translate(-79.7 -114.8)"/></svg>