<svg id="레이어_1" data-name="레이어 1" xmlns="http://www.w3.org/2000/svg" xmlns:xlink="http://www.w3.org/1999/xlink" viewBox="0 0 240.6 276.5"><defs><style>.cls-1{fill:#c9cdcf;}.cls-2{fill:#bdb3a3;}.cls-3{fill:url(#무제_그라디언트_5);}.cls-4{fill:url(#무제_그라디언트_5-2);}.cls-5{fill:#bfc3ce;}.cls-6{fill:url(#무제_그라디언트_5-3);}.cls-7{fill:url(#무제_그라디언트_5-4);}.cls-11,.cls-14,.cls-8{opacity:0.4;}.cls-8{fill:url(#무제_그라디언트_65);}.cls-9{fill:#c3c9d5;}.cls-10{fill:#babec8;}.cls-11{fill:url(#무제_그라디언트_63);}.cls-12{fill:#646464;}.cls-13{fill:#74777d;stroke:#666;}.cls-13,.cls-16{stroke-miterlimit:10;}.cls-14{fill:url(#무제_그라디언트_63-2);}.cls-15{fill:#bdc3ce;}.cls-16{fill:none;stroke:#e6e6e6;}</style><linearGradient id="무제_그라디언트_5" x1="39.79" y1="11.47" x2="200.95" y2="11.47" gradientUnits="userSpaceOnUse"><stop offset="0" stop-color="#92959c"/><stop offset="0.51" stop-color="#bfc3ce"/><stop offset="1" stop-color="#93959c"/></linearGradient><linearGradient id="무제_그라디언트_5-2" x1="4.79" y1="49.89" x2="235.95" y2="49.89" xlink:href="#무제_그라디언트_5"/><linearGradient id="무제_그라디언트_5-3" x1="4.79" y1="32.11" x2="235.95" y2="32.11" xlink:href="#무제_그라디언트_5"/><linearGradient id="무제_그라디언트_5-4" x1="32.28" y1="4.33" x2="208.47" y2="4.33" xlink:href="#무제_그라디언트_5"/><linearGradient id="무제_그라디언트_65" x1="-73.51" y1="392.88" x2="-16.56" y2="392.88" gradientTransform="translate(252.5 -241.9)" gradientUnits="userSpaceOnUse"><stop offset="0.27" stop-color="#b3b3b3" stop-opacity="0"/><stop offset="1" stop-color="#434343"/></linearGradient><linearGradient id="무제_그라디언트_63" x1="44.7" y1="418.93" x2="65.3" y2="418.93" gradientTransform="translate(193.6 -224.7)" gradientUnits="userSpaceOnUse"><stop offset="0.27" stop-color="#b3b3b3" stop-opacity="0"/><stop offset="1"/></linearGradient><linearGradient id="무제_그라디언트_63-2" x1="-116.83" y1="419.09" x2="-91.29" y2="419.09" gradientTransform="translate(352.8 -65.8)" xlink:href="#무제_그라디언트_63"/></defs><rect class="cls-1" x="117.8" y="251.9" width="5.5" height="14.81"/><polygon class="cls-2" points="127.9 276.5 112.8 276.5 114.7 259.3 126.1 259.3 127.9 276.5"/><rect class="cls-1" x="230.4" y="251.9" width="5.5" height="14.81"/><polygon class="cls-2" points="240.6 276.5 225.4 276.5 227.3 259.3 238.7 259.3 240.6 276.5"/><rect class="cls-1" x="5" y="251.9" width="5.5" height="14.81"/><polygon class="cls-2" points="15.1 276.5 0 276.5 1.9 259.3 13.3 259.3 15.1 276.5"/><rect class="cls-3" x="39.8" y="4.3" width="161.2" height="14.29"/><rect class="cls-4" x="4.8" y="46.3" width="231.2" height="7.14"/><rect class="cls-5" x="4.8" y="52" width="231.2" height="198.09"/><polygon class="cls-6" points="235.9 46.3 4.8 46.3 39.8 17.9 200.9 17.9 235.9 46.3"/><rect class="cls-7" x="32.3" width="176.2" height="8.66"/><rect class="cls-8" x="179" y="52" width="56.9" height="198.09"/><rect class="cls-9" x="60.1" y="66.2" width="120.2" height="120.22"/><rect class="cls-10" x="114" y="66.2" width="4.1" height="53.07"/><rect class="cls-10" x="213.6" y="231" width="4.1" height="54.57" transform="translate(345.7 -89.3) rotate(90)"/><rect class="cls-10" x="279.2" y="231" width="4.1" height="54.57" transform="translate(411.3 -154.9) rotate(90)"/><rect class="cls-10" x="114" y="132.4" width="4.1" height="54.09"/><rect class="cls-10" x="122.6" y="66.2" width="4.1" height="53.07"/><rect class="cls-10" x="280.8" y="189.3" width="3.3" height="74.4" transform="translate(114.6 -265.3) rotate(45)"/><rect class="cls-10" x="214" y="253.7" width="3.3" height="74.4" transform="translate(140.6 -199.2) rotate(45)"/><rect class="cls-10" x="214" y="188.4" width="3.3" height="74.4" transform="translate(399.4 100.8) rotate(135)"/><rect class="cls-10" x="280.5" y="253.7" width="3.3" height="74.4" transform="translate(559.1 165.2) rotate(135)"/><rect class="cls-10" x="122.6" y="132.4" width="4.1" height="54.09"/><rect class="cls-5" x="109.2" y="115.4" width="21.9" height="21.94"/><rect class="cls-11" x="238.3" y="78.6" width="20.6" height="231.16" transform="translate(-73.8 310.9) rotate(-90)"/><rect class="cls-12" x="60.1" y="52" width="2" height="159.71"/><rect class="cls-12" x="179.3" y="52" width="2" height="159.71"/><path class="cls-13" d="M172.9,381.4V350.7c0-5.2,3.3-9.5,7.3-9.5H317.3c4.1,0,7.4,4.3,7.4,9.5v30.7" transform="translate(-128.2 -132)"/><path class="cls-13" d="M324.7,382.7" transform="translate(-128.2 -132)"/><path class="cls-13" d="M172.9,382.7" transform="translate(-128.2 -132)"/><line class="cls-13" x1="44.7" y1="242.4" x2="196.4" y2="242.4"/><line class="cls-13" x1="44.7" y1="246.3" x2="196.4" y2="246.3"/><line class="cls-13" x1="44.7" y1="238.3" x2="196.4" y2="238.3"/><line class="cls-13" x1="44.7" y1="230.2" x2="196.4" y2="230.2"/><line class="cls-13" x1="44.3" y1="221.3" x2="196.1" y2="221.3"/><line class="cls-13" x1="44.7" y1="234.1" x2="196.4" y2="234.1"/><line class="cls-13" x1="44.7" y1="225.8" x2="196.4" y2="225.8"/><line class="cls-13" x1="44.7" y1="217.5" x2="196.4" y2="217.5"/><path class="cls-13" d="M299.4,341.2" transform="translate(-128.2 -132)"/><path class="cls-13" d="M274.1,341.2" transform="translate(-128.2 -132)"/><path class="cls-13" d="M248.8,341.2" transform="translate(-128.2 -132)"/><path class="cls-13" d="M223.5,341.2" transform="translate(-128.2 -132)"/><path class="cls-13" d="M198.2,341.2" transform="translate(-128.2 -132)"/><rect class="cls-14" x="236" y="277.4" width="25.5" height="151.76" rx="8.3" transform="translate(-232.8 470.1) rotate(-90)"/><rect class="cls-15" x="4.8" y="246.7" width="231.2" height="6.66"/><line class="cls-16" x1="80.4" y1="246.7" x2="80.4" y2="253.4"/><line class="cls-16" x1="157.6" y1="246.7" x2="157.6" y2="253.4"/></svg>