<svg id="레이어_1" data-name="레이어 1" xmlns="http://www.w3.org/2000/svg" xmlns:xlink="http://www.w3.org/1999/xlink" viewBox="0 0 342.3 209.6"><defs><style>.cls-1{fill:url(#무제_그라디언트_8);}.cls-2{fill:#d8d8d8;}.cls-3{fill:url(#무제_그라디언트_8-2);}.cls-4{fill:url(#무제_그라디언트_8-3);}.cls-5{fill:#cfcfcf;}.cls-6{fill:#1b1b1b;stroke:#525252;stroke-miterlimit:10;}.cls-7{fill:#153f67;}</style><linearGradient id="무제_그라디언트_8" x1="32.13" y1="11.07" x2="84.84" y2="11.07" gradientUnits="userSpaceOnUse"><stop offset="0.04" stop-color="#ccc"/><stop offset="0.53" stop-color="#fff"/><stop offset="1" stop-color="#ccc"/></linearGradient><linearGradient id="무제_그라디언트_8-2" x1="144.76" y1="11.07" x2="197.47" y2="11.07" xlink:href="#무제_그라디언트_8"/><linearGradient id="무제_그라디언트_8-3" x1="257.38" y1="11.07" x2="310.09" y2="11.07" xlink:href="#무제_그라디언트_8"/></defs><rect class="cls-1" x="32.1" y="1.5" width="52.7" height="19.15"/><rect class="cls-2" x="26.9" width="63.3" height="3"/><rect class="cls-3" x="144.8" y="1.5" width="52.7" height="19.15"/><rect class="cls-2" x="139.5" width="63.3" height="3"/><rect class="cls-4" x="257.4" y="1.5" width="52.7" height="19.15"/><rect class="cls-2" x="252.1" width="63.3" height="3"/><rect class="cls-5" y="17.6" width="342.3" height="191.91"/><rect class="cls-6" x="5.3" y="25.2" width="106.5" height="164.43"/><line class="cls-6" x1="5.3" y1="184.1" x2="111.7" y2="184.1"/><line class="cls-6" x1="5.3" y1="178.6" x2="111.7" y2="178.6"/><line class="cls-6" x1="5.3" y1="173.1" x2="111.7" y2="173.1"/><line class="cls-6" x1="5.3" y1="167.7" x2="111.7" y2="167.7"/><line class="cls-6" x1="5.3" y1="162.2" x2="111.7" y2="162.2"/><line class="cls-6" x1="5.3" y1="156.7" x2="111.7" y2="156.7"/><line class="cls-6" x1="5.3" y1="151.2" x2="111.7" y2="151.2"/><line class="cls-6" x1="5.3" y1="145.7" x2="111.7" y2="145.7"/><line class="cls-6" x1="5.3" y1="140.3" x2="111.7" y2="140.3"/><line class="cls-6" x1="5.3" y1="134.8" x2="111.7" y2="134.8"/><line class="cls-6" x1="5.3" y1="129.3" x2="111.7" y2="129.3"/><line class="cls-6" x1="5.3" y1="123.8" x2="111.7" y2="123.8"/><line class="cls-6" x1="5.3" y1="118.3" x2="111.7" y2="118.3"/><line class="cls-6" x1="5.3" y1="112.8" x2="111.7" y2="112.8"/><line class="cls-6" x1="5.3" y1="107.4" x2="111.7" y2="107.4"/><line class="cls-6" x1="5.3" y1="101.9" x2="111.7" y2="101.9"/><line class="cls-6" x1="5.3" y1="96.4" x2="111.7" y2="96.4"/><line class="cls-6" x1="5.3" y1="90.9" x2="111.7" y2="90.9"/><line class="cls-6" x1="5.3" y1="85.4" x2="111.7" y2="85.4"/><line class="cls-6" x1="5.3" y1="80" x2="111.7" y2="80"/><line class="cls-6" x1="5.3" y1="74.5" x2="111.7" y2="74.5"/><line class="cls-6" x1="5.3" y1="69" x2="111.7" y2="69"/><line class="cls-6" x1="5.3" y1="63.5" x2="111.7" y2="63.5"/><line class="cls-6" x1="5.3" y1="58" x2="111.7" y2="58"/><line class="cls-6" x1="5.3" y1="52.6" x2="111.7" y2="52.6"/><line class="cls-6" x1="5.3" y1="47.1" x2="111.7" y2="47.1"/><line class="cls-6" x1="5.3" y1="41.6" x2="111.7" y2="41.6"/><line class="cls-6" x1="5.3" y1="36.1" x2="111.7" y2="36.1"/><line class="cls-6" x1="5.3" y1="30.6" x2="111.7" y2="30.6"/><path class="cls-6" d="M159.4,313.6" transform="translate(-65.4 -124)"/><path class="cls-6" d="M159.4,149.1" transform="translate(-65.4 -124)"/><path class="cls-6" d="M141.7,313.6" transform="translate(-65.4 -124)"/><path class="cls-6" d="M141.7,149.1" transform="translate(-65.4 -124)"/><path class="cls-6" d="M123.9,313.6" transform="translate(-65.4 -124)"/><path class="cls-6" d="M123.9,149.1" transform="translate(-65.4 -124)"/><path class="cls-6" d="M106.2,313.6" transform="translate(-65.4 -124)"/><path class="cls-6" d="M106.2,149.1" transform="translate(-65.4 -124)"/><path class="cls-6" d="M88.4,313.6" transform="translate(-65.4 -124)"/><rect class="cls-6" x="117.9" y="25.2" width="106.5" height="164.43"/><line class="cls-6" x1="117.9" y1="184.1" x2="224.3" y2="184.1"/><line class="cls-6" x1="117.9" y1="178.6" x2="224.3" y2="178.6"/><line class="cls-6" x1="117.9" y1="173.1" x2="224.3" y2="173.1"/><line class="cls-6" x1="117.9" y1="167.7" x2="224.3" y2="167.7"/><line class="cls-6" x1="117.9" y1="162.2" x2="224.3" y2="162.2"/><line class="cls-6" x1="117.9" y1="156.7" x2="224.3" y2="156.7"/><line class="cls-6" x1="117.9" y1="151.2" x2="224.3" y2="151.2"/><line class="cls-6" x1="117.9" y1="145.7" x2="224.3" y2="145.7"/><line class="cls-6" x1="117.9" y1="140.3" x2="224.3" y2="140.3"/><line class="cls-6" x1="117.9" y1="134.8" x2="224.3" y2="134.8"/><line class="cls-6" x1="117.9" y1="129.3" x2="224.3" y2="129.3"/><line class="cls-6" x1="117.9" y1="123.8" x2="224.3" y2="123.8"/><line class="cls-6" x1="117.9" y1="118.3" x2="224.3" y2="118.3"/><line class="cls-6" x1="117.9" y1="112.8" x2="224.3" y2="112.8"/><line class="cls-6" x1="117.9" y1="107.4" x2="224.3" y2="107.4"/><line class="cls-6" x1="117.9" y1="101.9" x2="224.3" y2="101.9"/><line class="cls-6" x1="117.9" y1="96.4" x2="224.3" y2="96.4"/><line class="cls-6" x1="117.9" y1="90.9" x2="224.3" y2="90.9"/><line class="cls-6" x1="117.9" y1="85.4" x2="224.3" y2="85.4"/><line class="cls-6" x1="117.9" y1="80" x2="224.3" y2="80"/><line class="cls-6" x1="117.9" y1="74.5" x2="224.3" y2="74.5"/><line class="cls-6" x1="117.9" y1="69" x2="224.3" y2="69"/><line class="cls-6" x1="117.9" y1="63.5" x2="224.3" y2="63.5"/><line class="cls-6" x1="117.9" y1="58" x2="224.3" y2="58"/><line class="cls-6" x1="117.9" y1="52.6" x2="224.3" y2="52.6"/><line class="cls-6" x1="117.9" y1="47.1" x2="224.3" y2="47.1"/><line class="cls-6" x1="117.9" y1="41.6" x2="224.3" y2="41.6"/><line class="cls-6" x1="117.9" y1="36.1" x2="224.3" y2="36.1"/><line class="cls-6" x1="117.9" y1="30.6" x2="224.3" y2="30.6"/><path class="cls-6" d="M272,313.6" transform="translate(-65.4 -124)"/><path class="cls-6" d="M272,149.1" transform="translate(-65.4 -124)"/><path class="cls-6" d="M254.3,313.6" transform="translate(-65.4 -124)"/><path class="cls-6" d="M254.3,149.1" transform="translate(-65.4 -124)"/><path class="cls-6" d="M236.5,313.6" transform="translate(-65.4 -124)"/><path class="cls-6" d="M236.5,149.1" transform="translate(-65.4 -124)"/><path class="cls-6" d="M218.8,313.6" transform="translate(-65.4 -124)"/><path class="cls-6" d="M218.8,149.1" transform="translate(-65.4 -124)"/><path class="cls-6" d="M201.1,313.6" transform="translate(-65.4 -124)"/><rect class="cls-6" x="230.5" y="25.2" width="106.5" height="164.43"/><line class="cls-6" x1="230.5" y1="184.1" x2="337" y2="184.1"/><line class="cls-6" x1="230.5" y1="178.6" x2="337" y2="178.6"/><line class="cls-6" x1="230.5" y1="173.1" x2="337" y2="173.1"/><line class="cls-6" x1="230.5" y1="167.7" x2="337" y2="167.7"/><line class="cls-6" x1="230.5" y1="162.2" x2="337" y2="162.2"/><line class="cls-6" x1="230.5" y1="156.7" x2="337" y2="156.7"/><line class="cls-6" x1="230.5" y1="151.2" x2="337" y2="151.2"/><line class="cls-6" x1="230.5" y1="145.7" x2="337" y2="145.7"/><line class="cls-6" x1="230.5" y1="140.3" x2="337" y2="140.3"/><line class="cls-6" x1="230.5" y1="134.8" x2="337" y2="134.8"/><line class="cls-6" x1="230.5" y1="129.3" x2="337" y2="129.3"/><line class="cls-6" x1="230.5" y1="123.8" x2="337" y2="123.8"/><line class="cls-6" x1="230.5" y1="118.3" x2="337" y2="118.3"/><line class="cls-6" x1="230.5" y1="112.8" x2="337" y2="112.8"/><line class="cls-6" x1="230.5" y1="107.4" x2="337" y2="107.4"/><line class="cls-6" x1="230.5" y1="101.9" x2="337" y2="101.9"/><line class="cls-6" x1="230.5" y1="96.4" x2="337" y2="96.4"/><line class="cls-6" x1="230.5" y1="90.9" x2="337" y2="90.9"/><line class="cls-6" x1="230.5" y1="85.4" x2="337" y2="85.4"/><line class="cls-6" x1="230.5" y1="80" x2="337" y2="80"/><line class="cls-6" x1="230.5" y1="74.5" x2="337" y2="74.5"/><line class="cls-6" x1="230.5" y1="69" x2="337" y2="69"/><line class="cls-6" x1="230.5" y1="63.5" x2="337" y2="63.5"/><line class="cls-6" x1="230.5" y1="58" x2="337" y2="58"/><line class="cls-6" x1="230.5" y1="52.6" x2="337" y2="52.6"/><line class="cls-6" x1="230.5" y1="47.1" x2="337" y2="47.1"/><line class="cls-6" x1="230.5" y1="41.6" x2="337" y2="41.6"/><line class="cls-6" x1="230.5" y1="36.1" x2="337" y2="36.1"/><line class="cls-6" x1="230.5" y1="30.6" x2="337" y2="30.6"/><path class="cls-6" d="M384.7,313.6" transform="translate(-65.4 -124)"/><path class="cls-6" d="M384.7,149.1" transform="translate(-65.4 -124)"/><path class="cls-6" d="M366.9,313.6" transform="translate(-65.4 -124)"/><path class="cls-6" d="M366.9,149.1" transform="translate(-65.4 -124)"/><path class="cls-6" d="M349.2,313.6" transform="translate(-65.4 -124)"/><path class="cls-6" d="M349.2,149.1" transform="translate(-65.4 -124)"/><path class="cls-6" d="M331.4,313.6" transform="translate(-65.4 -124)"/><path class="cls-6" d="M331.4,149.1" transform="translate(-65.4 -124)"/><path class="cls-6" d="M313.7,313.6" transform="translate(-65.4 -124)"/><rect class="cls-7" y="197.5" width="342.3" height="7.88"/></svg>