<svg id="레이어_1" data-name="레이어 1" xmlns="http://www.w3.org/2000/svg" viewBox="0 0 327.5 327.5"><defs><style>.cls-1{fill:#efefef;}.cls-1,.cls-2{stroke:#4d4d4d;stroke-miterlimit:10;}.cls-2{fill:#dcdddd;}</style></defs><path class="cls-1" d="M250,86.7A163.3,163.3,0,1,0,413.3,250,163.3,163.3,0,0,0,250,86.7Zm0,303A139.7,139.7,0,1,1,389.7,250,139.6,139.6,0,0,1,250,389.7Z" transform="translate(-86.2 -86.2)"/><polygon class="cls-1" points="179.7 144 147.8 144 132.1 24 195.5 24 179.7 144"/><polygon class="cls-1" points="138.7 159.8 154.6 187.5 58.6 261.1 26.9 206.2 138.7 159.8"/><polygon class="cls-1" points="172.9 187.5 188.9 159.8 300.6 206.2 268.9 261.1 172.9 187.5"/><circle class="cls-2" cx="163.8" cy="163.8" r="26.7"/></svg>