<svg id="레이어_1" data-name="레이어 1" xmlns="http://www.w3.org/2000/svg" xmlns:xlink="http://www.w3.org/1999/xlink" viewBox="0 0 348.4 360"><defs><style>.cls-1{fill:url(#무제_그라디언트_42);}.cls-10,.cls-11,.cls-12,.cls-2,.cls-3,.cls-4,.cls-5,.cls-6,.cls-7,.cls-8,.cls-9{stroke:#969b9e;stroke-miterlimit:10;}.cls-2{fill:url(#무제_그라디언트_42-2);}.cls-3{fill:url(#무제_그라디언트_42-3);}.cls-4{fill:url(#무제_그라디언트_42-4);}.cls-5{fill:url(#무제_그라디언트_42-5);}.cls-6{fill:url(#무제_그라디언트_42-6);}.cls-7{fill:url(#무제_그라디언트_42-7);}.cls-8{fill:url(#무제_그라디언트_42-8);}.cls-9{fill:url(#무제_그라디언트_42-9);}.cls-10{fill:url(#무제_그라디언트_42-10);}.cls-11{fill:url(#무제_그라디언트_42-11);}.cls-12{fill:url(#무제_그라디언트_42-12);}.cls-13{fill:url(#무제_그라디언트_46);}.cls-14{fill:#8e9395;opacity:0.14;}.cls-15{fill:#b5bcc0;}</style><linearGradient id="무제_그라디언트_42" x1="174.22" y1="148.67" x2="174.22" gradientUnits="userSpaceOnUse"><stop offset="0.03" stop-color="#737679"/><stop offset="0.09" stop-color="#7f8386"/><stop offset="0.29" stop-color="#aaafb3"/><stop offset="0.45" stop-color="#c5cbd0"/><stop offset="0.55" stop-color="#cfd5da"/><stop offset="0.74" stop-color="#cdd3d8"/><stop offset="0.84" stop-color="#c5cbd0"/><stop offset="0.92" stop-color="#b8bec3"/><stop offset="0.99" stop-color="#a6acb0"/><stop offset="1" stop-color="#a1a7ab"/></linearGradient><linearGradient id="무제_그라디언트_42-2" x1="30.6" y1="74.34" x2="30.6" y2="74.34" xlink:href="#무제_그라디언트_42"/><linearGradient id="무제_그라디언트_42-3" x1="59.6" y1="74.34" x2="59.6" y2="74.34" xlink:href="#무제_그라디언트_42"/><linearGradient id="무제_그라디언트_42-4" x1="88.6" y1="74.34" x2="88.6" y2="74.34" xlink:href="#무제_그라디언트_42"/><linearGradient id="무제_그라디언트_42-5" x1="117.59" y1="74.34" x2="117.59" y2="74.34" xlink:href="#무제_그라디언트_42"/><linearGradient id="무제_그라디언트_42-6" x1="146.59" y1="74.34" x2="146.59" y2="74.34" xlink:href="#무제_그라디언트_42"/><linearGradient id="무제_그라디언트_42-7" x1="175.59" y1="74.34" x2="175.59" y2="74.34" xlink:href="#무제_그라디언트_42"/><linearGradient id="무제_그라디언트_42-8" x1="204.59" y1="74.34" x2="204.59" y2="74.34" xlink:href="#무제_그라디언트_42"/><linearGradient id="무제_그라디언트_42-9" x1="233.59" y1="74.34" x2="233.59" y2="74.34" xlink:href="#무제_그라디언트_42"/><linearGradient id="무제_그라디언트_42-10" x1="262.58" y1="74.34" x2="262.58" y2="74.34" xlink:href="#무제_그라디언트_42"/><linearGradient id="무제_그라디언트_42-11" x1="291.58" y1="74.34" x2="291.58" y2="74.34" xlink:href="#무제_그라디언트_42"/><linearGradient id="무제_그라디언트_42-12" x1="320.58" y1="74.34" x2="320.58" y2="74.34" xlink:href="#무제_그라디언트_42"/><linearGradient id="무제_그라디언트_46" x1="333.13" y1="293.03" x2="174.81" y2="293.03" gradientUnits="userSpaceOnUse"><stop offset="0.03" stop-color="#737679"/><stop offset="0.06" stop-color="#7f8386"/><stop offset="0.14" stop-color="#9ca0a4"/><stop offset="0.23" stop-color="#b3b8bc"/><stop offset="0.32" stop-color="#c3c8cd"/><stop offset="0.42" stop-color="#ccd2d7"/><stop offset="0.55" stop-color="#cfd5da"/><stop offset="0.74" stop-color="#cdd3d8"/><stop offset="0.84" stop-color="#c5cbd0"/><stop offset="0.92" stop-color="#b8bec3"/><stop offset="0.99" stop-color="#a6acb0"/><stop offset="1" stop-color="#a1a7ab"/></linearGradient></defs><rect class="cls-1" width="348.4" height="148.67"/><line class="cls-2" x1="30.6" x2="30.6" y2="148.7"/><line class="cls-3" x1="59.6" x2="59.6" y2="148.7"/><line class="cls-4" x1="88.6" x2="88.6" y2="148.7"/><line class="cls-5" x1="117.6" x2="117.6" y2="148.7"/><line class="cls-6" x1="146.6" x2="146.6" y2="148.7"/><line class="cls-7" x1="175.6" x2="175.6" y2="148.7"/><line class="cls-8" x1="204.6" x2="204.6" y2="148.7"/><line class="cls-9" x1="233.6" x2="233.6" y2="148.7"/><line class="cls-10" x1="262.6" x2="262.6" y2="148.7"/><line class="cls-11" x1="291.6" x2="291.6" y2="148.7"/><line class="cls-12" x1="320.6" x2="320.6" y2="148.7"/><path class="cls-13" d="M333.1,212.8V434H174.8V212.8c0-21.6,35.5-60.7,79.2-60.7S333.1,191.2,333.1,212.8Z" transform="translate(-78.4 -74)"/><rect class="cls-14" x="96.4" y="250.4" width="158.3" height="66.43"/><polygon class="cls-15" points="97.5 256.5 254.9 256.5 325.3 289.3 25.9 289.3 97.5 256.5"/><rect class="cls-15" x="25.9" y="289.3" width="299.4" height="22.44"/></svg>