<svg id="레이어_1" data-name="레이어 1" xmlns="http://www.w3.org/2000/svg" xmlns:xlink="http://www.w3.org/1999/xlink" viewBox="0 0 90.9 397.8"><defs><style>.cls-1{fill:#130e0e;}.cls-12,.cls-15,.cls-2,.cls-5{fill:none;stroke-miterlimit:10;}.cls-15,.cls-2{stroke:#130e0e;}.cls-12,.cls-2{stroke-width:0.5px;}.cls-3{fill:#959696;}.cls-4{fill:#848484;}.cls-5{stroke:#dadada;}.cls-6{fill:#7e7e7e;}.cls-7{fill:#d7d8d8;}.cls-8{fill:#a28238;}.cls-9{fill:url(#무제_그라디언트_6);}.cls-10{fill:#c2c3c3;}.cls-11{fill:#ffef00;}.cls-12{stroke:gray;}.cls-13{fill:#676666;}.cls-14{fill:#c1c2c2;}</style><linearGradient id="무제_그라디언트_6" x1="44.43" y1="321.07" x2="44.43" y2="314.02" gradientUnits="userSpaceOnUse"><stop offset="0" stop-color="#d7d8d8"/><stop offset="0.5" stop-color="#a8aeb3"/><stop offset="1" stop-color="#c2c3c3"/></linearGradient></defs><circle class="cls-1" cx="22.9" cy="53.8" r="1"/><path class="cls-2" d="M264.6,101.1s-6.6,30.8-16,38.4" transform="translate(-232 -76.8)"/><rect class="cls-3" x="262.6" y="100.7" width="4.1" height="19.7" transform="translate(143.2 -230.9) rotate(90)"/><rect class="cls-3" x="262.6" y="118.7" width="4.1" height="19.7" transform="translate(161.2 -213) rotate(90)"/><rect class="cls-3" x="262.6" y="136.6" width="4.1" height="19.7" transform="translate(179.2 -195) rotate(90)"/><rect class="cls-3" x="262.6" y="154.6" width="4.1" height="19.7" transform="translate(197.1 -177.1) rotate(90)"/><rect class="cls-3" x="262.6" y="172.5" width="4.1" height="19.7" transform="translate(215.1 -159.1) rotate(90)"/><rect class="cls-3" x="262.6" y="190.5" width="4.1" height="19.7" transform="translate(233 -141.1) rotate(90)"/><rect class="cls-3" x="262.6" y="208.5" width="4.1" height="19.7" transform="translate(251 -123.2) rotate(90)"/><rect class="cls-3" x="262.6" y="226.4" width="4.1" height="19.7" transform="translate(269 -105.2) rotate(90)"/><rect class="cls-3" x="262.6" y="244.4" width="4.1" height="19.7" transform="translate(286.9 -87.3) rotate(90)"/><rect class="cls-3" x="262.6" y="262.3" width="4.1" height="19.7" transform="translate(304.9 -69.3) rotate(90)"/><rect class="cls-3" x="262.6" y="280.3" width="4.1" height="19.7" transform="translate(322.8 -51.3) rotate(90)"/><rect class="cls-3" x="262.6" y="298.3" width="4.1" height="19.7" transform="translate(340.8 -33.4) rotate(90)"/><rect class="cls-3" x="262.6" y="316.2" width="4.1" height="19.7" transform="translate(358.7 -15.4) rotate(90)"/><rect class="cls-3" x="262.6" y="334.2" width="4.1" height="19.7" transform="translate(376.7 2.5) rotate(90)"/><rect class="cls-3" x="262.6" y="352.1" width="4.1" height="19.7" transform="translate(394.7 20.5) rotate(90)"/><rect class="cls-3" x="262.6" y="370.1" width="4.1" height="19.7" transform="translate(412.6 38.4) rotate(90)"/><line class="cls-3" x1="42.5" y1="287.3" x2="42.5" y2="290.4"/><line class="cls-3" x1="22.8" y1="290.4" x2="22.8" y2="287.3"/><line class="cls-3" x1="42.5" y1="300.9" x2="42.5" y2="304"/><line class="cls-3" x1="22.8" y1="304" x2="22.8" y2="300.9"/><rect class="cls-3" x="21.2" y="21.1" width="3.2" height="299.95"/><rect class="cls-3" x="40.9" y="21.1" width="3.2" height="299.95"/><circle class="cls-1" cx="67.5" cy="53.8" r="1"/><path class="cls-2" d="M289.8,101.1s6.5,30.8,15.9,38.4" transform="translate(-232 -76.8)"/><path class="cls-4" d="M252.3,390.3l2.3-1.3h7.9l2.1,1.3s1.8,1.1,3.4-7l3.6,2.1s5-3.1,9.7,0c0,0,5.5-4.7,9.1,0,0,0,3.4-2.1,6.3,3.1,0,0,3.1-.4,4.1,1.9v1.8H252.3Z" transform="translate(-232 -76.8)"/><line class="cls-5" x1="40.4" y1="275.9" x2="40.4" y2="318.9"/><line class="cls-5" x1="23" y1="242.6" x2="23" y2="315.1"/><path class="cls-6" d="M311.7,395.7v44.8a8.4,8.4,0,0,1-8.3,8.4h-52a8.5,8.5,0,0,1-8.4-8.4V395.7" transform="translate(-232 -76.8)"/><rect class="cls-7" x="35.7" y="254.1" width="19.4" height="23.07"/><rect class="cls-6" x="12.3" y="244.1" width="5.5" height="99.05"/><rect class="cls-6" x="73" y="244.1" width="5.5" height="99.05"/><path class="cls-8" d="M305,155H249.8v38.6h1.7V179h25.1v14.6h1.7V179h25.1v14.6H305Zm-28.4,19.3H251.5v-14h25.1Zm26.8,0H278.3v-14h25.1Z" transform="translate(-232 -76.8)"/><rect class="cls-6" x="12.3" y="6.9" width="66.2" height="18.4"/><rect class="cls-7" x="5.3" y="122" width="80.3" height="7.05"/><rect class="cls-9" x="4.3" y="314" width="80.3" height="7.05" rx="3.5"/><rect class="cls-7" x="5.3" y="233.3" width="80.3" height="1.79"/><rect class="cls-6" x="5.3" y="235.1" width="80.3" height="9.04"/><rect class="cls-7" x="76.6" y="354.2" width="11.4" height="1.79"/><rect class="cls-7" x="76.6" y="365" width="11.4" height="1.79"/><rect class="cls-6" x="76.6" y="356" width="11.4" height="9.04"/><rect class="cls-6" x="12.3" y="22.9" width="5.5" height="99.05"/><rect class="cls-6" x="73" y="22.9" width="5.5" height="99.05"/><polygon class="cls-10" points="78.5 122 12.3 122 18.1 116.8 72.7 116.8 78.5 122"/><rect class="cls-6" x="12.3" y="134.3" width="5.5" height="99.05"/><rect class="cls-6" x="73" y="134.3" width="5.5" height="99.05"/><polygon class="cls-6" points="78.5 233.3 12.3 233.3 18.1 228.1 72.7 228.1 78.5 233.3"/><polygon class="cls-6" points="12.3 25.3 5.5 19.8 5.5 0 12.3 6.9 12.3 25.3"/><polygon class="cls-6" points="85.3 20.8 78.5 25.3 78.5 6.9 85.3 0 85.3 20.8"/><path class="cls-11" d="M313.8,152.6H241v46.2h2.3V181.4h33.1v17.4h2.2V181.4h33.1v17.4h2.1Zm-37.4,23.1H243.3V159h33.1Zm35.3,0H278.6V159h33.1Z" transform="translate(-232 -76.8)"/><polyline class="cls-12" points="50.6 261.2 50.4 270.5 54.9 274.1"/><polyline class="cls-12" points="40.2 261.2 40.4 270.5 35.9 274.1"/><polygon points="45.6 353.2 44.1 353.2 44.2 332.9 45.7 332.9 45.6 353.2"/><polygon points="45.7 366.8 42.4 366.8 42.4 345.7 45.6 345.7 45.7 366.8"/><rect class="cls-13" x="44.6" y="332.9" width="2.1" height="20.8"/><rect class="cls-13" x="42.9" y="346" width="5.5" height="20.8"/><polygon points="60.9 353.2 59.4 353.2 59.5 332.9 61 332.9 60.9 353.2"/><polygon points="61 366.8 57.7 366.8 57.7 345.7 60.9 345.7 61 366.8"/><rect class="cls-13" x="59.9" y="332.9" width="2.1" height="20.8"/><rect class="cls-13" x="58.2" y="346" width="5.5" height="20.8"/><polygon points="30.3 353.2 28.8 353.2 28.9 332.9 30.4 332.9 30.3 353.2"/><polygon points="30.4 366.8 27.1 366.8 27.1 345.7 30.3 345.7 30.4 366.8"/><rect class="cls-13" x="29.3" y="332.9" width="2.1" height="20.8"/><rect class="cls-13" x="27.6" y="346" width="5.5" height="20.8"/><rect class="cls-7" x="0.5" y="345.7" width="11.4" height="1.79"/><rect class="cls-7" x="0.5" y="356.5" width="11.4" height="1.79"/><rect class="cls-6" x="0.5" y="347.5" width="11.4" height="9.04"/><circle class="cls-14" cx="25.2" cy="376.1" r="4.1"/><circle class="cls-14" cx="67.8" cy="376.1" r="4.1"/><circle class="cls-1" cx="24.7" cy="251.1" r="2.1"/><circle class="cls-1" cx="20.5" cy="262.9" r="2.1"/><circle class="cls-1" cx="16" cy="272.8" r="2.1"/><circle class="cls-1" cx="10.8" cy="282" r="2.1"/><path class="cls-15" d="M258.8,322.2s-7.5,26.1-21.8,44.5" transform="translate(-232 -76.8)"/><rect class="cls-4" x="24.6" y="372" width="1.2" height="4.93"/><rect class="cls-4" x="67.2" y="372" width="1.2" height="4.93"/><circle class="cls-1" cx="24.7" cy="12.6" r="2.1"/><circle class="cls-1" cx="20.5" cy="24.3" r="2.1"/><circle class="cls-1" cx="16" cy="34.2" r="2.1"/><circle class="cls-1" cx="10.8" cy="43.5" r="2.1"/><path class="cls-15" d="M258.8,83.7s-7.5,26.1-21.8,44.5" transform="translate(-232 -76.8)"/><circle class="cls-1" cx="66.8" cy="12.6" r="2.1"/><circle class="cls-1" cx="71" cy="24.3" r="2.1"/><circle class="cls-1" cx="75.6" cy="34.2" r="2.1"/><circle class="cls-1" cx="80.7" cy="43.5" r="2.1"/><path class="cls-15" d="M296.7,83.7s7.5,26.1,21.8,44.5" transform="translate(-232 -76.8)"/><circle class="cls-1" cx="66.8" cy="141.9" r="2.1"/><circle class="cls-1" cx="71" cy="153.7" r="2.1"/><circle class="cls-1" cx="75.6" cy="163.6" r="2.1"/><circle class="cls-1" cx="80.7" cy="172.8" r="2.1"/><path class="cls-15" d="M296.7,213s7.5,26.1,21.8,44.5" transform="translate(-232 -76.8)"/><circle class="cls-1" cx="66.8" cy="250.1" r="2.1"/><circle class="cls-1" cx="71" cy="261.9" r="2.1"/><circle class="cls-1" cx="75.6" cy="271.8" r="2.1"/><circle class="cls-1" cx="80.7" cy="281" r="2.1"/><path class="cls-15" d="M296.7,321.2s7.5,26.1,21.8,44.5" transform="translate(-232 -76.8)"/><circle class="cls-1" cx="24.7" cy="141.9" r="2.1"/><circle class="cls-1" cx="20.6" cy="153.7" r="2.1"/><circle class="cls-1" cx="16" cy="163.6" r="2.1"/><circle class="cls-1" cx="10.8" cy="172.8" r="2.1"/><path class="cls-15" d="M258.8,213s-7.4,26.1-21.7,44.5" transform="translate(-232 -76.8)"/><rect class="cls-7" x="5.3" y="244.1" width="80.3" height="1.79"/><polygon class="cls-10" points="55.1 234.5 55.1 256.5 35.7 256.5 35.7 234.5 37.2 234.5 37.2 222.7 53.6 222.7 53.6 234.5 55.1 234.5"/><rect class="cls-6" x="5.3" y="129" width="80.3" height="7.05"/><rect class="cls-7" x="85.3" width="5.6" height="397.8"/><rect class="cls-7" width="5.5" height="397.8"/></svg>