<svg id="레이어_1" data-name="레이어 1" xmlns="http://www.w3.org/2000/svg" viewBox="0 0 137.8 224.3"><defs><style>.cls-1{fill:#c9caca;}.cls-1,.cls-10,.cls-2{stroke:#999;}.cls-1,.cls-10,.cls-11,.cls-12,.cls-2,.cls-3,.cls-4,.cls-8{stroke-miterlimit:10;}.cls-2,.cls-9{fill:#9fa0a0;}.cls-3,.cls-7{fill:#0c3886;}.cls-3,.cls-8{stroke:#333;}.cls-11,.cls-12,.cls-4,.cls-8{fill:none;}.cls-4{stroke:#898989;}.cls-11,.cls-4{stroke-width:3px;}.cls-5{fill:#231815;}.cls-6{fill:#b5b5b6;}.cls-10{fill:#898989;}.cls-11,.cls-12{stroke:#231815;}.cls-12{stroke-width:2px;}</style></defs><polyline class="cls-1" points="101.2 217.3 104.3 205.9 119.8 205.9 119.8 168.7 104.3 168.7 101.2 157.3 54.8 157.3 51.7 168.7 36.2 168.7 36.2 205.9 51.7 205.9 54.8 217.3"/><polygon class="cls-2" points="30.1 163.2 30.1 197.2 30.1 211.9 36.1 211.9 36.1 197.2 36.1 163.2 30.1 163.2"/><path class="cls-1" d="M178.1,290.6h6V271.2h-6Zm3-15.4" transform="translate(-148 -93.4)"/><polygon class="cls-2" points="119.3 163.2 119.3 197.2 119.3 211.9 125.3 211.9 125.3 197.2 125.3 163.2 119.3 163.2"/><path class="cls-1" d="M267.3,290.6h6V271.2h-6Zm3-15.4" transform="translate(-148 -93.4)"/><path class="cls-1" d="M182.7,226.5" transform="translate(-148 -93.4)"/><polygon class="cls-2" points="101 145.3 68.9 145.3 55 145.3 55 151.3 68.9 151.3 101 151.3 101 145.3"/><path class="cls-1" d="M216.9,238.7v6h18.3v-6Zm14.5,3" transform="translate(-148 -93.4)"/><polygon class="cls-1" points="101 151.3 68.9 151.3 55 151.3 55 157.3 68.9 157.3 101 157.3 101 151.3"/><path class="cls-1" d="M182.7,299" transform="translate(-148 -93.4)"/><polygon class="cls-2" points="101 217.8 68.9 217.8 55 217.8 55 223.8 68.9 223.8 101 223.8 101 217.8"/><path class="cls-1" d="M216.9,311.2v5.9h18.3v-5.9Zm14.5,3" transform="translate(-148 -93.4)"/><path class="cls-3" d="M184.6,130.4a7,7,0,0,0-.8,2v-2Z" transform="translate(-148 -93.4)"/><path class="cls-4" d="M226,102c0-3.9-2.5-7.1-5.4-7.1H166.8c-3,0-5.5,3.2-5.5,7.1V205.8c0,4,2.5,7.2,5.5,7.2" transform="translate(-148 -93.4)"/><rect class="cls-5" x="184.8" y="165.1" width="22.9" height="14.65" transform="translate(220.6 -117.1) rotate(90)"/><rect class="cls-6" x="72" y="7.2" width="12.1" height="124.08"/><rect class="cls-7" x="65.5" y="37" width="25" height="13.23"/><line class="cls-8" x1="72" y1="115.4" x2="84" y2="115.4"/><polygon class="cls-5" points="109.1 143.1 46.9 143.1 72.2 125.5 83.8 125.5 109.1 143.1"/><path class="cls-7" d="M259.8,125.9H192.2a8.5,8.5,0,0,0-7.6,4.5,7,7,0,0,0-.8,2,7.6,7.6,0,0,0-.3,2.1V230a8.7,8.7,0,0,0,8.7,8.7h67.6a8.7,8.7,0,0,0,8.7-8.7V134.5A8.6,8.6,0,0,0,259.8,125.9Zm1.3,97.9a8.7,8.7,0,0,1-8.6,8.6h-53a8.6,8.6,0,0,1-8.6-8.6V143.6h8.5V132.1h53.9v11.4h7.8Z" transform="translate(-148 -93.4)"/><rect class="cls-7" x="27" y="16.5" width="102" height="27.15" rx="4"/><rect class="cls-5" x="62.2" y="48.4" width="31.7" height="12.12"/><rect class="cls-5" x="100.4" y="48.4" width="15.8" height="12.12"/><rect class="cls-9" x="104" y="58.5" width="12.1" height="9.06"/><path class="cls-2" d="M171,160.3h0a1.5,1.5,0,0,0-1.5-1.5H153.2a1.6,1.6,0,0,0-1.6,1.5h0a1.6,1.6,0,0,1-1.5,1.6h0a1.6,1.6,0,0,0-1.6,1.5v10.1a1.6,1.6,0,0,0,1.6,1.5h0a1.6,1.6,0,0,1,1.5,1.6h0a1.6,1.6,0,0,0,1.6,1.5h16.3a1.5,1.5,0,0,0,1.5-1.5h0a1.6,1.6,0,0,1,1.6-1.6h0a1.5,1.5,0,0,0,1.5-1.5V163.4a1.5,1.5,0,0,0-1.5-1.5h0A1.6,1.6,0,0,1,171,160.3Z" transform="translate(-148 -93.4)"/><path class="cls-10" d="M171,179.7h0a1.6,1.6,0,0,0-1.5-1.6H153.2a1.6,1.6,0,0,0-1.6,1.6h0a1.5,1.5,0,0,1-1.5,1.5h0a1.6,1.6,0,0,0-1.6,1.6v10a1.6,1.6,0,0,0,1.6,1.6h0a1.5,1.5,0,0,1,1.5,1.5h0a1.6,1.6,0,0,0,1.6,1.6h16.3a1.6,1.6,0,0,0,1.5-1.6h0a1.6,1.6,0,0,1,1.6-1.5h0a1.6,1.6,0,0,0,1.5-1.6v-10a1.6,1.6,0,0,0-1.5-1.6h0A1.6,1.6,0,0,1,171,179.7Z" transform="translate(-148 -93.4)"/><path class="cls-1" d="M171,199h0a1.5,1.5,0,0,0-1.5-1.5H153.2a1.6,1.6,0,0,0-1.6,1.5h0a1.6,1.6,0,0,1-1.5,1.6h0a1.6,1.6,0,0,0-1.6,1.5v10.1a1.6,1.6,0,0,0,1.6,1.5h0a1.6,1.6,0,0,1,1.5,1.6h0a1.6,1.6,0,0,0,1.6,1.5h16.3a1.5,1.5,0,0,0,1.5-1.5h0a1.6,1.6,0,0,1,1.6-1.6h0a1.5,1.5,0,0,0,1.5-1.5V202.1a1.5,1.5,0,0,0-1.5-1.5h0A1.6,1.6,0,0,1,171,199Z" transform="translate(-148 -93.4)"/><line class="cls-11" x1="20.9" y1="30.1" x2="131.1" y2="30.1"/><rect class="cls-5" x="18.2" y="24.5" width="8.8" height="11.13"/><rect class="cls-5" x="129" y="24.5" width="8.8" height="11.13"/><line class="cls-12" x1="29.7" y1="35.6" x2="29.7" y2="24.5"/><line class="cls-12" x1="41.7" y1="35.6" x2="41.7" y2="24.5"/><line class="cls-12" x1="53.8" y1="35.6" x2="53.8" y2="24.5"/><line class="cls-12" x1="65.8" y1="35.6" x2="65.8" y2="24.5"/><line class="cls-12" x1="77.8" y1="35.6" x2="77.8" y2="24.5"/><line class="cls-12" x1="89.9" y1="35.6" x2="89.9" y2="24.5"/><line class="cls-12" x1="101.9" y1="35.6" x2="101.9" y2="24.5"/><line class="cls-12" x1="114" y1="35.6" x2="114" y2="24.5"/><line class="cls-12" x1="126" y1="35.6" x2="126" y2="24.5"/></svg>