<svg id="레이어_1" data-name="레이어 1" xmlns="http://www.w3.org/2000/svg" xmlns:xlink="http://www.w3.org/1999/xlink" viewBox="0 0 231.2 292.7"><defs><style>.cls-1{fill:#bfc3ce;}.cls-2{fill:url(#무제_그라디언트_5);}.cls-3{fill:url(#무제_그라디언트_5-2);}.cls-4{fill:url(#무제_그라디언트_5-3);}.cls-5{fill:url(#무제_그라디언트_5-4);}.cls-11,.cls-12,.cls-13,.cls-14,.cls-15,.cls-16,.cls-17,.cls-18,.cls-19,.cls-20,.cls-21,.cls-22,.cls-6,.cls-7{opacity:0.4;}.cls-6{fill:url(#무제_그라디언트_65);}.cls-7{fill:url(#무제_그라디언트_63);}.cls-8{fill:#646464;}.cls-9{fill:#a6a9b3;}.cls-10{fill:#b5bac6;}.cls-11{fill:url(#무제_그라디언트_63-2);}.cls-12{fill:url(#무제_그라디언트_63-3);}.cls-13{fill:url(#무제_그라디언트_63-4);}.cls-14{fill:url(#무제_그라디언트_63-5);}.cls-15{fill:url(#무제_그라디언트_63-6);}.cls-16{fill:url(#무제_그라디언트_63-7);}.cls-17{fill:url(#무제_그라디언트_63-8);}.cls-18{fill:url(#무제_그라디언트_63-9);}.cls-19{fill:url(#무제_그라디언트_63-10);}.cls-20{fill:url(#무제_그라디언트_63-11);}.cls-21{fill:url(#무제_그라디언트_63-12);}.cls-22{fill:url(#무제_그라디언트_63-13);}</style><linearGradient id="무제_그라디언트_5" x1="35" y1="11.47" x2="196.16" y2="11.47" gradientUnits="userSpaceOnUse"><stop offset="0" stop-color="#92959c"/><stop offset="0.51" stop-color="#bfc3ce"/><stop offset="1" stop-color="#93959c"/></linearGradient><linearGradient id="무제_그라디언트_5-2" x1="0" y1="49.89" x2="231.16" y2="49.89" xlink:href="#무제_그라디언트_5"/><linearGradient id="무제_그라디언트_5-3" x1="0" y1="32.11" x2="231.16" y2="32.11" xlink:href="#무제_그라디언트_5"/><linearGradient id="무제_그라디언트_5-4" x1="27.48" y1="4.33" x2="203.67" y2="4.33" xlink:href="#무제_그라디언트_5"/><linearGradient id="무제_그라디언트_65" x1="-72.37" y1="372.93" x2="-15.42" y2="372.93" gradientTransform="translate(246.6 -220.4)" gradientUnits="userSpaceOnUse"><stop offset="0.27" stop-color="#b3b3b3" stop-opacity="0"/><stop offset="1" stop-color="#434343"/></linearGradient><linearGradient id="무제_그라디언트_63" x1="-217.84" y1="266.77" x2="-209.62" y2="266.77" gradientTransform="translate(457.9 -5.4)" gradientUnits="userSpaceOnUse"><stop offset="0.27" stop-color="#b3b3b3" stop-opacity="0"/><stop offset="1"/></linearGradient><linearGradient id="무제_그라디언트_63-2" x1="-172.9" y1="331.2" x2="-159.77" y2="331.2" gradientTransform="translate(328.7 -151.1)" xlink:href="#무제_그라디언트_63"/><linearGradient id="무제_그라디언트_63-3" x1="-174.01" y1="378.5" x2="-159.96" y2="378.5" gradientTransform="translate(376.6 -197.7)" xlink:href="#무제_그라디언트_63"/><linearGradient id="무제_그라디언트_63-4" x1="-208.2" y1="331.2" x2="-193.18" y2="331.2" gradientTransform="translate(363 -116.7)" xlink:href="#무제_그라디언트_63"/><linearGradient id="무제_그라디언트_63-5" x1="-207.23" y1="378.5" x2="-193.42" y2="378.5" gradientTransform="translate(410 -164.4)" xlink:href="#무제_그라디언트_63"/><linearGradient id="무제_그라디언트_63-6" x1="-254.1" y1="331.2" x2="-236.22" y2="331.2" gradientTransform="translate(407.5 -72.3)" xlink:href="#무제_그라디언트_63"/><linearGradient id="무제_그라디언트_63-7" x1="-254.72" y1="378.5" x2="-236.84" y2="378.5" gradientTransform="translate(455.4 -118.9)" xlink:href="#무제_그라디언트_63"/><linearGradient id="무제_그라디언트_63-8" x1="-172.9" y1="459.21" x2="-159.77" y2="459.21" gradientTransform="translate(456.7 -279.1)" xlink:href="#무제_그라디언트_63"/><linearGradient id="무제_그라디언트_63-9" x1="-174.01" y1="506.51" x2="-159.96" y2="506.51" gradientTransform="translate(504.6 -325.8)" xlink:href="#무제_그라디언트_63"/><linearGradient id="무제_그라디언트_63-10" x1="-208.2" y1="459.21" x2="-193.18" y2="459.21" gradientTransform="translate(491 -244.7)" xlink:href="#무제_그라디언트_63"/><linearGradient id="무제_그라디언트_63-11" x1="-207.23" y1="506.51" x2="-193.42" y2="506.51" gradientTransform="translate(538 -292.4)" xlink:href="#무제_그라디언트_63"/><linearGradient id="무제_그라디언트_63-12" x1="-254.1" y1="459.21" x2="-236.22" y2="459.21" gradientTransform="translate(535.5 -200.3)" xlink:href="#무제_그라디언트_63"/><linearGradient id="무제_그라디언트_63-13" x1="-254.72" y1="506.51" x2="-236.84" y2="506.51" gradientTransform="translate(583.4 -247)" xlink:href="#무제_그라디언트_63"/></defs><polygon class="cls-1" points="231.2 292.7 231.2 251.6 203 251.6 203 258.7 226.1 292.7 231.2 292.7"/><polygon class="cls-1" points="0 292.7 0 251.6 28.2 251.6 28.2 258.7 5 292.7 0 292.7"/><rect class="cls-2" x="35" y="4.3" width="161.2" height="14.29"/><rect class="cls-3" y="46.3" width="231.2" height="7.14"/><rect class="cls-1" y="53.5" width="231.2" height="198.09"/><polygon class="cls-4" points="231.2 46.3 0 46.3 35 17.9 196.2 17.9 231.2 46.3"/><rect class="cls-5" x="27.5" width="176.2" height="8.66"/><rect class="cls-6" x="174.2" y="53.5" width="56.9" height="198.09"/><rect class="cls-7" x="240.1" y="164.1" width="8.2" height="194.66" transform="translate(354.3 412.3) rotate(180)"/><rect class="cls-8" x="124.4" y="53.6" width="2" height="194.66"/><rect class="cls-8" x="104.9" y="53.6" width="2" height="194.66"/><rect class="cls-9" y="248.2" width="231.2" height="6.66"/><line class="cls-9" x1="105.9" y1="248.2" x2="105.9" y2="254.9"/><line class="cls-9" x1="125.4" y1="248.2" x2="125.4" y2="254.9"/><rect class="cls-10" x="6" y="63" width="44.3" height="31.53" rx="6.5"/><rect class="cls-11" x="155.8" y="158" width="13.1" height="44.3" rx="5.8" transform="translate(-152 231.9) rotate(-90)"/><rect class="cls-10" x="53.3" y="63.2" width="44.3" height="31.53" rx="6.5"/><rect class="cls-12" x="202.6" y="158.6" width="14" height="44.3" rx="6.6" transform="translate(-105.3 279.9) rotate(-90)"/><rect class="cls-10" x="6" y="96.5" width="44.3" height="40.86" rx="6.5"/><rect class="cls-13" x="154.8" y="192.3" width="15" height="44.3" rx="6.6" transform="translate(-186.3 266.3) rotate(-90)"/><rect class="cls-10" x="53.3" y="96.7" width="44.3" height="40.86" rx="6.5"/><rect class="cls-14" x="202.7" y="192" width="13.8" height="44.3" rx="6.6" transform="translate(-138.6 313.2) rotate(-90)"/><rect class="cls-10" x="6" y="139.5" width="44.3" height="104.63" rx="6.5"/><rect class="cls-15" x="153.4" y="236.8" width="17.9" height="44.3" rx="6.6" transform="translate(-230.8 310.8) rotate(-90)"/><rect class="cls-10" x="53.3" y="140.1" width="44.3" height="104.63" rx="6.5"/><rect class="cls-16" x="200.7" y="237.4" width="17.9" height="44.3" rx="6.6" transform="translate(-184.1 358.7) rotate(-90)"/><rect class="cls-10" x="134" y="63" width="44.3" height="31.53" rx="6.5"/><rect class="cls-17" x="283.8" y="158" width="13.1" height="44.3" rx="5.8" transform="translate(-23.9 360) rotate(-90)"/><rect class="cls-10" x="181.3" y="63.2" width="44.3" height="31.53" rx="6.5"/><rect class="cls-18" x="330.6" y="158.6" width="14" height="44.3" rx="6.6" transform="translate(22.7 407.9) rotate(-90)"/><rect class="cls-10" x="134" y="96.5" width="44.3" height="40.86" rx="6.5"/><rect class="cls-19" x="282.8" y="192.3" width="15" height="44.3" rx="6.6" transform="translate(-58.3 394.3) rotate(-90)"/><rect class="cls-10" x="181.3" y="96.7" width="44.3" height="40.86" rx="6.5"/><rect class="cls-20" x="330.7" y="192" width="13.8" height="44.3" rx="6.6" transform="translate(-10.6 441.3) rotate(-90)"/><rect class="cls-10" x="134" y="139.5" width="44.3" height="104.63" rx="6.5"/><rect class="cls-21" x="281.4" y="236.8" width="17.9" height="44.3" rx="6.6" transform="translate(-102.8 438.8) rotate(-90)"/><rect class="cls-10" x="181.3" y="140.1" width="44.3" height="104.63" rx="6.5"/><rect class="cls-22" x="328.7" y="237.4" width="17.9" height="44.3" rx="6.6" transform="translate(-56.1 486.7) rotate(-90)"/></svg>