<?xml version="1.0" encoding="UTF-8" standalone="no"?>
<!-- Created with Inkscape (http://www.inkscape.org/) -->

<svg
   xmlns:dc="http://purl.org/dc/elements/1.1/"
   xmlns:cc="http://creativecommons.org/ns#"
   xmlns:rdf="http://www.w3.org/1999/02/22-rdf-syntax-ns#"
   xmlns:svg="http://www.w3.org/2000/svg"
   xmlns="http://www.w3.org/2000/svg"
   xmlns:sodipodi="http://sodipodi.sourceforge.net/DTD/sodipodi-0.dtd"
   xmlns:inkscape="http://www.inkscape.org/namespaces/inkscape"
   width="62"
   height="47"
   viewBox="0 0 16.404166 12.435417"
   version="1.1"
   id="svg4833"
   inkscape:version="0.92.4 (5da689c313, 2019-01-14)"
   sodipodi:docname="12.svg">
  <defs
     id="defs4827" />
  <sodipodi:namedview
     id="base"
     pagecolor="#ffffff"
     bordercolor="#666666"
     borderopacity="1.0"
     inkscape:pageopacity="0.0"
     inkscape:pageshadow="2"
     inkscape:zoom="2.8554058"
     inkscape:cx="4.8906675"
     inkscape:cy="34.63891"
     inkscape:document-units="mm"
     inkscape:current-layer="layer1"
     showgrid="false"
     units="px"
     inkscape:window-width="645"
     inkscape:window-height="615"
     inkscape:window-x="1345"
     inkscape:window-y="20"
     inkscape:window-maximized="0" />
  <metadata
     id="metadata4830">
    <rdf:RDF>
      <cc:Work
         rdf:about="">
        <dc:format>image/svg+xml</dc:format>
        <dc:type
           rdf:resource="http://purl.org/dc/dcmitype/StillImage" />
        <dc:title></dc:title>
      </cc:Work>
    </rdf:RDF>
  </metadata>
  <g
     inkscape:label="Layer 1"
     inkscape:groupmode="layer"
     id="layer1"
     transform="translate(0,-284.56457)">
    <polygon
       transform="matrix(0.26458333,0,0,0.26458333,-27.168524,309.78199)"
       style="fill:#000002"
       points="125.767,-68.622 126.846,-68.659 126.846,-65.467 129.993,-65.467 129.993,-64.479 126.801,-64.479 132.825,-58.994 138.714,-64.344 135.432,-64.344 135.432,-65.467 138.714,-65.558 138.714,-68.749 139.839,-68.749 139.839,-65.467 145.188,-71.311 139.928,-77.291 139.742,-73.988 138.628,-74.1 138.669,-77.291 135.567,-77.291 135.523,-78.415 138.714,-78.415 132.802,-83.854 126.891,-78.504 130.038,-78.37 130.173,-77.291 126.846,-77.336 126.846,-74.189 125.812,-74.189 125.812,-77.291 120.417,-71.941 125.677,-65.646 "
       id="polygon125" />
  </g>
</svg>
