<svg id="레이어_1" data-name="레이어 1" xmlns="http://www.w3.org/2000/svg" viewBox="0 0 24.77 24.86"><defs><style>.cls-1{fill:#000002;}</style></defs><g id="layer1"><polygon id="polygon125" class="cls-1" points="5.35 15.23 6.43 15.2 6.43 18.39 9.58 18.39 9.58 19.38 6.38 19.38 12.41 24.86 18.3 19.51 15.02 19.51 15.02 18.39 18.3 18.3 18.3 15.11 19.42 15.11 19.42 18.39 24.77 12.54 19.51 6.56 19.32 9.87 18.21 9.75 18.25 6.56 15.15 6.56 15.11 5.44 18.3 5.44 12.38 0 6.47 5.35 9.62 5.48 9.76 6.56 6.43 6.52 6.43 9.66 5.39 9.66 5.39 6.56 0 11.91 5.26 18.21 5.35 15.23"/></g></svg>