<svg id="레이어_1" data-name="레이어 1" xmlns="http://www.w3.org/2000/svg" viewBox="0 0 24.67 18.58"><defs><style>.cls-1{fill:#8b8a91;}</style></defs><g id="layer1"><path id="path137" d="M27.43,15.15c0,5.13-3.17,9.29-7.09,9.29H9.84c-3.91,0-7.08-4.16-7.08-9.29h0c0-5.13,3.17-9.29,7.08-9.29h10.5C24.26,5.86,27.43,10,27.43,15.15Z" transform="translate(-2.76 -5.86)"/><path id="path143" class="cls-1" d="M20.71,6.39a11,11,0,0,0-5.61,8.93c-.28,6.27,5.61,8.73,5.61,8.73a9.7,9.7,0,0,0,5.88-8.83A9.7,9.7,0,0,0,20.71,6.39Z" transform="translate(-2.76 -5.86)"/></g></svg>