<svg id="레이어_1" data-name="레이어 1" xmlns="http://www.w3.org/2000/svg" xmlns:xlink="http://www.w3.org/1999/xlink" viewBox="0 0 354.3 262.6"><defs><style>.cls-1,.cls-2{stroke:#d0d5d7;}.cls-1,.cls-2,.cls-4,.cls-5{stroke-miterlimit:10;}.cls-1{fill:url(#무제_그라디언트_5);}.cls-2{fill:url(#무제_그라디언트_5-2);}.cls-3{fill:#d0d5d7;}.cls-4{stroke:#f0f7fa;fill:url(#무제_그라디언트_8);}.cls-5{fill:none;stroke:#5f5f5f;stroke-width:1.5px;}.cls-6{fill:#494949;}.cls-7{fill:#f0f7fa;}</style><linearGradient id="무제_그라디언트_5" x1="91.9" y1="29.44" x2="91.9" y2="5.45" gradientUnits="userSpaceOnUse"><stop offset="0" stop-color="#c3c9cc"/><stop offset="0.17" stop-color="#bfc5c7"/><stop offset="0.36" stop-color="#b2b7ba"/><stop offset="0.56" stop-color="#9ea1a3"/><stop offset="0.77" stop-color="#818384"/><stop offset="0.98" stop-color="#5c5c5c"/><stop offset="1" stop-color="#575757"/></linearGradient><linearGradient id="무제_그라디언트_5-2" x1="261.02" y1="29.44" x2="261.02" y2="5.45" xlink:href="#무제_그라디언트_5"/><linearGradient id="무제_그라디언트_8" x1="177.13" y1="167.53" x2="177.13" y2="38.88" gradientUnits="userSpaceOnUse"><stop offset="0" stop-color="#c3c9cc"/><stop offset="0.28" stop-color="#c8ced1"/><stop offset="0.6" stop-color="#d5dbde"/><stop offset="0.93" stop-color="#ebf1f4"/><stop offset="1" stop-color="#f0f7fa"/></linearGradient></defs><rect class="cls-1" x="30.8" y="5.5" width="122.1" height="23.98"/><rect class="cls-2" x="200" y="5.5" width="122.1" height="23.98"/><rect class="cls-3" x="22.4" width="138.9" height="5.45"/><rect class="cls-3" x="191.6" width="138.9" height="5.45"/><rect class="cls-4" x="10.1" y="38.9" width="334" height="128.64"/><path class="cls-5" d="M80.6,262.6" transform="translate(-77.8 -122.4)"/><rect class="cls-6" x="213" y="39.6" width="131.2" height="127.27"/><line class="cls-5" x1="213" y1="164" x2="344.1" y2="164"/><line class="cls-5" x1="213" y1="159.7" x2="344.1" y2="159.7"/><line class="cls-5" x1="213" y1="155.5" x2="344.1" y2="155.5"/><line class="cls-5" x1="213" y1="151.3" x2="344.1" y2="151.3"/><line class="cls-5" x1="213" y1="147" x2="344.1" y2="147"/><line class="cls-5" x1="213" y1="142.8" x2="344.1" y2="142.8"/><line class="cls-5" x1="213" y1="138.5" x2="344.1" y2="138.5"/><line class="cls-5" x1="213" y1="134.3" x2="344.1" y2="134.3"/><line class="cls-5" x1="213" y1="130.1" x2="344.1" y2="130.1"/><line class="cls-5" x1="213" y1="125.8" x2="344.1" y2="125.8"/><line class="cls-5" x1="213" y1="121.6" x2="344.1" y2="121.6"/><line class="cls-5" x1="213" y1="117.3" x2="344.1" y2="117.3"/><line class="cls-5" x1="213" y1="113.1" x2="344.1" y2="113.1"/><line class="cls-5" x1="213" y1="108.8" x2="344.1" y2="108.8"/><line class="cls-5" x1="213" y1="104.6" x2="344.1" y2="104.6"/><line class="cls-5" x1="213" y1="100.4" x2="344.1" y2="100.4"/><line class="cls-5" x1="213" y1="96.1" x2="344.1" y2="96.1"/><line class="cls-5" x1="213" y1="91.9" x2="344.1" y2="91.9"/><line class="cls-5" x1="213" y1="87.6" x2="344.1" y2="87.6"/><line class="cls-5" x1="213" y1="83.4" x2="344.1" y2="83.4"/><line class="cls-5" x1="213" y1="79.1" x2="344.1" y2="79.1"/><line class="cls-5" x1="213" y1="74.9" x2="344.1" y2="74.9"/><line class="cls-5" x1="213" y1="70.7" x2="344.1" y2="70.7"/><line class="cls-5" x1="213" y1="66.4" x2="344.1" y2="66.4"/><line class="cls-5" x1="213" y1="62.2" x2="344.1" y2="62.2"/><line class="cls-5" x1="213" y1="57.9" x2="344.1" y2="57.9"/><line class="cls-5" x1="213" y1="53.7" x2="344.1" y2="53.7"/><line class="cls-5" x1="213" y1="49.4" x2="344.1" y2="49.4"/><line class="cls-5" x1="213" y1="45.2" x2="344.1" y2="45.2"/><path class="cls-5" d="M400.1,290.6" transform="translate(-77.8 -122.4)"/><path class="cls-5" d="M378.2,290.6" transform="translate(-77.8 -122.4)"/><path class="cls-5" d="M378.2,163.4" transform="translate(-77.8 -122.4)"/><path class="cls-5" d="M356.3,290.6" transform="translate(-77.8 -122.4)"/><path class="cls-5" d="M356.3,163.4" transform="translate(-77.8 -122.4)"/><path class="cls-5" d="M334.5,290.6" transform="translate(-77.8 -122.4)"/><path class="cls-5" d="M334.5,163.4" transform="translate(-77.8 -122.4)"/><path class="cls-5" d="M312.6,290.6" transform="translate(-77.8 -122.4)"/><path class="cls-5" d="M312.6,163.4" transform="translate(-77.8 -122.4)"/><rect class="cls-6" x="10.1" y="39.6" width="131.2" height="127.27"/><line class="cls-5" x1="10.1" y1="164" x2="141.3" y2="164"/><line class="cls-5" x1="10.1" y1="159.7" x2="141.3" y2="159.7"/><line class="cls-5" x1="10.1" y1="155.5" x2="141.3" y2="155.5"/><line class="cls-5" x1="10.1" y1="151.3" x2="141.3" y2="151.3"/><line class="cls-5" x1="10.1" y1="147" x2="141.3" y2="147"/><line class="cls-5" x1="10.1" y1="142.8" x2="141.3" y2="142.8"/><line class="cls-5" x1="10.1" y1="138.5" x2="141.3" y2="138.5"/><line class="cls-5" x1="10.1" y1="134.3" x2="141.3" y2="134.3"/><line class="cls-5" x1="10.1" y1="130.1" x2="141.3" y2="130.1"/><line class="cls-5" x1="10.1" y1="125.8" x2="141.3" y2="125.8"/><line class="cls-5" x1="10.1" y1="121.6" x2="141.3" y2="121.6"/><line class="cls-5" x1="10.1" y1="117.3" x2="141.3" y2="117.3"/><line class="cls-5" x1="10.1" y1="113.1" x2="141.3" y2="113.1"/><line class="cls-5" x1="10.1" y1="108.8" x2="141.3" y2="108.8"/><line class="cls-5" x1="10.1" y1="104.6" x2="141.3" y2="104.6"/><line class="cls-5" x1="10.1" y1="100.4" x2="141.3" y2="100.4"/><line class="cls-5" x1="10.1" y1="96.1" x2="141.3" y2="96.1"/><line class="cls-5" x1="10.1" y1="91.9" x2="141.3" y2="91.9"/><line class="cls-5" x1="10.1" y1="87.6" x2="141.3" y2="87.6"/><line class="cls-5" x1="10.1" y1="83.4" x2="141.3" y2="83.4"/><line class="cls-5" x1="10.1" y1="79.1" x2="141.3" y2="79.1"/><line class="cls-5" x1="10.1" y1="74.9" x2="141.3" y2="74.9"/><line class="cls-5" x1="10.1" y1="70.7" x2="141.3" y2="70.7"/><line class="cls-5" x1="10.1" y1="66.4" x2="141.3" y2="66.4"/><line class="cls-5" x1="10.1" y1="62.2" x2="141.3" y2="62.2"/><line class="cls-5" x1="10.1" y1="57.9" x2="141.3" y2="57.9"/><line class="cls-5" x1="10.1" y1="53.7" x2="141.3" y2="53.7"/><line class="cls-5" x1="10.1" y1="49.4" x2="141.3" y2="49.4"/><line class="cls-5" x1="10.1" y1="45.2" x2="141.3" y2="45.2"/><path class="cls-5" d="M197.3,290.6" transform="translate(-77.8 -122.4)"/><path class="cls-5" d="M175.4,290.6" transform="translate(-77.8 -122.4)"/><path class="cls-5" d="M175.4,163.4" transform="translate(-77.8 -122.4)"/><path class="cls-5" d="M153.5,290.6" transform="translate(-77.8 -122.4)"/><path class="cls-5" d="M153.5,163.4" transform="translate(-77.8 -122.4)"/><path class="cls-5" d="M131.7,290.6" transform="translate(-77.8 -122.4)"/><path class="cls-5" d="M131.7,163.4" transform="translate(-77.8 -122.4)"/><path class="cls-5" d="M109.8,290.6" transform="translate(-77.8 -122.4)"/><path class="cls-5" d="M109.8,163.4" transform="translate(-77.8 -122.4)"/><path class="cls-7" d="M77.8,151.8V385H432.1V151.8ZM421.9,375.5H87.9V161.3h334Z" transform="translate(-77.8 -122.4)"/></svg>