<svg id="레이어_1" data-name="레이어 1" xmlns="http://www.w3.org/2000/svg" xmlns:xlink="http://www.w3.org/1999/xlink" viewBox="0 0 391.2 415.7"><defs><style>.cls-1{fill:#505700;}.cls-1,.cls-2{stroke:#000;stroke-miterlimit:10;}.cls-2{fill:url(#무제_그라디언트_16);}</style><linearGradient id="무제_그라디언트_16" x1="52.53" y1="241.7" x2="442.72" y2="241.7" gradientUnits="userSpaceOnUse"><stop offset="0" stop-color="#c9c9bc"/><stop offset="0" stop-color="#c8c8b6"/><stop offset="0.04" stop-color="#c0c18b"/><stop offset="0.07" stop-color="#bbbb6a"/><stop offset="0.09" stop-color="#b6b752"/><stop offset="0.12" stop-color="#b4b543"/><stop offset="0.14" stop-color="#b3b43e"/><stop offset="0.51" stop-color="#505700"/><stop offset="0.56" stop-color="#646a0d"/><stop offset="0.67" stop-color="#8f9227"/><stop offset="0.76" stop-color="#a9ab38"/><stop offset="0.81" stop-color="#b3b43e"/><stop offset="0.85" stop-color="#b4b541"/><stop offset="0.88" stop-color="#b5b64b"/><stop offset="0.91" stop-color="#b8b95b"/><stop offset="0.94" stop-color="#bcbd72"/><stop offset="0.96" stop-color="#c1c28f"/><stop offset="0.99" stop-color="#c7c8b3"/><stop offset="0.99" stop-color="#c9c9bc"/></linearGradient></defs><polygon class="cls-1" points="128.7 406.5 128.7 415.2 85.9 415.2 85.9 406.5 90.2 406.5 90.2 306.4 124.4 306.4 124.4 406.5 128.7 406.5"/><polygon class="cls-1" points="302.5 406.5 302.5 415.2 259.7 415.2 259.7 406.5 264 406.5 264 306.4 298.2 306.4 298.2 406.5 302.5 406.5"/><path class="cls-2" d="M442.7,61.3V288.5L247.6,448.3,52.5,288.5V61.3c0-14.4,17.6-26.2,39-26.2H403.7C425.2,35.1,442.7,46.9,442.7,61.3Z" transform="translate(-52 -34.6)"/></svg>