<svg id="레이어_1" data-name="레이어 1" xmlns="http://www.w3.org/2000/svg" xmlns:xlink="http://www.w3.org/1999/xlink" viewBox="0 0 106.5 140.4"><defs><style>.cls-1,.cls-10,.cls-11,.cls-12,.cls-13,.cls-14,.cls-2,.cls-3,.cls-4,.cls-5,.cls-6,.cls-7,.cls-8,.cls-9{stroke:#b3b3b3;stroke-miterlimit:10;stroke-width:0.5px;}.cls-1{fill:url(#무제_그라디언트_18);}.cls-2{fill:url(#무제_그라디언트_18-2);}.cls-3{fill:#b3b3b3;}.cls-4{fill:url(#무제_그라디언트_18-3);}.cls-5{fill:url(#무제_그라디언트_18-4);}.cls-6{fill:url(#무제_그라디언트_18-5);}.cls-7{fill:url(#무제_그라디언트_18-6);}.cls-8{fill:url(#무제_그라디언트_18-7);}.cls-9{fill:url(#무제_그라디언트_18-8);}.cls-10{fill:url(#무제_그라디언트_18-9);}.cls-11{fill:url(#무제_그라디언트_18-10);}.cls-12{fill:url(#무제_그라디언트_18-11);}.cls-13{fill:url(#무제_그라디언트_18-12);}.cls-14{fill:#efefef;}</style><linearGradient id="무제_그라디언트_18" x1="206.83" y1="144.68" x2="311.79" y2="144.68" gradientTransform="translate(-4.4 7.8) rotate(-1.8)" gradientUnits="userSpaceOnUse"><stop offset="0.5" stop-color="#efefef"/><stop offset="0.52" stop-color="#e7e6e6"/></linearGradient><linearGradient id="무제_그라디언트_18-2" x1="206.83" y1="140.28" x2="311.79" y2="140.28" xlink:href="#무제_그라디언트_18"/><linearGradient id="무제_그라디언트_18-3" x1="206.15" y1="165.92" x2="311.11" y2="165.92" xlink:href="#무제_그라디언트_18"/><linearGradient id="무제_그라디언트_18-4" x1="206.15" y1="161.53" x2="311.11" y2="161.53" xlink:href="#무제_그라디언트_18"/><linearGradient id="무제_그라디언트_18-5" x1="205.47" y1="187.17" x2="310.43" y2="187.17" xlink:href="#무제_그라디언트_18"/><linearGradient id="무제_그라디언트_18-6" x1="205.47" y1="182.77" x2="310.43" y2="182.77" xlink:href="#무제_그라디언트_18"/><linearGradient id="무제_그라디언트_18-7" x1="204.79" y1="208.42" x2="309.76" y2="208.42" xlink:href="#무제_그라디언트_18"/><linearGradient id="무제_그라디언트_18-8" x1="204.79" y1="204.02" x2="309.76" y2="204.02" xlink:href="#무제_그라디언트_18"/><linearGradient id="무제_그라디언트_18-9" x1="204.12" y1="229.66" x2="309.08" y2="229.66" xlink:href="#무제_그라디언트_18"/><linearGradient id="무제_그라디언트_18-10" x1="204.12" y1="225.27" x2="309.08" y2="225.27" xlink:href="#무제_그라디언트_18"/><linearGradient id="무제_그라디언트_18-11" x1="203.44" y1="250.91" x2="308.4" y2="250.91" xlink:href="#무제_그라디언트_18"/><linearGradient id="무제_그라디언트_18-12" x1="203.44" y1="246.51" x2="308.4" y2="246.51" xlink:href="#무제_그라디언트_18"/></defs><path class="cls-1" d="M259.4,132.5l-1.8.3c-28.8,5.1-51.4,13.8-50.4,19.5s25.2,6.1,54,1c7.9-1.4,15.4-3.1,22-4.9l-23.2-16Z" transform="translate(-205.4 -123)"/><path class="cls-2" d="M311.6,133.8c-1-5.5-23.8-6-51.6-1.4l23.2,16h.6C300.9,143.5,312.3,137.9,311.6,133.8Z" transform="translate(-205.4 -123)"/><path class="cls-3" d="M311.6,133.8c-1-5.5-23.8-6-51.6-1.4l23.2,16h.6C300.9,143.5,312.3,137.9,311.6,133.8Z" transform="translate(-205.4 -123)"/><path class="cls-4" d="M259.4,153.8l-1.8.3c-28.8,5.1-51.4,13.8-50.4,19.4s25.2,6.1,54,1.1c7.9-1.5,15.4-3.1,22-4.9l-23.2-16Z" transform="translate(-205.4 -123)"/><path class="cls-5" d="M311.6,155.1c-1-5.5-23.8-6.1-51.6-1.4l23.2,16,.6-.2C300.9,164.8,312.3,159.1,311.6,155.1Z" transform="translate(-205.4 -123)"/><path class="cls-3" d="M311.6,155.1c-1-5.5-23.8-6.1-51.6-1.4l23.2,16,.6-.2C300.9,164.8,312.3,159.1,311.6,155.1Z" transform="translate(-205.4 -123)"/><path class="cls-6" d="M259.4,175l-1.8.3c-28.8,5.1-51.4,13.8-50.4,19.5s25.2,6.1,54,1c7.9-1.4,15.4-3.1,22-4.9l-23.2-16Z" transform="translate(-205.4 -123)"/><path class="cls-7" d="M311.6,176.4c-1-5.5-23.8-6.1-51.6-1.5l23.2,16h.6C300.9,186,312.3,180.4,311.6,176.4Z" transform="translate(-205.4 -123)"/><path class="cls-3" d="M311.6,176.4c-1-5.5-23.8-6.1-51.6-1.5l23.2,16h.6C300.9,186,312.3,180.4,311.6,176.4Z" transform="translate(-205.4 -123)"/><path class="cls-8" d="M259.4,196.3l-1.8.3c-28.8,5.1-51.4,13.8-50.4,19.5s25.2,6.1,54,1c7.9-1.4,15.4-3.1,22-4.9l-23.2-16Z" transform="translate(-205.4 -123)"/><path class="cls-9" d="M311.6,197.6c-1-5.5-23.8-6.1-51.6-1.4l23.2,16,.6-.2C300.9,207.3,312.3,201.7,311.6,197.6Z" transform="translate(-205.4 -123)"/><path class="cls-3" d="M311.6,197.6c-1-5.5-23.8-6.1-51.6-1.4l23.2,16,.6-.2C300.9,207.3,312.3,201.7,311.6,197.6Z" transform="translate(-205.4 -123)"/><path class="cls-10" d="M259.4,217.5l-1.8.4c-28.8,5.1-51.4,13.8-50.4,19.4s25.2,6.1,54,1c7.9-1.4,15.4-3.1,22-4.9l-23.2-16Z" transform="translate(-205.4 -123)"/><path class="cls-11" d="M311.6,218.9c-1-5.5-23.8-6.1-51.6-1.5l23.2,16h.6C300.9,228.5,312.3,222.9,311.6,218.9Z" transform="translate(-205.4 -123)"/><path class="cls-3" d="M311.6,218.9c-1-5.5-23.8-6.1-51.6-1.5l23.2,16h.6C300.9,228.5,312.3,222.9,311.6,218.9Z" transform="translate(-205.4 -123)"/><path class="cls-12" d="M259.4,238.8l-1.8.3c-28.8,5.1-51.4,13.8-50.4,19.5s25.2,6.1,54,1c7.9-1.4,15.4-3.1,22-4.9l-23.2-16Z" transform="translate(-205.4 -123)"/><path class="cls-13" d="M311.6,240.1c-1-5.5-23.8-6-51.6-1.4l23.2,16,.6-.2C300.9,249.8,312.3,244.2,311.6,240.1Z" transform="translate(-205.4 -123)"/><path class="cls-3" d="M311.6,240.1c-1-5.5-23.8-6-51.6-1.4l23.2,16,.6-.2C300.9,249.8,312.3,244.2,311.6,240.1Z" transform="translate(-205.4 -123)"/><ellipse class="cls-14" cx="53.3" cy="10.6" rx="53" ry="10.4"/></svg>