<svg id="레이어_1" data-name="레이어 1" xmlns="http://www.w3.org/2000/svg" xmlns:xlink="http://www.w3.org/1999/xlink" viewBox="0 0 226.9 251.5"><defs><style>.cls-1,.cls-2,.cls-3,.cls-4,.cls-5,.cls-6,.cls-7{stroke:#999;stroke-miterlimit:10;}.cls-1{fill:url(#무제_그라디언트_19);}.cls-2{fill:url(#무제_그라디언트_15);}.cls-3{fill:#040000;}.cls-4{fill:#b5b5b6;}.cls-5{fill:#efefef;}.cls-6{fill:url(#무제_그라디언트_14);}.cls-7{fill:url(#무제_그라디언트_17);}</style><linearGradient id="무제_그라디언트_19" x1="62.48" y1="221.06" x2="62.48" y2="193.47" gradientUnits="userSpaceOnUse"><stop offset="0" stop-color="#b5b5b6"/><stop offset="0.51" stop-color="#efefef"/><stop offset="1" stop-color="#b5b5b6"/></linearGradient><linearGradient id="무제_그라디언트_15" x1="163.22" y1="250.96" x2="163.22" y2="144.7" gradientUnits="userSpaceOnUse"><stop offset="0" stop-color="#374e76"/><stop offset="0.02" stop-color="#41587f"/><stop offset="0.1" stop-color="#657ba0"/><stop offset="0.18" stop-color="#7f94b7"/><stop offset="0.25" stop-color="#8fa4c5"/><stop offset="0.3" stop-color="#94a9ca"/><stop offset="0.62" stop-color="#374e76"/><stop offset="0.69" stop-color="#3d547c"/><stop offset="1" stop-color="#94a9ca"/></linearGradient><linearGradient id="무제_그라디언트_14" x1="144.96" y1="237.9" x2="144.96" y2="177.08" gradientUnits="userSpaceOnUse"><stop offset="0" stop-color="#94a9ca"/><stop offset="0.51" stop-color="#d7e4f7"/><stop offset="1" stop-color="#94a9ca"/></linearGradient><linearGradient id="무제_그라디언트_17" x1="105.54" y1="196.55" x2="105.54" y2="181.36" gradientUnits="userSpaceOnUse"><stop offset="0" stop-color="#4d4d4d"/><stop offset="0" stop-color="#4e4e4e"/><stop offset="0.07" stop-color="#7d7d7d"/><stop offset="0.14" stop-color="#a5a5a5"/><stop offset="0.21" stop-color="#c5c5c5"/><stop offset="0.28" stop-color="#dfdfdf"/><stop offset="0.35" stop-color="#f1f1f1"/><stop offset="0.43" stop-color="#fcfcfc"/><stop offset="0.52" stop-color="#fff"/><stop offset="0.61" stop-color="#f7f7f7"/><stop offset="0.81" stop-color="#eaeaea"/><stop offset="1" stop-color="#e6e6e6"/></linearGradient></defs><rect class="cls-1" x="0.5" y="193.5" width="124" height="27.59"/><rect class="cls-2" x="118.7" y="144.7" width="89.1" height="106.26"/><rect class="cls-3" x="97.6" y="72.9" width="26.9" height="55.13" rx="5.3"/><rect class="cls-3" x="105.5" y="73" width="115.3" height="77.92"/><rect class="cls-3" x="109.2" y="6.2" width="105.1" height="69.03"/><rect class="cls-4" x="130.7" y="0.5" width="62.1" height="5.19"/><rect class="cls-4" x="109.2" y="66.1" width="105.1" height="4.46"/><rect class="cls-4" x="109.2" y="6.2" width="3.6" height="62.13"/><rect class="cls-4" x="105.5" y="73" width="3.5" height="62.13"/><rect class="cls-4" x="102" y="73" width="3.5" height="16.57"/><rect class="cls-4" x="115.8" y="6.2" width="10.3" height="62.13"/><rect class="cls-4" x="109.2" y="73" width="111.9" height="4.46"/><rect class="cls-5" x="109.2" y="68.3" width="16.9" height="9.13"/><rect class="cls-4" x="105.5" y="128" width="115.3" height="23.09"/><rect class="cls-5" x="145" y="128" width="6.9" height="23.09"/><rect class="cls-5" x="180.2" y="128" width="6.9" height="23.09"/><rect class="cls-6" x="67.3" y="177.1" width="155.3" height="60.82"/><rect class="cls-5" x="222.6" y="173.8" width="3.8" height="67.01"/><rect class="cls-7" x="69.4" y="181.4" width="72.3" height="15.19"/><rect class="cls-5" x="65.4" y="173.8" width="3.8" height="67.01"/></svg>