<svg id="레이어_1" data-name="레이어 1" xmlns="http://www.w3.org/2000/svg" viewBox="0 0 351.3 210.5"><defs><style>.cls-1{fill:#003b77;opacity:0.5;}.cls-2,.cls-3{fill:none;stroke-miterlimit:10;}.cls-2{stroke:#ff0007;stroke-width:6px;}.cls-3{stroke:#c9c8c8;stroke-width:8px;}.cls-4{fill:#c9c8c8;}.cls-5{fill:#136aae;}.cls-6{fill:#87929b;}</style></defs><rect class="cls-1" x="0.9" y="42" width="343.3" height="164.5"/><line class="cls-2" x1="175.6" y1="198.1" x2="175.6" y2="69.4"/><line class="cls-2" x1="58.5" y1="204" x2="58.5" y2="77.1"/><line class="cls-2" x1="288.8" y1="204" x2="288.8" y2="77.1"/><polyline class="cls-3" points="347.3 12.6 347.3 206.5 4 206.5 4 12.6"/><rect class="cls-4" x="115.7" y="194.6" width="119.9" height="11.95"/><rect class="cls-5" x="85.7" y="107.3" width="8" height="8"/><rect class="cls-5" x="207.5" y="253.9" width="6.8" height="6.75" transform="translate(239.2 -222.3) rotate(57.9)"/><rect class="cls-5" x="300.3" y="314.6" width="6.8" height="6.75" transform="translate(334 -272.5) rotate(57.9)"/><rect class="cls-6" x="185.4" y="314.6" width="6.8" height="6.75" transform="translate(280.2 -175.1) rotate(57.9)"/><rect class="cls-5" x="306.3" y="235.9" width="6.8" height="6.75" transform="translate(270.2 -314.5) rotate(57.9)"/><rect class="cls-6" x="258.8" y="200.6" width="6.8" height="6.75" transform="translate(218 -290.7) rotate(57.9)"/><rect class="cls-6" x="258.4" y="165.1" width="4.6" height="4.58" transform="translate(186.4 -306.6) rotate(57.9)"/><rect class="cls-5" x="231" y="186.1" width="5.2" height="5.16" transform="translate(191.8 -273.6) rotate(57.9)"/><rect class="cls-5" x="220.6" y="281.1" width="6.8" height="6.75" transform="translate(268.4 -220.7) rotate(57.9)"/><rect class="cls-5" x="176.7" y="223.9" width="6.8" height="6.75" transform="translate(199.3 -210.3) rotate(57.9)"/><rect class="cls-6" x="280.8" y="277.2" width="6.8" height="6.75" transform="translate(293.2 -273.5) rotate(57.9)"/><rect class="cls-5" x="273.4" y="223.9" width="6.8" height="6.75" transform="translate(244.6 -292.2) rotate(57.9)"/><rect class="cls-6" x="228.3" y="223.9" width="6.8" height="6.75" transform="translate(223.5 -254) rotate(57.9)"/><rect class="cls-5" x="253.7" y="120.3" width="8" height="8"/></svg>