<svg id="레이어_1" data-name="레이어 1" xmlns="http://www.w3.org/2000/svg" xmlns:xlink="http://www.w3.org/1999/xlink" viewBox="0 0 282.2 428.8"><defs><style>.cls-1{fill:#dcdddd;}.cls-1,.cls-2,.cls-3{stroke:#b3b3b3;}.cls-1,.cls-2,.cls-3,.cls-4{stroke-miterlimit:10;}.cls-2{fill:#bababb;}.cls-3{fill:url(#무제_그라디언트_6);}.cls-4{fill:#fff;stroke:#000;}.cls-5{fill:#4fa569;}.cls-6{fill:#2c8640;}.cls-7{fill:#15793d;}.cls-8{opacity:0.7;fill:url(#무제_그라디언트_11);}</style><linearGradient id="무제_그라디언트_6" x1="107.89" y1="392.25" x2="372.91" y2="392.25" gradientUnits="userSpaceOnUse"><stop offset="0" stop-color="#9d9e9e"/><stop offset="0.51" stop-color="#ebebeb"/><stop offset="1" stop-color="#9d9e9e"/></linearGradient><linearGradient id="무제_그라디언트_11" x1="240.4" y1="97.15" x2="240.4" y2="130.4" gradientUnits="userSpaceOnUse"><stop offset="0" stop-color="#fff"/><stop offset="0.07" stop-color="#fff2f7" stop-opacity="0.9"/><stop offset="0.27" stop-color="#ffcfe1" stop-opacity="0.63"/><stop offset="0.46" stop-color="#ffb1ce" stop-opacity="0.41"/><stop offset="0.63" stop-color="#ff9abf" stop-opacity="0.23"/><stop offset="0.78" stop-color="#ff89b5" stop-opacity="0.1"/><stop offset="0.91" stop-color="#ff7fae" stop-opacity="0.03"/><stop offset="1" stop-color="#ff7bac" stop-opacity="0"/></linearGradient></defs><rect class="cls-1" x="0.5" y="0.5" width="23.4" height="234.48"/><rect class="cls-1" x="129.4" y="201.4" width="23.4" height="101.02"/><circle class="cls-2" cx="141.1" cy="117.7" r="117.2"/><rect x="0.2" y="80.3" width="23.6" height="77.18"/><rect class="cls-1" x="258.4" y="0.5" width="23.4" height="234.48"/><rect x="258.1" y="80.3" width="23.6" height="77.18"/><path class="cls-3" d="M372.9,318.7c0,72-51.8,131.3-118.3,138.7v8.4H226.2v-8.4c-66.5-7.4-118.3-66.7-118.3-138.7Z" transform="translate(-99.3 -37.5)"/><circle class="cls-4" cx="141.1" cy="117.7" r="84.8"/><circle class="cls-5" cx="141.1" cy="117.7" r="78.4"/><circle class="cls-6" cx="141.1" cy="117.7" r="66.8"/><ellipse class="cls-7" cx="141.1" cy="117.7" rx="58.4" ry="58"/><ellipse class="cls-6" cx="141.1" cy="117.7" rx="51.5" ry="51.2"/><ellipse class="cls-7" cx="141.1" cy="117.7" rx="46" ry="45.7"/><ellipse class="cls-6" cx="141.1" cy="117.7" rx="35.8" ry="35.6"/><circle class="cls-7" cx="141.1" cy="117.7" r="28.3"/><circle class="cls-5" cx="141.1" cy="117.7" r="22.2"/><circle class="cls-7" cx="141.1" cy="117.7" r="17.4"/><circle class="cls-5" cx="141.1" cy="117.7" r="14.1"/><circle class="cls-7" cx="141.1" cy="117.7" r="6"/><path class="cls-7" d="M240.4,240.1" transform="translate(-99.3 -37.5)"/><path class="cls-7" d="M240.4,155.3" transform="translate(-99.3 -37.5)"/><path class="cls-7" d="M321.1,181.5" transform="translate(-99.3 -37.5)"/><path class="cls-7" d="M240.4,155.3" transform="translate(-99.3 -37.5)"/><path class="cls-7" d="M290.2,86.7" transform="translate(-99.3 -37.5)"/><path class="cls-7" d="M240.4,155.3" transform="translate(-99.3 -37.5)"/><path class="cls-7" d="M190.5,86.7" transform="translate(-99.3 -37.5)"/><path class="cls-7" d="M240.4,155.3" transform="translate(-99.3 -37.5)"/><path class="cls-7" d="M159.7,181.5" transform="translate(-99.3 -37.5)"/><path class="cls-7" d="M240.4,155.3" transform="translate(-99.3 -37.5)"/><path class="cls-8" d="M293.2,130.4H187.6c18.8-36.1,52.8-33.1,52.8-33.1C277.3,94.9,293.2,130.4,293.2,130.4Z" transform="translate(-99.3 -37.5)"/></svg>