<svg id="레이어_1" data-name="레이어 1" xmlns="http://www.w3.org/2000/svg" xmlns:xlink="http://www.w3.org/1999/xlink" viewBox="0 0 245.4 266.5"><defs><style>.cls-1,.cls-3{stroke:#4d4d4d;}.cls-1,.cls-10,.cls-3,.cls-6,.cls-7,.cls-8,.cls-9{stroke-miterlimit:10;}.cls-1{fill:url(#무제_그라디언트_59);}.cls-2{fill:#4d4d4d;}.cls-3{fill:url(#무제_그라디언트_59-2);}.cls-4{fill:url(#무제_그라디언트_59-3);}.cls-5{fill:url(#무제_그라디언트_55);}.cls-6{stroke:#ccc;stroke-width:0.5px;fill:url(#무제_그라디언트_44);}.cls-10,.cls-7,.cls-8,.cls-9{fill:none;}.cls-7{stroke-width:2px;stroke:url(#무제_그라디언트_53);}.cls-8{stroke:#83898e;}.cls-9{stroke:#000;stroke-width:4px;}.cls-10{stroke:#7d7e7f;stroke-width:5px;}.cls-11{fill:url(#무제_그라디언트_59-4);}</style><linearGradient id="무제_그라디언트_59" x1="-9.66" y1="255.09" x2="274.27" y2="255.09" gradientUnits="userSpaceOnUse"><stop offset="0" stop-color="#ccd1d5"/><stop offset="0.48" stop-color="#e4eaed"/><stop offset="1" stop-color="#bbc2c6"/></linearGradient><linearGradient id="무제_그라디언트_59-2" x1="-9.66" y1="244.2" x2="274.27" y2="244.2" xlink:href="#무제_그라디언트_59"/><linearGradient id="무제_그라디언트_59-3" x1="35.49" y1="183.45" x2="209.95" y2="183.45" xlink:href="#무제_그라디언트_59"/><linearGradient id="무제_그라디언트_55" x1="35.49" y1="69.73" x2="209.95" y2="69.73" gradientUnits="userSpaceOnUse"><stop offset="0" stop-color="#b3b9bc"/><stop offset="0.5" stop-color="#d9dee1"/><stop offset="1" stop-color="#babfc5"/></linearGradient><linearGradient id="무제_그라디언트_44" x1="8.43" y1="74.32" x2="237" y2="74.32" gradientUnits="userSpaceOnUse"><stop offset="0" stop-color="#babfc5"/><stop offset="0.5" stop-color="#d9dee1"/><stop offset="1" stop-color="#babfc5"/></linearGradient><linearGradient id="무제_그라디언트_53" x1="122.72" y1="125.18" x2="122.72" y2="23.45" gradientUnits="userSpaceOnUse"><stop offset="0" stop-color="#a5a9ae"/><stop offset="0.48" stop-color="#83898e"/><stop offset="1" stop-color="#a7adb1"/></linearGradient><linearGradient id="무제_그라디언트_59-4" x1="20.49" y1="196.62" x2="224.95" y2="196.62" xlink:href="#무제_그라디언트_59"/></defs><rect class="cls-1" x="0.5" y="244.2" width="244.4" height="21.77"/><polygon class="cls-2" points="245.4 243.6 0 243.6 18.1 217.4 227.4 217.4 245.4 243.6"/><line class="cls-3" x1="0.5" y1="244.2" x2="244.9" y2="244.2"/><polygon class="cls-4" points="209.9 134.7 35.5 134.7 35.5 232.2 100.5 232.2 100.5 224.7 144.9 224.7 144.9 232.2 209.9 232.2 209.9 134.7"/><path class="cls-5" d="M120.5,0h4.5a85,85,0,0,1,85,85v54.5a0,0,0,0,1,0,0H35.5a0,0,0,0,1,0,0V85A85,85,0,0,1,120.5,0Z"/><rect class="cls-6" x="8.4" y="23.5" width="228.6" height="101.73" rx="50.9"/><line class="cls-7" x1="122.7" y1="23.5" x2="122.7" y2="125.2"/><path class="cls-8" d="M203.1,121.4s-38.9,53.2,0,101.7" transform="translate(-105.1 -97.9)"/><path class="cls-8" d="M161.1,121.4s-39,53.2,0,101.7" transform="translate(-105.1 -97.9)"/><path class="cls-8" d="M252.5,121.4s38.9,53.2,0,101.7" transform="translate(-105.1 -97.9)"/><path class="cls-8" d="M294.5,121.4s39,53.2,0,101.7" transform="translate(-105.1 -97.9)"/><line class="cls-9" x1="35.5" y1="156.2" x2="209.9" y2="156.2"/><line class="cls-10" x1="35.5" y1="175.9" x2="209.9" y2="175.9"/><polygon class="cls-11" points="224.9 215.3 20.5 215.3 35.5 177.9 209.9 177.9 224.9 215.3"/></svg>