<?xml version="1.0" encoding="UTF-8" standalone="no"?>
<!-- Created with Inkscape (http://www.inkscape.org/) -->

<svg
   xmlns:osb="http://www.openswatchbook.org/uri/2009/osb"
   xmlns:dc="http://purl.org/dc/elements/1.1/"
   xmlns:cc="http://creativecommons.org/ns#"
   xmlns:rdf="http://www.w3.org/1999/02/22-rdf-syntax-ns#"
   xmlns:svg="http://www.w3.org/2000/svg"
   xmlns="http://www.w3.org/2000/svg"
   xmlns:xlink="http://www.w3.org/1999/xlink"
   xmlns:sodipodi="http://sodipodi.sourceforge.net/DTD/sodipodi-0.dtd"
   xmlns:inkscape="http://www.inkscape.org/namespaces/inkscape"
   width="210"
   height="297"
   viewBox="0 0 55.562499 78.581252"
   version="1.1"
   id="svg8"
   inkscape:version="0.92.4 (5da689c313, 2019-01-14)"
   sodipodi:docname="게시판.svg">
  <defs
     id="defs2">
    <linearGradient
       id="linearGradient6540"
       osb:paint="solid">
      <stop
         style="stop-color:#0d0909;stop-opacity:1;"
         offset="0"
         id="stop6538" />
    </linearGradient>
    <linearGradient
       id="linearGradient6526"
       osb:paint="solid">
      <stop
         style="stop-color:#6a6a6a;stop-opacity:1;"
         offset="0"
         id="stop6524" />
    </linearGradient>
    <linearGradient
       id="linearGradient6516"
       osb:paint="gradient">
      <stop
         style="stop-color:#000000;stop-opacity:1;"
         offset="0"
         id="stop6512" />
      <stop
         style="stop-color:#000000;stop-opacity:0;"
         offset="1"
         id="stop6514" />
    </linearGradient>
    <linearGradient
       inkscape:collect="always"
       id="linearGradient992">
      <stop
         style="stop-color:#b3b3b3;stop-opacity:1;"
         offset="0"
         id="stop988" />
      <stop
         style="stop-color:#b3b3b3;stop-opacity:0;"
         offset="1"
         id="stop990" />
    </linearGradient>
    <radialGradient
       inkscape:collect="always"
       xlink:href="#linearGradient992"
       id="radialGradient994"
       cx="27.970239"
       cy="257.78495"
       fx="27.970239"
       fy="257.78495"
       r="27.569346"
       gradientTransform="matrix(0.93464057,0,0,1.3429886,-0.5342324,-90.779659)"
       gradientUnits="userSpaceOnUse" />
  </defs>
  <sodipodi:namedview
     id="base"
     pagecolor="#ffffff"
     bordercolor="#666666"
     borderopacity="1.0"
     inkscape:pageopacity="0.0"
     inkscape:pageshadow="2"
     inkscape:zoom="1.4"
     inkscape:cx="41.685683"
     inkscape:cy="137.92988"
     inkscape:document-units="mm"
     inkscape:current-layer="layer1"
     showgrid="false"
     units="px"
     inkscape:window-width="1666"
     inkscape:window-height="830"
     inkscape:window-x="752"
     inkscape:window-y="106"
     inkscape:window-maximized="0"
     showguides="true"
     inkscape:guide-bbox="true" />
  <metadata
     id="metadata5">
    <rdf:RDF>
      <cc:Work
         rdf:about="">
        <dc:format>image/svg+xml</dc:format>
        <dc:type
           rdf:resource="http://purl.org/dc/dcmitype/StillImage" />
        <dc:title></dc:title>
      </cc:Work>
    </rdf:RDF>
  </metadata>
  <g
     inkscape:label="Layer 1"
     inkscape:groupmode="layer"
     id="layer1"
     transform="translate(0,-218.41873)">
    <flowRoot
       xml:space="preserve"
       id="flowRoot831"
       style="font-style:normal;font-weight:normal;font-size:40px;line-height:1.25;font-family:sans-serif;letter-spacing:0px;word-spacing:0px;fill:#000000;fill-opacity:1;stroke:none"
       transform="scale(0.26458333)"><flowRegion
         id="flowRegion833"><rect
           id="rect835"
           width="60"
           height="74.285713"
           x="165.71428"
           y="516.80542" /></flowRegion><flowPara
         id="flowPara837" /></flowRoot>    <rect
       style="opacity:0.36000001;fill:none;fill-opacity:1;fill-rule:nonzero;stroke:#070304;stroke-width:0.4972901;stroke-linecap:square;stroke-linejoin:miter;stroke-miterlimit:4;stroke-dasharray:none;stroke-dashoffset:0;stroke-opacity:1;paint-order:stroke fill markers"
       id="rect998"
       width="54.677452"
       height="77.741684"
       x="0.51317191"
       y="218.88643" />
    <rect
       style="opacity:0.28999999;fill:#3c3c3c;fill-opacity:1;fill-rule:nonzero;stroke:#694949;stroke-width:0.18715477;stroke-linecap:square;stroke-linejoin:miter;stroke-miterlimit:4;stroke-dasharray:none;stroke-dashoffset:0;stroke-opacity:1;paint-order:fill markers stroke"
       id="rect843-9"
       width="19.665432"
       height="2.3191018"
       x="28.45056"
       y="227.04875" />
    <rect
       style="opacity:0.28999999;fill:#bbbbbb;fill-opacity:1;fill-rule:nonzero;stroke:none;stroke-width:0.18715477;stroke-linecap:square;stroke-linejoin:miter;stroke-miterlimit:4;stroke-dasharray:none;stroke-dashoffset:0;stroke-opacity:1;paint-order:fill markers stroke"
       id="rect843-9-9"
       width="19.665432"
       height="2.3191018"
       x="28.560989"
       y="232.45381" />
    <rect
       style="opacity:0.28999999;fill:#3c3c3c;fill-opacity:1;fill-rule:nonzero;stroke:#694949;stroke-width:0.18715477;stroke-linecap:square;stroke-linejoin:miter;stroke-miterlimit:4;stroke-dasharray:none;stroke-dashoffset:0;stroke-opacity:1;paint-order:fill markers stroke"
       id="rect843-9-1"
       width="19.665432"
       height="2.3191018"
       x="28.210432"
       y="253.38426" />
    <rect
       style="opacity:0.28999999;fill:#bbbbbb;fill-opacity:1;fill-rule:nonzero;stroke:none;stroke-width:0.18715477;stroke-linecap:square;stroke-linejoin:miter;stroke-miterlimit:4;stroke-dasharray:none;stroke-dashoffset:0;stroke-opacity:1;paint-order:fill markers stroke"
       id="rect843-9-9-8"
       width="19.665432"
       height="2.3191018"
       x="28.320864"
       y="258.78937" />
    <rect
       style="opacity:0.28999999;fill:#3c3c3c;fill-opacity:1;fill-rule:nonzero;stroke:#694949;stroke-width:0.18715477;stroke-linecap:square;stroke-linejoin:miter;stroke-miterlimit:4;stroke-dasharray:none;stroke-dashoffset:0;stroke-opacity:1;paint-order:fill markers stroke"
       id="rect843-9-3-1"
       width="19.665432"
       height="2.3191018"
       x="28.523932"
       y="279.97488" />
    <rect
       style="opacity:0.28999999;fill:#bbbbbb;fill-opacity:1;fill-rule:nonzero;stroke:none;stroke-width:0.18715477;stroke-linecap:square;stroke-linejoin:miter;stroke-miterlimit:4;stroke-dasharray:none;stroke-dashoffset:0;stroke-opacity:1;paint-order:fill markers stroke"
       id="rect843-9-9-1-3"
       width="19.665432"
       height="2.3191018"
       x="28.634367"
       y="285.37994" />
    <path
       style="fill:#e1e1e1;fill-opacity:1;stroke:#e2e2e2;stroke-width:0.26458332px;stroke-linecap:butt;stroke-linejoin:miter;stroke-opacity:1"
       d="M 0.94494047,244.46131 H 54.995534"
       id="path883"
       inkscape:connector-curvature="0" />
    <path
       style="fill:#e1e1e1;fill-opacity:1;stroke:#e2e2e2;stroke-width:0.26458332px;stroke-linecap:butt;stroke-linejoin:miter;stroke-opacity:1"
       d="M 0.56696495,271.18422 H 54.617559"
       id="path883-2"
       inkscape:connector-curvature="0" />
    <path
       inkscape:connector-curvature="0"
       style="fill:#b3b3b3;fill-rule:evenodd;stroke-width:0.89481127"
       d="m 17.183743,224.65559 c -0.151406,0 -0.320618,0.0448 -0.463114,0.12572 -1.282474,0.79117 -4.43522,3.0927 -5.771131,3.47027 -1.2290364,0 -2.671819,0.60236 -2.671819,2.2476 0,1.64524 1.4516856,2.2476 2.671819,2.2476 0.267199,0.072 0.569988,0.20659 0.890606,0.36861 v 4.12658 h 1.781214 v -3.1017 c 1.19341,0.7732 2.395731,1.64524 3.099311,2.07678 0.142486,0.0808 0.302811,0.12573 0.463114,0.12573 0.463114,0 0.890605,-0.37758 0.890605,-0.89903 v -9.88941 c 0,-0.52141 -0.427491,-0.89902 -0.890605,-0.89902 z m 0,10.78843 c -0.338432,-0.20659 -0.792639,-0.52144 -1.33591,-0.89902 -0.142485,-0.0989 -0.293892,-0.19777 -0.445304,-0.30582 v -7.50694 c 0.142486,-0.0989 0.276085,-0.17975 0.418584,-0.27864 0.543271,-0.3686 1.033104,-0.69226 1.36263,-0.89906 z m 1.781214,-5.39422 h 3.562424 v 0.89903 h -3.562424 z m 0,1.79808 3.562424,1.79806 v 0.89906 l -3.562424,-1.79808 z m 3.562424,-5.39421 v 0.89902 l -3.562424,1.79809 v -0.89906 z"
       id="path3900" />
    <path
       inkscape:connector-curvature="0"
       style="fill:#b3b3b3;fill-rule:evenodd;stroke-width:0.89481127"
       d="m 17.164843,251.96437 c -0.151406,0 -0.320618,0.0448 -0.463114,0.12572 -1.282474,0.79117 -4.43522,3.0927 -5.771131,3.47027 -1.2290357,0 -2.6718182,0.60236 -2.6718182,2.2476 0,1.64524 1.4516855,2.2476 2.6718182,2.2476 0.267199,0.072 0.569988,0.20659 0.890606,0.36861 v 4.12658 h 1.781214 v -3.1017 c 1.19341,0.7732 2.395731,1.64524 3.099311,2.07678 0.142486,0.0808 0.302811,0.12573 0.463114,0.12573 0.463114,0 0.890605,-0.37758 0.890605,-0.89903 v -9.88941 c 0,-0.52141 -0.427491,-0.89902 -0.890605,-0.89902 z m 0,10.78843 c -0.338432,-0.20659 -0.792639,-0.52144 -1.33591,-0.89902 -0.142485,-0.0989 -0.293892,-0.19777 -0.445304,-0.30582 v -7.50694 c 0.142486,-0.0989 0.276085,-0.17975 0.418584,-0.27864 0.543271,-0.3686 1.033104,-0.69226 1.36263,-0.89906 z m 1.781214,-5.39422 h 3.562424 v 0.89903 h -3.562424 z m 0,1.79808 3.562424,1.79806 v 0.89906 l -3.562424,-1.79808 z m 3.562424,-5.39421 v 0.89902 l -3.562424,1.79809 v -0.89906 z"
       id="path3900-9" />
    <path
       inkscape:connector-curvature="0"
       style="fill:#b3b3b3;fill-rule:evenodd;stroke-width:0.89481127"
       d="m 17.013653,278.23371 c -0.151406,0 -0.320618,0.0448 -0.463114,0.12572 -1.282474,0.79117 -4.43522,3.0927 -5.771131,3.47027 -1.2290367,0 -2.6718186,0.60236 -2.6718186,2.2476 0,1.64524 1.4516849,2.2476 2.6718186,2.2476 0.267199,0.072 0.569988,0.20659 0.890606,0.36861 v 4.12658 h 1.781214 v -3.1017 c 1.19341,0.7732 2.395731,1.64524 3.099311,2.07678 0.142486,0.0808 0.302811,0.12573 0.463114,0.12573 0.463114,0 0.890605,-0.37758 0.890605,-0.89903 v -9.88941 c 0,-0.52141 -0.427491,-0.89902 -0.890605,-0.89902 z m 0,10.78843 c -0.338432,-0.20659 -0.792639,-0.52144 -1.33591,-0.89902 -0.142485,-0.0989 -0.293892,-0.19777 -0.445304,-0.30582 v -7.50694 c 0.142486,-0.0989 0.276085,-0.17975 0.418584,-0.27864 0.543271,-0.3686 1.033104,-0.69226 1.36263,-0.89906 z m 1.781214,-5.39422 h 3.562424 v 0.89903 h -3.562424 z m 0,1.79808 3.562424,1.79806 v 0.89906 l -3.562424,-1.79808 z m 3.562424,-5.39421 v 0.89902 l -3.562424,1.79809 v -0.89906 z"
       id="path3900-2" />
  </g>
</svg>
