<svg id="레이어_1" data-name="레이어 1" xmlns="http://www.w3.org/2000/svg" viewBox="0 0 37.8 25.4"><defs><style>.cls-1{fill:#fff;}.cls-1,.cls-2{stroke:#000;stroke-miterlimit:10;stroke-width:2px;}</style></defs><path class="cls-1" d="M15.4,33.2a1.1,1.1,0,0,0,1.1,1.1H40.6a1.1,1.1,0,0,0,1.2-1.1V16.6H15.4Z" transform="translate(-5 -10.9)"/><path class="cls-2" d="M40.6,11.9H16.5A1.1,1.1,0,0,0,15.4,13v3.6H41.8V13A1.1,1.1,0,0,0,40.6,11.9Z" transform="translate(-5 -10.9)"/><path class="cls-1" d="M6,34.5a.8.8,0,0,0,.8.8H23.9a.7.7,0,0,0,.8-.8V22.8H6Z" transform="translate(-5 -10.9)"/><path class="cls-2" d="M23.9,19.4H6.8a.9.9,0,0,0-.8.8v2.6H24.7V20.2A.8.8,0,0,0,23.9,19.4Z" transform="translate(-5 -10.9)"/></svg>