<?xml version="1.0" encoding="UTF-8" standalone="no"?>
<!-- Created with Inkscape (http://www.inkscape.org/) -->

<svg
   xmlns:dc="http://purl.org/dc/elements/1.1/"
   xmlns:cc="http://creativecommons.org/ns#"
   xmlns:rdf="http://www.w3.org/1999/02/22-rdf-syntax-ns#"
   xmlns:svg="http://www.w3.org/2000/svg"
   xmlns="http://www.w3.org/2000/svg"
   xmlns:sodipodi="http://sodipodi.sourceforge.net/DTD/sodipodi-0.dtd"
   xmlns:inkscape="http://www.inkscape.org/namespaces/inkscape"
   width="62"
   height="47"
   viewBox="0 0 16.404166 12.435417"
   version="1.1"
   id="svg4833"
   inkscape:version="0.92.4 (5da689c313, 2019-01-14)"
   sodipodi:docname="네모-4.svg">
  <defs
     id="defs4827" />
  <sodipodi:namedview
     id="base"
     pagecolor="#ffffff"
     bordercolor="#666666"
     borderopacity="1.0"
     inkscape:pageopacity="0.0"
     inkscape:pageshadow="2"
     inkscape:zoom="2.8554058"
     inkscape:cx="120.63603"
     inkscape:cy="-11.428571"
     inkscape:document-units="mm"
     inkscape:current-layer="layer1"
     showgrid="false"
     units="px"
     inkscape:window-width="1306"
     inkscape:window-height="925"
     inkscape:window-x="1238"
     inkscape:window-y="197"
     inkscape:window-maximized="0" />
  <metadata
     id="metadata4830">
    <rdf:RDF>
      <cc:Work
         rdf:about="">
        <dc:format>image/svg+xml</dc:format>
        <dc:type
           rdf:resource="http://purl.org/dc/dcmitype/StillImage" />
        <dc:title></dc:title>
      </cc:Work>
    </rdf:RDF>
  </metadata>
  <g
     inkscape:label="Layer 1"
     inkscape:groupmode="layer"
     id="layer1"
     transform="translate(0,-284.56457)">
    <rect
       style="opacity:0;fill:#ffffff;stroke-width:0.26458332"
       x="1.9491292"
       y="288.08798"
       width="1.3229166"
       height="5.92799"
       id="rect3571" />
    <path
       inkscape:connector-curvature="0"
       style="fill:none;stroke:#0a0a0a;stroke-width:0.52916664;stroke-miterlimit:10"
       stroke-miterlimit="10"
       d="m 7.6019491,289.86836 c 0,0.1434 -0.104775,0.25982 -0.2346854,0.25982 H 3.818143 c -0.1293813,0 -0.23495,-0.11642 -0.23495,-0.25982 v -1.77298 c 0,-0.1434 0.1053041,-0.25929 0.23495,-0.25929 h 3.5491207 c 0.1296459,0 0.2346854,0.11589 0.2346854,0.25929 z"
       id="path7625" />
    <path
       inkscape:connector-curvature="0"
       style="fill:none;stroke:#0a0a0a;stroke-width:0.52916664;stroke-miterlimit:10"
       stroke-miterlimit="10"
       d="m 12.729575,289.86836 c 0,0.1434 -0.101336,0.25982 -0.226748,0.25982 H 9.0653596 c -0.1259417,0 -0.2280709,-0.11642 -0.2280709,-0.25982 v -1.77298 c 0,-0.1434 0.1021292,-0.25929 0.2280709,-0.25929 h 3.4374674 c 0.125412,0 0.226748,0.11589 0.226748,0.25929 z"
       id="path7627" />
    <rect
       style="opacity:0;fill:#ffffff;stroke-width:0.26458332"
       x="1.9491295"
       y="288.08798"
       width="1.3229166"
       height="5.92799"
       id="rect7641" />
    <path
       inkscape:connector-curvature="0"
       style="fill:none;stroke:#0a0a0a;stroke-width:0.52916664;stroke-miterlimit:10"
       stroke-miterlimit="10"
       d="m 7.6371387,293.33837 c 0,0.14367 -0.1050396,0.25982 -0.2346854,0.25982 H 3.8533326 c -0.1296459,0 -0.23495,-0.11615 -0.23495,-0.25982 v -1.77271 c 0,-0.1434 0.1053041,-0.25903 0.23495,-0.25903 h 3.5491207 c 0.1296458,0 0.2346854,0.11589 0.2346854,0.25903 z"
       id="path7781" />
    <path
       inkscape:connector-curvature="0"
       style="fill:none;stroke:#0a0a0a;stroke-width:0.52916664;stroke-miterlimit:10"
       stroke-miterlimit="10"
       d="m 12.763441,293.33837 c 0,0.14367 -0.1016,0.25982 -0.226748,0.25982 H 9.0992262 c -0.1259416,0 -0.2280708,-0.11615 -0.2280708,-0.25982 v -1.77271 c 0,-0.1434 0.1021292,-0.25903 0.2280708,-0.25903 h 3.4374668 c 0.125413,0 0.226748,0.11589 0.226748,0.25903 z"
       id="path7783" />
  </g>
</svg>
