<svg id="레이어_1" data-name="레이어 1" xmlns="http://www.w3.org/2000/svg" viewBox="0 0 30 30"><defs><style>.cls-1{fill:none;stroke:#000;stroke-miterlimit:10;stroke-width:2px;}</style></defs><path class="cls-1" d="M14.7,10H33.3A4.7,4.7,0,0,1,38,14.7V33.3A4.7,4.7,0,0,1,33.3,38H14.7A4.7,4.7,0,0,1,10,33.3V14.7" transform="translate(-9 -9)"/><path class="cls-1" d="M10,14.7A4.7,4.7,0,0,1,14.7,10" transform="translate(-9 -9)"/><path id="path1444" d="M12.2,23.5s6.8,3,9.1,9.3c0,0,4.5-10.2,13.6-15.1l-3.4-4.1A38.1,38.1,0,0,0,21.2,27.4a20.6,20.6,0,0,0-9-3.9Z" transform="translate(-9 -9)"/></svg>