<svg id="레이어_1" data-name="레이어 1" xmlns="http://www.w3.org/2000/svg" viewBox="0 0 137 55.2"><defs><style>.cls-1{fill:#fff;}</style></defs><path id="path1356" d="M58.3,67.2a9.4,9.4,0,0,1-9.5,9.4H11a9.4,9.4,0,0,1-9.5-9.4V30.7A9.4,9.4,0,0,1,11,21.4H48.8a9.4,9.4,0,0,1,9.5,9.3Z" transform="translate(-1.5 -21.4)"/><path id="path1358" d="M138.5,67.2a9.4,9.4,0,0,1-9.5,9.4H91.2a9.4,9.4,0,0,1-9.5-9.4V30.7a9.4,9.4,0,0,1,9.5-9.3H129a9.4,9.4,0,0,1,9.5,9.3Z" transform="translate(-1.5 -21.4)"/><path id="path1444" class="cls-1" d="M6,48s13.7,6,18.4,18.3c0,0,9.1-20,27.7-29.7l-6.9-8.2S32.5,37.7,24.1,55.6A41.6,41.6,0,0,0,6,48Z" transform="translate(-1.5 -21.4)"/></svg>