<svg id="레이어_1" data-name="레이어 1" xmlns="http://www.w3.org/2000/svg" viewBox="0 0 86.3 98.9"><defs><style>.cls-1{fill:#fff;}.cls-1,.cls-2{stroke:#000;stroke-miterlimit:10;stroke-width:4.5px;}</style></defs><path class="cls-1" d="M29.1,88.6a8,8,0,0,0,8,8h65.8a8,8,0,0,0,8-8V38.9H29.1Z" transform="translate(-26.9)"/><path d="M47.4,70.2c-1.5,0-2.8-.8-2.8-1.9V64.4c0-1,1.3-1.9,2.8-1.9H92.6c1.5,0,2.8.9,2.8,1.9v3.9c0,1.1-1.3,1.9-2.8,1.9Z" transform="translate(-26.9)"/><path class="cls-2" d="M102.9,14.9H37.1a8,8,0,0,0-8,7.9V38.9h81.8V22.8A8,8,0,0,0,102.9,14.9Z" transform="translate(-26.9)"/><rect x="15.5" width="15.3" height="21.05" rx="2.7"/><rect x="55.5" width="15.3" height="21.05" rx="2.7"/></svg>