<svg id="레이어_1" data-name="레이어 1" xmlns="http://www.w3.org/2000/svg" viewBox="0 0 139.4 90.1"><defs><style>.cls-1{font-size:79.46px;font-family:AdobeMyungjoStd-Medium-KSCpc-EUC-H, Adobe Myungjo Std;}.cls-2{fill:#fff;}.cls-2,.cls-3{stroke:#000;stroke-miterlimit:10;stroke-width:4.5px;}</style></defs><text class="cls-1" transform="translate(79.9 78.4)">~</text><path class="cls-2" d="M5.9,81.8a6.8,6.8,0,0,0,6.8,6.8H68.6a6.8,6.8,0,0,0,6.8-6.8V39.5H5.9Z" transform="translate(-3.6 -6.4)"/><path d="M21.4,66.1c-1.3,0-2.3-.7-2.3-1.6V61.2c0-.9,1-1.6,2.3-1.6H59.9c1.3,0,2.3.7,2.3,1.6v3.3c0,.9-1,1.6-2.3,1.6Z" transform="translate(-3.6 -6.4)"/><path class="cls-3" d="M68.6,19H12.7a6.8,6.8,0,0,0-6.8,6.8V39.5H75.4V25.8A6.8,6.8,0,0,0,68.6,19Z" transform="translate(-3.6 -6.4)"/><rect x="13.5" width="13.1" height="17.9" rx="2.7"/><rect x="47.5" width="13.1" height="17.9" rx="2.7"/></svg>