<svg id="레이어_1" data-name="레이어 1" xmlns="http://www.w3.org/2000/svg" viewBox="0 0 136.7 73.9"><defs><style>.cls-1,.cls-2{fill:#fff;}.cls-1,.cls-3,.cls-4{stroke:#000;stroke-miterlimit:10;stroke-width:4.5px;}.cls-3{fill:none;stroke-linecap:round;}</style></defs><path class="cls-1" d="M4.7,79.9a6,6,0,0,0,6,5.9H59.4a5.9,5.9,0,0,0,5.9-5.9V43H4.7Z" transform="translate(-2.5 -14.2)"/><path class="cls-2" d="M105.3,85.4A31.7,31.7,0,1,1,137,53.7,31.7,31.7,0,0,1,105.3,85.4Z" transform="translate(-2.5 -14.2)"/><path d="M105.3,24.2A29.5,29.5,0,1,1,75.8,53.7a29.5,29.5,0,0,1,29.5-29.5m0-4.5a34,34,0,1,0,33.9,34,34,34,0,0,0-33.9-34Z" transform="translate(-2.5 -14.2)"/><line class="cls-3" x1="102.8" y1="39.5" x2="102.8" y2="14.1"/><line class="cls-3" x1="102.8" y1="39.5" x2="120.7" y2="57.5"/><path d="M18.9,66.2c-1.1,0-2-.6-2-1.4V61.9c0-.7.9-1.4,2-1.4H51.2c1.1,0,2,.7,2,1.4v2.9c0,.8-.9,1.4-2,1.4Z" transform="translate(-2.5 -14.2)"/><path class="cls-4" d="M59.4,25.2H10.7a6,6,0,0,0-6,5.9V43H65.3V31.1A5.9,5.9,0,0,0,59.4,25.2Z" transform="translate(-2.5 -14.2)"/><rect x="12" width="11.4" height="15.6" rx="2.7"/><rect x="41.7" width="11.4" height="15.6" rx="2.7"/></svg>