<svg id="레이어_1" data-name="레이어 1" xmlns="http://www.w3.org/2000/svg" viewBox="0 0 44 22"><defs><style>.cls-1,.cls-2{fill:none;stroke:#000;stroke-miterlimit:10;stroke-width:2px;}.cls-1{stroke-linecap:round;}.cls-3{font-size:8.24px;font-family:ArialMT, Arial;}</style></defs><path d="M35,17a9,9,0,1,1-9,9,9,9,0,0,1,9-9m0-2A11,11,0,1,0,46,26,11,11,0,0,0,35,15Z" transform="translate(-2 -15)"/><line class="cls-1" x1="33" y1="11" x2="33" y2="4.8"/><line class="cls-1" x1="33" y1="11" x2="37.4" y2="15.4"/><path class="cls-2" d="M3,34.2A1.8,1.8,0,0,0,4.8,36H20.1a1.8,1.8,0,0,0,1.8-1.8V22.9H3Z" transform="translate(-2 -15)"/><path class="cls-2" d="M20.1,17.4H4.8A1.9,1.9,0,0,0,3,19.3v3.6H21.9V19.3A1.9,1.9,0,0,0,20.1,17.4Z" transform="translate(-2 -15)"/><line class="cls-1" x1="8.1" y1="5.2" x2="12.8" y2="5.2"/><text class="cls-3" transform="translate(5.9 17.5) scale(0.98 1)">31</text></svg>