<svg id="레이어_1" data-name="레이어 1" xmlns="http://www.w3.org/2000/svg" viewBox="0 0 137.3 96.5"><defs><style>.cls-1,.cls-4{fill:none;}.cls-1,.cls-2,.cls-4{stroke:#000;stroke-miterlimit:10;stroke-width:4.5px;}.cls-3{isolation:isolate;font-size:20px;fill:#fff;font-family:ArialMT, Arial;}.cls-4{stroke-linecap:round;}</style></defs><path class="cls-1" d="M3.6,89.2A6.9,6.9,0,0,0,10.4,96H129.6a6.9,6.9,0,0,0,6.8-6.8v-58H3.6Z" transform="translate(-1.3 -1.8)"/><path class="cls-2" d="M129.6,4H10.4a6.9,6.9,0,0,0-6.8,6.8V32.4H136.4V10.8A6.8,6.8,0,0,0,129.6,4Z" transform="translate(-1.3 -1.8)"/><text class="cls-3" transform="translate(49.2 23.9)">Edit</text><path class="cls-1" d="M122.8,55.4H17.2a2.6,2.6,0,0,1-2.6-2.6V44.5a2.6,2.6,0,0,1,2.6-2.6H122.7a2.6,2.6,0,0,1,2.6,2.6v8.3A2.5,2.5,0,0,1,122.8,55.4Z" transform="translate(-1.3 -1.8)"/><line class="cls-4" x1="13.4" y1="67.9" x2="124" y2="67.9"/><line class="cls-4" x1="13.4" y1="82.2" x2="124" y2="82.2"/></svg>