<svg id="레이어_1" data-name="레이어 1" xmlns="http://www.w3.org/2000/svg" viewBox="0 0 130.4 97.2"><defs><style>.cls-1{fill:#b3b1b5;}</style></defs><path id="path1436" d="M134.1,33.2a3.7,3.7,0,0,0-2.6-1.2H88.9c-2.6.1-3.5.9-4.3,1.9L80,40.5l-.2.3H22.3a5.1,5.1,0,0,0-5.2,3.8C16.8,46,9,85.7,6.9,96c-.3,1.6.7,2.3,2.8,2.4H119.3c2.1-.1,3.2-.9,3.6-2.7,2.4-11.9,11.5-58,11.9-59.9a3.1,3.1,0,0,0-.7-2.6Z" transform="translate(-4.4 -1.2)"/><path class="cls-1" d="M119.3,11.4H63L59.3,2.8a2.9,2.9,0,0,0-2.9-1.6H7.1c-1.8,0-2.7,1-2.7,2.4V94.4s8.9-47.9,9.5-50.8S17,38,20.2,38H77.5l4.1-6a5.8,5.8,0,0,1,5.3-2.9h34.6V13.6A2.2,2.2,0,0,0,119.3,11.4Z" transform="translate(-4.4 -1.2)"/></svg>