<?xml version="1.0" encoding="UTF-8" standalone="no"?>
<!-- Created with Inkscape (http://www.inkscape.org/) -->

<svg
   xmlns:dc="http://purl.org/dc/elements/1.1/"
   xmlns:cc="http://creativecommons.org/ns#"
   xmlns:rdf="http://www.w3.org/1999/02/22-rdf-syntax-ns#"
   xmlns:svg="http://www.w3.org/2000/svg"
   xmlns="http://www.w3.org/2000/svg"
   xmlns:sodipodi="http://sodipodi.sourceforge.net/DTD/sodipodi-0.dtd"
   xmlns:inkscape="http://www.inkscape.org/namespaces/inkscape"
   width="62"
   height="47"
   viewBox="0 0 16.404166 12.435417"
   version="1.1"
   id="svg4833"
   inkscape:version="0.92.4 (5da689c313, 2019-01-14)"
   sodipodi:docname="file.svg">
  <defs
     id="defs4827" />
  <sodipodi:namedview
     id="base"
     pagecolor="#ffffff"
     bordercolor="#666666"
     borderopacity="1.0"
     inkscape:pageopacity="0.0"
     inkscape:pageshadow="2"
     inkscape:zoom="2.8554058"
     inkscape:cx="4.8906675"
     inkscape:cy="34.63891"
     inkscape:document-units="mm"
     inkscape:current-layer="layer1"
     showgrid="false"
     units="px"
     inkscape:window-width="645"
     inkscape:window-height="615"
     inkscape:window-x="1135"
     inkscape:window-y="9"
     inkscape:window-maximized="0" />
  <metadata
     id="metadata4830">
    <rdf:RDF>
      <cc:Work
         rdf:about="">
        <dc:format>image/svg+xml</dc:format>
        <dc:type
           rdf:resource="http://purl.org/dc/dcmitype/StillImage" />
        <dc:title></dc:title>
      </cc:Work>
    </rdf:RDF>
  </metadata>
  <g
     inkscape:label="Layer 1"
     inkscape:groupmode="layer"
     id="layer1"
     transform="translate(0,-284.56457)">
    <path
       inkscape:connector-curvature="0"
       style="fill:#141313;stroke-width:0.26458332"
       d="m 12.277013,289.5879 c -0.03651,-0.0426 -0.09049,-0.0696 -0.150018,-0.0696 -0.115623,0 -1.995223,0 -2.5241254,0 -0.1494896,0.002 -0.2061105,0.0492 -0.2532063,0.11298 -0.050006,0.0717 -0.269875,0.38656 -0.2701396,0.38708 l -0.011906,0.0169 h -0.021696 c 0,0 -3.2620479,0 -3.3842854,0 -0.1582208,5.3e-4 -0.2786062,0.0947 -0.3066521,0.22833 -0.01561,0.0788 -0.4804833,2.43152 -0.6013979,3.04271 -0.01561,0.0894 0.040746,0.13573 0.1632479,0.13811 0.1180042,0 5.4826958,0 6.4865248,0 0.125413,-0.003 0.191294,-0.0519 0.2159,-0.15901 0.138642,-0.70247 0.678392,-3.43297 0.700088,-3.54224 0.01138,-0.0548 -0.0058,-0.11245 -0.04233,-0.15531 z"
       id="path1436" />
    <path
       inkscape:connector-curvature="0"
       style="fill:#b3b1b5;stroke-width:0.26458332"
       d="m 5.1038945,290.0959 c 0.042333,-0.19791 0.1815042,-0.33576 0.37465,-0.33576 0.060854,0 3.2541105,0 3.3885188,0 l 0.2434167,-0.3511 c 0.05715,-0.0844 0.142875,-0.17568 0.3114146,-0.17383 0.528902,0 2.0505204,0 2.0505204,0 0,0 0,-0.90937 0,-0.91652 0,-0.0646 -0.05662,-0.13097 -0.129381,-0.13097 -0.07276,0 -3.3363957,0 -3.3363957,0 0,0 -0.1870604,-0.44212 -0.2135187,-0.50562 -0.026723,-0.0632 -0.091017,-0.099 -0.1751542,-0.099 H 4.702257 c -0.1084791,5e-5 -0.1608666,0.0593 -0.1608666,0.14663 v 5.37131 c 0,0 0.5265208,-2.83713 0.5625041,-3.00514 z"
       id="path1438" />
  </g>
</svg>
