<svg id="레이어_1" data-name="레이어 1" xmlns="http://www.w3.org/2000/svg" viewBox="0 0 37.6 25.9"><defs><style>.cls-1{fill:#fff;stroke:#000;stroke-miterlimit:10;stroke-width:2px;}</style></defs><path class="cls-1" d="M37.7,19.6V37.2a1.2,1.2,0,0,1-1.2,1.2H9.8a1.2,1.2,0,0,1-1.2-1.2V15.4a.8.8,0,0,1,.8-.8H19.5a16,16,0,0,1,1.7,3.8H36.5A1.2,1.2,0,0,1,37.7,19.6Z" transform="translate(-7.6 -13.6)"/><path class="cls-1" d="M37.3,38.4H10.1a.5.5,0,0,1-.5-.4l6.3-15.5a.5.5,0,0,1,.5-.5H43.6a.5.5,0,0,1,.5.5L37.8,38A.5.5,0,0,1,37.3,38.4Z" transform="translate(-7.6 -13.6)"/></svg>