<svg id="레이어_1" data-name="레이어 1" xmlns="http://www.w3.org/2000/svg" viewBox="0 0 38.3 23.1"><defs><style>.cls-1,.cls-2,.cls-3{fill:none;stroke:#000;stroke-miterlimit:10;}.cls-1,.cls-2{stroke-width:2px;}.cls-2,.cls-3{stroke-linecap:round;}</style></defs><path class="cls-1" d="M6.6,36V16.4A2.5,2.5,0,0,1,9.2,14H40.3a2.5,2.5,0,0,1,2.6,2.4V36" transform="translate(-5.6 -13)"/><path class="cls-1" d="M6.6,35.4a18.2,18.2,0,1,1,36.3,0" transform="translate(-5.6 -13)"/><path d="M27.8,33.2a2.8,2.8,0,0,0-3-2.8,3.2,3.2,0,0,0-1.4.3L18.6,27c-.1-.1-.2-.1-.2,0s-.1.2,0,.2l4.1,4.4a2.3,2.3,0,0,0-.6,1.6,2.9,2.9,0,0,0,.7,1.8h4.5A2.9,2.9,0,0,0,27.8,33.2Z" transform="translate(-5.6 -13)"/><line class="cls-1" x1="37.9" y1="22.1" x2="0.3" y2="22.1"/><line class="cls-2" x1="19.1" y1="4.6" x2="19.1" y2="9.2"/><line class="cls-3" x1="25" y1="5.5" x2="23.3" y2="10.1"/><line class="cls-3" x1="30.2" y1="8.4" x2="27" y2="12.2"/><line class="cls-3" x1="34.4" y1="12.7" x2="30.2" y2="15.2"/><line class="cls-2" x1="36.8" y1="18.3" x2="31.9" y2="19.2"/><line class="cls-3" x1="13.1" y1="5.3" x2="14.8" y2="10"/><line class="cls-3" x1="7.8" y1="8.4" x2="10.9" y2="12.2"/><line class="cls-3" x1="3.8" y1="13.2" x2="8.1" y2="15.7"/><line class="cls-2" x1="1.7" y1="19" x2="6.6" y2="19.8"/></svg>