<svg id="레이어_1" data-name="레이어 1" xmlns="http://www.w3.org/2000/svg" viewBox="0 0 137.7 153.1"><defs><style>.cls-1{fill:#fff;}.cls-1,.cls-2,.cls-3,.cls-4{stroke:#000;stroke-miterlimit:10;}.cls-1,.cls-2,.cls-3{stroke-width:4.5px;}.cls-2,.cls-3,.cls-4{fill:none;}.cls-3,.cls-4{stroke-linecap:round;}.cls-4{stroke-width:2.5px;}</style></defs><path d="M9.5-59.5h.1a.1.1,0,0,1-.1-.1Z" transform="translate(-1.2 59.6)"/><path d="M110.9-59.5h0a.1.1,0,0,1-.1.1Z" transform="translate(-1.2 59.6)"/><path class="cls-1" d="M3.6,92.6V22.9c0-4.8,4.3-8.7,9.5-8.7H126.9c5.2,0,9.5,3.9,9.5,8.7V92.6" transform="translate(-1.2 59.6)"/><path class="cls-1" d="M3.6,92.6a66.4,66.4,0,1,1,132.8,0" transform="translate(-1.2 59.6)"/><path d="M80.9,84.5A10.6,10.6,0,0,0,70.3,74.1a11.1,11.1,0,0,0-5.2,1.3L47.5,61.8a.7.7,0,0,0-.9,0,.6.6,0,0,0,0,.9l15,15.8a9.8,9.8,0,0,0-2,6A10.5,10.5,0,0,0,61.9,91H78.6A10.5,10.5,0,0,0,80.9,84.5Z" transform="translate(-1.2 59.6)"/><line class="cls-2" x1="137.7" y1="150.8" y2="150.8"/><line class="cls-3" x1="68.8" y1="87" x2="68.8" y2="103.8"/><line class="cls-4" x1="90.5" y1="90.2" x2="84.3" y2="107.3"/><line class="cls-4" x1="109.4" y1="101" x2="97.7" y2="114.9"/><line class="cls-4" x1="124.9" y1="116.7" x2="109.2" y2="125.7"/><line class="cls-3" x1="133.5" y1="137.2" x2="115.7" y2="140.3"/><line class="cls-4" x1="46.6" y1="89.6" x2="52.8" y2="106.7"/><line class="cls-4" x1="27.2" y1="101" x2="38.8" y2="114.9"/><line class="cls-4" x1="12.8" y1="118.4" x2="28.4" y2="127.4"/><line class="cls-3" x1="5.2" y1="139.6" x2="23" y2="142.8"/></svg>