<svg id="레이어_1" data-name="레이어 1" xmlns="http://www.w3.org/2000/svg" viewBox="0 0 97.1 97.1"><path d="M43.6,43a2.9,2.9,0,0,0,4.2.1h.1L66.2,24.1a13.6,13.6,0,0,0-.9-19.7C60.1,0,52.4.8,47.6,5.7L45.7,7.6,43.9,5.7C39.1.8,31.3,0,26.2,4.4a13.6,13.6,0,0,0-1,19.7ZM70.9,62.1H61.8l-1.4-2.7A5.2,5.2,0,0,0,55.6,56H41.9a5.2,5.2,0,0,0-4.8,3.4l-1.3,2.7H26.6a5.2,5.2,0,0,0-5.2,5.2h0V93.4a5.3,5.3,0,0,0,5.2,5.2H70.9a5.3,5.3,0,0,0,5.2-5.2V67.3A5.2,5.2,0,0,0,70.9,62.1ZM48.8,90.2a9.9,9.9,0,1,1,9.8-9.8A9.8,9.8,0,0,1,48.8,90.2Zm67.4-22H104.7l4.2-9.6c.4-1.3-.7-2.5-2.3-2.5H92.3a2.3,2.3,0,0,0-2.4,1.7L86.7,78.1a2.2,2.2,0,0,0,2.4,2.3h11.8L96.3,96.1a2.2,2.2,0,0,0,2.3,2.5,2.8,2.8,0,0,0,2.1-1l17.5-26.4c1-1.3-.2-3-2-3ZM112.1,1.5,83.9,5.8a6,6,0,0,0-4.8,6V32.1a15.3,15.3,0,0,0-3-.3c-6.7,0-12.2,4-12.2,9.1S69.4,50,76.1,50s12.1-4.1,12.1-9.1V20.3l21.3-3.2V26a16.3,16.3,0,0,0-3.1-.3c-6.7,0-12.1,4.1-12.1,9.1s5.4,9.1,12.1,9.1,12.1-4,12.2-9V7.5a5.8,5.8,0,0,0-6.5-6Z" transform="translate(-21.4 -1.4)"/></svg>