<svg id="레이어_1" data-name="레이어 1" xmlns="http://www.w3.org/2000/svg" viewBox="0 0 43.4 18.2"><defs><style>.cls-1,.cls-2{fill:none;stroke:#000;stroke-miterlimit:10;}.cls-1{stroke-width:2px;}.cls-2{stroke-width:1.5px;}</style></defs><path class="cls-1" d="M42.8,19.7H39.6l-.5-1a1.9,1.9,0,0,0-1.7-1.2H32.5a1.9,1.9,0,0,0-1.7,1.2l-.5,1H27.1a1.9,1.9,0,0,0-1.9,1.9h0v9.2a2,2,0,0,0,1.9,1.9H42.8a2,2,0,0,0,1.9-1.9V21.6A1.7,1.7,0,0,0,42.8,19.7Z" transform="translate(-2.3 -16.5)"/><circle class="cls-2" cx="32.7" cy="9.4" r="3.5"/><path class="cls-1" d="M11.5,33.5a1.1,1.1,0,0,0,1.5,0h.1l6.8-7.1a4.9,4.9,0,0,0-.4-7.3,4.6,4.6,0,0,0-6.5.5l-.7.7-.7-.7A4.7,4.7,0,0,0,5,19.1a5,5,0,0,0-.3,7.3Z" transform="translate(-2.3 -16.5)"/></svg>