<svg id="레이어_1" data-name="레이어 1" xmlns="http://www.w3.org/2000/svg" viewBox="0 0 34 30.5"><defs><style>.cls-1{fill:none;stroke:#000;stroke-linecap:square;stroke-miterlimit:10;stroke-width:2px;}</style></defs><path id="polygon2126" class="cls-1" d="M14.2,22.8H34.6c.2,0,.3.1.4.3L40,38c.1.3-.1.5-.4.5H8.4c-.3,0-.5-.2-.4-.5l5.8-15Z" transform="translate(-7 -9)"/><path d="M24,9a6.9,6.9,0,0,0-6.8,7.1C17.2,20,24,31.3,24,31.3S30.8,20,30.8,16.1A6.9,6.9,0,0,0,24,9Zm0,11.7a4.5,4.5,0,0,1-4.5-4.5,4.5,4.5,0,0,1,9,0A4.5,4.5,0,0,1,24,20.7Z" transform="translate(-7 -9)"/></svg>