<svg id="레이어_1" data-name="레이어 1" xmlns="http://www.w3.org/2000/svg" viewBox="0 0 113.5 94"><defs><style>.cls-1,.cls-2{fill:#fff;}.cls-2,.cls-3,.cls-4,.cls-5{stroke:#000;}.cls-2,.cls-3,.cls-4{stroke-miterlimit:10;}.cls-2,.cls-3{stroke-width:4.5px;}.cls-3,.cls-5{fill:none;}.cls-4{fill:#fcfcfc;}.cls-4,.cls-5{stroke-width:4px;}.cls-5{stroke-linecap:round;stroke-linejoin:round;}</style></defs><path class="cls-1" d="M68.4,42.7c0,12.2-8.9,17.7-17.4,22.2C28.7,76.8,33.6,58.2,33.6,42.7c.1-11.2,5.7-22,17.4-22.2C60.6,20.2,68.4,30.4,68.4,42.7Z" transform="translate(-12.6 -4.4)"/><path id="path2429" class="cls-2" d="M53.7,20.9l49.3-.7c11.4,0,20.7,10.8,20.7,24.3h0c0,13.4,2.1,24.3-9.3,24.3L33.2,68" transform="translate(-12.6 -4.4)"/><path id="path2431" class="cls-3" d="M34,70.3V42.8C34,30.7,42.5,21,53.1,21h0c10.5,0,19,9.7,19,21.8v26" transform="translate(-12.6 -4.4)"/><line id="line2433" class="cls-3" x1="67.7" y1="63.9" x2="67.7" y2="94"/><line id="line2435" class="cls-3" x1="80.7" y1="63.9" x2="80.7" y2="94"/><rect id="rect2437" class="cls-4" x="2" y="31.1" width="33.4" height="21.25"/><line id="line2439" class="cls-5" x1="2.7" y1="31.6" x2="17.4" y2="41.5"/><line id="line2441" class="cls-5" x1="17.4" y1="41.5" x2="33.6" y2="31.6"/><line id="line2443" class="cls-3" x1="78" y1="1" x2="78" y2="15.7"/><line id="line2445" class="cls-3" x1="75.7" y1="2.3" x2="85.6" y2="2.3"/></svg>