<svg id="레이어_1" data-name="레이어 1" xmlns="http://www.w3.org/2000/svg" viewBox="0 0 137.1 91.4"><defs><style>.cls-1{fill:#fff;}.cls-1,.cls-2{stroke:#000;stroke-miterlimit:10;stroke-width:4.5px;}</style></defs><path class="cls-1" d="M38.5,86.9A4.1,4.1,0,0,0,42.6,91h89.5a4.2,4.2,0,0,0,4.2-4.1V25.4H38.5Z" transform="translate(-1.5 -5.8)"/><path class="cls-2" d="M132.1,8H42.6a4.1,4.1,0,0,0-4.1,4.1V25.4h97.8V12.1A4.2,4.2,0,0,0,132.1,8Z" transform="translate(-1.5 -5.8)"/><path class="cls-1" d="M3.7,91.9a3,3,0,0,0,3,3H70.2a3,3,0,0,0,3-3V48.3H3.7Z" transform="translate(-1.5 -5.8)"/><path class="cls-2" d="M70.2,35.9H6.7a2.9,2.9,0,0,0-3,3v9.4H73.2V38.9A2.9,2.9,0,0,0,70.2,35.9Z" transform="translate(-1.5 -5.8)"/></svg>