<svg id="레이어_1" data-name="레이어 1" xmlns="http://www.w3.org/2000/svg" viewBox="0 0 134.6 50.1"><defs><style>.cls-1{fill:#fff;stroke:#000;stroke-miterlimit:15.12;stroke-width:4.5px;}.cls-2{fill:#aaa9a9;}.cls-3{isolation:isolate;font-size:19.08px;font-family:Arial-Black, Arial Black;font-weight:800;}</style></defs><path id="path2070" class="cls-1" d="M135,50c0,12.6-3.7,22.8-8.3,22.8H13.3C8.7,72.8,5,62.6,5,50H5c0-12.6,3.7-22.8,8.3-22.8H126.7C131.3,27.2,135,37.4,135,50Z" transform="translate(-2.7 -25)"/><path id="path2072" d="M128.3,50c0,8.1-3.3,14.7-7.4,14.7H19.3c-4.1,0-7.4-6.6-7.4-14.7h0c0-8.1,3.3-14.7,7.4-14.7H120.9C125,35.3,128.3,41.9,128.3,50Z" transform="translate(-2.7 -25)"/><path id="path2074" class="cls-2" d="M82.6,64.7H16.8C14.1,64.7,12,58.1,12,50h0c0-8.1,2.1-14.7,4.8-14.7H82.6" transform="translate(-2.7 -25)"/><text id="text2076" class="cls-3" transform="translate(44.6 31.7) scale(0.69 1)">60%</text></svg>