<?xml version="1.0" encoding="UTF-8" standalone="no"?>
<!-- Created with Inkscape (http://www.inkscape.org/) -->

<svg
   xmlns:dc="http://purl.org/dc/elements/1.1/"
   xmlns:cc="http://creativecommons.org/ns#"
   xmlns:rdf="http://www.w3.org/1999/02/22-rdf-syntax-ns#"
   xmlns:svg="http://www.w3.org/2000/svg"
   xmlns="http://www.w3.org/2000/svg"
   xmlns:sodipodi="http://sodipodi.sourceforge.net/DTD/sodipodi-0.dtd"
   xmlns:inkscape="http://www.inkscape.org/namespaces/inkscape"
   width="62"
   height="47"
   viewBox="0 0 16.404166 12.435417"
   version="1.1"
   id="svg4833"
   inkscape:version="0.92.4 (5da689c313, 2019-01-14)"
   sodipodi:docname="seach-map.svg">
  <defs
     id="defs4827">
    <linearGradient
       id="SVGID_27_"
       gradientUnits="userSpaceOnUse"
       x1="-33.417"
       y1="-118.894"
       x2="-33.417"
       y2="-117.4723">
      <stop
         offset="0"
         style="stop-color:#FFFFFF"
         id="stop1992" />
      <stop
         offset="0.0483"
         style="stop-color:#E4E4E4"
         id="stop1994" />
      <stop
         offset="0.1522"
         style="stop-color:#AFAFAF"
         id="stop1996" />
      <stop
         offset="0.2603"
         style="stop-color:#808080"
         id="stop1998" />
      <stop
         offset="0.3706"
         style="stop-color:#595959"
         id="stop2000" />
      <stop
         offset="0.4834"
         style="stop-color:#393939"
         id="stop2002" />
      <stop
         offset="0.5996"
         style="stop-color:#202020"
         id="stop2004" />
      <stop
         offset="0.7206"
         style="stop-color:#0E0E0E"
         id="stop2006" />
      <stop
         offset="0.8495"
         style="stop-color:#030303"
         id="stop2008" />
      <stop
         offset="1"
         style="stop-color:#000000"
         id="stop2010" />
    </linearGradient>
    <radialGradient
       id="SVGID_28_"
       cx="-2223.0459"
       cy="-117.9512"
       r="0.98250002"
       gradientTransform="matrix(-1,0,0,1,-2256,0)"
       gradientUnits="userSpaceOnUse">
      <stop
         offset="0"
         style="stop-color:#FFFFFF"
         id="stop2019" />
      <stop
         offset="0.0862"
         style="stop-color:#F4F4F4"
         id="stop2021" />
      <stop
         offset="0.2379"
         style="stop-color:#D7D7D7"
         id="stop2023" />
      <stop
         offset="0.437"
         style="stop-color:#A7A9A9"
         id="stop2025" />
      <stop
         offset="0.676"
         style="stop-color:#656868"
         id="stop2027" />
      <stop
         offset="0.946"
         style="stop-color:#121616"
         id="stop2029" />
      <stop
         offset="1"
         style="stop-color:#000505"
         id="stop2031" />
    </radialGradient>
    <linearGradient
       id="SVGID_23_"
       gradientUnits="userSpaceOnUse"
       x1="-32.300301"
       y1="-118.894"
       x2="-32.300301"
       y2="-117.4723">
      <stop
         offset="0"
         style="stop-color:#FFFFFF"
         id="stop1896" />
      <stop
         offset="0.0483"
         style="stop-color:#E4E4E4"
         id="stop1898" />
      <stop
         offset="0.1522"
         style="stop-color:#AFAFAF"
         id="stop1900" />
      <stop
         offset="0.2603"
         style="stop-color:#808080"
         id="stop1902" />
      <stop
         offset="0.3706"
         style="stop-color:#595959"
         id="stop1904" />
      <stop
         offset="0.4834"
         style="stop-color:#393939"
         id="stop1906" />
      <stop
         offset="0.5996"
         style="stop-color:#202020"
         id="stop1908" />
      <stop
         offset="0.7206"
         style="stop-color:#0E0E0E"
         id="stop1910" />
      <stop
         offset="0.8495"
         style="stop-color:#030303"
         id="stop1912" />
      <stop
         offset="1"
         style="stop-color:#000000"
         id="stop1914" />
    </linearGradient>
    <linearGradient
       id="SVGID_24_"
       gradientUnits="userSpaceOnUse"
       x1="-32.215302"
       y1="-118.8604"
       x2="-32.215302"
       y2="-117.6572">
      <stop
         offset="0"
         style="stop-color:#FFFFFF"
         id="stop1923" />
      <stop
         offset="0.0483"
         style="stop-color:#E4E4E4"
         id="stop1925" />
      <stop
         offset="0.1522"
         style="stop-color:#AFAFAF"
         id="stop1927" />
      <stop
         offset="0.2603"
         style="stop-color:#808080"
         id="stop1929" />
      <stop
         offset="0.3706"
         style="stop-color:#595959"
         id="stop1931" />
      <stop
         offset="0.4834"
         style="stop-color:#393939"
         id="stop1933" />
      <stop
         offset="0.5996"
         style="stop-color:#202020"
         id="stop1935" />
      <stop
         offset="0.7206"
         style="stop-color:#0E0E0E"
         id="stop1937" />
      <stop
         offset="0.8495"
         style="stop-color:#030303"
         id="stop1939" />
      <stop
         offset="1"
         style="stop-color:#000000"
         id="stop1941" />
    </linearGradient>
    <linearGradient
       id="SVGID_25_"
       gradientUnits="userSpaceOnUse"
       x1="-32.355999"
       y1="-118.8706"
       x2="-32.355999"
       y2="-117.6604">
      <stop
         offset="0"
         style="stop-color:#FFFFFF"
         id="stop1948" />
      <stop
         offset="0.0483"
         style="stop-color:#E4E4E4"
         id="stop1950" />
      <stop
         offset="0.1522"
         style="stop-color:#AFAFAF"
         id="stop1952" />
      <stop
         offset="0.2603"
         style="stop-color:#808080"
         id="stop1954" />
      <stop
         offset="0.3706"
         style="stop-color:#595959"
         id="stop1956" />
      <stop
         offset="0.4834"
         style="stop-color:#393939"
         id="stop1958" />
      <stop
         offset="0.5996"
         style="stop-color:#202020"
         id="stop1960" />
      <stop
         offset="0.7206"
         style="stop-color:#0E0E0E"
         id="stop1962" />
      <stop
         offset="0.8495"
         style="stop-color:#030303"
         id="stop1964" />
      <stop
         offset="1"
         style="stop-color:#000000"
         id="stop1966" />
    </linearGradient>
    <radialGradient
       id="SVGID_26_"
       cx="-2224.1636"
       cy="-117.9512"
       r="0.98269999"
       gradientTransform="matrix(-1,0,0,1,-2256,0)"
       gradientUnits="userSpaceOnUse">
      <stop
         offset="0"
         style="stop-color:#FFFFFF"
         id="stop1973" />
      <stop
         offset="0.0862"
         style="stop-color:#F4F4F4"
         id="stop1975" />
      <stop
         offset="0.2379"
         style="stop-color:#D7D7D7"
         id="stop1977" />
      <stop
         offset="0.437"
         style="stop-color:#A7A9A9"
         id="stop1979" />
      <stop
         offset="0.676"
         style="stop-color:#656868"
         id="stop1981" />
      <stop
         offset="0.946"
         style="stop-color:#121616"
         id="stop1983" />
      <stop
         offset="1"
         style="stop-color:#000505"
         id="stop1985" />
    </radialGradient>
    <linearGradient
       id="SVGID_21_"
       gradientUnits="userSpaceOnUse"
       x1="-31.086399"
       y1="-118.894"
       x2="-31.086399"
       y2="-117.4723">
      <stop
         offset="0"
         style="stop-color:#FFFFFF"
         id="stop1852" />
      <stop
         offset="0.0483"
         style="stop-color:#E4E4E4"
         id="stop1854" />
      <stop
         offset="0.1522"
         style="stop-color:#AFAFAF"
         id="stop1856" />
      <stop
         offset="0.2603"
         style="stop-color:#808080"
         id="stop1858" />
      <stop
         offset="0.3706"
         style="stop-color:#595959"
         id="stop1860" />
      <stop
         offset="0.4834"
         style="stop-color:#393939"
         id="stop1862" />
      <stop
         offset="0.5996"
         style="stop-color:#202020"
         id="stop1864" />
      <stop
         offset="0.7206"
         style="stop-color:#0E0E0E"
         id="stop1866" />
      <stop
         offset="0.8495"
         style="stop-color:#030303"
         id="stop1868" />
      <stop
         offset="1"
         style="stop-color:#000000"
         id="stop1870" />
    </linearGradient>
    <radialGradient
       id="SVGID_22_"
       cx="-2225.3765"
       cy="-117.9512"
       r="0.98269999"
       gradientTransform="matrix(-1,0,0,1,-2256,0)"
       gradientUnits="userSpaceOnUse">
      <stop
         offset="0"
         style="stop-color:#FFFFFF"
         id="stop1877" />
      <stop
         offset="0.0862"
         style="stop-color:#F4F4F4"
         id="stop1879" />
      <stop
         offset="0.2379"
         style="stop-color:#D7D7D7"
         id="stop1881" />
      <stop
         offset="0.437"
         style="stop-color:#A7A9A9"
         id="stop1883" />
      <stop
         offset="0.676"
         style="stop-color:#656868"
         id="stop1885" />
      <stop
         offset="0.946"
         style="stop-color:#121616"
         id="stop1887" />
      <stop
         offset="1"
         style="stop-color:#000505"
         id="stop1889" />
    </radialGradient>
    <radialGradient
       id="SVGID_18_"
       cx="-2211.7461"
       cy="-117.6069"
       r="1.4583"
       gradientTransform="matrix(-1,0,0,1,-2256,0)"
       gradientUnits="userSpaceOnUse">
      <stop
         offset="0"
         style="stop-color:#F6F6F6"
         id="stop1799" />
      <stop
         offset="0.2137"
         style="stop-color:#F3F3F3"
         id="stop1801" />
      <stop
         offset="0.3559"
         style="stop-color:#EAEAEA"
         id="stop1803" />
      <stop
         offset="0.4773"
         style="stop-color:#DBDBDB"
         id="stop1805" />
      <stop
         offset="0.587"
         style="stop-color:#C6C6C6"
         id="stop1807" />
      <stop
         offset="0.6888"
         style="stop-color:#AAAAAA"
         id="stop1809" />
      <stop
         offset="0.7849"
         style="stop-color:#888888"
         id="stop1811" />
      <stop
         offset="0.8765"
         style="stop-color:#606060"
         id="stop1813" />
      <stop
         offset="0.9621"
         style="stop-color:#333333"
         id="stop1815" />
      <stop
         offset="1"
         style="stop-color:#1C1C1C"
         id="stop1817" />
    </radialGradient>
    <radialGradient
       id="SVGID_19_"
       cx="-45.451199"
       cy="-118.0796"
       r="1.4862"
       gradientUnits="userSpaceOnUse">
      <stop
         offset="0"
         style="stop-color:#B1B1B2"
         id="stop1822" />
      <stop
         offset="0.3497"
         style="stop-color:#787879"
         id="stop1824" />
      <stop
         offset="0.792"
         style="stop-color:#363636"
         id="stop1826" />
      <stop
         offset="1"
         style="stop-color:#1C1C1C"
         id="stop1828" />
    </radialGradient>
    <radialGradient
       id="SVGID_20_"
       cx="-2212.1533"
       cy="-117.9512"
       r="0.98269999"
       gradientTransform="matrix(-1,0,0,1,-2256,0)"
       gradientUnits="userSpaceOnUse">
      <stop
         offset="0"
         style="stop-color:#FFFFFF"
         id="stop1833" />
      <stop
         offset="0.0862"
         style="stop-color:#F4F4F4"
         id="stop1835" />
      <stop
         offset="0.2379"
         style="stop-color:#D7D7D7"
         id="stop1837" />
      <stop
         offset="0.437"
         style="stop-color:#A7A9A9"
         id="stop1839" />
      <stop
         offset="0.676"
         style="stop-color:#656868"
         id="stop1841" />
      <stop
         offset="0.946"
         style="stop-color:#121616"
         id="stop1843" />
      <stop
         offset="1"
         style="stop-color:#000505"
         id="stop1845" />
    </radialGradient>
    <radialGradient
       id="SVGID_15_"
       cx="-45.877399"
       cy="-117.6245"
       r="1.5196"
       gradientUnits="userSpaceOnUse">
      <stop
         offset="0"
         style="stop-color:#F6F6F6"
         id="stop1746" />
      <stop
         offset="0.2137"
         style="stop-color:#F3F3F3"
         id="stop1748" />
      <stop
         offset="0.3559"
         style="stop-color:#EAEAEA"
         id="stop1750" />
      <stop
         offset="0.4773"
         style="stop-color:#DBDBDB"
         id="stop1752" />
      <stop
         offset="0.587"
         style="stop-color:#C6C6C6"
         id="stop1754" />
      <stop
         offset="0.6888"
         style="stop-color:#AAAAAA"
         id="stop1756" />
      <stop
         offset="0.7849"
         style="stop-color:#888888"
         id="stop1758" />
      <stop
         offset="0.8765"
         style="stop-color:#606060"
         id="stop1760" />
      <stop
         offset="0.9621"
         style="stop-color:#333333"
         id="stop1762" />
      <stop
         offset="1"
         style="stop-color:#1C1C1C"
         id="stop1764" />
    </radialGradient>
    <radialGradient
       id="SVGID_16_"
       cx="-45.450199"
       cy="-118.0796"
       r="1.4864"
       gradientUnits="userSpaceOnUse">
      <stop
         offset="0"
         style="stop-color:#B1B1B2"
         id="stop1769" />
      <stop
         offset="0.3497"
         style="stop-color:#787879"
         id="stop1771" />
      <stop
         offset="0.792"
         style="stop-color:#363636"
         id="stop1773" />
      <stop
         offset="1"
         style="stop-color:#1C1C1C"
         id="stop1775" />
    </radialGradient>
    <radialGradient
       id="SVGID_17_"
       cx="-46.423302"
       cy="-117.9512"
       r="0.98229998"
       gradientUnits="userSpaceOnUse">
      <stop
         offset="0"
         style="stop-color:#FFFFFF"
         id="stop1780" />
      <stop
         offset="0.0862"
         style="stop-color:#F4F4F4"
         id="stop1782" />
      <stop
         offset="0.2379"
         style="stop-color:#D7D7D7"
         id="stop1784" />
      <stop
         offset="0.437"
         style="stop-color:#A7A9A9"
         id="stop1786" />
      <stop
         offset="0.676"
         style="stop-color:#656868"
         id="stop1788" />
      <stop
         offset="0.946"
         style="stop-color:#121616"
         id="stop1790" />
      <stop
         offset="1"
         style="stop-color:#000505"
         id="stop1792" />
    </radialGradient>
    <linearGradient
       gradientTransform="matrix(0.26458333,0,0,0.26458333,16.845744,320.90378)"
       id="SVGID_14_"
       gradientUnits="userSpaceOnUse"
       x1="-38.825199"
       y1="-118.2837"
       x2="-38.825199"
       y2="-116.9161">
      <stop
         offset="0"
         style="stop-color:#FFFFFF"
         id="stop1721" />
      <stop
         offset="0.0483"
         style="stop-color:#E4E4E4"
         id="stop1723" />
      <stop
         offset="0.1522"
         style="stop-color:#AFAFAF"
         id="stop1725" />
      <stop
         offset="0.2603"
         style="stop-color:#808080"
         id="stop1727" />
      <stop
         offset="0.3706"
         style="stop-color:#595959"
         id="stop1729" />
      <stop
         offset="0.4834"
         style="stop-color:#393939"
         id="stop1731" />
      <stop
         offset="0.5996"
         style="stop-color:#202020"
         id="stop1733" />
      <stop
         offset="0.7206"
         style="stop-color:#0E0E0E"
         id="stop1735" />
      <stop
         offset="0.8495"
         style="stop-color:#030303"
         id="stop1737" />
      <stop
         offset="1"
         style="stop-color:#000000"
         id="stop1739" />
    </linearGradient>
    <linearGradient
       id="SVGID_12_"
       gradientUnits="userSpaceOnUse"
       x1="-22.054199"
       y1="-126.5205"
       x2="-22.054199"
       y2="-121.7663">
      <stop
         offset="0"
         style="stop-color:#FFFFFF"
         id="stop1675" />
      <stop
         offset="0.0483"
         style="stop-color:#E4E4E4"
         id="stop1677" />
      <stop
         offset="0.1522"
         style="stop-color:#AFAFAF"
         id="stop1679" />
      <stop
         offset="0.2603"
         style="stop-color:#808080"
         id="stop1681" />
      <stop
         offset="0.3706"
         style="stop-color:#595959"
         id="stop1683" />
      <stop
         offset="0.4834"
         style="stop-color:#393939"
         id="stop1685" />
      <stop
         offset="0.5996"
         style="stop-color:#202020"
         id="stop1687" />
      <stop
         offset="0.7206"
         style="stop-color:#0E0E0E"
         id="stop1689" />
      <stop
         offset="0.8495"
         style="stop-color:#030303"
         id="stop1691" />
      <stop
         offset="1"
         style="stop-color:#000000"
         id="stop1693" />
    </linearGradient>
    <radialGradient
       id="SVGID_13_"
       cx="-2234.5859"
       cy="-123.5454"
       r="1.3585"
       gradientTransform="matrix(-1,0,0,1,-2256,0)"
       gradientUnits="userSpaceOnUse">
      <stop
         offset="0"
         style="stop-color:#FFFFFF"
         id="stop1702" />
      <stop
         offset="0.0862"
         style="stop-color:#F4F4F4"
         id="stop1704" />
      <stop
         offset="0.2379"
         style="stop-color:#D7D7D7"
         id="stop1706" />
      <stop
         offset="0.437"
         style="stop-color:#A7A9A9"
         id="stop1708" />
      <stop
         offset="0.676"
         style="stop-color:#656868"
         id="stop1710" />
      <stop
         offset="0.946"
         style="stop-color:#121616"
         id="stop1712" />
      <stop
         offset="1"
         style="stop-color:#000505"
         id="stop1714" />
    </radialGradient>
    <linearGradient
       id="SVGID_8_"
       gradientUnits="userSpaceOnUse"
       x1="-20.508301"
       y1="-126.5205"
       x2="-20.508301"
       y2="-121.7663">
      <stop
         offset="0"
         style="stop-color:#FFFFFF"
         id="stop1579" />
      <stop
         offset="0.0483"
         style="stop-color:#E4E4E4"
         id="stop1581" />
      <stop
         offset="0.1522"
         style="stop-color:#AFAFAF"
         id="stop1583" />
      <stop
         offset="0.2603"
         style="stop-color:#808080"
         id="stop1585" />
      <stop
         offset="0.3706"
         style="stop-color:#595959"
         id="stop1587" />
      <stop
         offset="0.4834"
         style="stop-color:#393939"
         id="stop1589" />
      <stop
         offset="0.5996"
         style="stop-color:#202020"
         id="stop1591" />
      <stop
         offset="0.7206"
         style="stop-color:#0E0E0E"
         id="stop1593" />
      <stop
         offset="0.8495"
         style="stop-color:#030303"
         id="stop1595" />
      <stop
         offset="1"
         style="stop-color:#000000"
         id="stop1597" />
    </linearGradient>
    <linearGradient
       id="SVGID_9_"
       gradientUnits="userSpaceOnUse"
       x1="-20.392099"
       y1="-123.9858"
       x2="-20.392099"
       y2="-122.5597">
      <stop
         offset="0"
         style="stop-color:#FFFFFF"
         id="stop1606" />
      <stop
         offset="0.0483"
         style="stop-color:#E4E4E4"
         id="stop1608" />
      <stop
         offset="0.1522"
         style="stop-color:#AFAFAF"
         id="stop1610" />
      <stop
         offset="0.2603"
         style="stop-color:#808080"
         id="stop1612" />
      <stop
         offset="0.3706"
         style="stop-color:#595959"
         id="stop1614" />
      <stop
         offset="0.4834"
         style="stop-color:#393939"
         id="stop1616" />
      <stop
         offset="0.5996"
         style="stop-color:#202020"
         id="stop1618" />
      <stop
         offset="0.7206"
         style="stop-color:#0E0E0E"
         id="stop1620" />
      <stop
         offset="0.8495"
         style="stop-color:#030303"
         id="stop1622" />
      <stop
         offset="1"
         style="stop-color:#000000"
         id="stop1624" />
    </linearGradient>
    <linearGradient
       id="SVGID_10_"
       gradientUnits="userSpaceOnUse"
       x1="-20.586399"
       y1="-123.9946"
       x2="-20.586399"
       y2="-122.5621">
      <stop
         offset="0"
         style="stop-color:#FFFFFF"
         id="stop1631" />
      <stop
         offset="0.0483"
         style="stop-color:#E4E4E4"
         id="stop1633" />
      <stop
         offset="0.1522"
         style="stop-color:#AFAFAF"
         id="stop1635" />
      <stop
         offset="0.2603"
         style="stop-color:#808080"
         id="stop1637" />
      <stop
         offset="0.3706"
         style="stop-color:#595959"
         id="stop1639" />
      <stop
         offset="0.4834"
         style="stop-color:#393939"
         id="stop1641" />
      <stop
         offset="0.5996"
         style="stop-color:#202020"
         id="stop1643" />
      <stop
         offset="0.7206"
         style="stop-color:#0E0E0E"
         id="stop1645" />
      <stop
         offset="0.8495"
         style="stop-color:#030303"
         id="stop1647" />
      <stop
         offset="1"
         style="stop-color:#000000"
         id="stop1649" />
    </linearGradient>
    <radialGradient
       id="SVGID_11_"
       cx="-2236.1323"
       cy="-123.5454"
       r="1.3588001"
       gradientTransform="matrix(-1,0,0,1,-2256,0)"
       gradientUnits="userSpaceOnUse">
      <stop
         offset="0"
         style="stop-color:#FFFFFF"
         id="stop1656" />
      <stop
         offset="0.0862"
         style="stop-color:#F4F4F4"
         id="stop1658" />
      <stop
         offset="0.2379"
         style="stop-color:#D7D7D7"
         id="stop1660" />
      <stop
         offset="0.437"
         style="stop-color:#A7A9A9"
         id="stop1662" />
      <stop
         offset="0.676"
         style="stop-color:#656868"
         id="stop1664" />
      <stop
         offset="0.946"
         style="stop-color:#121616"
         id="stop1666" />
      <stop
         offset="1"
         style="stop-color:#000505"
         id="stop1668" />
    </radialGradient>
    <linearGradient
       id="SVGID_6_"
       gradientUnits="userSpaceOnUse"
       x1="-18.8311"
       y1="-126.5205"
       x2="-18.8311"
       y2="-121.7663">
      <stop
         offset="0"
         style="stop-color:#FFFFFF"
         id="stop1535" />
      <stop
         offset="0.0483"
         style="stop-color:#E4E4E4"
         id="stop1537" />
      <stop
         offset="0.1522"
         style="stop-color:#AFAFAF"
         id="stop1539" />
      <stop
         offset="0.2603"
         style="stop-color:#808080"
         id="stop1541" />
      <stop
         offset="0.3706"
         style="stop-color:#595959"
         id="stop1543" />
      <stop
         offset="0.4834"
         style="stop-color:#393939"
         id="stop1545" />
      <stop
         offset="0.5996"
         style="stop-color:#202020"
         id="stop1547" />
      <stop
         offset="0.7206"
         style="stop-color:#0E0E0E"
         id="stop1549" />
      <stop
         offset="0.8495"
         style="stop-color:#030303"
         id="stop1551" />
      <stop
         offset="1"
         style="stop-color:#000000"
         id="stop1553" />
    </linearGradient>
    <radialGradient
       id="SVGID_7_"
       cx="-2237.8101"
       cy="-123.5454"
       r="1.359"
       gradientTransform="matrix(-1,0,0,1,-2256,0)"
       gradientUnits="userSpaceOnUse">
      <stop
         offset="0"
         style="stop-color:#FFFFFF"
         id="stop1560" />
      <stop
         offset="0.0862"
         style="stop-color:#F4F4F4"
         id="stop1562" />
      <stop
         offset="0.2379"
         style="stop-color:#D7D7D7"
         id="stop1564" />
      <stop
         offset="0.437"
         style="stop-color:#A7A9A9"
         id="stop1566" />
      <stop
         offset="0.676"
         style="stop-color:#656868"
         id="stop1568" />
      <stop
         offset="0.946"
         style="stop-color:#121616"
         id="stop1570" />
      <stop
         offset="1"
         style="stop-color:#000505"
         id="stop1572" />
    </radialGradient>
    <radialGradient
       id="SVGID_4_"
       cx="-2248.313"
       cy="-271.30219"
       r="1.5415"
       gradientTransform="matrix(-0.8208,0,0,0.5918,-1881.8687,37.7137)"
       gradientUnits="userSpaceOnUse">
      <stop
         offset="0"
         style="stop-color:#B1B1B2"
         id="stop1503" />
      <stop
         offset="0.3497"
         style="stop-color:#787879"
         id="stop1505" />
      <stop
         offset="0.792"
         style="stop-color:#363636"
         id="stop1507" />
      <stop
         offset="1"
         style="stop-color:#1C1C1C"
         id="stop1509" />
    </radialGradient>
    <radialGradient
       id="SVGID_5_"
       cx="-2249.1001"
       cy="-271.60501"
       r="1.5219001"
       gradientTransform="matrix(-0.8208,0,0,0.5918,-1881.8687,37.7137)"
       gradientUnits="userSpaceOnUse">
      <stop
         offset="0"
         style="stop-color:#FFFFFF"
         id="stop1516" />
      <stop
         offset="0.0862"
         style="stop-color:#F4F4F4"
         id="stop1518" />
      <stop
         offset="0.2379"
         style="stop-color:#D7D7D7"
         id="stop1520" />
      <stop
         offset="0.437"
         style="stop-color:#A7A9A9"
         id="stop1522" />
      <stop
         offset="0.676"
         style="stop-color:#656868"
         id="stop1524" />
      <stop
         offset="0.946"
         style="stop-color:#121616"
         id="stop1526" />
      <stop
         offset="1"
         style="stop-color:#000505"
         id="stop1528" />
    </radialGradient>
    <radialGradient
       id="SVGID_2_"
       cx="-10.188"
       cy="-271.30219"
       r="1.5415"
       gradientTransform="matrix(0.8208,0,0,0.5918,-30.0776,37.7137)"
       gradientUnits="userSpaceOnUse">
      <stop
         offset="0"
         style="stop-color:#B1B1B2"
         id="stop1471" />
      <stop
         offset="0.3497"
         style="stop-color:#787879"
         id="stop1473" />
      <stop
         offset="0.792"
         style="stop-color:#363636"
         id="stop1475" />
      <stop
         offset="1"
         style="stop-color:#1C1C1C"
         id="stop1477" />
    </radialGradient>
    <radialGradient
       id="SVGID_3_"
       cx="-10.9751"
       cy="-271.60501"
       r="1.5219001"
       gradientTransform="matrix(0.8208,0,0,0.5918,-30.0776,37.7137)"
       gradientUnits="userSpaceOnUse">
      <stop
         offset="0"
         style="stop-color:#FFFFFF"
         id="stop1484" />
      <stop
         offset="0.0862"
         style="stop-color:#F4F4F4"
         id="stop1486" />
      <stop
         offset="0.2379"
         style="stop-color:#D7D7D7"
         id="stop1488" />
      <stop
         offset="0.437"
         style="stop-color:#A7A9A9"
         id="stop1490" />
      <stop
         offset="0.676"
         style="stop-color:#656868"
         id="stop1492" />
      <stop
         offset="0.946"
         style="stop-color:#121616"
         id="stop1494" />
      <stop
         offset="1"
         style="stop-color:#000505"
         id="stop1496" />
    </radialGradient>
    <linearGradient
       gradientTransform="matrix(0.26458333,0,0,0.26458333,16.845744,320.90378)"
       id="SVGID_1_"
       gradientUnits="userSpaceOnUse"
       x1="-29.533701"
       y1="-124.3813"
       x2="-29.533701"
       y2="-120.9993">
      <stop
         offset="0"
         style="stop-color:#FFFFFF"
         id="stop1446" />
      <stop
         offset="0.0483"
         style="stop-color:#E4E4E4"
         id="stop1448" />
      <stop
         offset="0.1522"
         style="stop-color:#AFAFAF"
         id="stop1450" />
      <stop
         offset="0.2603"
         style="stop-color:#808080"
         id="stop1452" />
      <stop
         offset="0.3706"
         style="stop-color:#595959"
         id="stop1454" />
      <stop
         offset="0.4834"
         style="stop-color:#393939"
         id="stop1456" />
      <stop
         offset="0.5996"
         style="stop-color:#202020"
         id="stop1458" />
      <stop
         offset="0.7206"
         style="stop-color:#0E0E0E"
         id="stop1460" />
      <stop
         offset="0.8495"
         style="stop-color:#030303"
         id="stop1462" />
      <stop
         offset="1"
         style="stop-color:#000000"
         id="stop1464" />
    </linearGradient>
    <linearGradient
       id="SVGID_29_"
       gradientUnits="userSpaceOnUse"
       x1="21.987801"
       y1="-170.6826"
       x2="21.987801"
       y2="-166.5938">
      <stop
         offset="0"
         style="stop-color:#FFFFFF"
         id="stop2148" />
      <stop
         offset="0.0483"
         style="stop-color:#E4E4E4"
         id="stop2150" />
      <stop
         offset="0.1522"
         style="stop-color:#AFAFAF"
         id="stop2152" />
      <stop
         offset="0.2603"
         style="stop-color:#808080"
         id="stop2154" />
      <stop
         offset="0.3706"
         style="stop-color:#595959"
         id="stop2156" />
      <stop
         offset="0.4834"
         style="stop-color:#393939"
         id="stop2158" />
      <stop
         offset="0.5996"
         style="stop-color:#202020"
         id="stop2160" />
      <stop
         offset="0.7206"
         style="stop-color:#0E0E0E"
         id="stop2162" />
      <stop
         offset="0.8495"
         style="stop-color:#030303"
         id="stop2164" />
      <stop
         offset="1"
         style="stop-color:#000000"
         id="stop2166" />
    </linearGradient>
    <radialGradient
       id="SVGID_30_"
       cx="54.0107"
       cy="-344.62839"
       r="1.7373"
       gradientTransform="matrix(0.8638,0,0,0.6341,-35.239,49.708)"
       gradientUnits="userSpaceOnUse">
      <stop
         offset="0"
         style="stop-color:#B1B1B2"
         id="stop2173" />
      <stop
         offset="0.3497"
         style="stop-color:#787879"
         id="stop2175" />
      <stop
         offset="0.792"
         style="stop-color:#363636"
         id="stop2177" />
      <stop
         offset="1"
         style="stop-color:#1C1C1C"
         id="stop2179" />
    </radialGradient>
    <radialGradient
       id="SVGID_31_"
       cx="53.122601"
       cy="-344.9722"
       r="1.7165"
       gradientTransform="matrix(0.8638,0,0,0.6341,-35.239,49.708)"
       gradientUnits="userSpaceOnUse">
      <stop
         offset="0"
         style="stop-color:#FFFFFF"
         id="stop2186" />
      <stop
         offset="0.0862"
         style="stop-color:#F4F4F4"
         id="stop2188" />
      <stop
         offset="0.2379"
         style="stop-color:#D7D7D7"
         id="stop2190" />
      <stop
         offset="0.437"
         style="stop-color:#A7A9A9"
         id="stop2192" />
      <stop
         offset="0.676"
         style="stop-color:#656868"
         id="stop2194" />
      <stop
         offset="0.946"
         style="stop-color:#121616"
         id="stop2196" />
      <stop
         offset="1"
         style="stop-color:#000505"
         id="stop2198" />
    </radialGradient>
    <radialGradient
       id="SVGID_32_"
       cx="-2312.3198"
       cy="-344.62839"
       r="1.7373"
       gradientTransform="matrix(-0.8638,0,0,0.6341,-1983.6096,49.708)"
       gradientUnits="userSpaceOnUse">
      <stop
         offset="0"
         style="stop-color:#B1B1B2"
         id="stop2205" />
      <stop
         offset="0.3497"
         style="stop-color:#787879"
         id="stop2207" />
      <stop
         offset="0.792"
         style="stop-color:#363636"
         id="stop2209" />
      <stop
         offset="1"
         style="stop-color:#1C1C1C"
         id="stop2211" />
    </radialGradient>
    <radialGradient
       id="SVGID_33_"
       cx="-2313.207"
       cy="-344.9722"
       r="1.7161"
       gradientTransform="matrix(-0.8638,0,0,0.6341,-1983.6096,49.708)"
       gradientUnits="userSpaceOnUse">
      <stop
         offset="0"
         style="stop-color:#FFFFFF"
         id="stop2218" />
      <stop
         offset="0.0862"
         style="stop-color:#F4F4F4"
         id="stop2220" />
      <stop
         offset="0.2379"
         style="stop-color:#D7D7D7"
         id="stop2222" />
      <stop
         offset="0.437"
         style="stop-color:#A7A9A9"
         id="stop2224" />
      <stop
         offset="0.676"
         style="stop-color:#656868"
         id="stop2226" />
      <stop
         offset="0.946"
         style="stop-color:#121616"
         id="stop2228" />
      <stop
         offset="1"
         style="stop-color:#000505"
         id="stop2230" />
    </radialGradient>
    <linearGradient
       id="SVGID_34_"
       gradientUnits="userSpaceOnUse"
       x1="34.693401"
       y1="-173.26711"
       x2="34.693401"
       y2="-167.5218">
      <stop
         offset="0"
         style="stop-color:#FFFFFF"
         id="stop2237" />
      <stop
         offset="0.0483"
         style="stop-color:#E4E4E4"
         id="stop2239" />
      <stop
         offset="0.1522"
         style="stop-color:#AFAFAF"
         id="stop2241" />
      <stop
         offset="0.2603"
         style="stop-color:#808080"
         id="stop2243" />
      <stop
         offset="0.3706"
         style="stop-color:#595959"
         id="stop2245" />
      <stop
         offset="0.4834"
         style="stop-color:#393939"
         id="stop2247" />
      <stop
         offset="0.5996"
         style="stop-color:#202020"
         id="stop2249" />
      <stop
         offset="0.7206"
         style="stop-color:#0E0E0E"
         id="stop2251" />
      <stop
         offset="0.8495"
         style="stop-color:#030303"
         id="stop2253" />
      <stop
         offset="1"
         style="stop-color:#000000"
         id="stop2255" />
    </linearGradient>
    <radialGradient
       id="SVGID_35_"
       cx="-2292.7144"
       cy="-166.6685"
       r="1.5344"
       gradientTransform="matrix(-1.0524,0,0,1.0714,-2377.3982,8.8955)"
       gradientUnits="userSpaceOnUse">
      <stop
         offset="0"
         style="stop-color:#FFFFFF"
         id="stop2262" />
      <stop
         offset="0.0862"
         style="stop-color:#F4F4F4"
         id="stop2264" />
      <stop
         offset="0.2379"
         style="stop-color:#D7D7D7"
         id="stop2266" />
      <stop
         offset="0.437"
         style="stop-color:#A7A9A9"
         id="stop2268" />
      <stop
         offset="0.676"
         style="stop-color:#656868"
         id="stop2270" />
      <stop
         offset="0.946"
         style="stop-color:#121616"
         id="stop2272" />
      <stop
         offset="1"
         style="stop-color:#000505"
         id="stop2274" />
    </radialGradient>
    <linearGradient
       id="SVGID_36_"
       gradientUnits="userSpaceOnUse"
       x1="32.701698"
       y1="-173.26711"
       x2="32.701698"
       y2="-167.5218">
      <stop
         offset="0"
         style="stop-color:#FFFFFF"
         id="stop2281" />
      <stop
         offset="0.0483"
         style="stop-color:#E4E4E4"
         id="stop2283" />
      <stop
         offset="0.1522"
         style="stop-color:#AFAFAF"
         id="stop2285" />
      <stop
         offset="0.2603"
         style="stop-color:#808080"
         id="stop2287" />
      <stop
         offset="0.3706"
         style="stop-color:#595959"
         id="stop2289" />
      <stop
         offset="0.4834"
         style="stop-color:#393939"
         id="stop2291" />
      <stop
         offset="0.5996"
         style="stop-color:#202020"
         id="stop2293" />
      <stop
         offset="0.7206"
         style="stop-color:#0E0E0E"
         id="stop2295" />
      <stop
         offset="0.8495"
         style="stop-color:#030303"
         id="stop2297" />
      <stop
         offset="1"
         style="stop-color:#000000"
         id="stop2299" />
    </linearGradient>
    <linearGradient
       id="SVGID_37_"
       gradientUnits="userSpaceOnUse"
       x1="32.839401"
       y1="-170.2002"
       x2="32.839401"
       y2="-168.4787">
      <stop
         offset="0"
         style="stop-color:#FFFFFF"
         id="stop2308" />
      <stop
         offset="0.0483"
         style="stop-color:#E4E4E4"
         id="stop2310" />
      <stop
         offset="0.1522"
         style="stop-color:#AFAFAF"
         id="stop2312" />
      <stop
         offset="0.2603"
         style="stop-color:#808080"
         id="stop2314" />
      <stop
         offset="0.3706"
         style="stop-color:#595959"
         id="stop2316" />
      <stop
         offset="0.4834"
         style="stop-color:#393939"
         id="stop2318" />
      <stop
         offset="0.5996"
         style="stop-color:#202020"
         id="stop2320" />
      <stop
         offset="0.7206"
         style="stop-color:#0E0E0E"
         id="stop2322" />
      <stop
         offset="0.8495"
         style="stop-color:#030303"
         id="stop2324" />
      <stop
         offset="1"
         style="stop-color:#000000"
         id="stop2326" />
    </linearGradient>
    <linearGradient
       id="SVGID_38_"
       gradientUnits="userSpaceOnUse"
       x1="32.609402"
       y1="-170.2236"
       x2="32.609402"
       y2="-168.48489">
      <stop
         offset="0"
         style="stop-color:#FFFFFF"
         id="stop2333" />
      <stop
         offset="0.0483"
         style="stop-color:#E4E4E4"
         id="stop2335" />
      <stop
         offset="0.1522"
         style="stop-color:#AFAFAF"
         id="stop2337" />
      <stop
         offset="0.2603"
         style="stop-color:#808080"
         id="stop2339" />
      <stop
         offset="0.3706"
         style="stop-color:#595959"
         id="stop2341" />
      <stop
         offset="0.4834"
         style="stop-color:#393939"
         id="stop2343" />
      <stop
         offset="0.5996"
         style="stop-color:#202020"
         id="stop2345" />
      <stop
         offset="0.7206"
         style="stop-color:#0E0E0E"
         id="stop2347" />
      <stop
         offset="0.8495"
         style="stop-color:#030303"
         id="stop2349" />
      <stop
         offset="1"
         style="stop-color:#000000"
         id="stop2351" />
    </linearGradient>
    <radialGradient
       id="SVGID_39_"
       cx="-2290.8223"
       cy="-166.6685"
       r="1.5337"
       gradientTransform="matrix(-1.0524,0,0,1.0714,-2377.3982,8.8955)"
       gradientUnits="userSpaceOnUse">
      <stop
         offset="0"
         style="stop-color:#FFFFFF"
         id="stop2358" />
      <stop
         offset="0.0862"
         style="stop-color:#F4F4F4"
         id="stop2360" />
      <stop
         offset="0.2379"
         style="stop-color:#D7D7D7"
         id="stop2362" />
      <stop
         offset="0.437"
         style="stop-color:#A7A9A9"
         id="stop2364" />
      <stop
         offset="0.676"
         style="stop-color:#656868"
         id="stop2366" />
      <stop
         offset="0.946"
         style="stop-color:#121616"
         id="stop2368" />
      <stop
         offset="1"
         style="stop-color:#000505"
         id="stop2370" />
    </radialGradient>
    <linearGradient
       id="SVGID_40_"
       gradientUnits="userSpaceOnUse"
       x1="30.866699"
       y1="-173.26711"
       x2="30.866699"
       y2="-167.5218">
      <stop
         offset="0"
         style="stop-color:#FFFFFF"
         id="stop2377" />
      <stop
         offset="0.0483"
         style="stop-color:#E4E4E4"
         id="stop2379" />
      <stop
         offset="0.1522"
         style="stop-color:#AFAFAF"
         id="stop2381" />
      <stop
         offset="0.2603"
         style="stop-color:#808080"
         id="stop2383" />
      <stop
         offset="0.3706"
         style="stop-color:#595959"
         id="stop2385" />
      <stop
         offset="0.4834"
         style="stop-color:#393939"
         id="stop2387" />
      <stop
         offset="0.5996"
         style="stop-color:#202020"
         id="stop2389" />
      <stop
         offset="0.7206"
         style="stop-color:#0E0E0E"
         id="stop2391" />
      <stop
         offset="0.8495"
         style="stop-color:#030303"
         id="stop2393" />
      <stop
         offset="1"
         style="stop-color:#000000"
         id="stop2395" />
    </linearGradient>
    <radialGradient
       id="SVGID_41_"
       cx="-2289.0767"
       cy="-166.6685"
       r="1.5334001"
       gradientTransform="matrix(-1.0524,0,0,1.0714,-2377.3982,8.8955)"
       gradientUnits="userSpaceOnUse">
      <stop
         offset="0"
         style="stop-color:#FFFFFF"
         id="stop2404" />
      <stop
         offset="0.0862"
         style="stop-color:#F4F4F4"
         id="stop2406" />
      <stop
         offset="0.2379"
         style="stop-color:#D7D7D7"
         id="stop2408" />
      <stop
         offset="0.437"
         style="stop-color:#A7A9A9"
         id="stop2410" />
      <stop
         offset="0.676"
         style="stop-color:#656868"
         id="stop2412" />
      <stop
         offset="0.946"
         style="stop-color:#121616"
         id="stop2414" />
      <stop
         offset="1"
         style="stop-color:#000505"
         id="stop2416" />
    </radialGradient>
  </defs>
  <sodipodi:namedview
     id="base"
     pagecolor="#ffffff"
     bordercolor="#666666"
     borderopacity="1.0"
     inkscape:pageopacity="0.0"
     inkscape:pageshadow="2"
     inkscape:zoom="2.8554058"
     inkscape:cx="4.8906675"
     inkscape:cy="34.63891"
     inkscape:document-units="mm"
     inkscape:current-layer="layer1"
     showgrid="false"
     units="px"
     inkscape:window-width="645"
     inkscape:window-height="615"
     inkscape:window-x="1135"
     inkscape:window-y="9"
     inkscape:window-maximized="0" />
  <metadata
     id="metadata4830">
    <rdf:RDF>
      <cc:Work
         rdf:about="">
        <dc:format>image/svg+xml</dc:format>
        <dc:type
           rdf:resource="http://purl.org/dc/dcmitype/StillImage" />
        <dc:title></dc:title>
      </cc:Work>
    </rdf:RDF>
  </metadata>
  <g
     inkscape:label="Layer 1"
     inkscape:groupmode="layer"
     id="layer1"
     transform="translate(0,-284.56457)">
    <g
       transform="matrix(0.26458333,0,0,0.26458333,-12.699604,297.75083)"
       id="g2050">
      <path
         style="fill:#918a8e"
         inkscape:connector-curvature="0"
         d="m 78.072,-31.511 c 0,0 0,0 0.102,-0.063 l 0.102,-0.141 c -0.088,0.051 -0.151,0 -0.279,0.127 -0.128,0.127 -0.127,0.127 -0.127,0.127 l -0.021,0.027 c 0.004,0.006 0.01,0.016 0.015,0.023 0.021,-0.008 0.048,-0.021 0.083,-0.051 z m -11.07,1.534 c 0,0 0,0 0,0 v 0.002 z m -0.671,0.698 c -0.02,-0.051 -0.04,-0.096 -0.04,-0.096 z m 12.592,-2.867 c -0.05,0.024 -0.076,0.038 -0.076,0.114 0,0.033 0.019,0.047 0.03,0.055 0.008,-0.006 0.018,-0.01 0.021,-0.016 0.024,-0.039 0.126,-0.09 0.126,-0.09 l 0.013,-0.051 0.076,0.012 -0.139,-0.037 c 10e-4,10e-4 10e-4,-0.013 -0.051,0.013 z m -9.673,0.558 -0.038,0.053 0.038,0.189 z m -1.229,1.587 0.073,0.015 0.063,-0.154 -0.115,0.129 z m 0.137,-0.14 0.089,-0.074 0.102,-0.141 0.04,-0.047 0.001,-0.002 -0.092,0.099 z m 1.523,-2.138 0.054,-0.055 v -0.129 c -0.035,-0.012 -0.104,-0.039 -0.104,-0.039 0,0 -0.127,0.027 -0.166,0.027 -0.038,0 -0.012,0.074 -0.012,0.074 l 0.121,0.121 h 0.107 z m -0.825,2.177 v 0.063 h 0.14 l 0.048,-0.005 c -0.004,-0.019 -0.01,-0.035 -0.022,-0.058 -0.022,-0.041 0.014,-0.141 0.014,-0.141 -0.053,0.065 -0.18,0.141 -0.18,0.141 z m 0.367,-0.824 -0.011,-0.027 c 0,0 0.004,0.012 0.011,0.027 z m -0.174,0.666 c -0.004,0.004 -0.006,0.008 -0.015,0.018 0,0 0.003,0.002 0.011,0.002 z m 8.716,6.476 h -0.12 l -0.017,0.042 v 0.063 l 0.013,0.077 c 0,0 0,0 0.076,-0.127 0.02,-0.033 0.035,-0.049 0.048,-0.055 z m -10.077,-5.683 0.032,-0.074 c -0.033,-0.001 -0.057,-0.002 -0.057,-0.002 l 0.025,0.116 z m -0.114,0.24 c 0,0 -0.05,-0.024 -0.126,-0.037 z m 0.081,-0.012 -0.082,0.013 0.076,0.014 z m 3.045,0.253 c 0.005,0 0.01,0.002 0.01,0.002 l 0.101,0.051 h 0.127 l 0.089,-0.051 0.014,-0.089 c -0.068,0.024 -0.103,0.024 -0.103,0.024 -0.115,0.026 -0.102,0.014 -0.165,0.038 -0.036,0.015 -0.056,0.022 -0.073,0.025 z m 1.124,0.293 0.039,0.004 h 0.076 c 0,0 0.057,0.179 0.097,0.264 0.044,-0.041 0.084,-0.076 0.084,-0.076 v -0.09 l -0.026,-0.127 c 0,0 -0.012,-0.063 -0.077,-0.088 -0.063,-0.025 -0.177,-0.127 -0.177,-0.127 l -0.175,-0.147 c 0.005,0.028 0.019,0.052 -0.003,0.083 -0.025,0.039 -0.013,0.052 -0.013,0.09 0,0.037 0.089,0.037 0.089,0.037 l 0.115,0.089 -0.036,0.083 c 0.004,0.002 0.007,0.005 0.007,0.005 z m -2.523,-3.707 -0.14,0.026 c 0,0 0,0 -0.038,-0.026 -0.038,-0.025 -0.064,-0.074 -0.064,-0.074 l -0.05,-0.104 c 0,0 -0.077,-0.025 -0.06,-0.081 -0.058,0.009 -0.105,0.009 -0.105,0.009 -0.028,0.029 -0.009,0.066 -0.047,0.114 -0.038,0.048 -0.038,0.048 -0.038,0.048 0,0 0.085,0.047 0.01,0.047 -0.077,0 -0.087,-0.019 -0.125,0 -0.011,0.006 -0.023,0.01 -0.036,0.015 l 10e-4,0.008 v 0.038 l -0.026,0.025 c 0,0 -0.006,0.013 -0.07,0.039 -0.063,0.024 0.012,0.018 -0.063,0.024 -0.075,0.006 -0.025,0.058 -0.108,-0.007 -0.082,-0.063 -0.132,-0.102 -0.132,-0.102 0,0 -0.032,-0.019 -0.045,-0.043 -0.013,-0.026 -0.038,-0.059 -0.038,-0.059 l -0.039,-0.057 c 0,0 0.044,0 0.032,-0.045 -0.051,0.031 -0.077,0.02 -0.088,0.052 -0.013,0.032 -0.013,0.032 -0.013,0.069 0,0.039 0,0 0,0.039 0,0.037 -0.025,0.043 -0.025,0.043 0.006,0.072 -0.014,0.052 0.006,0.072 0.019,0.02 0.063,0.02 0.063,0.02 v 0.025 c 0,0 0.006,0.006 0.006,0.051 0,0.044 0.038,0.069 0,0.082 -0.038,0.014 -0.063,0.051 -0.063,0.051 0,0 0.006,0.039 0.006,0.058 0,0.004 0.001,0.007 0.004,0.009 0.021,0.006 0.047,0.015 0.062,0.018 0.019,0.005 0.076,-0.014 0.076,-0.014 l 0.029,-0.059 0.071,-0.033 0.105,0.055 c 0,0 0,0.004 0.015,0.031 0.014,0.029 0.104,0.087 0.104,0.087 0.004,-0.02 0.038,-0.054 0.038,-0.054 v -0.023 c 0,0 0.048,-0.018 0.063,-0.018 0.014,0 0.033,-0.016 0.066,-0.01 0.034,0.004 0.038,-0.01 0.067,0.027 0.028,0.039 0,0.015 0.028,0.039 0.029,0.023 0.047,0.052 0.047,0.052 l 0.029,0.038 0.004,0.024 c 0,0 0,0.019 0,0.033 0,0.014 0,0.015 0,0.015 l -0.002,0.039 c 0.027,-0.012 0.051,-0.016 0.051,-0.016 0,0 0,0 0.051,-0.051 0.051,-0.051 0.089,0 0.089,0 h 0.101 l 0.064,0.025 v -0.088 l 0.057,-0.059 0.07,-0.069 0.051,-0.051 v -0.178 l -0.044,-0.044 0.146,-0.084 c -10e-4,0.002 -0.078,0.002 -0.153,0.002 z m 2.006,3.262 0.025,-0.089 c -0.013,0.02 -0.022,0.033 -0.031,0.043 z m 7.451,-2.792 c 0,0 0.035,-0.009 0.07,-0.021 -0.056,0.008 -0.001,-0.048 -0.07,0.021 z m -6.665,-1.119 c 0,0.008 0,0.015 0,0.015 0,0 0.013,0.019 0.058,0.022 -0.019,-0.013 -0.038,-0.026 -0.058,-0.037 z m -1.739,3.963 c -0.025,0.063 -0.025,0.063 -0.025,0.063 l 0.076,-0.039 0.026,-0.05 c 0,0 0.023,-0.003 0.052,0 h -0.001 c -0.001,10e-4 -0.102,-0.038 -0.128,0.026 z m 0.112,-3.59 h 0.002 v 0 c -0.001,0 -0.002,0 -0.002,0 z m 0.866,3.449 c 0.064,0 0.127,0 0.127,0 l 0.063,0.014 c 0,0 0.051,-0.025 0.051,0.025 0,0.018 0.011,0.028 0.025,0.037 0.002,-0.04 0.002,-0.165 -0.051,-0.165 -0.063,10e-4 -0.164,0.014 -0.215,0.089 z m 6.981,5.511 -0.089,-0.013 -0.101,-0.039 -0.009,-0.017 h -0.322 c 0.023,0.011 0.042,0.042 0.076,0.042 0.064,0 0,0.063 0,0.063 l -0.025,0.077 0.051,0.051 0.026,0.063 c 0,0 0.05,0.052 0.114,0.089 l -0.014,0.05 h -0.051 l -0.113,-0.011 -0.077,-0.025 h -0.101 l -0.089,0.163 -0.139,-0.074 -0.026,-0.053 c 0,0 0,-0.05 0.051,-0.074 0.051,-0.026 0.051,-0.026 0.051,-0.026 l 0.051,-0.038 -0.013,-0.113 -0.051,0.012 c 0,0 -0.127,0.025 -0.216,0.025 -0.089,0 0.013,-0.101 0.013,-0.101 l 0.05,-0.09 -0.063,-0.024 0.001,-0.005 h -0.617 c -0.01,0 -0.019,-0.003 -0.028,-0.004 0.048,0.051 0.06,0.136 0.06,0.136 0,0 0.051,0.063 0,0.075 -0.05,0.013 -0.101,0.026 -0.126,0.064 -0.025,0.038 0.102,-0.052 -0.102,0.127 -0.203,0.177 -0.279,0.267 -0.279,0.267 l -0.051,0.024 -0.089,-0.024 c 0,0 -0.089,0.075 0.038,-0.076 0.128,-0.154 0.128,-0.154 0.128,-0.154 l 0.139,-0.074 0.114,-0.104 0.063,-0.05 0.025,-0.063 0.013,-0.088 0.06,-0.061 c -0.701,-0.021 -1.261,-0.588 -1.262,-1.294 v -1.695 c -0.093,-0.005 -0.118,-0.087 -0.118,-0.087 -0.102,0.025 -0.178,0.14 -0.178,0.14 0,0 -0.049,0.012 -0.088,0.026 -0.039,0.014 -0.064,-0.026 -0.165,0.014 -0.102,0.036 -0.152,0.024 -0.203,0.036 -0.052,0.013 -0.064,-0.012 -0.127,0.026 -0.064,0.037 -0.064,0.037 -0.064,0.037 l -0.05,0.076 -0.077,0.115 -0.101,-0.051 0.012,-0.178 c 0,0 0.064,-0.09 0,-0.076 -0.063,0.014 -0.051,0.014 -0.139,0.025 -0.089,0.013 0.038,0.024 -0.089,0.013 -0.127,-0.013 -0.242,-0.064 -0.242,-0.064 h -0.051 l -0.075,0.114 -0.241,0.204 -0.051,0.051 -0.088,0.152 0.038,0.114 v 0.189 l 0.14,0.103 0.051,0.151 0.051,0.09 0.127,0.076 c 0,0 0.101,0.203 0.126,0.253 0.026,0.051 0.178,0.191 0.178,0.191 v 0.114 l 0.128,0.405 c 0,0 -0.013,0.152 -0.039,0.216 -0.025,0.064 -0.039,0.14 -0.051,0.178 -0.012,0.038 -0.025,0.102 -0.025,0.102 l -0.076,0.051 -0.178,0.088 c 0,0 -0.063,0.053 -0.14,0.053 -0.075,0 -0.05,-0.103 -0.05,-0.103 h -0.077 c 0,0 -0.063,0.076 -0.102,0.127 -0.038,0.051 -0.076,0.077 -0.076,0.077 l -0.025,0.05 c 0,0 -0.102,0.089 -0.14,0.114 -0.038,0.026 -0.203,0.09 -0.203,0.09 0,0 0,0 0,-0.038 0,-0.038 0.051,-0.115 0.051,-0.115 v -0.14 l -0.114,-0.075 -0.013,-0.052 0.015,-0.011 c -0.042,-0.009 -0.02,0.011 -0.05,-0.005 -0.038,-0.019 -0.047,-0.047 -0.047,-0.047 0,0 0,0 -0.028,-0.048 -0.029,-0.047 -0.067,-0.009 -0.086,-0.038 -0.019,-0.028 -0.048,-0.049 -0.048,-0.049 l -0.123,-0.037 c 0,0 0,0 -0.009,-0.028 -0.01,-0.028 -0.039,-0.02 -0.048,-0.095 -0.01,-0.078 0,0 0,-0.038 0,-0.04 -0.01,-0.058 -0.01,-0.058 l -0.047,-0.028 c 0,0 0,0 -0.057,-0.029 -0.058,-0.028 0,0 -0.01,-0.028 -0.009,-0.028 -0.009,-0.038 -0.009,-0.066 0,-0.02 0.007,-0.08 0.013,-0.119 l -0.013,0.005 -0.067,0.057 -0.038,0.038 c 0,0 -0.067,0 -0.125,-0.076 -0.058,-0.076 -0.076,-0.076 -0.076,-0.104 0,-0.029 0.038,-0.047 0.038,-0.047 l 0.038,-0.029 -0.009,-0.076 c 0,0 0,0 -0.01,-0.028 -0.009,-0.028 -0.057,-0.039 -0.057,-0.039 H 71.89 l -0.048,0.039 c 0,0 -0.019,0.058 -0.019,0.095 0,0.039 -0.01,0.086 -0.01,0.114 0,0.028 -0.019,0.096 -0.019,0.096 0,0 -0.02,0.076 -0.028,0.114 -0.01,0.038 -0.077,0.038 -0.077,0.038 0,0 0,0 -0.02,0 0,0 0,0.004 -10e-4,0.01 l -0.046,0.189 c 0,0 0.02,-0.027 0,0.067 -0.018,0.095 0.02,0.028 -0.018,0.095 -0.039,0.066 -0.058,0.039 -0.039,0.124 0.02,0.085 0.02,0.085 0.02,0.085 l 0.066,0.02 0.048,0.009 c 0.066,0.058 0.066,0.097 0.066,0.097 0,0 0,0.009 0.009,0.038 0.01,0.027 -0.009,-0.048 0.01,0.027 0.02,0.076 0.057,0.096 0.057,0.096 0,0 -0.047,-0.028 0.02,0.076 0.066,0.105 0.066,0.114 0.066,0.142 v 0.03 c 0,0.085 0.038,0.057 0.057,0.085 0.019,0.029 -0.019,0.02 0.019,0.029 0.038,0.009 0.085,0.02 0.085,0.02 0,0 0.029,0 0.057,0.027 0.029,0.028 0.01,-0.027 0.029,0.028 0.02,0.058 -0.029,-0.02 0.02,0.058 0.047,0.076 0.047,0.066 0.085,0.087 0.039,0.018 -0.019,-0.021 0.039,0.018 0.057,0.038 0.019,-0.058 0.057,0.038 0.038,0.096 0.01,0.067 0.038,0.096 0.004,0.004 0.005,0.006 0.007,0.007 0.008,0.005 0.025,0.017 0.06,0.041 0.125,0.085 0.125,0.171 0.125,0.171 0,0 0,0.048 0,0.076 0,0.029 -0.02,-0.028 -0.02,0.067 0,0.095 0,0.057 0,0.151 0,0.096 0,0.048 0,0.096 0,0.047 -0.019,-0.038 0.076,0.104 0.096,0.143 0.096,0.143 0.096,0.143 l 0.067,0.095 c 0,0 0,0 0,0.049 0,0.047 0,0 0,0.047 0,0.048 0.066,0.067 0,0.048 -0.067,-0.02 0.009,-0.038 -0.114,-0.057 -0.125,-0.019 -0.125,-0.019 -0.125,-0.019 0,0 -0.047,-0.059 -0.085,-0.059 -0.038,0 -0.105,-0.057 -0.105,-0.057 l -0.075,-0.086 c 0,0 0.009,-0.047 -0.039,-0.047 -0.048,0 -0.057,0.047 -0.095,-0.039 -0.039,-0.086 -0.039,-0.086 -0.039,-0.086 l -0.095,-0.114 c 0,0 -0.038,-0.019 -0.038,-0.066 0,-0.047 -0.02,-0.104 -0.02,-0.104 l -0.038,-0.021 -0.077,-0.18 c 0,0 0,-0.02 0,-0.086 0,-0.066 0,-0.143 0,-0.143 l -0.018,-0.114 -0.02,-0.086 -0.037,-0.077 -0.058,-0.057 -0.047,-0.019 -0.039,-0.076 -0.057,-0.076 -0.056,-0.094 -0.019,-0.067 -0.02,-0.048 -0.047,-0.009 -0.019,0.057 -0.038,0.038 -0.067,-0.199 0.058,-0.144 c 0,0 0,-0.048 0.009,-0.085 0.009,-0.039 0.076,-0.105 0.076,-0.105 l 0.066,-0.095 0.096,-0.208 c -0.005,0.006 -0.012,0.013 -0.021,0.018 -0.037,0.018 -0.037,0.018 -0.094,-0.02 0,0 0,-0.104 0,-0.133 0,-0.029 0,-0.096 0,-0.096 0,0 0,-0.086 0,-0.123 0,-0.039 0,-0.086 -0.01,-0.125 -0.009,-0.037 -0.009,-0.076 -0.019,-0.104 -0.01,-0.028 -0.019,-0.143 -0.019,-0.143 0,0 -0.104,-0.237 -0.104,-0.305 0,-0.066 -0.029,-0.066 -0.029,-0.066 l 0.038,-0.075 0.039,-0.039 v -0.115 l -0.028,-0.124 -0.048,-0.009 -0.104,-0.086 -0.009,-0.095 -0.057,0.011 c 0,0 -0.009,0.065 -0.029,0.114 0,0 -0.085,0.037 -0.133,0.074 -0.048,0.039 -0.058,0.059 -0.086,0.076 -0.028,0.02 -0.066,0.02 -0.095,0.02 -0.029,0 -0.086,0 -0.133,-0.027 -0.049,-0.029 0,0 -0.01,-0.029 -0.009,-0.029 -0.009,-0.049 0.01,-0.076 0.018,-0.028 0.018,-0.104 0.018,-0.104 l 0.02,-0.038 0.058,-0.086 c 0,0 0.018,-0.048 0.009,-0.096 -0.009,-0.047 -0.029,-0.171 -0.029,-0.228 0,-0.059 -0.028,-0.059 -0.028,-0.059 0,0 -0.085,-0.065 -0.096,-0.096 v -0.046 c 0,0 0,0 0,-0.058 0,-0.057 0,-0.076 0,-0.076 l -0.009,-0.057 c 0,0 0,0 -0.047,-0.097 -0.048,-0.094 0,0 -0.029,-0.028 -0.029,-0.027 0,0 -0.01,-0.057 -0.01,-0.056 -0.105,-0.066 -0.105,-0.066 L 70.415,-27.1 70.4,-27.19 c -0.012,0.005 -0.02,0.009 -0.02,0.009 l -0.026,-0.09 v -0.164 l 0.026,-0.141 v -0.063 h -0.051 c -0.063,0.038 -0.063,0.038 -0.063,0.038 0,0 0.013,0.039 -0.076,0.063 -0.088,0.026 -0.165,0.026 -0.165,0.026 L 69.96,-27.5 c 0,0 -0.102,0.014 -0.139,0.014 h -0.039 c -0.063,0 -0.102,-0.09 -0.102,-0.09 l 0.039,-0.051 -0.163,0.127 -0.065,-0.012 c 0,0 -0.025,0.012 -0.025,0.063 0,0.051 0,0.103 0,0.103 l 0.013,0.063 c -0.127,0.05 -0.14,0.037 -0.178,0.05 -0.038,0.013 -0.038,0.013 -0.038,0.013 0,0 -0.039,-0.013 -0.089,0.025 -0.051,0.039 -0.128,0.128 -0.128,0.128 -0.05,0.063 -0.05,0.063 -0.05,0.063 0,0 -0.025,0.038 -0.076,0.064 -0.051,0.024 -0.114,0.037 -0.114,0.037 l -0.166,0.063 c 0,0 0,0.04 -0.024,0.089 -0.026,0.052 -0.153,0.102 -0.179,0.14 -0.024,0.038 -0.037,0.013 -0.088,0.038 -0.051,0.024 -0.051,0.024 -0.051,0.024 l -0.14,0.091 c 0,0 0,0.114 0.013,0.151 0.012,0.039 0.051,0.103 0.025,0.152 -0.025,0.052 -0.013,0.178 -0.039,0.28 -0.025,0.102 -0.051,0.203 -0.051,0.203 l -0.025,0.291 -0.152,0.076 -0.14,0.127 -0.038,0.089 c 0,0 -0.051,0.166 -0.051,0.115 0,-0.051 -0.051,-0.56 -0.051,-0.56 l -0.19,-0.305 v -0.14 l 0.012,-0.089 v -0.139 l -0.025,-0.14 -0.026,-0.166 v -0.381 c 0,0 -0.038,-0.05 0,-0.102 0.039,-0.05 0.064,-0.291 0.064,-0.291 l -0.013,-0.152 V -27.5 l -0.025,-0.14 v -0.063 c 0,0 -0.026,-0.063 -0.026,-0.101 0,-0.039 0.026,-0.18 0.026,-0.18 l 0.025,-0.113 0.089,-0.152 0.076,-0.09 V -28.4 l 0.064,-0.152 -0.051,-0.102 -0.088,0.189 -0.127,0.114 -0.038,-0.178 -0.103,-0.204 v -0.1 h 0.115 l 0.076,-0.025 -0.025,-0.064 -0.152,-0.063 0.063,-0.178 -0.102,-0.164 0.106,0.037 c -0.006,-0.01 -0.015,-0.02 -0.029,-0.037 -0.064,-0.078 0,0 0,-0.103 0,0 0.051,-0.216 0.051,-0.255 0,-0.038 -0.14,-0.102 -0.14,-0.102 h -0.064 l -0.166,-0.139 -0.025,-0.051 h -0.019 c 0,0 0.007,-0.002 0.018,-0.002 l -0.057,-0.107 -0.082,-0.145 v -0.09 l 0.019,-0.063 0.063,-0.024 c 0.013,-0.038 0.039,-0.084 0.039,-0.084 0,0 0.007,-0.018 0.007,-0.037 0,-0.019 0.037,-0.057 0,-0.07 -0.039,-0.012 -0.102,-0.051 -0.102,-0.051 l 0.006,-0.057 0.019,-0.063 0.013,-0.077 v -0.057 L 66.9,-30.979 c 0,0 0.019,-0.051 0.025,-0.077 0.006,-0.024 0.038,-0.145 0.038,-0.145 l 0.038,-0.051 c 0,0 0.013,-0.033 0.058,-0.071 0.044,-0.036 0.006,-0.145 0.006,-0.145 l 0.032,-0.038 0.013,-0.076 -0.026,-0.014 -0.069,-0.043 -0.096,0.328 c 0,0 0.019,0.038 0,0.076 -0.019,0.039 0.019,0 -0.019,0.039 -0.038,0.037 -0.038,0.037 -0.038,0.037 0,0 0,0.01 -0.02,0.068 -0.019,0.057 -0.038,0.057 -0.038,0.112 0,0.058 0.057,-0.065 0,0.058 -0.058,0.125 -0.096,0.219 -0.096,0.219 l 0.01,0.076 c 0,0 0.02,0.049 0,0.077 -0.019,0.027 -0.019,0.048 -0.038,0.095 -0.019,0.048 0,0.059 -0.019,0.124 -0.019,0.067 -0.019,0.067 -0.019,0.067 l -0.019,0.037 0.057,0.028 0.048,-0.019 0.019,-0.039 0.049,-0.095 0.075,-0.075 -0.095,0.228 0.005,0.019 c 0.022,-0.045 0.042,-0.084 0.042,-0.084 l -0.01,0.076 -0.009,0.104 c 0,0 -0.009,0.095 -0.009,0.124 0,0.027 0,0.056 0,0.056 v 0.144 l 0.018,0.085 c 0,0 0,0.077 -0.028,0.096 -0.028,0.02 -0.019,0.067 -0.028,0.113 -0.01,0.048 -0.01,0.097 -0.01,0.097 l -0.028,0.076 -0.086,0.057 -0.056,0.085 c 0,0 -0.048,0.077 -0.077,0.135 -0.029,0.057 -0.01,0.038 -0.01,0.038 l -0.019,0.037 -0.047,0.02 -0.009,0.047 -0.039,0.125 -0.039,0.038 h -0.048 l -0.057,0.019 -0.01,0.066 -0.066,0.086 c 0.029,-0.524 0.133,-0.838 0.133,-0.838 0,0 0.138,-0.6 0.405,-1.395 0.064,-0.193 0.136,-0.396 0.216,-0.605 0.032,-0.086 0.066,-0.175 0.103,-0.262 l 0.044,-0.103 c 0,0 0.609,-1.2 1.066,-1.841 l 0.044,0.107 c 0,0 -0.013,0.025 -0.039,0.051 -0.026,0.026 -0.012,0.051 -0.05,0.083 -0.039,0.031 -0.013,0 -0.05,0.058 -0.039,0.057 -0.064,0.076 -0.064,0.107 0,0.031 0,0.006 0,0.07 0,0.063 0,0.107 -0.025,0.133 -0.026,0.025 -0.038,0.051 -0.063,0.095 -0.025,0.044 -0.013,0.013 -0.025,0.044 -0.014,0.033 -0.026,0.051 -0.026,0.076 0,0.026 0,0.032 0.005,0.058 0.007,0.026 0.007,0.026 0.007,0.026 0,0 0.039,-0.007 0.045,-0.031 0.006,-0.026 0.038,-0.071 0.038,-0.071 0,0 0.007,-0.044 0.025,-0.044 0.008,0 0.032,-0.012 0.059,-0.023 C 68.001,-32.852 68,-32.856 68,-32.856 l -0.013,-0.077 0.051,-0.076 0.025,-0.012 c 0,0 0.038,-0.025 0.063,-0.025 0.025,0 0.076,-0.051 0.076,-0.051 l 0.032,-0.082 0.006,-0.064 v -0.063 c 0,0 0.012,-0.058 0.038,-0.069 0.025,-0.013 0.089,-0.051 0.089,-0.051 0.033,0.031 0.07,0.038 0.07,0.038 l 0.044,0.007 h 0.032 l 0.044,-0.059 h -0.025 l 0.032,-0.01 0.031,-0.047 c -0.003,-0.019 -0.009,-0.038 -0.019,-0.057 -0.026,-0.051 0,0.025 -0.026,-0.051 -0.026,-0.076 0.039,-0.127 0.039,-0.127 0,0 -0.013,-0.037 0,-0.104 0.012,-0.063 0.012,-0.138 0.038,-0.201 0.026,-0.063 0.051,-0.127 0.102,-0.152 0.051,-0.025 0.114,-0.103 0.114,-0.103 l 0.051,0.052 c 0,0 -0.025,0.076 0.026,0.076 0.051,0 0.126,-0.051 0.126,-0.051 l 0.064,-0.077 0.039,-0.05 0.127,-0.127 0.012,-0.09 c 0,0 0.023,-0.036 0.021,-0.059 -0.011,-0.009 -0.021,-0.017 -0.045,-0.017 -0.007,0 -0.017,0 -0.024,10e-4 -0.051,0.002 -0.128,0.012 -0.128,0.012 l -0.044,0.031 -0.057,0.02 c 0,0 -0.044,0.059 -0.069,0.063 -0.026,0.006 -0.103,0.038 -0.103,0.038 l -0.038,0.088 -0.025,0.096 -0.052,0.058 -0.063,0.045 -0.037,0.075 -0.058,0.051 c 0,0 -0.025,0.12 -0.051,0.127 -0.025,0.007 -0.063,0.09 -0.063,0.09 0,0 -0.025,0.07 -0.05,0.082 -0.026,0.013 0.037,0.037 -0.026,0.013 -0.066,-0.025 -0.066,-0.025 -0.066,-0.025 0,0 0,-0.014 0.007,-0.052 0.007,-0.038 0.063,-0.077 0.063,-0.077 l 0.083,-0.113 c 0,0 1.006,-1.677 3.77,-3.18 0.395,-0.216 0.826,-0.428 1.295,-0.629 l -0.934,0.533 -0.209,0.134 0.552,-0.153 0.248,-0.038 0.114,0.058 0.113,-0.037 0.039,-0.078 0.077,-0.151 0.222,-0.083 0.196,-0.076 c 0,0 -0.006,0.039 0.063,-0.014 0.071,-0.049 0.077,-0.075 0.096,-0.075 0.019,0 0.166,0.007 0.166,0.007 h 0.063 c 0,0 0.064,-0.038 0.083,-0.038 0.019,0 0.063,-0.012 0.063,-0.012 0,0 0.096,-0.026 0.127,-0.026 0.031,0 0.184,0 0.184,0 h 0.077 c 0,0 0.101,-0.02 0.126,-0.014 0.025,0.008 0.019,-0.012 0.051,0.014 0.031,0.026 0.088,0.031 0.063,0.038 -0.026,0.007 -0.21,0.007 -0.21,0.007 l -0.077,0.013 c 0,0 -0.101,0 -0.133,0.005 -0.03,0.007 -0.158,0.014 -0.158,0.014 0,0 0.039,-0.025 -0.025,0 -0.064,0.026 -0.044,0.031 -0.121,0.044 -0.077,0.013 -0.07,-0.013 -0.114,0.013 -0.045,0.025 -0.032,0.021 -0.089,0.032 -0.057,0.013 0,0.006 -0.057,0.013 -0.057,0.006 -0.024,0.006 -0.095,0.02 -0.07,0.014 -0.044,0 -0.101,0.019 -0.058,0.019 0.013,-0.032 -0.058,0.019 -0.069,0.052 -0.158,0.108 -0.158,0.108 l -0.057,0.063 c 0,0 -0.032,0.045 -0.057,0.063 -0.026,0.021 -0.051,-0.006 -0.051,0.026 0,0.031 -0.013,0.063 -0.013,0.063 0,0 0.025,0 0,0.039 -0.026,0.037 -0.026,0.037 -0.026,0.037 0,0 0.013,0.051 0.026,0.069 0.013,0.021 0.018,0.021 0.038,-0.005 0.019,-0.027 0.006,-0.027 0.063,-0.064 0.057,-0.037 0.14,-0.063 0.172,-0.102 0.031,-0.038 0.038,-0.044 0.088,-0.057 0.051,-0.014 0.083,0 0.133,-0.025 0.051,-0.025 0.089,-0.051 0.121,-0.064 0.032,-0.012 0.127,-0.051 0.127,-0.051 0,0 -0.031,-0.012 0.083,-0.024 0.114,-0.014 0.177,-0.052 0.177,-0.052 0,0 0.07,-0.018 0.083,0 0.013,0.021 -0.133,0.096 -0.179,0.107 -0.043,0.014 -0.063,0.008 -0.101,0.02 -0.038,0.014 0.063,-0.024 -0.095,0.033 -0.159,0.057 -0.064,-0.014 -0.191,0.088 -0.126,0.102 -0.088,0.063 -0.126,0.102 -0.039,0.039 0.025,0 -0.039,0.039 -0.064,0.037 -0.019,-0.014 -0.108,0.051 -0.088,0.063 -0.114,0.063 -0.114,0.063 0,0 0.057,-0.006 -0.012,0.037 -0.071,0.046 0.025,-0.006 -0.114,0.046 -0.14,0.05 -0.089,0.024 -0.178,0.058 -0.089,0.031 -0.077,0.011 -0.089,0.031 -0.013,0.02 0.051,0.012 0.07,0.025 0.019,0.012 0.063,-0.039 0.082,-0.039 0.02,0 0.02,-0.012 0.095,-0.012 0.077,0 0.095,-0.025 0.152,-0.063 0.057,-0.038 0.203,-0.12 0.203,-0.12 l 0.07,-0.053 v 0.07 c 0,0 0,0.02 0,0.045 0,0.025 0.051,0 0,0.025 -0.051,0.025 -0.051,0.025 -0.063,0.051 -0.012,0.026 -0.05,0.045 0.019,0.039 0.07,-0.008 0.121,-0.047 0.133,-0.07 0.013,-0.025 0.052,-0.07 0.052,-0.07 0,0 0.025,-0.032 0,-0.044 -0.026,-0.014 -0.096,-0.038 -0.096,-0.038 0.006,-0.039 -0.121,-0.008 0.006,-0.039 0.127,-0.031 0.114,-0.031 0.177,-0.057 0.064,-0.025 0.115,-0.051 0.115,-0.051 0,0 0.032,-0.031 0.05,-0.031 0.02,0 0.273,-0.064 0.273,-0.064 h 0.126 l 0.014,0.031 c 0,0 0.005,0.058 -0.051,0.09 -0.058,0.03 0.006,0.039 0.006,0.039 l 0.063,-0.051 0.108,-0.064 c 0,0 -0.026,-0.025 -0.026,-0.045 0,-0.018 -0.051,-0.044 0.007,-0.07 0.057,-0.024 0.164,-0.05 0.164,-0.05 0,0 0.039,0 0.07,0 0.031,0 0.153,0.007 0.153,0.007 0,0 0.057,0.012 0.088,0 0.032,-0.013 0.07,-0.082 0.07,-0.082 0,0 0.007,-0.045 0.038,-0.045 h 0.032 c 0.107,0 0.088,-0.008 0.19,0 0.102,0.006 0.165,-0.02 0.209,-0.02 0.044,0 0.051,-0.013 0.102,-0.013 h 0.139 c 0.063,0 0.102,0 0.102,0 0,0 0.038,0 0.07,-0.012 0.032,-0.014 0.108,-0.026 0.108,-0.026 l 0.019,-0.024 0.07,-0.052 c 0.039,-0.013 0.088,-0.013 0.088,-0.013 l 0.026,0.051 -0.013,0.031 c 0,0 -0.032,0.007 0.038,0.007 0.071,0 0.102,0 0.102,0 0,0 0.013,-0.014 0.102,0 0.089,0.013 0.032,0.006 0.089,0.013 0.057,0.005 0.107,0.005 0.095,0.038 -0.012,0.033 -0.107,0.076 -0.107,0.076 0,0 -0.019,-0.012 -0.063,0.026 -0.044,0.037 -0.038,0.031 -0.108,0.044 -0.069,0.012 0.077,-0.02 -0.069,0.012 -0.146,0.032 -0.139,0.02 -0.178,0.039 -0.038,0.019 -0.05,0.006 -0.101,0.038 -0.052,0.031 -0.077,0.038 -0.077,0.038 l -0.012,0.025 0.006,0.07 c 0,0 0.051,-0.026 0.07,-0.026 0.019,0 0.038,0 0.057,-0.025 0.019,-0.026 0.026,-0.038 0.051,-0.051 0.025,-0.013 0.178,-0.024 0.178,-0.024 0,0 0.038,-0.026 0.075,-0.026 0.039,0 0.279,0.038 0.279,0.038 h 0.083 c 0,0 0.006,-0.006 0.032,0 0.026,0.006 0.051,-0.019 0.057,0.006 0.006,0.025 -0.014,0.058 0.038,0.064 0.051,0.006 0.02,0.006 0.115,0.012 0.094,0.007 0.094,0.007 0.094,0.007 h 0.064 c 0,0 0.006,-0.013 0.006,-0.044 0,-0.032 -0.121,-0.051 0.026,-0.051 0.146,0 0.139,-0.025 0.202,-0.013 0.064,0.013 0.096,0.013 0.096,0.013 0,0 0.127,0.012 0.14,0.031 0.013,0.02 0.019,0.038 0.019,0.057 0,0.02 0,0.026 -0.026,0.058 -0.024,0.031 -0.05,0.031 -0.05,0.031 0,0 -0.05,0.013 -0.007,0.032 0.045,0.019 0.09,0.019 0.096,0.037 0.006,0.02 0.019,0.064 0.019,0.064 0,0 -0.006,0.057 0.025,0.02 0.031,-0.038 0.043,-0.07 0.063,-0.07 0.02,0 0.063,-0.025 0.063,-0.025 l 0.006,-0.063 0.033,0.005 c 0,0 0.03,-0.014 0.05,0.007 0.019,0.02 0.095,0.02 0.114,0.02 h 0.107 c 0.051,0 0.014,0 0.051,0 0.038,0 0.102,0 0.102,0 h 0.083 c 0,0 0.019,-0.051 0.006,-0.082 -0.013,-0.033 -0.013,-0.033 -0.013,-0.033 0,0 0.076,0.02 -0.037,-0.031 -0.115,-0.051 -0.158,-0.102 -0.158,-0.102 l 0.023,-0.038 0.007,-0.038 c 0,0 -0.013,0 -0.044,0 -0.031,0 -0.031,0 -0.058,0 -0.024,0 -0.082,0 -0.082,0 l -0.051,0.007 -0.013,0.082 c 0,0 -0.045,0.007 -0.07,-0.051 -0.021,-0.061 -0.021,-0.061 -0.021,-0.087 0,-0.025 -0.013,-0.07 0.024,-0.07 0.039,0 0.057,-0.006 0.152,0 0.096,0.008 0.152,0.008 0.178,0.008 0.026,0 0.039,-0.014 0.107,0 0.07,0.014 0.058,-0.014 0.07,0.014 0.014,0.023 -0.075,0.094 -0.075,0.094 0.005,0.058 0.031,0.025 0.057,0.07 0.026,0.045 0.058,0.031 0.063,0.063 0.005,0.032 0.043,0.052 0.043,0.052 0.053,0.024 0.16,0.013 0.191,0.013 0.032,0 0.096,-0.039 0.141,-0.025 0.045,0.013 0.133,0.013 0.133,0.013 l 0.031,0.051 c 0,0 0.007,0.031 0.013,0.049 0.007,0.021 0.026,0.014 0.077,0.021 0.051,0.006 0.075,0 0.113,0.006 0.038,0.007 0.069,0 0.09,0.02 0.019,0.019 0.088,0.019 0.088,0.019 l 0.115,-0.031 c 0,0 0.025,-0.058 0.082,-0.051 0.058,0.007 0.158,0.007 0.158,0.007 0,0 0.051,-0.031 0.076,0.006 0.026,0.038 0.02,0.045 0.058,0.076 0.038,0.031 0.108,0.039 0.108,0.039 l 0.031,0.012 0.057,-0.007 0.217,-0.038 0.266,0.025 v 0.026 c 0.096,0.012 0.045,0.007 0.096,0.012 0.051,0.007 0.164,-0.025 0.07,-0.044 -0.096,-0.02 -0.159,-0.076 -0.159,-0.076 l -0.026,-0.031 0.286,-0.014 c 0,0 0.007,-0.038 0.09,0.007 0.082,0.044 0.19,0.089 0.233,0.108 0.046,0.02 0.102,-0.008 0.135,0.006 L 81.5,-37.244 c 0,0 0,0 -0.013,-0.038 -0.013,-0.037 -0.051,-0.025 -0.064,-0.076 -0.012,-0.051 -0.063,-0.076 -0.063,-0.076 0,0 0,0 -0.05,-0.038 -0.052,-0.038 -0.089,-0.026 -0.077,-0.076 l 0.216,-0.037 c 0,0 0.09,0 0.127,-0.014 0.038,-0.013 0.089,0 0.089,0 0.419,0.026 1.866,0.913 1.866,0.913 v 0.153 l 0.089,0.101 0.241,0.102 c 0,0 0.076,0.064 0.127,0.115 0.051,0.052 0.025,0.063 0.025,0.063 0,0 0.025,0.09 0.076,0.141 0.051,0.051 0,0.102 0.025,0.19 0.025,0.088 0,0 0.051,0.089 0.051,0.089 0.025,0.115 0.076,0.164 0.051,0.052 0,0.064 0.076,0.179 0.076,0.115 -0.012,0.102 -0.012,0.19 0,0.088 -0.064,0.012 -0.064,0.012 0.039,-0.151 -0.266,-0.609 -0.305,-0.787 -0.039,-0.178 -0.076,-0.113 -0.14,-0.215 -0.032,-0.051 -0.032,-0.07 -0.022,-0.076 h -0.18 c -0.129,0 -0.077,0 -0.178,0.025 -0.102,0.025 -0.064,0.025 -0.115,0.013 -0.05,-0.013 -0.139,0 -0.139,-0.089 0,0 -0.064,-0.037 -0.077,-0.077 -0.013,-0.038 -0.05,-0.088 -0.05,-0.088 0,0 -0.306,-0.089 -0.331,-0.165 -0.025,-0.076 0,-0.063 0,-0.063 0,0 0,-0.063 -0.013,-0.102 -0.013,-0.039 -0.037,-0.052 -0.037,-0.052 L 82.565,-36.9 c 0,0 -0.141,0.064 -0.179,0.064 -0.037,0 -0.049,0 -0.063,-0.039 -0.014,-0.037 -0.152,-0.025 -0.152,-0.025 l -0.191,-0.115 0.064,-0.063 c 0,0 0,0 0.063,-0.038 l -0.075,-0.05 c 0,0 -0.063,0 -0.103,-0.014 -0.037,-0.014 -0.051,0 -0.051,0 l -0.063,-0.014 H 81.74 l -0.071,0.039 c 0.052,0.076 0.039,0.082 0.097,0.113 0.057,0.031 0.076,0 0.094,0.039 0.02,0.039 0.026,0 0.07,0.045 0.045,0.045 0.051,0.076 0.051,0.107 0,0.031 -0.006,-0.025 0.032,0.045 0.038,0.07 -0.013,0.057 0.038,0.07 0.051,0.012 0.051,0.012 0.051,0.012 l 0.229,0.032 0.008,0.05 c 0,0 -0.04,-0.012 0.024,0.013 0.063,0.026 0.101,0.032 0.101,0.032 -0.024,0.057 -0.018,0.051 -0.057,0.076 -0.039,0.025 -0.025,-0.013 -0.039,0.025 -0.012,0.037 -0.012,0.037 -0.012,0.07 0,0.03 0.007,0.083 0.007,0.083 0,0 0,0.019 0.005,0.037 0.006,0.021 -0.018,-0.058 0.006,0.021 0.027,0.074 0.084,0.087 0.084,0.139 0,0.049 0.044,0.031 0,0.049 -0.045,0.021 -0.019,0.021 -0.076,0.021 -0.057,0 -0.057,0 -0.057,0 l -0.07,-0.021 c 0,0 -0.025,0.021 -0.038,0.046 -0.013,0.026 -0.013,0 -0.013,0.026 0,0.024 0.025,0.056 0,0.069 -0.025,0.013 0.039,0.005 -0.025,0.013 -0.063,0.005 -0.02,-0.008 -0.063,0.005 -0.044,0.014 -0.044,0.014 -0.044,0.014 0,0 0,-0.014 -0.031,0 -0.032,0.013 -0.032,-0.019 -0.032,0.013 0,0.032 0.006,0.051 0.006,0.082 0,0.031 0.013,0.014 0.026,0.038 0.012,0.026 0.024,-0.013 0.024,0.064 v 0.12 c 0,0.02 0,0.02 0,0.02 l 0.044,0.018 0.045,0.007 c 0,0 0.063,-0.044 0.063,-0.024 0,0.018 0.007,0.045 0.007,0.045 l 0.031,0.018 c 0,0 0,-0.058 0.025,0.02 0.025,0.076 -0.014,0.031 0.025,0.076 0.038,0.044 0.096,0.031 0.096,0.031 0,0 0.019,-0.045 0.038,-0.006 0.019,0.039 0.019,0.039 0.019,0.039 l -0.012,0.075 c 0,0 -0.021,-0.031 -0.014,0.031 0.007,0.063 -0.038,0.02 0.037,0.069 0.076,0.053 0.16,0.084 0.16,0.084 -0.039,0.044 0.018,0.025 -0.039,0.044 -0.057,0.019 -0.089,0.031 -0.089,0.031 0,0 -0.025,0.038 -0.025,0.071 0,0.031 0.044,0.094 0.05,0.113 0.008,0.02 0.04,0.038 0.046,0.057 0.006,0.02 -0.007,-0.012 0.006,0.02 0.013,0.032 0.038,0.057 -0.012,0.051 -0.052,-0.006 -0.052,-0.006 -0.052,-0.006 0,0 -0.02,0.012 -0.013,0.043 0.007,0.032 0.007,0.02 0.019,0.064 0.014,0.043 0.052,0.043 0.052,0.043 0,0 0.019,0.014 0.019,0.066 0,0.049 -0.024,0.063 -0.024,0.1 0,0.038 0.012,0 0,0.038 -0.015,0.038 0.038,0.108 -0.052,0.046 -0.089,-0.065 -0.031,-0.021 -0.089,-0.065 -0.058,-0.044 -0.031,-0.05 -0.058,-0.082 -0.024,-0.031 -0.024,-0.076 -0.063,-0.089 -0.039,-0.014 -0.14,-0.102 -0.14,-0.102 0,0 -0.013,-0.013 -0.025,-0.037 -0.013,-0.025 -0.013,-0.045 -0.038,-0.07 -0.025,-0.026 -0.038,-0.038 -0.063,-0.069 -0.026,-0.031 -0.064,-0.089 -0.064,-0.089 l -0.039,-0.038 c 0,0 -0.012,-0.064 -0.069,-0.077 -0.057,-0.012 -0.101,-0.094 -0.101,-0.094 l -0.014,-0.07 c 0,0 -0.037,-0.07 -0.037,-0.09 0,-0.02 -0.02,-0.024 -0.014,-0.057 0.007,-0.032 0.058,-0.107 0.058,-0.107 -0.019,-0.014 -0.032,-0.058 -0.032,-0.058 v -0.038 l 0.07,-0.038 c 0,0 0.013,-0.069 0.013,-0.102 0,-0.031 0.013,-0.089 0.013,-0.089 0,0 -0.014,0 -0.025,-0.031 -0.013,-0.031 -0.013,-0.031 -0.013,-0.031 0,0 -0.013,-0.033 -0.013,-0.051 0,-0.021 0.013,-0.103 0.013,-0.103 l 0.044,-0.058 0.014,-0.044 -0.07,-0.052 -0.07,-0.057 -0.025,-0.043 -0.013,-0.031 -0.026,-0.014 c -0.043,0.024 -0.043,0.024 -0.043,0.024 0,0 -0.014,0.052 0,0.069 0.013,0.02 0.025,0.059 0.025,0.084 v 0.023 c 0,0.039 0.018,0.053 0.025,0.097 0.006,0.045 -0.064,-0.007 -0.064,-0.007 l -0.043,-0.037 c 0,0 -0.021,-0.026 -0.051,-0.039 -0.033,-0.014 -0.076,-0.05 -0.076,-0.05 -0.059,-0.013 -0.039,-0.026 -0.102,-0.013 -0.064,0.013 -0.064,0.013 -0.064,0.013 l -0.031,0.019 c 0,0 0,0.018 -0.025,0.039 -0.025,0.018 -0.025,0 -0.025,0.044 0,0.044 -0.013,0.024 0,0.069 0.013,0.044 0.013,0.14 0.013,0.14 v 0.024 c 0,0 -0.013,0.007 0.006,0.04 0.019,0.031 0.083,0.038 0.083,0.038 l 0.014,0.031 0.024,0.018 0.007,0.026 c 0,0 0.031,0.007 -0.031,0.007 -0.064,0 -0.058,-0.007 -0.09,0 -0.031,0.005 0.012,-0.007 -0.031,0.005 -0.045,0.015 0,-0.012 -0.045,0.015 -0.045,0.024 0.057,0.018 -0.045,0.024 -0.102,0.006 -0.158,0.007 -0.158,0.007 0,0 -0.006,-0.007 0,-0.025 0.006,-0.021 0.012,-0.059 0.012,-0.059 0,0 0.16,-0.006 -0.023,-0.024 -0.186,-0.019 -0.186,-0.019 -0.186,-0.019 l -0.031,0.012 c 0,0.039 0,0.039 0,0.039 0,0 0.031,0.012 0.006,0.025 -0.025,0.012 -0.006,0 -0.057,0.02 -0.051,0.018 0.044,0.018 -0.051,0.018 -0.096,0 -0.141,-0.012 -0.141,-0.012 -0.088,0 -0.088,0 -0.088,0 0,0 -0.02,-0.014 -0.063,0.019 -0.046,0.031 0,0.026 -0.046,0.031 -0.044,0.007 0.007,0.007 -0.044,0.007 -0.051,0 -0.044,-0.007 -0.076,0 -0.032,0.007 0.012,0 -0.032,0.007 -0.044,0.007 -0.044,0.007 -0.044,0.007 0,0 0,-0.04 -0.045,-0.027 -0.045,0.014 -0.069,0.021 -0.069,0.052 0,0.031 0.013,-0.014 0,0.031 -0.013,0.044 0,0.007 -0.013,0.044 -0.012,0.039 0,0.033 -0.037,0.084 -0.039,0.05 -0.064,0.082 -0.064,0.082 0,0 0,0 -0.025,0.019 -0.025,0.02 0.037,-0.044 -0.025,0.02 -0.064,0.063 -0.064,0.063 -0.064,0.063 0,0 0.014,-0.013 0,0.026 -0.012,0.038 0.026,0 -0.012,0.038 -0.038,0.038 -0.038,0.038 -0.038,0.038 l -0.013,0.024 c 0,0 -0.013,0 -0.038,0.032 -0.025,0.032 -0.025,0.032 -0.025,0.032 0,0 0,0.013 -0.025,0.038 -0.015,0.014 -0.023,0.025 -0.03,0.037 0,0.002 -0.009,0.014 -0.009,0.014 0,0 0.005,-0.007 0.009,-0.014 0,-0.003 -0.006,0.002 -0.033,0.033 -0.057,0.063 -0.057,0.063 -0.057,0.063 l -0.096,0.045 -0.013,0.031 c 0,0 -0.019,0.008 0.006,0.025 0.026,0.02 0.083,0.027 0.083,0.027 h 0.113 c 0.02,0.049 0.02,0.004 0.02,0.049 0,0.045 0,0.045 0,0.045 0,0 -0.037,0.006 0.007,0.025 0.044,0.019 0.044,0.019 0.044,0.019 l 0.02,-0.051 0.063,-0.069 c 0,0 0.019,0 0.024,0.045 0.008,0.045 0.008,0.075 0.008,0.075 0.043,0.019 0.088,-0.007 0.088,-0.007 l 0.025,-0.012 c 0,0 0.02,-0.025 0.025,-0.07 0.007,-0.045 -0.012,-0.02 0.007,-0.045 0.019,-0.024 0.076,-0.037 0.134,-0.012 0.057,0.025 0.019,-0.006 0.057,0.025 0.038,0.031 0.07,0.012 0.076,0.038 0.006,0.024 0.012,0.007 0.037,0.044 0.026,0.038 0.051,0.051 0.051,0.051 0.032,0.02 -0.006,-0.127 0.058,0.038 0.064,0.165 0.063,0.165 0.063,0.165 0,0 -0.02,0 -0.012,0.039 0.006,0.038 -0.045,0.025 0.006,0.038 0.051,0.013 0.044,-0.013 0.051,0.013 0.006,0.025 -0.02,0.082 -0.02,0.082 -0.025,0.037 -0.031,0.044 -0.025,0.09 0.007,0.044 0.038,0.018 0.038,0.044 0,0.025 0.058,0.24 0.058,0.24 0,0 -0.039,-0.026 0,0.052 0.038,0.075 0.057,0.107 0.064,0.146 0.005,0.037 0.005,0.063 0.005,0.088 0,0.025 -0.024,0.019 -0.037,0.051 -0.014,0.031 -0.032,0.051 -0.058,0.07 -0.025,0.018 -0.014,0.018 -0.025,0.063 -0.012,0.043 0,-0.038 -0.012,0.043 -0.014,0.083 0.068,0.007 -0.014,0.083 -0.083,0.076 -0.121,0.102 -0.121,0.102 0.02,0.07 0,0.045 0.02,0.07 0.019,0.025 0.032,-0.037 0.019,0.025 -0.013,0.063 0.026,0.076 -0.013,0.095 -0.037,0.021 -0.018,-0.019 -0.037,0.021 -0.02,0.037 -0.02,0.037 -0.02,0.037 l -0.039,0.045 -0.119,0.17 c 0,0 0,0.064 -0.039,0.102 -0.038,0.039 -0.063,0.084 -0.102,0.135 -0.038,0.05 -0.038,0.057 -0.051,0.076 -0.012,0.018 0,0 -0.012,0.044 -0.014,0.044 0.012,0.038 -0.039,0.051 -0.051,0.013 -0.031,0.007 -0.082,0.038 -0.051,0.031 -0.045,0 -0.096,0.038 -0.051,0.038 -0.025,0.024 -0.082,0.038 -0.058,0.013 -0.082,-0.051 -0.082,-0.051 l -0.025,-0.032 c -0.052,-0.013 -0.096,-0.051 -0.096,-0.051 l -0.051,-0.024 h -0.031 c 0,0 -0.039,-0.04 -0.057,-0.04 -0.02,0 0.037,0.026 -0.02,0 -0.043,-0.018 -0.058,-0.048 -0.063,-0.062 0.012,0.042 0.012,0.045 0.012,0.045 l 0.012,0.074 c 0,0 0.026,0 0,0.064 -0.025,0.063 -0.025,0.063 -0.025,0.063 l -0.012,0.09 -0.064,0.076 -0.039,0.048 -0.064,0.051 v 0.063 c 0,0 -0.013,0.063 -0.051,0.114 -0.038,0.05 -0.064,0.076 -0.064,0.076 l -0.101,0.025 c 0,0 0,0 -0.089,0.051 -0.089,0.051 -0.051,0.051 -0.076,0.102 -0.025,0.05 -0.025,0.05 -0.051,0.089 -0.025,0.038 0,0.05 0,0.05 0,0 0.076,0.051 0.153,0.102 0.075,0.051 0.025,0.115 0.025,0.115 l 0.101,0.063 c 0,0 0.152,0.178 0.229,0.254 0,0 0.025,0.064 0.025,0.166 0,0.102 -0.025,0.112 -0.037,0.215 -0.014,0.101 -0.039,0.05 -0.051,0.101 -0.014,0.053 -0.064,0.077 -0.103,0.077 -0.036,0 -0.089,0.075 -0.177,0.126 -0.09,0.053 -0.141,0.053 -0.178,0.078 -0.039,0.024 -0.152,0.024 -0.152,0.024 l -0.014,-0.089 0.051,-0.164 -0.025,-0.115 -0.063,-0.09 -0.052,-0.051 c 0,0 -0.013,-0.063 0.013,-0.113 0.026,-0.05 0.051,-0.014 0.051,-0.014 l 0.076,-0.051 v -0.102 c 0,0 0,0 0,-0.063 l -0.063,-0.051 H 78.11 c 0,0 -0.089,0 -0.14,-0.014 -0.05,-0.012 0,-0.051 0,-0.101 0,-0.051 0.026,-0.063 0.026,-0.063 l 0.05,-0.076 c 0,0 0,0 0.037,-0.064 l -0.049,-0.113 c 0,0 -0.102,0.024 -0.166,-0.102 -0.002,-0.006 -0.004,-0.009 -0.006,-0.014 -0.027,0.012 -0.044,0.014 -0.044,0.014 v 0.051 c -0.05,0.037 -0.115,0.013 -0.115,0.013 0,0 0,-0.024 -0.101,0.038 -0.102,0.063 -0.178,0.076 -0.178,0.076 0,0 0.064,-0.076 -0.076,0.037 -0.14,0.115 -0.152,0.064 -0.152,0.064 0,0 -0.013,0.038 0,-0.064 0.013,-0.102 -0.013,-0.164 0.025,-0.164 0.039,0 0.051,-0.076 0.09,-0.076 0.038,0 0.126,-0.141 0.126,-0.141 l -0.051,-0.088 c 0,0 0,0 -0.063,0 -0.064,0 -0.064,0 -0.064,0 l -0.14,0.063 c 0,0 -0.051,0.014 -0.076,0.09 -0.025,0.076 0.025,0.037 -0.025,0.076 -0.05,0.038 0,0.025 -0.05,0.038 -0.051,0.012 -0.039,0 -0.127,0.038 -0.089,0.037 -0.089,0.037 -0.089,0.037 -0.038,0.076 -0.088,0.076 -0.088,0.076 0,0 -0.039,0.014 -0.076,0.025 -0.039,0.014 -0.039,0.014 -0.039,0.014 0,0 -0.089,-0.051 -0.089,0.012 0,0.064 0.077,0.038 0,0.166 -0.075,0.127 -0.075,0.127 -0.075,0.127 h 0.088 l 0.127,0.076 c 0,0 0.013,-0.014 0.038,0.051 0.025,0.063 0.025,0.063 0.025,0.063 0,0 0.076,0.039 0.127,0.039 0.05,0 0.05,0 0.05,0 l 0.139,-0.115 0.102,-0.102 h 0.076 l 0.051,0.039 0.102,0.025 0.139,0.025 c 0,0 0.063,0.076 0.038,0.127 -0.026,0.051 0.063,0.051 -0.026,0.051 -0.088,0 -0.088,-0.025 -0.151,0 -0.064,0.025 -0.013,-0.051 -0.064,0.025 -0.051,0.076 -0.051,0.102 -0.102,0.127 -0.05,0.025 -0.063,0.037 -0.126,0.075 -0.063,0.038 0.013,-0.024 -0.063,0.038 -0.076,0.064 -0.204,0.102 -0.204,0.102 v 0.076 c 0,0.09 0,0.191 0,0.191 h 0.089 l 0.089,0.063 c 0,0 0.076,-0.05 0.089,0.039 0.013,0.088 0.013,0.178 0.013,0.178 l 0.008,0.055 h 11.897 c -1.197,-5.161 -5.821,-9.009 -11.346,-9.009 -6.433,0 -11.648,5.216 -11.648,11.649 0,6.433 5.216,11.648 11.648,11.648 5.317,0 9.801,-3.565 11.196,-8.433 h -10.47 z m 2.133,-10.499 c -0.024,-0.039 -0.038,-0.077 -0.038,-0.077 l -0.051,-0.113 c 0,0 0,0 0.025,-0.051 l -0.037,-0.305 c 0,-0.051 0.101,0.089 0.101,0.089 l 0.026,0.152 0.178,0.076 -0.014,0.151 0.051,0.153 0.051,0.127 0.076,0.051 c 0,0 0.025,0.051 0.152,0.125 0.127,0.078 0.025,0.078 0.152,0.205 l -0.088,-0.039 c 0,0 -0.115,-0.075 -0.179,-0.063 0,0 0,0.089 0,0.152 0,0.063 0,0.102 0,0.102 0,0 0,0 0.089,0.051 0.09,0.051 0.051,0.038 0.241,0.216 0.19,0.178 0,0.127 -0.013,0.178 -0.012,0.051 -0.051,-0.038 -0.063,-0.114 -0.014,-0.076 -0.063,-0.014 -0.063,-0.014 0,0 -0.038,0.064 -0.038,0.115 0,0.051 -0.014,0.063 -0.026,0.102 -0.013,0.037 -0.013,0.051 -0.063,0.037 -0.051,-0.012 -0.063,-0.063 -0.063,-0.102 0,-0.037 -0.013,-0.075 -0.024,-0.152 -0.014,-0.076 0,0 -0.076,-0.165 -0.077,-0.165 0,0 -0.026,-0.075 -0.024,-0.076 0,0 -0.013,-0.063 -0.012,-0.063 -0.025,-0.051 -0.025,-0.051 v -0.075 l 0.025,-0.103 c 0,0 -0.012,-0.114 -0.051,-0.153 -0.037,-0.037 -0.049,-0.012 -0.063,-0.075 -0.013,-0.064 0,0 -0.013,-0.064 -0.014,-0.063 0,-0.113 0,-0.113 l -0.063,-0.063 c 0,-0.001 -0.05,-0.014 -0.077,-0.052 z m 1.257,1.815 h -0.051 c 0,0 -0.076,0.026 -0.139,0.078 -0.064,0.05 -0.025,0.088 -0.025,0.088 l -0.103,0.076 -0.088,-0.025 -0.064,-0.051 H 81.17 l -0.051,0.051 c 0,0 0,0.051 0,0.102 0,0.051 0,0.051 0,0.051 0,0 0.103,0.076 0.152,0.241 0.051,0.164 -0.013,0.075 -0.013,0.075 l 0.039,0.089 c 0,0 0.114,0.076 0.14,0.115 0.025,0.038 -0.014,0.101 -0.039,0.153 -0.025,0.049 -0.076,0.101 -0.088,0.139 -0.013,0.037 0,0.088 0,0.14 0,0.051 0.05,0.051 0.05,0.089 0,0.037 0,0.14 0,0.14 0,0 0,0 0.025,0.075 0.026,0.076 0.026,0.103 0.026,0.166 0,0.063 -0.026,0.063 -0.026,0.063 0,0 -0.025,0.089 -0.038,0.153 -0.013,0.063 -0.064,0.087 -0.102,0.087 -0.038,0 -0.037,-0.101 0.037,-0.151 0.077,-0.051 0,-0.089 -0.062,-0.089 -0.063,0 0,0 0,0.089 0,0.089 -0.128,0.189 -0.128,0.189 l -0.088,-0.025 -0.178,0.103 -0.09,-0.024 -0.076,-0.014 -0.089,0.038 0.052,0.101 c 0,0 -0.012,0.115 -0.064,0.166 -0.051,0.051 -0.127,0.037 -0.127,0.037 0,0 -0.051,0 -0.063,-0.051 -0.013,-0.049 -0.05,-0.049 -0.05,-0.049 l -0.064,-0.129 c 0,0 -0.063,-0.025 -0.139,0.014 l 0.076,0.09 v 0.15 c 0,0 -0.076,0.051 -0.115,0.051 -0.037,0 -0.076,0 -0.076,0 0,0 -0.063,0.051 -0.102,0.077 -0.038,0.024 -0.063,0.05 -0.063,0.05 l -0.127,-0.012 -0.014,-0.051 c 0,0 0,-0.09 0,-0.127 0,-0.039 0.051,-0.051 0.089,-0.064 0.038,-0.012 0.063,-0.012 0.114,-0.049 0.052,-0.04 0.052,-0.053 0.052,-0.053 h -0.063 c 0,0 -0.064,0.053 -0.166,0.077 -0.102,0.024 -0.075,0.024 -0.127,0.05 -0.051,0.025 -0.127,0.025 -0.189,0.025 -0.063,0 -0.077,-0.025 -0.077,-0.025 0,0 -0.013,-0.063 -0.013,-0.1 0,-0.039 0.051,-0.027 0.051,-0.027 l 0.051,-0.025 c 0,0 0.051,-0.051 0.076,-0.088 0.025,-0.038 0.292,-0.24 0.292,-0.24 0,0 0,0 0.178,0 0.179,0 0.063,-0.014 0.153,-0.027 0.088,-0.012 0,0 0.038,-0.037 0.038,-0.039 0.05,0 0.05,0 0,0 0.077,0.064 0.141,0.113 0.063,0.051 0.051,-0.024 0.051,-0.101 v -0.052 c 0,0 0.025,-0.088 0.05,-0.177 0.026,-0.089 0,0 0.051,-0.051 0.052,-0.052 0.026,-0.127 0.052,-0.179 0,0 0.024,0.064 0.126,0.052 0.103,-0.013 0,0 0.051,-0.013 0.052,-0.014 0.076,-0.039 0.076,-0.039 0,0 0.051,-0.025 0.077,-0.063 0.025,-0.038 0.076,-0.127 0.076,-0.202 0,-0.076 0,0 0.024,-0.039 0.026,-0.037 0,-0.114 0,-0.114 v -0.101 l 0.026,-0.102 v -0.127 l -0.014,-0.064 -0.025,-0.049 -0.076,-0.104 c 0,0 0,0 0,-0.037 0,-0.039 -0.038,-0.051 -0.051,-0.088 -0.012,-0.039 -0.025,-0.064 -0.025,-0.064 0,0 -0.037,-0.191 -0.013,-0.229 0.026,-0.037 0.026,-0.051 0.026,-0.051 l 0.051,-0.014 0.05,-0.012 0.077,-0.051 -0.014,-0.127 -0.051,-0.217 0.051,-0.088 0.09,0.038 0.05,0.05 0.077,0.104 0.24,0.023 0.09,0.025 c 0.001,10e-4 0.204,0.117 0.165,0.205 z m -13.354,8.024 c -0.009,0.046 -0.039,0.037 -0.086,0.113 -0.048,0.077 0,0 -0.038,0 -0.039,0 -0.039,0 -0.067,0 -0.028,0 -0.047,0 -0.095,-0.076 -0.048,-0.076 -0.01,-0.037 -0.029,-0.161 -0.019,-0.125 -0.009,-0.076 -0.028,-0.172 -0.019,-0.095 0.02,-0.075 0.057,-0.161 0.038,-0.087 0.019,-0.038 0.019,-0.125 0,-0.085 0,-0.189 0,-0.189 l 0.104,0.066 c 0,0 0.019,0.076 0.019,0.114 0,0.038 0.037,0.067 0.037,0.067 0,0 0,0.066 0.04,0.19 0.037,0.123 0.037,0.084 0.037,0.084 0,0 0.021,0.049 0.039,0.096 0.019,0.05 0,0.106 -0.009,0.154 z m 8.403,3.478 v -0.278 c 0,0 0,-0.077 0.013,-0.114 0.012,-0.039 0.115,-0.052 0.215,-0.09 0.102,-0.038 0.089,0.051 0.204,0.077 0,0 0.102,0 0.19,0.024 l 0.063,0.025 c 0,0 0,0 0.09,0 0.088,0 0.063,0 0.291,0 0.228,0 0.064,-0.013 0.064,-0.013 0,0 0.152,-0.19 0.201,-0.229 0.052,-0.037 0.153,0.114 0.153,0.114 0,0 -0.05,0.077 -0.102,0.178 -0.052,0.102 -0.052,0.077 -0.114,0.102 -0.063,0.025 -0.051,0.025 -0.152,0.025 -0.101,0 -0.114,-0.012 -0.178,-0.012 -0.063,0 -0.076,-0.014 -0.279,-0.026 -0.203,-0.012 -0.203,-0.012 -0.203,-0.012 0,0 -0.127,0 -0.229,0 -0.101,0 -0.063,0.075 -0.063,0.075 l -0.038,0.089 -0.013,0.101 0.051,0.091 c 0,0 0.051,0 0.216,0 0.165,0 0,0 0.127,-0.026 0.126,-0.024 0.089,-0.013 0.216,-0.038 0.127,-0.026 0,0 0.089,-0.013 0.089,-0.014 0.076,-0.014 0.165,0.026 0,0 0.025,0.075 0.013,0.127 -0.013,0.05 -0.063,0.024 -0.102,0.024 -0.039,0 -0.102,-0.037 -0.102,-0.037 0,0 -0.063,0 -0.102,0 -0.038,0 -0.101,0 -0.19,0.024 -0.089,0.024 0,0.14 0,0.14 0,0 0,0 0.077,0.026 0.075,0.025 0,0 0.063,0.051 0.064,0.05 0,0 0.076,0.087 0.076,0.09 0,0 0.051,0.115 0.05,0.114 0,0 0.127,0.103 0.044,0.034 0.066,0.05 0.076,0.057 0,-0.003 0,-0.007 0,-0.007 0,0 0.021,0.021 0,0.007 v 0.12 c 0,0.063 -0.014,0.076 -0.014,0.14 0,0.064 -0.088,0.051 -0.088,0.051 0,0 -0.102,0 -0.191,-0.012 -0.088,-0.013 -0.05,-0.039 -0.025,-0.103 0.025,-0.064 0.013,-0.064 0.013,-0.064 v -0.101 c 0,0 0,0.101 -0.165,0.051 l -0.013,-0.102 -0.049,-0.075 -0.051,-0.089 c 0,0 0,0 0,-0.127 0,-0.127 0,0 -0.064,-0.025 -0.063,-0.024 -0.063,0.025 -0.113,0.076 -0.051,0.052 0,0 -0.051,0.038 v 0.09 c 0,0 0,0.063 0.051,0.228 0.05,0.165 -0.039,0.165 -0.039,0.165 0,0 -0.076,0 -0.114,0 -0.038,0 -0.063,0 -0.126,-0.063 -0.064,-0.064 0,0 -0.013,-0.037 -0.013,-0.039 -0.013,-0.09 -0.013,-0.128 0,-0.038 -0.051,-0.065 -0.051,-0.065 0,0 0,0 -0.038,-0.088 l -0.025,-0.127 -0.077,-0.027 -0.024,-0.087 c 0,0 0,0 0,-0.064 0,-0.063 0.05,-0.051 0.101,-0.063 0.051,-0.012 0.088,-0.038 0.114,-0.101 0.026,-0.063 0.026,-0.09 0.026,-0.09 z m 0.013,1.95 c 0,0 -0.095,0 -0.172,-0.05 -0.076,-0.047 0,0 0.01,-0.056 0.01,-0.058 0.038,0 0.038,0 h 0.249 c 0.066,0 0.075,0.037 0.075,0.037 l 0.077,0.114 -0.085,0.019 c 0,0 0,0 -0.096,-0.027 -0.095,-0.028 -0.057,-0.037 -0.057,-0.037 z m 0.068,-0.284 c -0.002,0.006 0.002,0.017 -0.01,0.017 -0.01,-0.001 -0.003,-0.008 0.01,-0.017 z m 0.075,0.016 c -0.042,-0.018 -0.06,-0.022 -0.069,-0.021 0.032,-0.022 0.089,-0.057 0.089,-0.057 0,0 0.095,0 0.142,-0.01 0.048,-0.009 0.048,0 0.152,0 0.104,0 0.047,0 0.125,0 0.076,0 0,0 0.076,0 0.076,0 0.105,0.02 0.313,0.01 0.21,-0.01 0.095,0 0.133,-0.01 0.039,-0.009 0.162,0.02 0.238,0.02 0.076,0 -0.037,0.02 -0.037,0.02 0,0 -0.077,0.038 -0.125,0.038 -0.047,0 -0.047,0.038 -0.104,0.038 -0.057,0 -0.047,0 -0.134,0 -0.085,0 -0.066,0 -0.123,0 -0.057,0 -0.067,0.02 -0.067,0.02 0,0 -0.039,0 -0.115,0 -0.077,0 -0.077,0 -0.162,0 -0.086,0 0,0 -0.114,0 -0.114,0 -0.104,0 -0.218,-0.048 z m -2.904,-6.645 -0.038,-0.067 c 0,0 0,-0.048 0,-0.076 0,-0.028 0,-0.058 0.038,-0.076 0.038,-0.019 0.057,-0.058 0.057,-0.058 l 0.077,-0.095 0.133,-0.009 0.076,0.019 0.114,-0.047 0.095,0.085 -0.115,0.191 -0.085,0.151 c 0,0 -0.181,0.01 -0.199,-0.019 h -0.153 z m -0.086,4.37 c 0.038,-0.039 0.02,-0.039 0.02,-0.067 0,-0.028 0.037,-0.047 0.076,-0.095 0.038,-0.048 0.075,-0.011 0.075,-0.011 l 0.038,0.038 0.048,0.021 c 0,0 0.048,0 0.077,0 0.029,0 0.047,0 0.047,0 l 0.057,0.057 h 0.067 c 0,0 0.023,0.017 0.051,0.032 l 0.024,-0.07 c 0,0 0.039,-0.058 0.039,-0.086 0,-0.028 -0.029,-0.114 0,-0.133 0.028,-0.02 0.086,-0.058 0.171,-0.058 0.086,0 0.153,0 0.153,0 0,0 0.028,-0.02 0.057,-0.02 0.029,0 0.029,-0.037 0.076,-0.057 0.047,-0.02 0.057,-0.057 0.057,-0.057 0,0 0.047,-0.009 0.095,-0.066 0.048,-0.058 0.114,-0.096 0.114,-0.096 l 0.086,-0.038 h 0.267 l 0.028,-0.047 0.009,-0.105 0.039,-0.066 0.095,-0.02 0.133,-0.133 0.01,-0.058 0.057,-0.047 c 0,0 0.039,-0.047 0.096,0.01 0.057,0.056 0.124,0.095 0.124,0.095 0,0 0.057,0.028 0.095,0.066 0.038,0.038 0.038,-0.009 0.096,0.058 0.057,0.066 0.171,0.075 0.171,0.075 0,0 0.028,0.011 0.028,0.057 0,0.049 0.153,0.02 0,0.049 -0.152,0.028 -0.066,0.02 -0.152,0.028 -0.086,0.01 -0.124,0.01 -0.124,0.01 0,0 -0.029,0 -0.029,0.037 0,0.039 0.114,0.039 0.029,0.077 0.076,0 0.038,0.057 0.076,0.057 0.038,0 0,0 0,0.038 0,0.038 -0.076,0.02 -0.076,0.02 0,0 0,0 -0.029,0 -0.029,0 -0.048,0 -0.048,0 l -0.057,0.027 c 0,0 0,0 0,0.049 0,0.047 -0.009,0.047 -0.009,0.047 h -0.067 l -0.038,0.01 0.019,0.038 0.038,0.038 0.067,0.058 0.047,0.076 0.019,0.095 v 0.048 l 0.038,0.028 c 0,0 0.076,0.087 0.134,0.105 0.057,0.019 0,0 0.037,0 0.038,0 0.067,0.152 0.067,0.152 0,0 0,0 -0.029,0 -0.027,0 -0.056,-0.01 -0.056,-0.01 0,0 -0.077,0 -0.125,0 -0.047,0 -0.057,0 -0.057,0 l -0.047,0.038 -0.029,0.047 -0.029,0.087 -0.038,0.114 -0.047,0.095 -0.066,0.057 c 0,0 -0.029,0.039 -0.077,0.058 -0.048,0.019 -0.028,0.095 -0.028,0.095 0,0 0.019,0.057 0.058,0.124 0.037,0.066 -0.01,0.057 -0.049,0.096 -0.038,0.037 -0.019,0.046 -0.019,0.046 0,0 -0.028,0.087 -0.104,0.145 -0.076,0.056 -0.143,0.056 -0.181,0.076 -0.039,0.019 -0.057,0 -0.086,-0.01 -0.029,-0.011 -0.057,-0.011 -0.057,-0.011 0,0 -0.019,-0.046 -0.039,-0.104 -0.018,-0.058 0,0 -0.009,-0.058 l -0.19,-0.039 c 0,0 0,0 -0.037,-0.018 -0.039,-0.02 -0.076,-0.02 -0.125,-0.028 -0.047,-0.009 -0.123,0.019 -0.152,0.019 -0.028,0 -0.076,0 -0.124,-0.01 -0.047,-0.009 -0.02,-0.038 -0.02,-0.067 0,-0.027 -0.047,-0.075 -0.047,-0.075 0,0 -0.047,0.038 -0.123,0.057 -0.077,0.019 -0.096,0.019 -0.201,0 -0.105,-0.019 -0.038,-0.038 -0.057,-0.076 -0.02,-0.038 0,0 -0.048,-0.075 -0.047,-0.077 -0.028,-0.048 -0.047,-0.104 -0.02,-0.058 -0.01,-0.058 -0.01,-0.087 0,-0.027 0,-0.076 -0.019,-0.132 -0.018,-0.058 0,0 -0.066,-0.067 -0.067,-0.067 -0.067,-0.01 -0.096,-0.067 -0.028,-0.057 0,0 0.02,-0.057 0.019,-0.057 0,0 0,-0.028 0,-0.028 -0.02,-0.095 -0.02,-0.095 0,0 -0.095,-0.058 -0.181,-0.104 -0.085,-0.051 10e-4,-0.06 0.039,-0.098 z m -1.057,1.312 c 0,0 0,0 -0.133,-0.171 -0.134,-0.171 0,0 -0.048,-0.084 -0.047,-0.087 -0.019,-0.05 -0.019,-0.05 0,0 -0.019,-0.037 -0.095,-0.095 -0.076,-0.056 0,0 -0.047,-0.02 -0.048,-0.019 -0.048,-0.036 -0.048,-0.036 0,0 -0.048,-0.097 -0.066,-0.144 -0.019,-0.049 -0.133,-0.058 -0.133,-0.058 0,0 0,0 -0.096,-0.161 -0.095,-0.163 -0.057,-0.086 -0.086,-0.134 -0.028,-0.047 0,0 -0.104,-0.124 0,0 -0.047,-0.067 -0.047,-0.123 0,-0.059 0,0 -0.01,-0.059 -0.01,-0.056 0,0 -0.086,-0.104 -0.085,-0.104 0,0 -0.037,-0.037 -0.038,-0.038 -0.048,-0.049 -0.048,-0.076 0,-0.028 -0.009,-0.066 -0.029,-0.143 -0.018,-0.077 0,0 -0.027,-0.058 -0.03,-0.058 -0.163,-0.029 -0.249,-0.095 -0.085,-0.067 -0.009,-0.048 -0.028,-0.114 -0.019,-0.066 -0.028,-0.048 -0.086,-0.143 -0.057,-0.097 -0.019,-0.058 -0.029,-0.115 -0.009,-0.057 -0.038,-0.037 -0.076,-0.086 -0.038,-0.047 0,0 -0.152,-0.151 -0.072,-0.071 -0.089,-0.084 -0.091,-0.085 0.001,0 0.002,-0.003 -0.014,-0.029 -0.048,-0.076 -0.076,-0.114 -0.19,-0.219 -0.115,-0.105 -0.048,-0.067 -0.057,-0.135 -0.01,-0.065 -0.01,-0.065 -0.01,-0.065 v -0.114 l 0.191,0.065 v 0.077 l 0.267,0.085 c 0,0 0,0 0.066,0 0.066,0 0.086,0.039 0.086,0.039 l 0.105,0.257 0.152,0.152 c 0,0 0.037,0.123 0.057,0.161 0.019,0.039 0.047,0 0.047,0 0,0 0.172,0.144 0.19,0.172 0.02,0.028 0.048,0.038 0.048,0.038 l 0.038,0.057 0.057,0.02 0.144,0.095 0.076,0.039 v 0.047 l 0.048,0.067 0.18,0.152 0.038,0.056 c 0,0 0.057,0.021 0.096,0.039 0.037,0.02 0.047,0.028 0.047,0.028 l -0.028,0.123 -0.019,0.048 v 0.039 l 0.037,0.095 c 0,0 0.038,0.02 0.096,0.02 0.056,0 0.047,0.038 0.085,0.075 0.038,0.038 0.038,0.077 0.038,0.077 0,0 0.038,0.058 0.076,0.086 0.039,0.029 0.019,0.048 0.019,0.048 l 0.057,0.095 0.143,0.076 c 0,0 0.105,0.057 0.144,0.076 0.038,0.019 -0.01,0.048 -0.01,0.048 l -0.009,0.085 c 0,0 0,0.038 0,0.085 0,0.05 0,0.124 0,0.124 v 0.058 l -0.02,0.123 -0.038,0.021 h -0.047 l -0.181,-0.029 z m 2.342,0.848 c -0.038,0 -0.094,0.02 -0.094,0.02 0,0 -0.067,0 -0.125,0 -0.058,0 -0.066,-0.01 -0.181,-0.028 -0.115,-0.02 -0.115,-0.028 -0.275,-0.143 -0.162,-0.114 0,0 -0.086,-0.058 -0.085,-0.057 0,0 -0.057,-0.01 -0.058,-0.01 -0.048,0 -0.171,-0.019 -0.124,-0.019 -0.066,-0.009 -0.114,-0.038 -0.048,-0.029 -0.048,-0.029 -0.144,-0.076 -0.094,-0.048 0,0 -0.038,-0.009 -0.038,-0.011 -0.114,-0.011 -0.238,-0.029 -0.124,-0.02 0,0 -0.076,-0.02 -0.076,-0.019 -0.066,-0.027 -0.086,-0.076 -0.019,-0.047 -0.105,-0.057 -0.162,-0.075 -0.057,-0.02 0,0 -0.133,-0.01 -0.132,-0.01 -0.038,-0.066 -0.038,-0.066 l 0.038,-0.01 0.067,-0.048 0.039,-0.067 c 0,0 0,0 0.028,-0.009 0.028,-0.01 0.048,0 0.048,0 0,0 0.075,0.037 0.104,0.037 0.029,0 0.048,0.021 0.048,0.021 l 0.037,0.038 0.058,0.019 c 0,0 0.171,0.086 0.2,0.086 0.028,0 0.076,0.02 0.076,0.02 l 0.038,0.056 v 0.048 c 0,0 0.076,0.02 0.114,0.02 0.038,0 0.057,0 0.057,0 0,0 0.046,0.019 0.094,0.019 0.048,0 0.058,0 0.058,0 h 0.066 c 0,0 0.039,0.066 0.058,0.038 0.019,-0.028 -0.019,-0.047 -0.019,-0.095 0,-0.048 0,-0.039 0.038,-0.057 0.038,-0.02 0.104,-0.02 0.104,-0.02 l 0.039,0.067 c 0,0 0.029,0.038 0.124,0.057 0,0 0.047,0.019 0.143,0.019 0.094,0 0.142,0.057 0.189,0.076 0.048,0.019 0.067,0 0.125,0 0.057,0 0,0 0.095,-0.009 0.096,-0.011 0.077,0.047 0.077,0.047 v 0.048 l -0.048,-0.009 c 0,0 -0.057,0 -0.095,-0.01 -0.038,-0.01 -0.058,-0.01 -0.143,0.01 0,0 0,0 0.067,0.018 0.066,0.02 0.018,0.038 0.123,0.077 0.105,0.038 0,0 0.124,0.019 0.124,0.02 0,0 0.096,0 0.096,0 0.057,0 0.123,-0.009 0.067,-0.01 0.086,0.02 0.134,0.02 0.048,0 0.047,0.037 0.181,0.028 0.133,-0.011 0.066,0 0.124,0 0.057,0 0.114,0.085 0.171,0.104 0.057,0.019 0.038,0.019 0.2,0.01 0.161,-0.01 0.075,-0.028 0.104,-0.028 0.029,0 0.143,0.095 0.143,0.095 0,0 0,0 -0.029,0 -0.029,0 -0.085,0.097 -0.085,0.097 0,0 0,0 -0.048,0 -0.047,0 -0.104,0.018 -0.162,0.018 -0.058,0 -0.038,0 -0.152,-0.009 -0.114,-0.009 -0.076,0 -0.172,-0.028 -0.095,-0.029 -0.057,-0.01 -0.123,-0.039 -0.067,-0.028 0,0 -0.02,-0.047 -0.019,-0.049 -0.057,-0.02 -0.105,-0.039 -0.047,-0.019 -0.056,-0.01 -0.085,-0.01 -0.028,0 -0.047,0 -0.181,-0.019 -0.134,-0.019 -0.077,0 -0.143,-0.028 -0.066,-0.032 -0.085,0.015 -0.124,0.015 z m 5.37,-1.225 c 0.077,-0.013 0.128,0 0.128,0 0,0 0.113,0 0.215,-0.013 0.102,-0.013 0,0 0.063,-0.013 0.064,-0.013 0.203,-0.063 0.203,-0.113 0,-0.052 0,-0.103 0,-0.103 0,0 0.343,-0.19 0.444,-0.14 0.102,0.052 0.115,0.052 0.115,0.052 0,0 0,0 0.102,0 0.101,0 0.063,0 0.165,0 0.101,0 0.114,0.023 0.331,0.023 0.213,0 0,0 0.291,0 0.291,0 0.139,0.026 0.229,0.026 0.088,0 0.088,0.077 0.139,0.128 0.051,0.049 0.063,0.024 0.215,0.113 0.154,0.089 0,0 0.027,0.063 0.024,0.064 0,0 0.063,-0.013 0.064,-0.013 0,0 0.14,0 0.14,0 0.114,0 0.19,0.026 0.076,0.025 0,0.088 0,0.088 l -0.088,0.026 -0.052,0.051 -0.063,0.024 v 0.063 c 0,0 0,0 0.037,0.051 0.039,0.052 0.09,0.102 0.205,0.153 0.113,0.05 0.102,0.05 0.266,0.075 0.166,0.025 0.14,0.114 0.14,0.114 0,0 -0.038,0.052 -0.089,0.076 -0.051,0.026 -0.241,0.051 -0.343,0.051 -0.101,0 -0.127,0 -0.266,-0.051 -0.14,-0.051 -0.14,-0.127 -0.179,-0.229 -0.037,-0.102 -0.076,-0.024 -0.076,-0.024 0,0 -0.14,0.024 -0.24,0.074 -0.102,0.052 -0.166,0.077 -0.242,0.128 -0.075,0.051 -0.025,0.077 -0.025,0.114 0,0.039 -0.038,0.051 -0.19,0.14 -0.151,0.089 -0.165,0.025 -0.304,0.014 -0.141,-0.014 -0.141,-0.077 -0.268,-0.128 -0.127,-0.05 -0.064,0 -0.102,0 -0.038,0 -0.127,0.114 -0.266,0.165 -0.141,0.05 -0.229,-0.037 -0.178,-0.14 0.05,-0.102 0,0 0.05,-0.063 0.052,-0.063 0.063,-0.038 0.063,-0.038 0,0 0.052,-0.013 0.127,-0.037 0.076,-0.026 0.076,-0.09 0.076,-0.09 l 0.076,-0.037 v -0.051 c 0,0 0,0 -0.064,-0.089 -0.063,-0.09 -0.176,-0.064 -0.266,-0.115 -0.09,-0.051 -0.114,-0.037 -0.151,-0.037 h -0.14 c -0.076,0 -0.127,0 -0.344,-0.052 -0.215,-0.051 -0.076,-0.013 -0.139,-0.038 -0.064,-0.024 -0.113,-0.038 -0.113,-0.038 l -0.064,-0.101 -0.039,0.101 -0.152,0.128 c 0,0 -0.025,-0.052 -0.063,-0.114 -0.038,-0.064 -0.05,-0.064 -0.05,-0.064 0,0 -0.115,0 -0.165,-0.025 -0.052,-0.024 -0.025,-0.063 0,-0.102 0.024,-0.038 0.063,0 0.063,0 h 0.203 l 0.254,-0.115 c 0.001,0.004 0.025,0.119 0.101,0.106 z m -0.862,-0.329 c 0,0 0.051,0 0.189,-0.063 0.141,-0.064 0,0 0.076,-0.051 0.076,-0.052 0,0 0.076,-0.014 0.076,-0.012 0.103,0 0.103,0 h 0.05 c 0,0 0.09,0 0.241,0 0.153,0 -0.013,0.064 -0.013,0.064 l 0.076,0.127 -0.013,0.101 -0.202,0.051 c 0,0 -0.052,0.025 -0.102,0.051 -0.051,0.025 -0.115,-0.088 -0.115,-0.088 0,0 -0.088,0 -0.203,-0.014 -0.113,-0.013 -0.051,-0.013 -0.113,-0.089 -0.064,-0.075 -0.05,-0.075 -0.05,-0.075 z m -0.725,2.741 c 0,0 0.102,-0.051 0.152,-0.076 l 0.051,-0.063 c 0,0 0,0 0.102,-0.102 l 0.038,-0.127 c 0,0 0,0 0.051,-0.038 0.052,-0.038 0.063,-0.05 0.14,-0.089 0.076,-0.038 0.076,-0.025 0.076,-0.025 h 0.052 c 0,0 0,0 0.05,-0.025 0.051,-0.025 0.165,-0.025 0.216,-0.025 0.051,0 0.026,-0.063 0.026,-0.063 l 0.076,-0.051 c 0,0 0.063,0.051 0.14,0.051 0.075,0 0.088,-0.013 0.088,-0.013 0,0 0,0 0.114,-0.024 0.115,-0.027 0,0 0.166,0 0.164,0 0,0 0.113,-0.014 0.115,-0.014 0.064,-0.014 0.152,-0.037 0.09,-0.026 0.127,0.063 0.127,0.063 l -0.025,0.077 c 0,0 -0.051,0.05 -0.102,0.101 -0.051,0.051 -0.114,0.127 -0.114,0.127 0,0 -0.102,0.075 -0.14,0.14 0,0 0.052,0.038 0.152,0.165 0.102,0.127 0,0 0.064,0 0.063,0 0.063,0 0.063,0 0,0 0.076,-0.012 0.127,-0.012 h 0.19 c 0.102,0 0.063,0.051 0.127,0.075 0.063,0.025 0.052,0.09 0.153,0.09 0.101,0 0.089,-0.013 0.089,-0.013 0,0 0.063,-0.014 0.126,-0.077 0.063,-0.063 0.076,-0.024 0.102,-0.075 0.025,-0.052 0.076,-0.077 0.102,-0.19 0.025,-0.115 0.076,-0.063 0.102,-0.103 0.025,-0.038 -0.025,-0.203 -0.025,-0.203 l 0.141,-0.177 c 0,0 0,-0.127 0.025,-0.256 0.025,-0.126 0.051,-0.088 0.126,-0.164 0.077,-0.076 0.114,0.025 0.166,0.051 0.05,0.025 0.076,0.102 0.076,0.102 0,0 0,0.153 -0.026,0.204 -0.025,0.05 -0.012,0.113 -0.012,0.113 0,0 0,0 0.038,-0.014 0.037,-0.012 0.177,0.064 0.253,0.104 0.076,0.037 0,0 -0.013,0.05 -0.013,0.051 0.025,0.102 0.025,0.102 0,0 0.025,0.089 0,0.14 -0.025,0.052 0,0.089 0,0.127 0,0.038 0.103,0.089 0.103,0.089 0,0 0.088,0 0.139,0 0.051,0 0.178,0.141 0.178,0.141 0,0 0,0 0,0.063 0,0.063 0.051,0.089 0.115,0.089 0,0 0.05,0.05 0.127,0.075 0.075,0.025 0.024,0.051 0.024,0.051 0,0 0.089,0.052 0.14,0.114 0.051,0.064 -0.051,0.077 -0.051,0.077 l -0.127,0.101 -0.013,0.089 -0.038,0.089 c 0,0 -0.09,0.05 -0.127,0.077 -0.038,0.024 -0.114,0.1 -0.114,0.1 l -0.228,0.179 c 0,0 0.036,-0.041 0.057,-0.072 0.04,-0.059 0.022,-0.079 -0.438,0.313 -0.699,0.597 -1.88,0.749 -1.88,0.749 0,0 0,0 -0.013,-0.088 l -0.088,-0.142 c 0,0 -0.064,0.026 -0.103,0.052 -0.039,0.026 -0.075,0.05 -0.165,0.165 -0.088,0.114 0,0 -0.14,-0.013 -0.139,-0.012 -0.102,0 -0.19,-0.038 -0.088,-0.038 -0.063,0 -0.178,-0.051 -0.113,-0.051 -0.166,0 -0.229,0 -0.063,0 -0.126,0.051 -0.164,0.051 -0.039,0 -0.127,0.026 -0.293,0.026 h -0.367 c -0.127,0 -0.178,0.024 -0.369,0.024 -0.191,0 -0.102,0.051 -0.191,0.075 -0.087,0.027 -0.189,0.052 -0.266,0.077 -0.076,0.025 -0.139,0 -0.355,0 -0.215,0 -0.126,0 -0.177,0 H 76.98 c -0.152,0 -0.139,0.025 -0.393,0.025 -0.254,0 -0.127,0.025 -0.165,0.025 -0.038,0 -0.063,0 -0.254,-0.051 -0.19,-0.05 0.039,-0.102 0.039,-0.102 0,0 0,0 -0.026,-0.063 -0.025,-0.063 -0.063,-0.051 -0.063,-0.051 0,0 0,0 0,-0.089 0,-0.063 0.006,-0.067 0.01,-0.066 -0.005,-0.003 -0.022,-0.02 -0.086,-0.074 -0.088,-0.075 -0.051,-0.011 -0.051,-0.011 0,0 -0.166,-0.026 -0.267,-0.103 -0.102,-0.076 0,0 -0.051,-0.051 -0.05,-0.052 -0.025,-0.052 -0.101,-0.114 -0.076,-0.064 -0.013,-0.102 -0.013,-0.102 l 0.051,-0.05 c 0,0 0,0 -0.014,-0.052 -0.012,-0.051 0,0 0,-0.039 0,-0.037 -0.165,-0.023 -0.165,-0.113 0,-0.089 0,-0.051 -0.013,-0.113 -0.012,-0.064 -0.038,-0.051 -0.012,-0.153 0,0 0.203,0.025 0.266,0.025 0.063,0 0.063,0 0.063,0 l 0.267,-0.102 0.241,-0.014 c 0,0 0.052,0 0.141,-0.023 0.088,-0.026 0.101,0 0.101,0 l 0.076,-0.026 c 0,0 0.051,0 0.318,-0.025 0.033,-0.002 0.059,-0.006 0.08,-0.008 0.025,-0.011 0.076,-0.036 0.148,-0.081 0,0 0.063,-0.012 0.178,-0.026 0.113,-0.011 0.051,-0.063 0.051,-0.063 0,0 0,-0.051 -0.039,-0.051 -0.038,0 0,-0.089 0.051,-0.152 0.05,-0.063 0.088,-0.076 0.088,-0.076 l 0.051,-0.013 c 0,0 0.05,0 0.101,0 0.051,0 0,0.063 0,0.063 v 0.076 c 0,0 0.063,0.063 0.114,0.051 0.051,-0.013 -0.012,-0.102 -0.012,-0.102 0,0 -0.012,-0.05 -0.012,-0.089 0,-0.038 0.101,-0.063 0.101,-0.063 h 0.064 l 0.051,-0.012 c 0,0 0.063,-0.025 0.229,-0.153 0.165,-0.127 0.024,-0.051 0.076,-0.088 0.05,-0.039 0.063,-0.077 0.14,-0.115 0.076,-0.039 0.101,-0.039 0.139,-0.051 0.039,-0.013 0.14,0.051 0.204,0.051 0.063,0 0.05,0.076 0.05,0.076 l 0.025,0.051 c 0,0 0.076,0.025 0.165,0.025 0.089,0 0.064,-0.026 0.064,-0.026 z m -0.279,-1.082 h -0.066 c 0,0 -0.076,0.058 -0.105,0.077 -0.028,0.018 -0.037,0.037 -0.18,0.037 -0.143,0 -0.058,0 -0.152,0.019 -0.096,0.019 -0.076,0.019 -0.105,0.039 -0.027,0.02 -0.076,0.056 -0.076,0.056 0,0 -0.019,0.039 -0.047,0.059 -0.028,0.019 -0.057,0.037 -0.057,0.037 l -0.096,0.019 c 0,0 0,0 -0.067,0.02 -0.066,0.021 -0.019,0.067 -0.019,0.067 0,0 -0.047,0.019 -0.076,0.019 -0.029,0 -0.096,0 -0.096,0 l 0.105,-0.086 0.057,-0.095 v -0.039 c 0,0 0.038,-0.027 0.057,-0.056 0.02,-0.03 0.058,-0.01 0.085,-0.021 0.03,-0.01 0.086,-0.019 0.162,-0.084 0.076,-0.067 0,0 0.057,-0.029 0.057,-0.028 0.039,-0.01 0.115,-0.038 0.076,-0.028 0,0 0.123,-0.028 0.124,-0.029 0,0 0.096,-0.01 0.096,-0.01 0.047,-0.01 0.237,-0.01 0.19,0 0.048,0.047 0.048,0.047 z m -0.24,-4.059 c 0.037,0.014 0.037,0.014 0.037,0.014 0,0 0.063,0.089 0.014,0.127 -0.051,0.037 -0.051,0.037 -0.051,0.037 0,0 0.037,0.114 0.063,0.165 0.025,0.052 0,-0.025 0.025,0.052 0.025,0.075 0.051,0.102 0.025,0.139 -0.025,0.039 0.014,0.051 -0.076,0.064 -0.088,0.012 -0.127,-0.014 -0.152,-0.064 -0.025,-0.05 0.038,-0.012 -0.025,-0.051 -0.063,-0.038 -0.178,0 -0.178,0 l -0.024,0.09 0.151,0.051 0.025,0.051 0.051,0.164 -0.051,0.063 -0.152,-0.076 c 0,0 0,0 -0.051,0 -0.051,0 -0.101,-0.025 -0.101,-0.025 -0.076,-0.038 -0.102,-0.114 -0.102,-0.114 l -0.051,-0.076 0.051,-0.113 0.013,-0.052 -0.063,-0.038 -0.026,-0.051 c 0,0 0,-0.016 0.002,-0.037 l -0.052,0.063 -0.065,0.128 -0.088,-0.013 c 0,0 -0.088,-0.014 -0.127,-0.014 -0.038,0 -0.102,0.051 -0.102,0.051 0,0 0,0 -0.012,0.051 -0.013,0.052 -0.038,0.052 -0.038,0.052 l -0.077,-0.052 0.077,-0.189 c 0,0 0.063,-0.052 0.114,-0.063 l 0.127,-0.014 c 0,0 0.05,-0.063 0.05,-0.102 0,-0.038 0.075,-0.038 0.152,-0.05 0.077,-0.013 0.051,0 0.051,0 l 0.026,0.063 c 0.038,0.025 0.076,-0.026 0.076,-0.026 l 0.076,-0.025 0.063,-0.024 0.128,-0.026 c 0,0 0.024,0.051 0.037,-0.051 0.013,-0.101 0.026,-0.164 0.026,-0.164 l 0.037,-0.063 c 0.001,-0.004 0.128,0.136 0.167,0.148 z"
         id="path2038" />
      <g
         id="g2048">
        <path
           style="fill:#211f20"
           inkscape:connector-curvature="0"
           d="m 79.602,-30.754 c -1.115,1.113 -1.676,2.581 -1.675,4.041 -0.001,1.461 0.56,2.93 1.675,4.043 1.113,1.115 2.582,1.676 4.043,1.675 0.001,0 0.003,0 0.004,0 1.459,0 2.925,-0.562 4.038,-1.675 1.115,-1.113 1.677,-2.582 1.675,-4.043 0.002,-1.46 -0.56,-2.928 -1.675,-4.041 -1.114,-1.115 -2.583,-1.677 -4.042,-1.676 -1.46,-10e-4 -2.93,0.561 -4.043,1.676 z"
           id="path2040" />
        <path
           style="fill:#efeaed"
           inkscape:connector-curvature="0"
           d="m 86.294,-29.361 c 0.733,0.734 1.097,1.687 1.098,2.648 -10e-4,0.963 -0.364,1.916 -1.098,2.65 -0.734,0.733 -1.687,1.096 -2.649,1.098 -0.963,-0.002 -1.916,-0.365 -2.65,-1.098 -0.733,-0.734 -1.096,-1.688 -1.098,-2.65 0.002,-0.962 0.365,-1.914 1.098,-2.648 0.734,-0.734 1.688,-1.096 2.65,-1.098 0.962,0.002 1.915,0.363 2.649,1.098 z"
           id="path2042" />
        <path
           style="fill:#211f20"
           inkscape:connector-curvature="0"
           d="m 89.511,-22.58 c -0.579,-0.67 -1.265,-0.418 -1.935,0.161 -0.669,0.576 -1.068,1.264 -0.49,1.934"
           id="path2044" />
        <path
           style="fill:#211f20"
           inkscape:connector-curvature="0"
           d="m 92.004,-19.654 -1.705,-1.962 c -0.844,0.657 -1.686,1.316 -2.516,1.988 l 1.795,2.07 c 0.578,0.669 1.59,0.742 2.26,0.164 0.67,-0.579 0.743,-1.59 0.166,-2.26 z"
           id="path2046" />
      </g>
    </g>
  </g>
</svg>
