<svg id="레이어_1" data-name="레이어 1" xmlns="http://www.w3.org/2000/svg" viewBox="0 0 118.5 96.3"><defs><style>.cls-1{fill:#fff;stroke:#000;stroke-miterlimit:10;stroke-width:4.5px;}</style></defs><path id="path2038" d="M65.5,31l.4-.3.5-.6c-.4.2-.7,0-1.2.6l-.5.5h0l.3-.2ZM19.8,37.3ZM17,40.2l-.2-.4ZM69,28.4c-.2.1-.3.1-.3.4s.1.2.1.3h.1c.1-.2.6-.4.6-.4v-.2h.3l-.6-.2S69.2,28.2,69,28.4ZM29.1,30.7l-.2.2.2.8ZM24,37.2h.3l.3-.7-.5.6Zm.6-.6.3-.3.4-.6h.2l-.4.5Zm6.3-8.8.2-.2V27H30c-.2,0-.1.3-.1.3l.5.5Zm-3.5,9v.3h.8a.3.3,0,0,0-.1-.2c-.1-.2.1-.6.1-.6A2.6,2.6,0,0,1,27.4,36.8ZM29,33.4h0Zm-.8,2.7h0Zm36,26.8h-.4v.8l.4-.6A.3.3,0,0,1,64.2,62.9ZM22.6,39.4v-.3h-.2v.3Zm-.5,1h0Zm.4,0h0Zm12.6,1h0l.4.2H36l.4-.2V41H36l-.6.2Zm4.6,1.2h.5a5.1,5.1,0,0,0,.4,1.1.7.7,0,0,0,.3-.3v-.9s0-.2-.3-.3l-.7-.6L39,41c.1.1.1.2,0,.4s0,.2,0,.3.3.2.3.2l.5.4v.3ZM29.3,27.3h-.8l-.2-.3-.2-.4a.4.4,0,0,1-.3-.4h-.4c-.1.1,0,.2-.2.4l-.2.2s.4.2.1.2h-.7v.2h-.1l-.3.2h-.2c-.3,0-.1.2-.5-.1l-.5-.4-.2-.2-.2-.2v-.3s.2,0,.1-.1-.3,0-.4.2V27h0c0,.2-.1.2-.1.2s-.1.2,0,.3h.3V28c0,.2.1.3,0,.3l-.3.2a1,1,0,0,1,.1.3h.5l.2-.2H25l.4.2h.1l.4.4v-.3h.8l.2.2.2.2v.2h.2l.2-.2c.2-.3.4,0,.4,0h.7v-.4l.2-.2.3-.3.2-.2v-.8l-.2-.2.6-.3Zm8.3,13.5v-.4c-.1.1-.1.2-.2.2ZM68.4,29.2h.2C68.4,29.2,68.6,29,68.4,29.2ZM40.8,24.6h.3ZM33.6,41v.3l.3-.2v-.2h.3S33.7,40.7,33.6,41Zm.5-14.8Zm3.6,14.2h.8s.2-.1.2.1a.1.1,0,0,0,.1.1c0-.1,0-.7-.2-.7S37.9,40.1,37.7,40.4ZM66.5,63.2H64.4c.1,0,.1.2.3.2s0,.2,0,.2v.3l.2.3v.2l.5.4v.2H63.9l-.4.7-.6-.3v-.2s0-.2.3-.3h.2l.2-.2v-.4H62.3c-.4,0,.1-.4.1-.4l.2-.4H59.7a.8.8,0,0,1,.2.5s.2.3,0,.4l-.5.2c-.1.2.4-.2-.4.5l-1.2,1.1h-.6l.2-.3.5-.6.6-.3L59,64l.2-.2v-.7l.2-.2a5.3,5.3,0,0,1-5.2-5.4v-7a.5.5,0,0,1-.5-.3,1.4,1.4,0,0,0-.7.6h-.4a1.4,1.4,0,0,0-.7,0c-.4.2-.6.1-.8.2s-.3-.1-.5.1h-.3l-.2.3-.3.5-.4-.2v-.7s.3-.4,0-.3H49c-.3,0,.2.1-.3,0a2.3,2.3,0,0,1-1-.3h-.2l-.3.5-1,.9-.2.2-.4.6v1.3l.6.4.2.6.2.4.6.3.5,1,.7.8v.5l.6,1.7a8.1,8.1,0,0,1-.2.9,1.9,1.9,0,0,0-.2.7c-.1.1-.1.4-.1.4l-.3.2-.8.4a.8.8,0,0,1-.5.2c-.4,0-.3-.4-.3-.4h-.3l-.4.5a.7.7,0,0,1-.3.3v.2l-.6.5-.8.4V64a2.6,2.6,0,0,1,.2-.5V63l-.5-.3v-.3h-.2l-.2-.2V62c-.1-.2-.3-.1-.3-.2l-.2-.2h-.6c0-.2-.2-.1-.2-.4v-.4l-.2-.2h-.3c-.2-.1,0,0,0-.1v-.8h0l-.3.2-.2.2a.6.6,0,0,1-.5-.4c-.2-.3-.3-.3-.3-.4s.2-.2.2-.2h.1v-.3h-.1c0-.1-.2-.2-.2-.2H40l-.2.2a1,1,0,0,0-.1.4v.4a1,1,0,0,1-.1.4,2,2,0,0,0-.1.5c-.1.2-.4.2-.4.2h0l-.2.8s.1-.1,0,.3.1.1-.1.4-.2.1-.2.5v.3h.5c.3.3.3.4.3.4v.2h0a.7.7,0,0,0,.3.4s-.2-.1.1.3.2.5.2.6h0c0,.4.2.3.3.4s-.1.1,0,.1H41c.2.1.1-.1.2.1s-.2-.1,0,.2.2.3.4.4h.1c.3.1.1-.3.3.1s0,.3.1.4h.3c.5.4.5.7.5.7v.4c0,.1-.1-.2-.1.2v1.1c0,.1,0-.2.4.4l.4.6.2.4v.4c0,.2.3.2,0,.2s.1-.2-.4-.3h-.6a.4.4,0,0,0-.3-.2.7.7,0,0,1-.4-.2l-.3-.4a.2.2,0,0,0-.2-.2c-.2,0-.2.2-.4-.1l-.2-.4-.4-.5s-.1,0-.1-.2a2,2,0,0,0-.1-.5h-.2l-.3-.7V65.7l-.2-.3-.2-.2h-.2l-.2-.3-.2-.3-.2-.4v-.5h-.2V64l-.3-.9.2-.6a.5.5,0,0,1,.1-.3c0-.2.3-.4.3-.4l.3-.4.4-.9a.1.1,0,0,0-.1.1h-.4V59a1.1,1.1,0,0,0-.1-.5v-.4c-.1-.1-.1-.6-.1-.6a5.9,5.9,0,0,1-.5-1.3c0-.2-.1-.2-.1-.2l.2-.3V54.5h-.2l-.4-.4v-.4H37a1,1,0,0,1-.1.4l-.5.3-.4.4H35a.4.4,0,0,1,.1-.3v-.6l.3-.3v-.4c0-.2-.1-.7-.1-1s-.1-.2-.1-.2-.4-.3-.4-.4v-1l-.2-.4c-.2-.4,0,0-.1-.1s0,0,0-.3-.5-.2-.5-.2v-.7a.1.1,0,0,1-.1.1V47h-.4s0,.2-.3.3H31.3c-.3,0-.5-.4-.5-.4L31,47l-.7.5h-.2s-.1,0-.1.3v.6l-.7.3h-.5l-.6.5-.2.3-.3.3h-.5l-.7.3v.3c-.2.3-.7.5-.8.6s-.1.1-.4.2h-.2l-.5.4v.6a.6.6,0,0,1,.1.6c-.1.2,0,.7-.1,1.2a4.5,4.5,0,0,1-.3.8v1.2l-.6.3-.6.5v.4s-.2.7-.2.5-.2-2.3-.2-2.3l-.8-1.3V50.1a.8.8,0,0,1,0-.5,3.5,3.5,0,0,0,.3-1.2V46.7a2.3,2.3,0,0,1-.1-.4c0-.2.1-.8.1-.8v-.4l.4-.6.3-.4v-.3l.3-.6-.2-.4-.4.8-.5.4-.2-.7-.4-.8V42h.8v-.2l-.7-.3.3-.7-.4-.7.4.2c0-.1,0-.1-.1-.2s0,0,0-.4.2-.9.2-1.1-.6-.4-.6-.4h-.2l-.7-.6v-.2h0l-.3-.4-.3-.6v-.7h.2l.2-.3V35s.2-.2,0-.3l-.4-.2V33.2a.5.5,0,0,1,.1-.3c0-.1.1-.6.1-.6l.2-.3s0-.1.2-.2,0-.6,0-.6l.2-.2v-.3h-.1l-.3-.2-.4,1.4s.1.2,0,.3.1,0,0,.2h-.2a.8.8,0,0,1-.1.3.7.7,0,0,0-.1.5c0,.2.2-.3,0,.2a3.7,3.7,0,0,0-.4.9v.3a.5.5,0,0,1,0,.4.4.4,0,0,0-.1.3c-.1.2,0,.3-.1.6v.4h.5l.2-.4.3-.3-.4.9h.1a1,1,0,0,0,.1-.4v.8a4.3,4.3,0,0,0-.1.5v1.2s0,.3-.1.4-.1.2-.1.4a1,1,0,0,0-.1.4v.3l-.3.3-.3.3-.3.6c-.1.2,0,.1,0,.1v.2h-.2v.2l-.2.5h-.6v.3l-.3.4a15.5,15.5,0,0,1,.5-3.5s.6-2.5,1.7-5.8l.9-2.5c.1-.3.3-.7.4-1.1L20,30a81.3,81.3,0,0,1,4.4-7.6l.2.5-.2.2c-.1.1,0,.2-.2.3l-.2.3c-.1.2-.2.3-.2.4v.3a.7.7,0,0,1-.1.5c-.2.1-.2.2-.3.4s-.1.1-.1.2a.4.4,0,0,0-.1.3v.3h0s.2-.1.2-.2.2-.3.2-.3h.3v-.3l.2-.3h.3l.3-.2.2-.3v-.5s0-.3.2-.3l.3-.2H26l.2-.3h0l.2-.2c0-.1-.1-.2-.1-.3s0,.1-.1-.2a.5.5,0,0,1,.1-.5v-.4c.1-.3.1-.6.2-.9s.2-.5.4-.6l.5-.4.2.2s-.1.3.1.3l.5-.2.3-.3.2-.2.5-.5v-.7h-.8l-.2.2h-.2l-.3.3-.4.2-.2.3v.4l-.2.3h-.3v.3l-.3.3s-.1.5-.2.5-.2.4-.2.4l-.2.3c-.1,0,.1.1-.1,0h-.3v-.2l.3-.3.3-.5S30,13.7,41.4,7.5a52.3,52.3,0,0,1,5.3-2.6L42.9,7.1l-.9.6L44.3,7h1l.5.2h.5V6.6l.3-.6,1-.3.8-.3h.2l.4-.3H53c.1.1.4.1.3.2H50.8c-.3.1-.2.2-.5.2H48.2l-.7.4-.2.3-.3.3c-.1,0-.2-.1-.2.1V7s.1,0,0,.2h-.1a.5.5,0,0,0,.1.3c0,.1,0,.1.1,0l.3-.3c.2-.1.6-.2.7-.4l.4-.2h.5l.5-.3.5-.2s-.1-.1.4-.1l.7-.2h.4c0,.1-.6.4-.8.4h-.8c-.7.3-.3,0-.8.4l-.5.4c-.2.2.1,0-.2.2s0-.1-.4.2l-.5.3s.3-.1,0,.1l-.5.2-.7.2-.4.2c-.1.1.2,0,.3.1l.3-.2h.4a.7.7,0,0,0,.6-.3l.9-.5.3-.2V8c0,.1.2,0,0,.1l-.3.2c0,.1-.2.2.1.1a.8.8,0,0,0,.5-.2l.2-.3s.2-.2,0-.2l-.3-.2c0-.1-.5,0,0-.1l.7-.3.5-.2h.2l1.1-.3h.5v.2a.4.4,0,0,1-.2.3c-.3.1,0,.2,0,.2l.3-.2.4-.3V6.5c0-.1-.2-.2,0-.3l.7-.2h1.3l.3-.4s0-.2.1-.2h1c.4.1.6-.1.8-.1h2.3l.2-.2h.4v.2h1.3c.3,0,.5,0,.4.1s-.4.4-.4.4-.1-.1-.3.1l-.4.2h-.3l-.7.2h-.5l-.3.2h0V7h.5l.2-.3H60l1.1.2h.7c.1.1,0,.3.2.3h1.1V6.7c0-.1-.5-.2.1-.2h1.8v.2c0,.1,0,.1-.1.3h-.2s-.2.1,0,.1l.4.2v.3s0,.2.1,0l.2-.3h.3V7.2h.2a.1.1,0,0,1,.2,0h1.9V6.8s.3.1-.1-.1l-.7-.4V6.1h-.9v.3s-.2.1-.3-.2-.1-.2-.1-.3,0-.3.1-.3h2.1c.1.1-.3.4-.3.4s.2.1.3.3l.2.2.2.2h.8c.1,0,.4-.2.6-.1h.5l.2.2v.2c0,.1.1.1.3.1h.9c0,.1.3.1.3.1h.5a.4.4,0,0,1,.3-.2h1l.2.3a.8.8,0,0,0,.5.2h2.7c.3.1.7-.1.3-.1a1.1,1.1,0,0,1-.6-.4h1.1s0-.2.3,0l1,.4H80l-.3-.3V7.1c0-.1-.2-.1-.2-.3l-.3-.3-.2-.2c-.2-.1-.4-.1-.3-.3h1.8c1.7.1,7.7,3.8,7.7,3.8v.6l.3.4,1,.5.6.4c.2.3.1.3.1.3a1.5,1.5,0,0,0,.3.6c.2.2,0,.4.1.8s0,0,.2.3.1.5.3.7,0,.3.3.8,0,.4,0,.7-.3.1-.3.1-1.1-2.5-1.3-3.3-.3-.4-.5-.8-.2-.3-.1-.4h-2c-.2-.1-.6,0-.6-.4a.7.7,0,0,1-.3-.3,1.5,1.5,0,0,0-.2-.4s-1.2-.3-1.3-.6,0-.3,0-.3,0-.3-.1-.4l-.2-.2-.3-.2-.8.3c-.1,0-.2,0-.2-.2h-.6l-.8-.5.2-.2.3-.2-.3-.2H80.7l-.3.2c.2.3.1.3.4.4s.3,0,.4.2l.3.2.2.4c0,.1-.1-.1.1.2s-.1.2.2.3h.2l.9.2v.2s-.1-.1.1,0l.5.2-.3.3c-.1.1-.1-.1-.1.1s-.1.1-.1.3v.5c0,.1-.1-.3,0,.1s.3.3.3.5.2.2,0,.2h-.8l-.2.2h0c0,.1.1.3,0,.3s.2,0-.1.1h-.6c-.1.1-.1,0-.1.1v.3c0,.2.1.1.1.2s.1-.1.1.3v.5h.6v.2h.1s0-.2.1.1-.1.1.1.3a.4.4,0,0,0,.4.1s.1-.2.2,0v.5s-.1-.2-.1.1-.1.1.2.3l.6.3c-.1.2.1.1-.1.2h-.4v.3c0,.2.2.4.2.5l.2.2h0c.1.2.2.3,0,.2h-.2v.2c0,.1,0,.1.1.2l.2.2a.4.4,0,0,1,.1.3c0,.2-.1.3-.1.4v.2c-.1.1.1.4-.2.2l-.4-.3-.2-.3c-.1-.2-.1-.4-.3-.4l-.6-.4a.3.3,0,0,0-.1-.2.4.4,0,0,0-.1-.3c-.1-.1-.2-.1-.3-.3l-.3-.3v-.2s-.1-.3-.3-.3a1.4,1.4,0,0,1-.4-.4v-.9l.3-.4-.2-.3h0l.3-.2a2.3,2.3,0,0,0,.1-.4v-.4h-.1V12l-.3-.2-.3-.2v-.2h-.3s-.1.2,0,.3v.3h0c0,.2.1.2.1.4s-.3,0-.3,0l-.2-.2h-.2l-.3-.2h-.9c-.1.1-.1,0-.1.2s-.1.1,0,.3a1.8,1.8,0,0,1,.1.6h0s-.1,0,0,.1a.4.4,0,0,0,.3.2h-.6c-.2.1.2.1-.2.1h-.6s-.1,0,0-.1v-.2s.7,0-.1-.1h-.9s.1.1,0,.1h-.2c-.2.1.2.1-.2.1H74.5c-.2.1,0,.1-.2.1s-.2-.1-.3,0h-.3s0-.1-.2-.1l-.3.2c0,.2.1,0,0,.2h0c-.1.2,0,.2-.2.4l-.3.3h-.2l-.2.2h0c-.1.2.1,0-.1.2v.2h-.4v.2h-.1v.2l-.3.2-.3.2h-.1s-.1.1,0,.1l.4.2h.4c.1.2.1,0,.1.2h0a.1.1,0,0,0,0,.2h.2v-.2l.3-.3v.5a.5.5,0,0,0,.4,0h.1v-.3c0-.2-.1-.1,0-.2a.6.6,0,0,1,.6-.1h.2c.1.2.3.1.3.2l.2.2.2.2c.1.1-.1-.5.2.1l.3.7s-.1,0-.1.2-.2.1,0,.1h.3a1,1,0,0,1-.1.3c-.1.2-.2.2-.1.4s.1.1.1.2l.3,1s-.2-.1,0,.2.2.4.2.6V23l-.2.3c-.1,0-.1,0-.1.2s0-.1-.1.2.3,0-.1.3l-.5.5c.1.2,0,.1.1.2s.2-.1.1.2.1.3,0,.3h-.2v.4l-.5.7a.6.6,0,0,1-.2.4l-.4.5-.2.4c-.1,0,0,0-.1.1s.1.2-.1.3h-.4c-.2.1-.2,0-.4.2h-.3a.3.3,0,0,1-.4-.2h-.1l-.4-.2h-.3l-.2-.2c-.1,0,.1.1-.1,0l-.3-.2h.1v.3s.1,0,0,.3v.6l-.3.4v.2l-.3.2v.2l-.2.5-.3.3h-.4l-.4.2c-.3.2-.2.2-.3.4s-.1.3-.2.4,0,.2,0,.2l.6.4c.3.3.1.5.1.5l.5.3.9,1a2.4,2.4,0,0,1,.1.7c0,.4-.1.5-.1.9s-.2.2-.3.4-.2.3-.4.3L68,37l-.8.3h-.6V37l.2-.7v-.4l-.3-.4-.2-.2a.8.8,0,0,1,0-.5c.2-.2.3-.1.3-.1l.3-.2v-.6l-.3-.3H65.1c-.2-.1,0-.2,0-.4a.4.4,0,0,1,.1-.3l.2-.3.2-.3-.2-.4a.6.6,0,0,1-.7-.5h-.2v.3a.8.8,0,0,1-.5,0l-.4.2-.8.3s.3-.3-.3.1-.6.3-.6.3-.1.2,0-.3-.1-.6.1-.6.2-.4.4-.4.5-.5.5-.5l-.2-.4h-.5l-.6.3s-.2,0-.3.3.1.2-.1.3l-.2.2-.6.2h-.3c-.2.3-.4.3-.4.3h-.5s-.3-.2-.3,0,.3.2,0,.7l-.4.5h.4l.5.4s.1-.1.2.2v.2l.5.2h.2L61,34l.4-.4h.3l.2.2h1s.3.3.2.5.3.2-.1.2-.4-.1-.6,0-.1-.2-.3.1-.2.4-.4.5l-.5.3c-.3.2,0-.1-.3.2a1.8,1.8,0,0,1-.8.4v1.1h.3l.4.3s.3-.2.4.1v1h49.1a48.1,48.1,0,1,0-.6,24.2H66.5Zm8.8-43.4a.8.8,0,0,1-.1-.3L75,19v-.2l-.2-1.3c0-.2.4.4.4.4v.6l.8.4v.6l.2.6.2.5.3.3s.1.2.7.5.1.3.6.8h-.4s-.4-.4-.7-.3v1l.4.3,1,.8c.7.8,0,.6-.1.8s-.2-.2-.3-.5-.2,0-.2,0a.7.7,0,0,0-.2.4c0,.2,0,.3-.1.4s0,.3-.2.2-.3-.3-.3-.4-.1-.3-.1-.6,0,0-.3-.7,0,0-.1-.3v-.3c0-.3-.1-.2-.1-.2V22a1.2,1.2,0,0,0-.2-.7c-.1-.1-.2,0-.2-.3v-.3a.5.5,0,0,1,0-.4l-.3-.3a.4.4,0,0,1-.3-.2Zm5.2,7.5h-.2l-.6.3a.4.4,0,0,0-.1.4l-.4.3h-.4l-.2-.2h-.3l-.2.2v.6a2,2,0,0,1,.6,1c.2.7,0,.3,0,.3v.4a2.2,2.2,0,0,1,.6.5c.1.1,0,.4-.1.6s-.4.4-.4.6,0,.4,0,.6.2.2.2.3V34a1.7,1.7,0,0,1,.1.7c0,.3-.1.3-.1.3l-.2.6a.4.4,0,0,1-.4.4c-.1,0-.1-.5.2-.7s0-.3-.3-.3,0,0,0,.3-.5.8-.5.8h-.4l-.7.4H75.8l.3.5a1.5,1.5,0,0,1-.3.6.4.4,0,0,1-.5.2.4.4,0,0,1-.3-.2.2.2,0,0,0-.2-.2l-.3-.6a.5.5,0,0,0-.5.1l.3.4v.6l-.5.2h-.3l-.4.3-.3.2h-.5v-.8c0-.1.2-.2.4-.2l.5-.2.2-.2H73a1.4,1.4,0,0,1-.7.3l-.5.2H70.7v-.4c0-.2.2-.1.2-.1h.2l.3-.4a9,9,0,0,1,1.2-1h.7c.8,0,.3-.1.7-.1s0,0,.1-.2h.2l.6.5c.3.2.2-.1.2-.4v-.2l.2-.8c.1-.3,0,0,.2-.2s.1-.5.3-.7.1.3.5.2h.2l.3-.2a.7.7,0,0,0,.3-.3,1.5,1.5,0,0,0,.3-.8c0-.3,0,0,.1-.2s0-.4,0-.4V29.9l-.3-.4h0c0-.2-.2-.3-.3-.4a.4.4,0,0,0-.1-.3s-.1-.8,0-.9v-.2h.4l.3-.2v-.6l-.2-.9.2-.3h.3l.3.2.3.5h1.3s.9.4.7.8ZM25.3,60.5c0,.1-.1.1-.3.4s0,0-.2,0h-.2c-.2,0-.2,0-.4-.3s-.1-.1-.2-.7a1.5,1.5,0,0,0-.1-.7c0-.4.1-.3.3-.6s0-.2,0-.5v-.8l.5.2a4.3,4.3,0,0,1,.1.5.4.4,0,0,0,.1.3,2.4,2.4,0,0,0,.2.8c.1.5.1.3.1.3l.2.4A.9.9,0,0,1,25.3,60.5ZM60.1,74.8V73.2c.1-.2.5-.2.9-.4s.4.2.8.4h2.7c.9,0,.2-.1.2-.1l.9-.9c.2-.2.6.4.6.4l-.4.8c-.2.4-.2.3-.5.4H61c-.4,0-.3.3-.3.3V75l.2.3h.9c.7,0,0,0,.6-.1h1.9a2.2,2.2,0,0,1,.1.6c-.1.2-.3.1-.5.1l-.4-.2H62.1c-.4.1,0,.6,0,.6h.3l.3.2.3.4c.3.3,0,0,.2.4s0,0,.5.5l.3.2h0v1.1c0,.2-.4.2-.4.2h-.8c-.3,0-.2-.1-.1-.4v-.7s0,.4-.7.2V78l-.3-.3-.2-.4v-.5c0-.5,0,0-.2-.1s-.3.1-.5.3l-.2.2v.4a4.3,4.3,0,0,0,.2.9c.2.7-.2.7-.2.7h-.4c-.2,0-.3,0-.5-.3s0,0-.1-.1a1.3,1.3,0,0,1-.1-.6c0-.1-.2-.2-.2-.2v-.9h-.3v-.7c0-.2.2-.2.4-.2a.8.8,0,0,0,.4-.4c.2-.3.2-.4.2-.4Zm0,8.1a1.4,1.4,0,0,1-.7-.2c-.3-.2,0,0,0-.3s.2,0,.2,0h1c.3,0,.3.2.3.2l.4.5H60.1Zm.3-1.2h0C60.3,81.8,60.3,81.7,60.4,81.7Zm.3.1h-.3l.4-.2h4.9c.3,0-.2.1-.2.1H65c-.2,0-.2.2-.4.2h-3A1.5,1.5,0,0,1,60.7,81.8Zm-12-27.5v-.6a.4.4,0,0,1,.1-.3l.2-.2.4-.4h.8l.5-.2.4.4-.5.8-.3.6H48.7Zm-.3,18.1c.1-.2,0-.2,0-.3l.4-.4c.1-.2.3,0,.3,0h.8l.3.2h.2l.3.2V72a2.3,2.3,0,0,0,.1-.4c0-.1-.1-.4,0-.5a1.1,1.1,0,0,1,.7-.3h.9c.1,0,.1-.2.3-.3s.2-.2.2-.2l.4-.3.5-.4h1.5v-.7l.2-.2h.4l.5-.6v-.2l.2-.2a.3.3,0,0,1,.4,0,1.1,1.1,0,0,0,.5.4l.4.3c.1.2.1,0,.4.2a.9.9,0,0,0,.7.3.4.4,0,0,1,.1.3c0,.2.6.1,0,.2H58.3s-.1,0-.1.2.4.2.1.3.1.2.3.2,0,0,0,.2-.3.1-.3.1h-.6v.4h-.5V71l.2.2.3.2.2.3v.6h.2s.3.4.5.4,0,0,.2,0,.3.7.3.7H58.1l-.2.2v.2l-.2.3v.5l-.2.4-.3.2-.3.3c-.2.1-.1.4-.1.4l.2.5c.2.3,0,.2-.2.4V77a1.7,1.7,0,0,1-.4.6l-.7.3c-.2.1-.3,0-.4-.1h-.2l-.2-.4c-.1-.3,0,0,0-.3H53.1c-.2-.1-.5.1-.6.1H52c-.2,0-.1-.1-.1-.3l-.2-.3-.5.3h-.8c-.5-.1-.2-.2-.3-.3l-.2-.4-.2-.4c-.1-.2,0-.2,0-.3a1.3,1.3,0,0,0-.1-.6c-.1-.2,0,0-.3-.3s-.2,0-.4-.2,0,0,.1-.3,0,0,0-.1v-.4l-.7-.4C47.8,72.6,48.2,72.5,48.4,72.4ZM44,77.8l-.6-.7c-.5-.7,0,0-.2-.4s0-.2,0-.2l-.4-.4c-.3-.2,0,0-.2,0l-.2-.2-.3-.6c-.1-.2-.5-.2-.5-.2l-.4-.7c-.4-.7-.3-.3-.4-.5l-.4-.6a.8.8,0,0,1-.2-.5c0-.2,0,0-.1-.2s0,0-.3-.4l-.2-.2-.2-.3a1.8,1.8,0,0,0-.1-.6c-.1-.3,0,0-.1-.2s-.7-.2-1-.4-.1-.2-.1-.5-.2-.2-.4-.6-.1-.2-.1-.5l-.3-.3-.7-.6c-.3-.3-.3-.4-.3-.4h-.1a3,3,0,0,0-.8-.9c-.5-.5-.2-.3-.2-.6v-.7l.8.3v.3l1.1.3h.3a.4.4,0,0,1,.4.2l.4,1,.6.7.3.6c0,.2.2,0,.2,0s.7.6.7.8h.2l.2.2h.2l.6.4.3.2v.2l.2.2.8.7v.2l.4.2h.2V73l.2.3h.4c.2,0,.2.2.3.3a.6.6,0,0,1,.2.4l.3.3c.2.1.1.2.1.2l.2.4.6.3.6.3c.2.1,0,.2,0,.2v2H44Zm9.7,3.5H52c-.5-.1-.5-.1-1.1-.6l-.4-.3c-.3-.2,0,0-.2,0H49.1l-.6-.4c-.4-.2,0,0-.1,0H47.1c-.4-.1-.3-.1-.4-.3s-.4-.2-.7-.3h-.5c-.6,0-.2-.2-.2-.2h.2l.3-.2v-.2h.3l.5.2h.6l.8.3h.3l.2.3v.2h1.6s.1.3.2.2-.1-.2-.1-.4,0-.2.2-.3h.4l.2.2a.7.7,0,0,0,.5.3h.6a1.5,1.5,0,0,1,.8.3h.9c.4,0,.3.2.3.2v.2h-.9c.2,0,.1.1.5.3h2c.2,0,.1.2.7.1H57c.3,0,.5.4.7.4H59l.6.4h-.2c-.1,0-.3.4-.3.4H56.9l-.5-.2c-.3-.1,0,0-.1-.2s-.2,0-.4-.1H54.8c-.6-.1-.4,0-.6-.2S53.8,81.3,53.7,81.3Zm22.2-5.1h1.4c.4-.1,0,0,.2-.1s.9-.2.9-.4v-.5s1.4-.7,1.8-.5l.5.2h3.6c1.3,0,.6.1,1,.1s.4.3.6.5l.9.5c.6.3,0,0,.1.2s0,0,.2,0h1.4c.3.1,0,.4,0,.4h-.4l-.2.2h-.2v.4a1.7,1.7,0,0,0,.9.7l1.1.3c.6.1.5.5.5.5a.7.7,0,0,1-.3.3l-1.5.2-1.1-.2c-.5-.2-.5-.6-.7-1s-.3-.1-.3-.1l-1,.3a3.3,3.3,0,0,0-1,.6c-.3.2-.1.3-.1.4s-.2.2-.8.6-.7.1-1.2.1-.6-.4-1.1-.6-.3,0-.5,0a5.2,5.2,0,0,1-1.1.7c-.6.2-.9-.1-.7-.6s0,0,.2-.2.3-.2.3-.2h.5a.4.4,0,0,0,.3-.4l.3-.2v-.2l-.2-.3c-.3-.4-.8-.3-1.1-.5l-.7-.2h-.6l-1.4-.2H76l-.5-.2-.3-.4V77l-.7.5-.2-.4-.2-.3h-.7c-.2-.1-.1-.3,0-.4s.2,0,.2,0h.9l1-.5S75.5,76.3,75.9,76.2Zm-3.6-1.3.8-.3c.6-.2,0,0,.3-.2h1.9c.7,0,0,.3,0,.3l.3.5v.5l-.8.2-.4.2c-.2.1-.5-.4-.5-.4H73c-.5-.1-.2-.1-.5-.4s-.2-.3-.2-.3Zm-3,11.3.6-.3.2-.3.5-.4v-.5l.2-.2.6-.3h.7a1.5,1.5,0,0,1,.9-.2c.2,0,.1-.2.1-.2l.3-.2.6.2H75c.4-.1,0,0,.6,0h.5l.6-.2a.6.6,0,0,1,.6.3v.3l-.5.4-.4.5-.6.6.6.7c.4.5,0,0,.3,0h1.6c.4,0,.2.2.5.3s.2.3.6.3h.4l.5-.3c.3-.3.3-.1.4-.3s.3-.4.4-.8.4-.3.5-.5-.1-.8-.1-.8l.5-.7a7.5,7.5,0,0,1,.1-1.1c.2-.5.3-.3.6-.7s.4.1.7.3a.8.8,0,0,1,.3.4,2.8,2.8,0,0,1-.1.8,1.3,1.3,0,0,0-.1.5h.2l1,.5c.3.1,0,0,0,.2s.1.4.1.4a1.1,1.1,0,0,1,0,.6c-.1.2,0,.3,0,.5l.4.4h.6c.2,0,.7.5.7.5v.3c0,.3.2.4.5.4l.5.3c.3.1.1.2.1.2a1.8,1.8,0,0,1,.6.5c.2.2-.2.3-.2.3l-.6.4v.4l-.2.3-.5.3-.5.5-.9.7.2-.3c.2-.2.1-.3-1.8,1.3s-7.7,3.1-7.7,3.1v-.4l-.4-.6-.4.3-.7.6c-.3.5,0,0-.6,0s-.4,0-.7-.2l-.8-.2c-.4-.2-.7,0-.9,0l-.7.2H66.4c-.8,0-.5.2-.8.3l-1.1.4H59.4c-1.1,0-.5.1-.7.1l-1-.2c-.8-.3.1-.5.1-.5V95c-.1-.3-.3-.2-.3-.2v-.4c0-.3.1-.3.1-.3l-.4-.3c-.3-.3-.2,0-.2,0a2.2,2.2,0,0,1-1.1-.5c-.4-.3,0,0-.2-.2l-.4-.4c-.3-.3-.1-.5-.1-.5l.2-.2v-.2c-.1-.2,0,0,0-.1s-.7-.1-.7-.5v-.5c-.1-.2-.2-.2-.1-.6h1.4l1.1-.4h3.9l.6-.4h.8c.4,0,.2-.2.2-.2a.2.2,0,0,0-.2-.2c-.1,0,0-.4.2-.7l.4-.3h.6c.2,0,0,.2,0,.2V88s.3.3.5.3-.1-.5-.1-.5v-.3c0-.2.4-.3.4-.3h.5l.9-.7c.7-.5.1-.2.3-.3s.3-.4.6-.5l.6-.2c.2-.1.6.2.8.2s.2.3.2.3v.2H69C69.4,86.3,69.3,86.2,69.3,86.2Zm-1.2-4.5h-.2l-.5.4H65.6l-.3.3-.2.2-.2.2h-.7c-.3.1-.1.3-.1.3h-.7l.5-.4.2-.4h0l.2-.3c.1-.1.3,0,.4,0l.6-.4c.4-.3,0,0,.3-.1l.5-.2h1.8C68.7,81.5,68.1,81.7,68.1,81.7ZM67.1,65h.2s.3.4.1.5l-.3.2.3.7c.1.2,0-.1.1.2s.2.4.1.6.1.2-.3.2-.5,0-.6-.2.1-.1-.1-.2a1,1,0,0,0-.8,0v.3l.7.2v.3l.2.6-.2.3-.7-.3h-.6a1.1,1.1,0,0,1-.4-.5l-.2-.3.2-.5v-.2l-.2-.2v-.2h0l-.2.2-.3.6h-.9l-.4.2v.2c0,.2-.1.2-.1.2l-.3-.2.3-.8.5-.3h.5l.2-.4c0-.2.3-.2.6-.2s.2,0,.2,0v.2a.2.2,0,0,0,.3-.1H66s.1.2.2-.2a3.2,3.2,0,0,0,.1-.7l.2-.2C66.5,64.3,67,64.9,67.1,65Z" transform="translate(-15.4 -1.5)"/><path d="M107.3,80.3,123,96a3.8,3.8,0,0,0,5.4,0l4.4-4.5a3.7,3.7,0,0,0,0-5.3L117.1,70.5a3.7,3.7,0,0,0-2.7-1.1h-2.2l-6,5.9v2.3A3.9,3.9,0,0,0,107.3,80.3Z" transform="translate(-15.4 -1.5)"/><circle class="cls-1" cx="72.9" cy="52.7" r="28"/></svg>