<svg id="레이어_1" data-name="레이어 1" xmlns="http://www.w3.org/2000/svg" viewBox="0 0 33.8 28.8"><defs><style>.cls-1,.cls-2{fill:#fff;stroke:#000;stroke-miterlimit:10;stroke-width:2px;}.cls-2{stroke-linecap:round;}</style></defs><path id="path2038" d="M22.8,19.4H23v-.2h-.3l-.2.2h0a.1.1,0,0,1,.1-.1ZM9.4,21.3Zm-.8.9h0Zm15.3-3.5c-.1,0-.1,0-.1.1h.1Zm-11.7.6h-.1v-.1Zm-1.5,2h.1v0Zm.1-.2H11Zm1.9-2.6h0a.1.1,0,0,0-.1-.1h-.2l.2.2Zm-1,2.7h.2V21Zm.4-1h0Zm-.2.8Zm10.6,8h-.2V29ZM10.3,22h0Zm-.2.3a.1.1,0,0,0-.1-.1Zm.1-.1h0Zm3.7.4h.4v-.2H14A.1.1,0,0,0,13.9,22.6Zm1.4.3h.1v.3h.1V23h-.1l-.2-.2-.2-.2h0c-.1.1,0,.1,0,.1h.2Zm-3.1-4.6h-.3a.1.1,0,0,1-.1-.1h-.1c-.1.1,0,.1-.1.2h0s.1.1,0,.1h-.3c-.1.1,0,.1-.1.1h-.1l-.2-.2h-.2c0,.1.1.1,0,.1h1.1c0-.1.1,0,.1,0h.4v-.2h-.1Zm2.4,4.1h0Zm9.1-3.5h0Zm-8.1-1.4h.1A.1.1,0,0,1,15.6,17.5Zm-2.1,4.9h0Zm.1-4.4Zm1.1,4.3h.2s.1-.1.1,0h0s0-.2-.1-.2S14.7,22.2,14.7,22.3Zm8.4,6.8h-.5c.1,0,0,.1,0,.1h-.2v.2h-.4c-.1,0,0-.1,0-.1h-.8a.1.1,0,0,1,.1.1s.1.1,0,.1H21c0,.1.2-.1-.1.2l-.3.3h-.1v-.2H21V29h.1a1.7,1.7,0,0,1-1.5-1.6V25.3H18.4v.2h-.1v-.2s.1-.1,0-.1h-.6v.2l-.3.2h-.1V26h0v.3h.2v.2h.2v.3l.3.2v.9a.4.4,0,0,0-.1.3h-.8a.1.1,0,0,1-.1.1h-.2c0,.1-.2.2-.2.2h0V29h-.8v-.2h-.3c0-.1-.1-.1-.1-.2h-.1v.2h-.2v.2s.1,0,0,.1.1,0,0,.1-.1.1,0,.2h.3s-.1,0,0,.1v.2h0c0,.2,0,.1.1.2h.2c.1,0,.1,0,.1.1s0-.1.1,0h.2v.2h0v.2h0c0,.1,0,0,.1.1v.2h.1c0,.1.1.1,0,.1h-.8v-.2h-.1a.1.1,0,0,1-.1-.1h-.1v-.3h0v-.2h-.5V29h.1a.3.3,0,0,1,.1-.2h0l.2-.2h-.2v-.2h0v-.2h0v-.2h0a1.5,1.5,0,0,1-.2-.4h.1v-.2h-.1v-.2h-.1v.2h-.2c-.1,0-.1,0-.1.1H14a.1.1,0,0,0,0-.2v-.2h-.2v-.2h0c-.1,0,0,0-.1-.1h-.2v-.4h-.8l-.2.2h-.1v.2h-.2a.1.1,0,0,0-.1.1h-.2a.1.1,0,0,0-.1.1h-.4c0,.1-.2.1-.2.2h-.4a.3.3,0,0,0,.1.2h0a.6.6,0,0,1-.1.4V27h-.1l-.2.2h-.1c0-.1-.1-.7-.1-.7l-.2-.4h0V25.1h0c.1-.1.1-.4.1-.4h0v-.2h0a.1.1,0,0,1-.1-.1v-.4h.2v-.2h-.1v.2H10v-.6h0v-.5h0v-.3H9.7l-.2-.2H9.4V21h.1a.1.1,0,0,0-.1-.1h0v-.2h0a.1.1,0,0,1,.1-.1.1.1,0,0,0,0-.2h0l-.2.4s.1,0,0,.1H9.2c0,.1.1-.1,0,.1v.2H9v.2h.3v.3h0v.2h0v.2h0c-.1,0-.1.1-.1.2H8.9v.2H8.4a2.4,2.4,0,0,1,.2-1,8.1,8.1,0,0,1,.5-1.8,2.5,2.5,0,0,1,.2-.7.4.4,0,0,0,.1-.3v-.2a18.2,18.2,0,0,1,1.3-2.2h-.1v.2h.8a.1.1,0,0,0-.1-.1h.1s-.1-.1,0-.1v-.3c0-.1.1-.1.1-.2h-.2a.3.3,0,0,0-.1.2H11a.1.1,0,0,1,.1-.1v-.2a12.7,12.7,0,0,1,4.6-3.9l1.5-.8-1.1.7-.2.2.6-.2h.6V12h.9c0,.1,0,.1-.1.1h-.6l.2-.2h.1c0,.1.1,0,0,.1h-.3s.1,0,0,.1H17a.1.1,0,0,0,.1.1h5.1c0-.1-.2-.1,0-.1h1.4a.1.1,0,0,1,0,.2h2.7c.1,0,.2,0,.1-.1h.2s0-.1.1,0H27a.1.1,0,0,1-.1-.1h.3A16.9,16.9,0,0,1,29.5,13v.4H30c.1.1,0,.1,0,.1v.2c.1,0,0,.1.1.2h0v.4c.1.2,0,.2,0,.3h-.1c.1-.2-.3-.8-.4-1s0-.1-.1-.2-.1-.1,0-.1h-.9l-.4-.2c-.1-.1,0-.1,0-.1h-.7l-.2-.2h.5v.2h-.5v.2h.6c0,.1.1.1,0,.1h0v.2H28c-.1,0-.2-.2-.2-.2h-.1a.1.1,0,0,1-.1-.1h-.3a.1.1,0,0,0-.1-.1H27a.1.1,0,0,1-.1-.1h-.2a.1.1,0,0,1-.1.1h0v.2H24.8c0,.1.1,0,0,.1h.6c.1,0,0-.2.1,0V16h0v.3h0c0,.1.1.1.1.2h-.2c0,.1.1,0,0,.1h-.2l-.2.3h0c-.1,0-.1.1-.1.2H25c0,.1,0,0-.1.1h-.4a.1.1,0,0,1-.1-.1h-.3s.1,0,0,.1h-.6c-.1.1,0,.1-.1.1v.2h.2V20h.1l.3.3v.4c0,.2-.1.1-.1.2h-.7V21h-.5a.1.1,0,0,1,.1-.1h-.7s0-.1-.1,0-.2.1-.2.1h0v-.2a.1.1,0,0,0,.1-.1h-.3c-.1.1,0,.1-.1.1h-.3a.1.1,0,0,1-.1.1h-.2c0,.1.1.1,0,.2v.2h.6v-.2h.6a.1.1,0,0,1,0,.2h-.4a.1.1,0,0,1-.1.1h-.4v.2h.3s.1-.1.1.1v.2H36A14.1,14.1,0,0,0,22.3,10.6a14.4,14.4,0,0,0,0,28.8A14.1,14.1,0,0,0,35.8,29H23.1Zm2.6-13h-.1v-.4h.1v.2H26v.4h.2s0,.1.2.2,0,.1.1.2h-.3v.2h.1l.3.2c.2.3,0,.2,0,.3a.3.3,0,0,1-.1-.2h-.1v.2h-.2v-.4c-.1-.2,0,0,0-.1H26v-.4h-.1v-.2h-.2Zm1.5,2.2H27c-.1.1,0,.1,0,.1h-.5a.4.4,0,0,1,.2.3c.1.2,0,.1,0,.1h.2a.1.1,0,0,1,0,.2c-.1.1-.1.1-.1.2V20h0v.2h.1v.2h0a.3.3,0,0,0-.1.2h-.1c-.1,0-.1-.1,0-.2s0-.1,0-.1,0,0,0,.1-.2.3-.2.3h-.1l-.2.2h-.3v.2a.1.1,0,0,1-.2,0h-.3v.2h-.6a.1.1,0,0,1,.1-.1h-.3l.3-.3h.4c.1,0,0,0,.1-.1h0l.2.2h.1v-.2h.1v-.2h.4c.1,0,.1-.1.1-.2h.1v-.2h-.2s-.1-.3,0-.3h.2v-.3H27s.3.1.2.2ZM11.1,28.2c0,.1-.1.1-.1.2s0,0-.1,0h-.2v-.4c-.1-.1,0-.1,0-.2s0-.1,0-.2v-.2h.2v.2h0a.3.3,0,0,1,.1.2Zm10.1,4.3v-.3a.1.1,0,0,1,.1-.1c0-.1.1-.1.2-.2h1.1l.3-.3H23a.8.8,0,0,1-.1.3H21.4v.2h1a.1.1,0,0,1,0,.2h-.6c-.1,0,0,.2,0,.2h.1c.1,0,0,0,.1.1s0,0,.1.1h.1c0,.2,0,0,.1.1h.1v.2h0a.1.1,0,0,1-.1.1h-.2a.1.1,0,0,1-.1-.1c.1-.1,0-.1,0-.1h0s0,.1-.2,0h-.1v-.2c0-.1,0,0-.1,0h-.2v.4c.1.2-.1.2-.1.2H21v-.2h-.1c0-.1,0-.1.1-.1a.1.1,0,0,0,.1-.1h.1Zm.1,2.4h-.2c-.1-.1,0,0,0-.1h.3a.1.1,0,0,1,.1.1h-.1a.1.1,0,0,1-.1-.1Zm0-.3Zm.1,0h1.5c.1,0-.1.1-.1.1h-.5a.1.1,0,0,0-.1.1h-.8Zm-3.5-8.2H18v-.2h.5l-.2.2v.2h-.4Zm-.1,5.4c.1,0,0,0,0-.1h.1c.1-.1.1,0,.1,0h.6c0-.1-.1-.2,0-.2H19c.1,0,.1,0,.1-.1h.8v-.2h.7a.1.1,0,0,1,.1.1s0-.1.1,0H21a.1.1,0,0,1,.1.1c0,.1.1,0,0,.1h-.4c0,.1.1.1,0,.1a.1.1,0,0,1,.1.1c.1,0,0,0,0,.1h.1v.2h-.5v.2h-.3a.3.3,0,0,0,.1.2c0,.1,0,.1-.1.1h0v.2c-.1,0-.2,0-.2.1s-.1,0-.1-.1h-.9c-.1,0-.1,0-.1-.1h-.4c-.1,0,0,0-.1-.1h-.1v-.2H18l-.2-.2C17.7,31.9,17.8,31.9,17.8,31.8Zm-1.3,1.6v-.2h-.3v-.2c0-.1-.2-.1-.2-.1v-.4h-.1a.3.3,0,0,1-.1-.2h0v-.2h-.1v-.2h-.1l-.3-.2c-.1,0,0,0,0-.1s0-.1-.1-.2,0-.1,0-.1h-.1l-.2-.2h-.2c0-.1,0-.1-.2-.2s0-.1,0-.2h.7v.3l.2.2s0,.2.1.2h0l.2.2h.5l.3.2h.2v.2h.2c.1,0,0,.1.1.1h.1c.1,0,0,.1,0,.1H17v.2h-.5Zm2.9,1.1h-.5l-.3-.2c-.2-.2,0,0-.2-.1h-.2c-.2,0-.1,0-.2-.1h-.6c-.1-.1,0-.1-.1-.1s-.1-.1-.2-.1H17c-.2,0-.1-.1-.1-.1h1.2a.1.1,0,0,0,.1.1h1.2c.1-.1.1,0,.1,0h-.2c0-.1,0-.1-.1,0H20s0,.1.2.1.1,0,.2,0h.7a.1.1,0,0,0-.1.1h-.7c-.1-.1-.1,0-.1-.1h-.1c0-.1,0-.1-.1-.1h-.5C19.4,34.4,19.4,34.5,19.4,34.5ZM25.9,33c.1-.1.1,0,.1,0h.6s.4-.3.6-.2h1.4c.2,0,.2.1.2.2h.3c.2.1,0,0,0,.1s0,0,.1,0h.4c.1,0,0,.1,0,.1h-.2l.2.2H30c.2,0,.1.1.1.1a.1.1,0,0,1-.1.1h-.7c-.2-.1-.2-.2-.2-.3s-.1,0-.1,0h-.6c-.1.1,0,.1,0,.2h-.3c-.2.2-.2.1-.3.1l-.4-.2c-.1-.1,0,0-.1,0l-.3.2c-.2.1-.3,0-.2-.2H25.1c.1-.1.1,0,.1,0h.2l.4-.2S25.8,33,25.9,33Zm-1.1-.4h.9c.2,0,0,.1,0,.1h.1v.2H25c-.1-.1,0-.1-.1-.2ZM24,35.9h.2v-.2h1.1a.1.1,0,0,0,.1-.1H26c.1,0,0,0,.1-.1h0a.3.3,0,0,1-.1.2l-.2.2.2.2c.1.1,0,0,.1,0h.5c.1,0,0,0,.1.1h.2A.1.1,0,0,0,27,36h.2c0-.1,0-.1.1-.1s.1-.1.1-.3a.1.1,0,0,1,.1-.1c.1,0,0-.3,0-.3l.2-.2v-.3c0-.1.1-.1.1-.2s.2,0,.2.1a.1.1,0,0,1,.1.1V35h.3c.1,0,0,0,0,.1h.1v.2c-.1,0,0,.1,0,.1h.3l.2.2h0c0,.1,0,.1.1.1h.2l.2.2a.1.1,0,0,1-.1.1H29a.1.1,0,0,1-.1.1l-.3.3h.1l-.5.4a5.7,5.7,0,0,1-2.3.9h0v-.2h-.2s-.1,0-.2.2,0,0-.1,0H23.1c-.2,0-.1,0-.2.1H20.5c-.2-.1.1-.2.1-.2h-.2c-.1-.1-.1,0-.1,0h-.4c0-.1,0-.1-.1-.1a.1.1,0,0,1,0-.2h0c0-.1-.2-.1-.2-.2h0v-.2h1.2c.1-.1.1,0,.1,0H22a.1.1,0,0,0-.1-.1.3.3,0,0,1,.1-.2.1.1,0,0,1,.1-.1h.2s0,.1.1,0,0-.1,0-.1h.2l.3-.2c.2-.1,0,0,.1-.1h.6c.1,0,0,.1,0,.1h.3A.1.1,0,0,0,24,35.9Zm-.4-1.3H22.4a.1.1,0,0,1-.1.1h-.1l.2-.2h.8c.1-.1,0,0,.1,0s0-.1.3-.1S23.6,34.6,23.6,34.6Zm-.3-5h.1v.2h-.1a.3.3,0,0,1,.1.2h.1c-.1.1,0,.1-.1.1s-.2,0-.2-.1h-.1v.2h-.4l-.2-.2h-.7v-.2a.1.1,0,0,1,.1-.1H23a.3.3,0,0,0,.1-.2h0Z" transform="translate(-8.2 -10.6)"/><ellipse class="cls-1" cx="20.9" cy="15.2" rx="8.2" ry="8.3"/><line class="cls-2" x1="26.9" y1="21.7" x2="32.8" y2="27.8"/></svg>