<?xml version="1.0" encoding="UTF-8" standalone="no"?>
<!-- Created with Inkscape (http://www.inkscape.org/) -->

<svg
   xmlns:dc="http://purl.org/dc/elements/1.1/"
   xmlns:cc="http://creativecommons.org/ns#"
   xmlns:rdf="http://www.w3.org/1999/02/22-rdf-syntax-ns#"
   xmlns:svg="http://www.w3.org/2000/svg"
   xmlns="http://www.w3.org/2000/svg"
   xmlns:sodipodi="http://sodipodi.sourceforge.net/DTD/sodipodi-0.dtd"
   xmlns:inkscape="http://www.inkscape.org/namespaces/inkscape"
   width="62"
   height="47"
   viewBox="0 0 16.404166 12.435417"
   version="1.1"
   id="svg4833"
   inkscape:version="0.92.4 (5da689c313, 2019-01-14)"
   sodipodi:docname="select.svg">
  <defs
     id="defs4827" />
  <sodipodi:namedview
     id="base"
     pagecolor="#ffffff"
     bordercolor="#666666"
     borderopacity="1.0"
     inkscape:pageopacity="0.0"
     inkscape:pageshadow="2"
     inkscape:zoom="2.8554058"
     inkscape:cx="4.8906675"
     inkscape:cy="34.63891"
     inkscape:document-units="mm"
     inkscape:current-layer="layer1"
     showgrid="false"
     units="px"
     inkscape:window-width="645"
     inkscape:window-height="615"
     inkscape:window-x="1135"
     inkscape:window-y="9"
     inkscape:window-maximized="0" />
  <metadata
     id="metadata4830">
    <rdf:RDF>
      <cc:Work
         rdf:about="">
        <dc:format>image/svg+xml</dc:format>
        <dc:type
           rdf:resource="http://purl.org/dc/dcmitype/StillImage" />
        <dc:title></dc:title>
      </cc:Work>
    </rdf:RDF>
  </metadata>
  <g
     inkscape:label="Layer 1"
     inkscape:groupmode="layer"
     id="layer1"
     transform="translate(0,-284.56457)">
    <g
       transform="matrix(0.26458333,0,0,0.26458333,45.857248,321.13358)"
       id="g1384">
      <path
         style="fill:none;stroke:#0a0a0a;stroke-width:0.75;stroke-miterlimit:10"
         inkscape:connector-curvature="0"
         stroke-miterlimit="10"
         d="m -125.5,-111.182 c 0,0.533 -0.529,0.965 -1.183,0.965 h -31.634 c -0.654,0 -1.183,-0.432 -1.183,-0.965 v -9.142 c 0,-0.531 0.529,-0.965 1.183,-0.965 h 31.634 c 0.654,0 1.183,0.434 1.183,0.965 z"
         id="path1376" />
      <text
         style="font-size:5.5px;font-family:MalgunGothicBold"
         transform="matrix(1.0393,0,0,1,-156.0537,-113.9873)"
         font-size="5.5"
         id="text1378">Select</text>
      <text
         style="font-size:4px;font-family:AdobeMyungjoStd-Medium-KSCpc-EUC-H"
         transform="matrix(0.8736,0,0,1,-133.3975,-114.1602)"
         font-size="4"
         id="text1380">▼</text>
      <path
         style="fill:none;stroke:#0a0a0a;stroke-width:0.75;stroke-miterlimit:10"
         inkscape:connector-curvature="0"
         stroke-miterlimit="10"
         d="m -126.297,-111.133 c 0,0.533 -0.15,0.965 -0.336,0.965 h -8.976 c -0.186,0 -0.336,-0.432 -0.336,-0.965 v -9.142 c 0,-0.531 0.15,-0.965 0.336,-0.965 h 8.976 c 0.186,0 0.336,0.434 0.336,0.965 z"
         id="path1382" />
    </g>
  </g>
</svg>
