<svg id="레이어_1" data-name="레이어 1" xmlns="http://www.w3.org/2000/svg" viewBox="0 0 123.9 74.2"><defs><style>.cls-1{fill:#fff;stroke:#0a0a0a;stroke-miterlimit:10;stroke-width:4.5px;}.cls-2{fill:none;stroke:#000;stroke-miterlimit:37.8;stroke-width:4px;}.cls-3,.cls-5{isolation:isolate;font-family:ArialMT, Arial;}.cls-3{font-size:14.96px;}.cls-4{letter-spacing:-0.11em;}.cls-5{font-size:15px;letter-spacing:-0.11em;}.cls-6{letter-spacing:0em;}</style></defs><path id="path7629" class="cls-1" d="M132.7,84.3c0,3-3.1,5.4-6.9,5.4H20.4c-3.9,0-7-2.4-7-5.4V47.1c0-3,3.1-5.4,7-5.4H125.8c3.8,0,6.9,2.4,6.9,5.4Z" transform="translate(-11.1 -17.8)"/><path id="path7631" class="cls-2" d="M13.4,37.3V25.6s-1.3-5.8,9.3-5.8H51.4s9,.4,9,5.6.3,9.8.3,9.8h0" transform="translate(-11.1 -17.8)"/><text id="text7633" class="cls-3" transform="translate(9.2 17.4) scale(1.1 1)"><tspan class="cls-4">T</tspan><tspan x="7.5" y="0">ab1</tspan></text><text id="text7635" class="cls-5" transform="translate(67.6 13) scale(1.1 1)">T<tspan class="cls-6" x="7.5" y="0">ab2</tspan></text><line id="line7637" class="cls-2" x1="47.5" y1="16.6" x2="123.1" y2="16.6"/></svg>