<svg id="레이어_1" data-name="레이어 1" xmlns="http://www.w3.org/2000/svg" viewBox="0 0 35.1 23.8"><defs><style>.cls-1,.cls-5,.cls-6{fill:none;stroke-width:2px;}.cls-1{stroke:#0a0a0a;stroke-miterlimit:10;}.cls-2{isolation:isolate;font-size:3.34px;font-family:Arial-BoldMT, Arial;font-weight:700;}.cls-3{letter-spacing:-0.07em;}.cls-4{letter-spacing:-0.07em;}.cls-5,.cls-6{stroke:#000;stroke-linecap:round;}.cls-5{stroke-linejoin:round;}.cls-6{stroke-miterlimit:37.8;}</style></defs><path id="path7629" class="cls-1" d="M41,36.2a1.8,1.8,0,0,1-1.9,1.5H9.8a1.7,1.7,0,0,1-1.9-1.5V25.9a1.7,1.7,0,0,1,1.9-1.5H39.1A1.8,1.8,0,0,1,41,25.9Z" transform="translate(-6.9 -14.9)"/><text id="text7633" class="cls-2" transform="translate(4.2 6.2) scale(1.04 1)"><tspan class="cls-3">T</tspan><tspan x="1.8" y="0">ab1</tspan></text><text id="text7633-2" data-name="text7633" class="cls-2" transform="translate(18.1 4.2) scale(1.04 1)"><tspan class="cls-4">T</tspan><tspan x="1.8" y="0">ab2</tspan></text><line id="line7637" class="cls-5" x1="14.7" y1="6.2" x2="34.1" y2="6.2"/><path class="cls-6" d="M7.9,21.1V16.6c0-.4.4-.7,1-.7H20.6c.5,0,1,.3,1,.7v4.5" transform="translate(-6.9 -14.9)"/></svg>