<svg id="레이어_1" data-name="레이어 1" xmlns="http://www.w3.org/2000/svg" xmlns:xlink="http://www.w3.org/1999/xlink" viewBox="0 0 214.7 130.7"><defs><style>.cls-1{fill:url(#무제_그라디언트_5);}.cls-2{fill:url(#무제_그라디언트_5-2);}.cls-3{fill:url(#무제_그라디언트_5-3);}.cls-4{fill:none;stroke:#666;stroke-miterlimit:10;}</style><linearGradient id="무제_그라디언트_5" x1="86.96" y1="20.14" x2="118.12" y2="20.14" gradientUnits="userSpaceOnUse"><stop offset="0" stop-color="#8d8c8d"/><stop offset="0.5" stop-color="#fbfafb"/><stop offset="1" stop-color="#8f8f91"/></linearGradient><linearGradient id="무제_그라디언트_5-2" x1="79.43" y1="5.04" x2="125.66" y2="5.04" xlink:href="#무제_그라디언트_5"/><linearGradient id="무제_그라디언트_5-3" x1="276.24" y1="300.25" x2="276.24" y2="192.81" xlink:href="#무제_그라디언트_5"/></defs><rect class="cls-1" x="87" y="10.1" width="31.2" height="20.14"/><rect class="cls-2" x="79.4" width="46.2" height="10.07"/><path class="cls-3" d="M383.6,242.5v8.1h-4.1c-.7,27.7-8.5,49.6-18,49.6H191c-9.5,0-17.4-21.9-18-49.6h-4.1v-8.1H173c.6-27.8,8.5-49.7,18-49.7H361.5c9.5,0,17.3,21.9,18,49.7Z" transform="translate(-168.9 -169.6)"/><line class="cls-4" x1="22.1" y1="23.2" x2="22.1" y2="130.7"/><line class="cls-4" x1="192.6" y1="23.2" x2="192.6" y2="130.7"/></svg>