<svg id="레이어_1" data-name="레이어 1" xmlns="http://www.w3.org/2000/svg" xmlns:xlink="http://www.w3.org/1999/xlink" viewBox="0 0 315.3 284.1"><defs><style>.cls-1{fill:url(#무제_그라디언트_13);}.cls-2{fill:url(#무제_그라디언트_13-2);}.cls-3{fill:url(#무제_그라디언트_13-3);}.cls-4{fill:url(#무제_그라디언트_13-4);}.cls-5{fill:url(#무제_그라디언트_13-5);}.cls-6{fill:url(#무제_그라디언트_13-6);}.cls-7{fill:url(#무제_그라디언트_13-7);}.cls-8{fill:url(#무제_그라디언트_13-8);}</style><linearGradient id="무제_그라디언트_13" x1="159.76" y1="-320.97" x2="51.41" y2="-320.97" gradientTransform="translate(45.8 404)" gradientUnits="userSpaceOnUse"><stop offset="0" stop-color="#545454"/><stop offset="0.53" stop-color="#c8c8c8"/><stop offset="1" stop-color="#3f3f3f"/></linearGradient><linearGradient id="무제_그라디언트_13-2" x1="-375.57" y1="-56.51" x2="-483.92" y2="-56.51" gradientTransform="translate(-278.4 142.5) rotate(180)" xlink:href="#무제_그라디언트_13"/><linearGradient id="무제_그라디언트_13-3" x1="199.75" y1="120.12" x2="92.5" y2="120.12" gradientTransform="translate(-30.3 286.9) rotate(-90)" xlink:href="#무제_그라디언트_13"/><linearGradient id="무제_그라디언트_13-4" x1="151.63" y1="-247.72" x2="151.63" y2="-380.65" gradientTransform="translate(98.3 421.2)" xlink:href="#무제_그라디언트_13"/><linearGradient id="무제_그라디언트_13-5" x1="397.11" y1="-247.72" x2="397.11" y2="-380.65" gradientTransform="translate(-147.2 666.7)" xlink:href="#무제_그라디언트_13"/><linearGradient id="무제_그라디언트_13-6" x1="451.65" y1="395" x2="451.65" y2="263.5" gradientTransform="translate(-432.1 -188.5)" xlink:href="#무제_그라디언트_13"/><linearGradient id="무제_그라디언트_13-7" x1="-215.47" y1="-520.5" x2="-322.72" y2="-520.5" gradientTransform="translate(-303.1 410.5) rotate(90)" xlink:href="#무제_그라디언트_13"/><linearGradient id="무제_그라디언트_13-8" x1="727.95" y1="397.92" x2="727.95" y2="266.42" gradientTransform="translate(-432.1 -188.5)" xlink:href="#무제_그라디언트_13"/></defs><polygon class="cls-1" points="205.5 106.4 151.3 141.4 97.2 106.4 97.2 24.5 205.5 24.5 205.5 106.4"/><polygon class="cls-2" points="97.2 175.7 151.3 140.7 205.5 175.7 205.5 257.3 97.2 257.3 97.2 175.7"/><polygon class="cls-3" points="97.2 87.1 151.3 140.7 97.2 194.4 28.2 194.4 28.2 87.1 97.2 87.1"/><rect class="cls-4" x="230.6" y="40.6" width="38.6" height="132.93" transform="translate(258.4 -230.6) rotate(90)"/><rect class="cls-5" x="230.6" y="286" width="38.6" height="132.93" transform="translate(503.8 14.9) rotate(90)"/><rect class="cls-6" y="75" width="39" height="131.5"/><polygon class="cls-7" points="205.5 195.1 151.3 141.4 205.5 87.8 283.5 87.8 283.5 195.1 205.5 195.1"/><rect class="cls-8" x="276.3" y="77.9" width="39" height="131.5"/></svg>