<svg id="레이어_1" data-name="레이어 1" xmlns="http://www.w3.org/2000/svg" viewBox="0 0 272 441.2"><defs><style>.cls-1{fill:#999;}.cls-1,.cls-10,.cls-2,.cls-3,.cls-4,.cls-5,.cls-6,.cls-7,.cls-8,.cls-9{stroke:#4d4d4d;stroke-miterlimit:10;}.cls-2{fill:#e6e6e6;}.cls-3{fill:#f2f2f2;}.cls-4,.cls-8{fill:none;}.cls-4{stroke-width:1.5px;}.cls-5{fill:blue;}.cls-6{fill:#666;}.cls-7{fill:#797979;}.cls-10{fill:#363636;}</style></defs><rect class="cls-1" x="66.4" y="119.8" width="142" height="193.66" rx="15.2"/><rect class="cls-2" x="80.1" y="134.5" width="114.4" height="164.35" rx="11.2"/><rect class="cls-1" x="88.5" y="63.4" width="97.8" height="83.67"/><rect class="cls-3" x="116.3" y="102.7" width="42.1" height="12.72"/><rect class="cls-1" x="73.2" y="48.6" width="128.2" height="14.88"/><rect class="cls-1" x="38" y="0.5" width="198.6" height="48.07"/><line class="cls-4" x1="137.3" y1="178.3" x2="137.3" y2="298.8"/><rect class="cls-5" x="121.7" y="147.1" width="31.3" height="40.44"/><rect class="cls-6" x="105.1" y="276.6" width="64.5" height="19.56"/><rect class="cls-1" x="88.5" y="297.7" width="97.8" height="83.67"/><rect class="cls-1" x="86.4" y="287.9" width="101.9" height="19.56"/><rect class="cls-1" x="163.5" y="401" width="168.1" height="15.02" transform="translate(384.9 793.1) rotate(180)"/><rect class="cls-1" x="148.2" y="416" width="198.6" height="48.52" transform="translate(384.9 856.6) rotate(180)"/><rect class="cls-7" x="39" y="351.4" width="24.5" height="12.46"/><rect class="cls-7" x="82.1" y="351.4" width="24.5" height="12.46"/><rect class="cls-7" x="125.1" y="351.4" width="24.5" height="12.46"/><rect class="cls-7" x="168.1" y="351.4" width="24.5" height="12.46"/><rect class="cls-7" x="211.2" y="351.4" width="24.5" height="12.46"/><rect class="cls-1" x="37.2" y="361.3" width="200.3" height="19.02"/><line class="cls-8" x1="37.2" y1="361.3" x2="237.5" y2="361.3"/><rect class="cls-9" x="6.5" y="11.9" width="14" height="10.76"/><rect class="cls-9" x="47.1" y="11.9" width="14" height="10.76"/><rect class="cls-9" x="87.7" y="11.9" width="14" height="10.76"/><rect class="cls-9" x="128.3" y="11.9" width="14" height="10.76"/><rect class="cls-9" x="168.9" y="11.9" width="14" height="10.76"/><rect class="cls-9" x="209.5" y="11.9" width="14" height="10.76"/><rect class="cls-9" x="250.1" y="11.9" width="14" height="10.76"/><rect class="cls-10" x="0.5" y="18.2" width="271" height="14.67"/><line class="cls-8" x1="101.7" y1="249.6" x2="175.9" y2="249.6"/><rect class="cls-5" x="116.3" y="229.2" width="42.1" height="28.78"/></svg>