<svg id="레이어_1" data-name="레이어 1" xmlns="http://www.w3.org/2000/svg" xmlns:xlink="http://www.w3.org/1999/xlink" viewBox="0 0 300.4 356.4"><defs><style>.cls-1,.cls-2,.cls-3,.cls-6{stroke:#999;}.cls-1,.cls-2,.cls-3,.cls-4,.cls-6{stroke-miterlimit:10;}.cls-1{fill:url(#무제_그라디언트_9);}.cls-2{fill:url(#무제_그라디언트_9-2);}.cls-3{fill:url(#무제_그라디언트_5);}.cls-4{fill:#fff;stroke:#000;}.cls-5{fill:url(#무제_그라디언트_21);}.cls-6{fill:#b9bec3;}</style><linearGradient id="무제_그라디언트_9" x1="185.11" y1="424.81" x2="111.34" y2="374.13" gradientUnits="userSpaceOnUse"><stop offset="0" stop-color="#f2f2f2"/><stop offset="0.47" stop-color="#aab0b4"/><stop offset="1" stop-color="#e6e6e6"/></linearGradient><linearGradient id="무제_그라디언트_9-2" x1="186.06" y1="424.81" x2="112.29" y2="374.13" gradientTransform="matrix(-1, 0, 0, 1, 500.27, 0)" xlink:href="#무제_그라디언트_9"/><linearGradient id="무제_그라디언트_5" x1="125.64" y1="182.84" x2="384.92" y2="332.56" gradientUnits="userSpaceOnUse"><stop offset="0" stop-color="#c5c5c5"/><stop offset="1" stop-color="#a09fa1"/></linearGradient><linearGradient id="무제_그라디언트_21" x1="250" y1="268.44" x2="250" y2="222.6" gradientUnits="userSpaceOnUse"><stop offset="0.24" stop-color="#fff" stop-opacity="0"/><stop offset="0.36" stop-color="#fff" stop-opacity="0.02"/><stop offset="0.5" stop-color="#fff" stop-opacity="0.07"/><stop offset="0.65" stop-color="#fff" stop-opacity="0.16"/><stop offset="0.8" stop-color="#fff" stop-opacity="0.29"/><stop offset="0.96" stop-color="#fff" stop-opacity="0.45"/><stop offset="1" stop-color="#fff" stop-opacity="0.5"/></linearGradient></defs><path class="cls-1" d="M178.1,388.2c-11.5,24.9-29,41.2-39.2,36.5s-9.2-28.7,2.3-53.5" transform="translate(-99.6 -69.6)"/><path class="cls-2" d="M321.2,388.2c11.5,24.9,29,41.2,39.2,36.5s9.2-28.7-2.2-53.5" transform="translate(-99.6 -69.6)"/><path class="cls-3" d="M399.4,267.3A149.7,149.7,0,0,1,249.7,417c-82.6,0-149.6-67.1-149.6-149.7A149.6,149.6,0,0,1,214.5,121.8V86.2h65.2v34.4A149.8,149.8,0,0,1,399.4,267.3Z" transform="translate(-99.6 -69.6)"/><circle class="cls-4" cx="150.2" cy="198.8" r="90.9"/><ellipse cx="150.2" cy="198.8" rx="46.1" ry="45.8"/><path class="cls-5" d="M296.1,268.4a46.1,46.1,0,0,0-92.2,0" transform="translate(-99.6 -69.6)"/><rect class="cls-6" x="83.4" y="0.5" width="133.6" height="23.38"/></svg>