<svg id="레이어_1" data-name="레이어 1" xmlns="http://www.w3.org/2000/svg" xmlns:xlink="http://www.w3.org/1999/xlink" viewBox="0 0 179.5 171.4"><defs><style>.cls-1,.cls-2,.cls-3,.cls-5,.cls-6,.cls-7,.cls-8{stroke:#000;stroke-miterlimit:10;}.cls-1{fill:url(#무제_그라디언트_19);}.cls-2{fill:url(#무제_그라디언트_12);}.cls-3{fill:#efefef;}.cls-4{fill:#666;}.cls-5{fill:#ccc;}.cls-6{stroke-width:2px;}.cls-7{fill:#3f3f3f;}.cls-8{fill:url(#무제_그라디언트_27);}</style><linearGradient id="무제_그라디언트_19" x1="138.64" y1="58.72" x2="178.97" y2="58.72" gradientUnits="userSpaceOnUse"><stop offset="0.02" stop-color="#88b9bb"/><stop offset="0.57" stop-color="#bff"/><stop offset="0.65" stop-color="#b6f9f9"/><stop offset="0.76" stop-color="#a8e7e8"/><stop offset="0.9" stop-color="#91c9cb"/><stop offset="1" stop-color="#7baeb1"/></linearGradient><radialGradient id="무제_그라디언트_12" cx="88.42" cy="90.51" r="82.03" gradientUnits="userSpaceOnUse"><stop offset="0.57" stop-color="#bff"/><stop offset="0.65" stop-color="#b6f9f9"/><stop offset="0.76" stop-color="#a8e7e8"/><stop offset="0.9" stop-color="#91c9cb"/><stop offset="1" stop-color="#7baeb1"/></radialGradient><linearGradient id="무제_그라디언트_27" x1="-60.98" y1="396.44" x2="-60.98" y2="312.67" gradientTransform="translate(309.3 -26.4)" gradientUnits="userSpaceOnUse"><stop offset="0" stop-color="#545454"/><stop offset="0.53" stop-color="#c8c8c8"/><stop offset="1" stop-color="#3f3f3f"/></linearGradient></defs><polygon class="cls-1" points="175.1 104.1 150.1 87.7 138.6 116.9 140.9 0.5 179 0.5 175.1 104.1"/><ellipse class="cls-2" cx="88.4" cy="90.5" rx="87.9" ry="75.7"/><circle class="cls-3" cx="88.4" cy="90.5" r="52.5"/><circle class="cls-4" cx="88.4" cy="90.5" r="48.3"/><circle class="cls-5" cx="88.4" cy="90.5" r="34.1"/><line class="cls-6" x1="88.4" y1="83.4" x2="88.4" y2="56.4"/><line class="cls-6" x1="83.4" y1="85.5" x2="64.3" y2="66.4"/><line class="cls-6" x1="81.4" y1="90.5" x2="54.3" y2="90.5"/><line class="cls-6" x1="83.4" y1="95.5" x2="64.3" y2="114.6"/><line class="cls-6" x1="88.4" y1="97.6" x2="88.4" y2="124.6"/><line class="cls-6" x1="93.4" y1="95.5" x2="112.5" y2="114.6"/><line class="cls-6" x1="95.5" y1="90.5" x2="122.5" y2="90.5"/><line class="cls-6" x1="93.4" y1="85.5" x2="112.5" y2="66.4"/><circle class="cls-7" cx="88.4" cy="90.5" r="10.1"/><rect class="cls-8" x="241.8" y="286.3" width="13.1" height="83.77" transform="translate(416.6 -84) rotate(90)"/></svg>