<svg id="레이어_1" data-name="레이어 1" xmlns="http://www.w3.org/2000/svg" xmlns:xlink="http://www.w3.org/1999/xlink" viewBox="0 0 256.6 256.6"><defs><style>.cls-1{fill:#fcfafb;stroke:#e6e6e6;stroke-miterlimit:10;}.cls-2{fill:#f40f36;opacity:0.8;}.cls-3{fill:#f70f1a;}.cls-4{fill:#d40000;}.cls-5{fill:#bd0000;}.cls-6{opacity:0.7;fill:url(#무제_그라디언트_71);}</style><linearGradient id="무제_그라디언트_71" x1="226.64" y1="157.57" x2="226.64" y2="196.6" gradientUnits="userSpaceOnUse"><stop offset="0" stop-color="#ff69b0"/><stop offset="0.07" stop-color="#ff5fa8" stop-opacity="0.9"/><stop offset="0.27" stop-color="#ff4292" stop-opacity="0.63"/><stop offset="0.46" stop-color="#ff2b7f" stop-opacity="0.41"/><stop offset="0.63" stop-color="#ff1870" stop-opacity="0.23"/><stop offset="0.78" stop-color="#ff0b66" stop-opacity="0.1"/><stop offset="0.91" stop-color="#ff035f" stop-opacity="0.03"/><stop offset="1" stop-color="#ff005d" stop-opacity="0"/></linearGradient></defs><polygon class="cls-1" points="166.2 0.5 90.4 0.5 0.5 90.4 0.5 166.2 90.4 256.1 166.2 256.1 256.1 166.2 256.1 90.4 166.2 0.5"/><circle class="cls-2" cx="128.3" cy="128.3" r="99.5"/><circle class="cls-3" cx="128.3" cy="128.3" r="92"/><circle class="cls-4" cx="128.3" cy="128.3" r="78.4"/><ellipse class="cls-5" cx="128.3" cy="128.3" rx="68.5" ry="68.1"/><ellipse class="cls-4" cx="128.3" cy="128.3" rx="60.4" ry="60.1"/><ellipse class="cls-5" cx="128.3" cy="128.3" rx="53.9" ry="53.6"/><ellipse class="cls-4" cx="128.3" cy="128.3" rx="42" ry="41.8"/><circle class="cls-5" cx="128.3" cy="128.3" r="33.2"/><circle class="cls-3" cx="128.3" cy="128.3" r="26.1"/><circle class="cls-5" cx="128.3" cy="128.3" r="20.4"/><circle class="cls-3" cx="128.3" cy="128.3" r="16.6"/><circle class="cls-5" cx="128.3" cy="128.3" r="7.1"/><path class="cls-5" d="M226.6,325.3" transform="translate(-98.4 -97.5)"/><path class="cls-5" d="M226.6,225.8" transform="translate(-98.4 -97.5)"/><path class="cls-5" d="M321.3,256.5" transform="translate(-98.4 -97.5)"/><path class="cls-5" d="M226.6,225.8" transform="translate(-98.4 -97.5)"/><path class="cls-5" d="M285.2,145.3" transform="translate(-98.4 -97.5)"/><path class="cls-5" d="M226.6,225.8" transform="translate(-98.4 -97.5)"/><path class="cls-5" d="M168.1,145.3" transform="translate(-98.4 -97.5)"/><path class="cls-5" d="M226.6,225.8" transform="translate(-98.4 -97.5)"/><path class="cls-5" d="M132,256.5" transform="translate(-98.4 -97.5)"/><path class="cls-5" d="M226.6,225.8" transform="translate(-98.4 -97.5)"/><path class="cls-6" d="M288.6,196.6H164.7c22-42.4,62-38.9,62-38.9C270,155,288.6,196.6,288.6,196.6Z" transform="translate(-98.4 -97.5)"/></svg>