<svg id="레이어_1" data-name="레이어 1" xmlns="http://www.w3.org/2000/svg" xmlns:xlink="http://www.w3.org/1999/xlink" viewBox="0 0 256.6 256.6"><defs><style>.cls-1{fill:#b3b3b3;stroke:#e6e6e6;stroke-miterlimit:10;}.cls-2{fill:#fff;opacity:0.5;}.cls-3{fill:#858585;}.cls-4{fill:#636363;}.cls-5{fill:#545454;}.cls-6{opacity:0.7;fill:url(#무제_그라디언트_2);}</style><linearGradient id="무제_그라디언트_2" x1="253.99" y1="181.29" x2="253.99" y2="220.32" gradientUnits="userSpaceOnUse"><stop offset="0" stop-color="#fff"/><stop offset="0.07" stop-color="#f7f7f7" stop-opacity="0.9"/><stop offset="0.27" stop-color="#dfdfdf" stop-opacity="0.63"/><stop offset="0.46" stop-color="#cbcbcb" stop-opacity="0.41"/><stop offset="0.63" stop-color="#bcbcbc" stop-opacity="0.23"/><stop offset="0.78" stop-color="#b1b1b1" stop-opacity="0.1"/><stop offset="0.91" stop-color="#aaa" stop-opacity="0.03"/><stop offset="1" stop-color="#a8a8a8" stop-opacity="0"/></linearGradient></defs><polygon class="cls-1" points="166.2 0.5 90.4 0.5 0.5 90.4 0.5 166.2 90.4 256.1 166.2 256.1 256.1 166.2 256.1 90.4 166.2 0.5"/><circle class="cls-2" cx="128.3" cy="128.3" r="99.5"/><circle class="cls-3" cx="128.3" cy="128.3" r="92"/><circle class="cls-4" cx="128.3" cy="128.3" r="78.4"/><ellipse class="cls-5" cx="128.3" cy="128.3" rx="68.5" ry="68.1"/><ellipse class="cls-4" cx="128.3" cy="128.3" rx="60.4" ry="60.1"/><ellipse class="cls-5" cx="128.3" cy="128.3" rx="53.9" ry="53.6"/><ellipse class="cls-4" cx="128.3" cy="128.3" rx="42" ry="41.8"/><circle class="cls-5" cx="128.3" cy="128.3" r="33.2"/><circle class="cls-3" cx="128.3" cy="128.3" r="26.1"/><circle class="cls-5" cx="128.3" cy="128.3" r="20.4"/><circle class="cls-3" cx="128.3" cy="128.3" r="16.6"/><circle class="cls-5" cx="128.3" cy="128.3" r="7.1"/><path class="cls-5" d="M254,349" transform="translate(-125.7 -121.2)"/><path class="cls-5" d="M254,249.5" transform="translate(-125.7 -121.2)"/><path class="cls-5" d="M348.7,280.3" transform="translate(-125.7 -121.2)"/><path class="cls-5" d="M254,249.5" transform="translate(-125.7 -121.2)"/><path class="cls-5" d="M312.5,169" transform="translate(-125.7 -121.2)"/><path class="cls-5" d="M254,249.5" transform="translate(-125.7 -121.2)"/><path class="cls-5" d="M195.5,169" transform="translate(-125.7 -121.2)"/><path class="cls-5" d="M254,249.5" transform="translate(-125.7 -121.2)"/><path class="cls-5" d="M159.3,280.3" transform="translate(-125.7 -121.2)"/><path class="cls-5" d="M254,249.5" transform="translate(-125.7 -121.2)"/><path class="cls-6" d="M315.9,220.3H192.1c22-42.4,61.9-38.9,61.9-38.9C297.3,178.7,315.9,220.3,315.9,220.3Z" transform="translate(-125.7 -121.2)"/></svg>