<svg id="레이어_1" data-name="레이어 1" xmlns="http://www.w3.org/2000/svg" xmlns:xlink="http://www.w3.org/1999/xlink" viewBox="0 0 313 373.6"><defs><style>.cls-1,.cls-2,.cls-4{stroke:#999;stroke-width:0.5px;}.cls-1,.cls-2,.cls-4,.cls-6{stroke-miterlimit:10;}.cls-1{fill:url(#무제_그라디언트_2);}.cls-2{fill:url(#무제_그라디언트_2-2);}.cls-3{fill:url(#무제_그라디언트_3);}.cls-4{fill:url(#무제_그라디언트_2-3);}.cls-5,.cls-8{fill:#6a6e71;}.cls-6{fill:none;stroke:#c9d0d5;stroke-width:10px;}.cls-7{fill:#1e1b38;}.cls-8{opacity:0.5;}</style><linearGradient id="무제_그라디언트_2" x1="104.02" y1="131.88" x2="-16.16" y2="48.53" gradientUnits="userSpaceOnUse"><stop offset="0" stop-color="#cfd4d9"/><stop offset="0.5" stop-color="#f3f9fc"/></linearGradient><linearGradient id="무제_그라디언트_2-2" x1="250.78" y1="131.92" x2="130.7" y2="48.65" xlink:href="#무제_그라디언트_2"/><linearGradient id="무제_그라디언트_3" x1="190.58" y1="282.65" x2="56.59" y2="189.73" xlink:href="#무제_그라디언트_2"/><linearGradient id="무제_그라디언트_2-3" x1="198.13" y1="343.6" x2="34.45" y2="230.08" xlink:href="#무제_그라디언트_2"/></defs><polygon class="cls-1" points="156.5 9.6 9.6 9.6 9.6 52.2 64.2 263 101.8 263 156.5 52.2 156.5 9.6"/><polygon class="cls-2" points="303.1 9.6 156.5 9.6 156.5 52.2 211.1 263 248.6 263 303.1 52.2 303.1 9.6"/><rect class="cls-3" x="9.9" y="255.1" width="293.3" height="7.96"/><rect class="cls-4" x="9.9" y="263" width="293.3" height="103.46"/><rect class="cls-5" x="73.3" y="272.7" width="20.6" height="7.51"/><rect class="cls-5" x="219.2" y="272.7" width="20.6" height="7.51"/><circle cx="16.9" cy="270.2" r="2.5"/><circle cx="16.9" cy="308.2" r="2.5"/><circle cx="16.9" cy="346.2" r="2.5"/><circle cx="296.2" cy="346.2" r="2.5"/><circle cx="296.2" cy="308.2" r="2.5"/><circle cx="296.2" cy="270.2" r="2.5"/><rect class="cls-6" x="5" y="5" width="303" height="363.64"/><rect class="cls-7" x="9.9" y="353.4" width="293.3" height="19.9"/><rect class="cls-8" x="73.3" y="353.4" width="20.6" height="7.51"/><rect class="cls-8" x="219.2" y="353.4" width="20.6" height="7.51"/></svg>