<svg id="레이어_1" data-name="레이어 1" xmlns="http://www.w3.org/2000/svg" xmlns:xlink="http://www.w3.org/1999/xlink" viewBox="0 0 213.9 281.9"><defs><style>.cls-1{fill:#666;}.cls-1,.cls-2,.cls-3,.cls-4,.cls-5,.cls-6,.cls-7,.cls-8{stroke:#000;stroke-miterlimit:10;}.cls-2{fill:url(#무제_그라디언트_10);}.cls-3{fill:url(#무제_그라디언트_10-2);}.cls-4{fill:none;}.cls-5{fill:url(#무제_그라디언트_10-3);}.cls-6{fill:url(#무제_그라디언트_10-4);}.cls-7{fill:url(#무제_그라디언트_3);}.cls-8{fill:url(#무제_그라디언트_7);}</style><linearGradient id="무제_그라디언트_10" x1="13.45" y1="233.23" x2="37.1" y2="233.23" gradientUnits="userSpaceOnUse"><stop offset="0" stop-color="#c8c8c8"/><stop offset="1" stop-color="#545454"/></linearGradient><linearGradient id="무제_그라디언트_10-2" x1="7.25" y1="277.44" x2="43.29" y2="277.44" xlink:href="#무제_그라디언트_10"/><linearGradient id="무제_그라디언트_10-3" x1="176.22" y1="233.23" x2="199.87" y2="233.23" xlink:href="#무제_그라디언트_10"/><linearGradient id="무제_그라디언트_10-4" x1="170.02" y1="277.44" x2="206.06" y2="277.44" xlink:href="#무제_그라디언트_10"/><linearGradient id="무제_그라디언트_3" x1="146.7" y1="181.8" x2="359.56" y2="181.8" gradientUnits="userSpaceOnUse"><stop offset="0" stop-color="#c8c8c8"/><stop offset="1" stop-color="#3f3f3f"/></linearGradient><linearGradient id="무제_그라디언트_7" x1="168.38" y1="148.69" x2="337.88" y2="148.69" gradientUnits="userSpaceOnUse"><stop offset="0" stop-color="#7e7e7e"/><stop offset="0.51" stop-color="#3a3a3a"/><stop offset="1" stop-color="#7a7a7a"/></linearGradient></defs><polygon class="cls-1" points="74.8 254.2 74.8 263.3 46.1 263.3 46.1 254.2 50.6 254.2 50.6 179.9 70.3 179.9 70.3 254.2 74.8 254.2"/><rect class="cls-2" x="13.4" y="189" width="23.7" height="88.41"/><rect class="cls-3" x="7.3" y="273.5" width="36" height="7.88"/><line class="cls-4" x1="25.3" y1="189" x2="25.3" y2="273.5"/><line class="cls-4" x1="19.1" y1="189" x2="19.1" y2="273.5"/><line class="cls-4" x1="31.5" y1="189" x2="31.5" y2="273.5"/><rect class="cls-5" x="176.2" y="189" width="23.7" height="88.41"/><rect class="cls-6" x="170" y="273.5" width="36" height="7.88"/><line class="cls-4" x1="188" y1="189" x2="188" y2="273.5"/><line class="cls-4" x1="181.8" y1="189" x2="181.8" y2="273.5"/><line class="cls-4" x1="194.2" y1="189" x2="194.2" y2="273.5"/><polygon class="cls-1" points="167.7 254.2 167.7 263.3 139 263.3 139 254.2 143.5 254.2 143.5 179.9 163.3 179.9 163.3 254.2 167.7 254.2"/><path class="cls-7" d="M359.6,66.9V238L253.1,308.7,146.7,238V66.9a12,12,0,0,1,12-12H347.6A12,12,0,0,1,359.6,66.9Z" transform="translate(-146.2 -54.4)"/><path class="cls-8" d="M256,58.8s67.9-2.9,77.3,43.9c0,0,7.7-1.9-3.4,32.5,0,0-10.3,17.2,6,46.8,0,0,9.4,44-12.9,50.7,0,0-42.1-5.7-67,0,0,0-23.1,13.4-59.2,0,0,0-36.9-15.3-26.6-41.1,0,0,6,9.6,3.4-35.4,0,0-1.7-13.3,3.5-25.8a128.6,128.6,0,0,0-2.6-41.1s4.3-25.8,26.6-26.7C201.1,62.6,242.3,72.1,256,58.8Z" transform="translate(-146.2 -54.4)"/></svg>