<svg id="레이어_1" data-name="레이어 1" xmlns="http://www.w3.org/2000/svg" viewBox="0 0 437.1 140.7"><defs><style>.cls-1,.cls-2{fill:none;stroke:#000;stroke-miterlimit:10;}.cls-1{stroke-width:7px;}.cls-2{stroke-width:3px;}</style></defs><line class="cls-1" x1="2.5" y1="89.6" x2="50.8" y2="137.9"/><line class="cls-2" x1="16.5" y1="76.4" x2="61.7" y2="127.7"/><line class="cls-2" x1="31.2" y1="64.2" x2="73.1" y2="118.2"/><line class="cls-2" x1="46.8" y1="52.9" x2="85.2" y2="109.4"/><line class="cls-2" x1="63" y1="42.6" x2="97.8" y2="101.4"/><line class="cls-1" x1="79.8" y1="33.3" x2="110.8" y2="94.2"/><line class="cls-2" x1="97.2" y1="25.1" x2="124.3" y2="87.8"/><line class="cls-2" x1="115" y1="18" x2="138.2" y2="82.3"/><line class="cls-2" x1="133.3" y1="12.1" x2="152.3" y2="77.7"/><line class="cls-2" x1="151.9" y1="7.3" x2="166.8" y2="74"/><line class="cls-1" x1="170.7" y1="3.7" x2="181.4" y2="71.2"/><line class="cls-2" x1="189.8" y1="1.3" x2="196.2" y2="69.3"/><line class="cls-2" x1="208.9" y1="0.1" x2="211.1" y2="68.4"/><line class="cls-2" x1="228.1" x2="226" y2="68.4"/><line class="cls-2" x1="247.3" y1="1.2" x2="240.8" y2="69.3"/><line class="cls-1" x1="266.3" y1="3.6" x2="255.6" y2="71.1"/><line class="cls-2" x1="285.2" y1="7.2" x2="270.3" y2="73.9"/><line class="cls-2" x1="303.8" y1="12" x2="284.7" y2="77.6"/><line class="cls-2" x1="322.1" y1="17.9" x2="298.9" y2="82.2"/><line class="cls-2" x1="339.9" y1="25" x2="312.8" y2="87.7"/><line class="cls-1" x1="357.3" y1="33.1" x2="326.3" y2="94"/><line class="cls-2" x1="374.1" y1="42.4" x2="339.3" y2="101.2"/><line class="cls-2" x1="390.3" y1="52.6" x2="351.9" y2="109.2"/><line class="cls-2" x1="405.9" y1="63.9" x2="364" y2="117.9"/><line class="cls-2" x1="420.7" y1="76.1" x2="375.5" y2="127.4"/><line class="cls-1" x1="434.7" y1="89.9" x2="386.3" y2="138.2"/></svg>