<svg id="레이어_1" data-name="레이어 1" xmlns="http://www.w3.org/2000/svg" xmlns:xlink="http://www.w3.org/1999/xlink" viewBox="0 0 241.8 389.2"><defs><style>.cls-1,.cls-2{stroke:#fff;stroke-miterlimit:10;}.cls-2{fill:none;}.cls-3{fill:#a5a9ad;}.cls-4{fill:#499b65;}.cls-5{fill:#38884a;}.cls-6{opacity:0.7;fill:url(#무제_그라디언트_12);}.cls-7{fill:#fff;}</style><linearGradient id="무제_그라디언트_12" x1="98.18" y1="334.34" x2="141.95" y2="290.57" gradientUnits="userSpaceOnUse"><stop offset="0" stop-color="#fff" stop-opacity="0"/><stop offset="1" stop-color="#fff" stop-opacity="0.55"/></linearGradient></defs><rect class="cls-1" x="13.8" y="0.5" width="214.2" height="212.33"/><line class="cls-1" x1="13.8" y1="209" x2="228" y2="209"/><line class="cls-1" x1="13.8" y1="205.1" x2="228" y2="205.1"/><line class="cls-1" x1="13.8" y1="201.2" x2="228" y2="201.2"/><line class="cls-1" x1="13.8" y1="197.4" x2="228" y2="197.4"/><line class="cls-1" x1="13.8" y1="193.5" x2="228" y2="193.5"/><line class="cls-1" x1="13.8" y1="189.7" x2="228" y2="189.7"/><line class="cls-1" x1="13.8" y1="185.8" x2="228" y2="185.8"/><line class="cls-1" x1="13.8" y1="181.9" x2="228" y2="181.9"/><line class="cls-1" x1="13.8" y1="178.1" x2="228" y2="178.1"/><line class="cls-1" x1="13.8" y1="174.2" x2="228" y2="174.2"/><line class="cls-1" x1="13.8" y1="170.4" x2="228" y2="170.4"/><line class="cls-1" x1="13.8" y1="166.5" x2="228" y2="166.5"/><line class="cls-1" x1="13.8" y1="162.6" x2="228" y2="162.6"/><line class="cls-1" x1="13.8" y1="158.8" x2="228" y2="158.8"/><line class="cls-1" x1="13.8" y1="154.9" x2="228" y2="154.9"/><line class="cls-1" x1="13.8" y1="151.1" x2="228" y2="151.1"/><line class="cls-1" x1="13.8" y1="147.2" x2="228" y2="147.2"/><line class="cls-1" x1="13.8" y1="143.3" x2="228" y2="143.3"/><line class="cls-1" x1="13.8" y1="139.5" x2="228" y2="139.5"/><line class="cls-1" x1="13.8" y1="135.6" x2="228" y2="135.6"/><line class="cls-1" x1="13.8" y1="131.8" x2="228" y2="131.8"/><line class="cls-1" x1="13.8" y1="127.9" x2="228" y2="127.9"/><line class="cls-1" x1="13.8" y1="124" x2="228" y2="124"/><line class="cls-1" x1="13.8" y1="120.2" x2="228" y2="120.2"/><line class="cls-1" x1="13.8" y1="116.3" x2="228" y2="116.3"/><line class="cls-1" x1="13.8" y1="112.5" x2="228" y2="112.5"/><line class="cls-1" x1="13.8" y1="108.6" x2="228" y2="108.6"/><line class="cls-1" x1="13.8" y1="104.7" x2="228" y2="104.7"/><line class="cls-1" x1="13.8" y1="100.9" x2="228" y2="100.9"/><line class="cls-1" x1="13.8" y1="97" x2="228" y2="97"/><line class="cls-1" x1="13.8" y1="93.2" x2="228" y2="93.2"/><line class="cls-1" x1="13.8" y1="89.3" x2="228" y2="89.3"/><line class="cls-1" x1="13.8" y1="85.4" x2="228" y2="85.4"/><line class="cls-1" x1="13.8" y1="81.6" x2="228" y2="81.6"/><line class="cls-1" x1="13.8" y1="77.7" x2="228" y2="77.7"/><line class="cls-1" x1="13.8" y1="73.9" x2="228" y2="73.9"/><line class="cls-1" x1="13.8" y1="70" x2="228" y2="70"/><line class="cls-1" x1="13.8" y1="66.1" x2="228" y2="66.1"/><line class="cls-1" x1="13.8" y1="62.3" x2="228" y2="62.3"/><line class="cls-1" x1="13.8" y1="58.4" x2="228" y2="58.4"/><line class="cls-1" x1="13.8" y1="54.5" x2="228" y2="54.5"/><line class="cls-1" x1="13.8" y1="50.7" x2="228" y2="50.7"/><line class="cls-1" x1="13.8" y1="46.8" x2="228" y2="46.8"/><line class="cls-1" x1="13.8" y1="43" x2="228" y2="43"/><line class="cls-1" x1="13.8" y1="39.1" x2="228" y2="39.1"/><line class="cls-1" x1="13.8" y1="35.2" x2="228" y2="35.2"/><line class="cls-1" x1="13.8" y1="31.4" x2="228" y2="31.4"/><line class="cls-1" x1="13.8" y1="27.5" x2="228" y2="27.5"/><line class="cls-1" x1="13.8" y1="23.7" x2="228" y2="23.7"/><line class="cls-1" x1="13.8" y1="19.8" x2="228" y2="19.8"/><line class="cls-1" x1="13.8" y1="15.9" x2="228" y2="15.9"/><line class="cls-1" x1="13.8" y1="12.1" x2="228" y2="12.1"/><line class="cls-1" x1="13.8" y1="8.2" x2="228" y2="8.2"/><line class="cls-1" x1="13.8" y1="4.4" x2="228" y2="4.4"/><line class="cls-1" x1="224.6" y1="0.5" x2="224.6" y2="212.8"/><line class="cls-1" x1="221.2" y1="0.5" x2="221.2" y2="212.8"/><line class="cls-1" x1="217.8" y1="0.5" x2="217.8" y2="212.8"/><line class="cls-1" x1="214.4" y1="0.5" x2="214.4" y2="212.8"/><line class="cls-1" x1="211" y1="0.5" x2="211" y2="212.8"/><line class="cls-1" x1="207.6" y1="0.5" x2="207.6" y2="212.8"/><line class="cls-1" x1="204.2" y1="0.5" x2="204.2" y2="212.8"/><line class="cls-1" x1="200.8" y1="0.5" x2="200.8" y2="212.8"/><line class="cls-1" x1="197.4" y1="0.5" x2="197.4" y2="212.8"/><line class="cls-1" x1="194" y1="0.5" x2="194" y2="212.8"/><line class="cls-1" x1="190.6" y1="0.5" x2="190.6" y2="212.8"/><line class="cls-1" x1="187.2" y1="0.5" x2="187.2" y2="212.8"/><line class="cls-1" x1="183.8" y1="0.5" x2="183.8" y2="212.8"/><line class="cls-1" x1="180.4" y1="0.5" x2="180.4" y2="212.8"/><line class="cls-1" x1="177" y1="0.5" x2="177" y2="212.8"/><line class="cls-1" x1="173.6" y1="0.5" x2="173.6" y2="212.8"/><line class="cls-1" x1="170.2" y1="0.5" x2="170.2" y2="212.8"/><line class="cls-1" x1="166.8" y1="0.5" x2="166.8" y2="212.8"/><line class="cls-1" x1="163.4" y1="0.5" x2="163.4" y2="212.8"/><line class="cls-1" x1="160" y1="0.5" x2="160" y2="212.8"/><line class="cls-1" x1="156.6" y1="0.5" x2="156.6" y2="212.8"/><line class="cls-1" x1="153.2" y1="0.5" x2="153.2" y2="212.8"/><line class="cls-1" x1="149.8" y1="0.5" x2="149.8" y2="212.8"/><line class="cls-1" x1="146.4" y1="0.5" x2="146.4" y2="212.8"/><line class="cls-1" x1="143" y1="0.5" x2="143" y2="212.8"/><line class="cls-1" x1="139.6" y1="0.5" x2="139.6" y2="212.8"/><line class="cls-1" x1="136.2" y1="0.5" x2="136.2" y2="212.8"/><line class="cls-1" x1="132.8" y1="0.5" x2="132.8" y2="212.8"/><line class="cls-1" x1="129.4" y1="0.5" x2="129.4" y2="212.8"/><line class="cls-1" x1="126" y1="0.5" x2="126" y2="212.8"/><line class="cls-1" x1="122.6" y1="0.5" x2="122.6" y2="212.8"/><line class="cls-1" x1="119.2" y1="0.5" x2="119.2" y2="212.8"/><line class="cls-1" x1="115.8" y1="0.5" x2="115.8" y2="212.8"/><line class="cls-1" x1="112.4" y1="0.5" x2="112.4" y2="212.8"/><line class="cls-1" x1="109" y1="0.5" x2="109" y2="212.8"/><line class="cls-1" x1="105.6" y1="0.5" x2="105.6" y2="212.8"/><line class="cls-1" x1="102.2" y1="0.5" x2="102.2" y2="212.8"/><line class="cls-1" x1="98.8" y1="0.5" x2="98.8" y2="212.8"/><line class="cls-1" x1="95.4" y1="0.5" x2="95.4" y2="212.8"/><line class="cls-1" x1="92" y1="0.5" x2="92" y2="212.8"/><line class="cls-1" x1="88.6" y1="0.5" x2="88.6" y2="212.8"/><line class="cls-1" x1="85.2" y1="0.5" x2="85.2" y2="212.8"/><line class="cls-1" x1="81.8" y1="0.5" x2="81.8" y2="212.8"/><line class="cls-1" x1="78.4" y1="0.5" x2="78.4" y2="212.8"/><line class="cls-1" x1="75" y1="0.5" x2="75" y2="212.8"/><line class="cls-1" x1="71.6" y1="0.5" x2="71.6" y2="212.8"/><line class="cls-1" x1="68.2" y1="0.5" x2="68.2" y2="212.8"/><line class="cls-1" x1="64.8" y1="0.5" x2="64.8" y2="212.8"/><line class="cls-1" x1="61.4" y1="0.5" x2="61.4" y2="212.8"/><line class="cls-1" x1="58" y1="0.5" x2="58" y2="212.8"/><line class="cls-1" x1="54.6" y1="0.5" x2="54.6" y2="212.8"/><line class="cls-1" x1="51.2" y1="0.5" x2="51.2" y2="212.8"/><line class="cls-1" x1="47.8" y1="0.5" x2="47.8" y2="212.8"/><line class="cls-1" x1="44.4" y1="0.5" x2="44.4" y2="212.8"/><line class="cls-1" x1="41" y1="0.5" x2="41" y2="212.8"/><line class="cls-1" x1="37.6" y1="0.5" x2="37.6" y2="212.8"/><line class="cls-1" x1="34.2" y1="0.5" x2="34.2" y2="212.8"/><line class="cls-1" x1="30.8" y1="0.5" x2="30.8" y2="212.8"/><line class="cls-1" x1="27.4" y1="0.5" x2="27.4" y2="212.8"/><line class="cls-1" x1="24" y1="0.5" x2="24" y2="212.8"/><line class="cls-1" x1="20.6" y1="0.5" x2="20.6" y2="212.8"/><line class="cls-1" x1="17.2" y1="0.5" x2="17.2" y2="212.8"/><polyline class="cls-2" points="10.3 386.8 10.3 215.1 231.5 215.1 231.5 386.8"/><polygon class="cls-2" points="120.1 304.5 231.5 215.1 8.6 215.1 120.1 304.5"/><rect class="cls-3" x="96.6" y="288.9" width="47" height="47.02"/><polygon class="cls-4" points="126.1 290.6 98.2 315.2 98.2 327 139.5 290.6 126.1 290.6"/><polygon class="cls-4" points="142 302.6 105.9 334.3 121.1 334.3 142 316 142 302.6"/><polygon class="cls-4" points="98.2 290.6 98.2 301 110 290.6 98.2 290.6"/><polygon class="cls-4" points="142 330.2 137.2 334.3 142 334.3 142 330.2"/><polygon class="cls-5" points="142 290.6 139.5 290.6 98.2 327 98.2 334.3 105.9 334.3 142 302.6 142 290.6"/><polygon class="cls-5" points="142 316 121.1 334.3 137.2 334.3 142 330.2 142 316"/><polygon class="cls-5" points="110 290.6 98.2 301 98.2 315.2 126.1 290.6 110 290.6"/><rect class="cls-6" x="98.2" y="290.6" width="43.8" height="43.78"/><rect class="cls-7" y="384.5" width="20.6" height="4.68"/><rect class="cls-7" x="221.2" y="384.5" width="20.6" height="4.68"/></svg>