<?xml version="1.0" encoding="utf-8"?>
<!-- Generator: Adobe Illustrator 25.4.1, SVG Export Plug-In . SVG Version: 6.00 Build 0)  -->
<svg version="1.1" id="Layer_1" xmlns="http://www.w3.org/2000/svg" xmlns:xlink="http://www.w3.org/1999/xlink" x="0px" y="0px"
	 viewBox="0 0 512 512" style="enable-background:new 0 0 512 512;" xml:space="preserve">
<style type="text/css">
	.st0{fill:#E2E5E7;}
	.st1{fill:#B0B7BD;}
	.st2{fill:#CAD1D8;}
	.st3{fill:#84BD5A;}
	.st4{fill:#FFFFFF;}
</style>
<path class="st0" d="M128,0c-17.6,0-32,14.4-32,32v448c0,17.6,14.4,32,32,32h320c17.6,0,32-14.4,32-32V128L352,0H128z"/>
<path class="st1" d="M384,128h96L352,0v96C352,113.6,366.4,128,384,128z"/>
<polygon class="st2" points="480,224 384,128 480,128 "/>
<path class="st3" d="M416,416c0,8.8-7.2,16-16,16H48c-8.8,0-16-7.2-16-16V256c0-8.8,7.2-16,16-16h352c8.8,0,16,7.2,16,16V416z"/>
<path class="st2" d="M400,432H96v16h304c8.8,0,16-7.2,16-16v-16C416,424.8,408.8,432,400,432z"/>
<path class="st4" d="M188.8,311.6c2.9-24.8,40.4-29.3,58.1-15.7c8.7,7-0.5,18.2-8.2,12.5c-9.5-6-31-8.8-33.6,4.5
	c-3.5,21,52.2,9,51.3,43c-0.9,32.5-48,33.3-65.6,18.7c-3.7-3.1-4.5-8.5-1.8-12.5c3.3-3.3,7-4.5,11.4-0.9
	c10.5,7.2,37.5,12.5,39.4-5.6C238,336.6,184.8,348,188.8,311.6z"/>
<path class="st4" d="M301.1,375.2l-33.8-70.8c-5-10.1,10.1-18.4,15.7-7.8l11.4,25.7l14.7,33.8l14.4-33.8l11.4-25.7
	c5.1-9.7,20-3.6,15.6,7L318,375.2C315,383.3,306,385.2,301.1,375.2z"/>
<path class="st4" d="M96.6,336.9c0-24.7,15.5-45.9,44.9-45.9c11.1,0,20,3.3,29.3,11.4c3.5,3,3.9,8.2,1,11.7c-3,3.5-8.2,3.9-11.7,1
	c-0.2-0.2-0.5-0.4-0.7-0.7c-5.2-5.5-10.6-7-17.9-7c-19.7,0-29.2,14-29.2,29.6c0,15.9,9.3,30.4,29.2,30.4c7.3,0,14.1-3,20-8.2
	c3.7-2.7,8.9-2.1,11.8,1.5c2,2.8,3.1,7.6-1.4,12c-9,8.3-19.7,10-30.3,10C110.6,382.7,96.6,361.6,96.6,336.9z"/>
</svg>
