<?xml version="1.0" encoding="utf-8"?>
<!-- Generator: Adobe Illustrator 25.4.1, SVG Export Plug-In . SVG Version: 6.00 Build 0)  -->
<svg version="1.1" id="Layer_1" xmlns="http://www.w3.org/2000/svg" xmlns:xlink="http://www.w3.org/1999/xlink" x="0px" y="0px"
	 viewBox="0 0 512 512" style="enable-background:new 0 0 512 512;" xml:space="preserve">
<style type="text/css">
	.st0{fill:#E2E5E7;}
	.st1{fill:#B0B7BD;}
	.st2{fill:#CAD1D8;}
	.st3{fill:#50BEE8;}
	.st4{fill:#FFFFFF;}
</style>
<path class="st0" d="M128,0c-17.6,0-32,14.4-32,32v448c0,17.6,14.4,32,32,32h320c17.6,0,32-14.4,32-32V128L352,0H128z"/>
<path class="st1" d="M384,128h96L352,0v96C352,113.6,366.4,128,384,128z"/>
<polygon class="st2" points="480,224 384,128 480,128 "/>
<path class="st3" d="M416,416c0,8.8-7.2,16-16,16H48c-8.8,0-16-7.2-16-16V256c0-8.8,7.2-16,16-16h352c8.8,0,16,7.2,16,16V416z"/>
<path class="st2" d="M400,432H96v16h304c8.8,0,16-7.2,16-16v-16C416,424.8,408.8,432,400,432z"/>
<g>
	<path class="st4" d="M52.4,378c-4.2,0-8.8-2.3-8.8-7.9v-72.7c0-4.6,4.6-7.9,8.8-7.9h29.3c58.5,0,57.2,88.5,1.2,88.5H52.4z
		 M60.5,305.1v57.3h21.2c34.5,0,36.1-57.3,0-57.3H60.5z"/>
	<path class="st4" d="M184.1,382.5c-23.7,1-48.2-14.7-48.2-46.1s24.6-47,48.2-47c22.4,1.1,45.8,16.6,45.8,47
		S206.5,382.5,184.1,382.5z M182.6,306.1c-14.3,0-29.9,10.1-29.9,30.3s15.6,30.3,29.9,30.3c14.7,0,30.4-10.2,30.4-30.3
		S197.4,306.1,182.6,306.1L182.6,306.1z"/>
	<path class="st4" d="M365.3,324.5l22.3-27.9c6.7-8.7,19.6,2.4,12.3,10.8c-7.7,9.1-15.7,19-23.4,29l26.1,32.5c7,9.6-7,18.8-14,9.4
		L365.1,348l-23.1,30.8c-6.5,9.3-21-1.2-13.7-9.9l25.7-32.6c-8-10.1-15.9-19.9-23.7-29c-8.1-9.6,6.9-19.4,12.8-10.5L365.3,324.5z"/>
	<path class="st4" d="M241.4,336.5c0-24.7,15.5-45.9,44.9-45.9c11.1,0,20,3.3,29.3,11.4c3.6,2.9,4.1,8.1,1.2,11.7
		c-2.9,3.5-8.1,4.1-11.6,1.3c-0.4-0.3-0.7-0.6-1-0.9c-5.2-5.5-10.6-7-17.9-7c-19.7,0-29.1,14-29.1,29.5c0,15.9,9.3,30.5,29.1,30.5
		c7.3,0,14.1-3,20-8.2c3.7-2.7,8.9-2.1,11.8,1.5c2,2.8,3,7.5-1.4,12c-9,8.3-19.7,10-30.3,10C255.3,382.3,241.4,361.2,241.4,336.5z"
		/>
</g>
</svg>
