<?xml version="1.0" encoding="utf-8"?>
<!-- Generator: Adobe Illustrator 25.4.1, SVG Export Plug-In . SVG Version: 6.00 Build 0)  -->
<svg version="1.1" id="Layer_1" xmlns="http://www.w3.org/2000/svg" xmlns:xlink="http://www.w3.org/1999/xlink" x="0px" y="0px"
	 viewBox="0 0 512 512" style="enable-background:new 0 0 512 512;" xml:space="preserve">
<style type="text/css">
	.st0{fill:#E2E5E7;}
	.st1{fill:#B0B7BD;}
	.st2{fill:#CAD1D8;}
	.st3{fill:#50BEE8;}
	.st4{fill:#FFFFFF;}
</style>
<path class="st0" d="M128,0c-17.6,0-32,14.4-32,32v448c0,17.6,14.4,32,32,32h320c17.6,0,32-14.4,32-32V128L352,0H128z"/>
<path class="st1" d="M384,128h96L352,0v96C352,113.6,366.4,128,384,128z"/>
<polygon class="st2" points="480,224 384,128 480,128 "/>
<path class="st3" d="M416,416c0,8.8-7.2,16-16,16H48c-8.8,0-16-7.2-16-16V256c0-8.8,7.2-16,16-16h352c8.8,0,16,7.2,16,16V416z"/>
<path class="st2" d="M400,432H96v16h304c8.8,0,16-7.2,16-16v-16C416,424.8,408.8,432,400,432z"/>
<path class="st4" d="M113.1,307.3l0.1,21.2l32.6-0.1c4.6,0,9.2,4.8,9.2,9.5c0,4.4-4.6,8-9.2,8l-32.6,0.1l0.1,28
	c0,4.7-3.2,8.3-7.7,8.3c-5.6,0-9.1-3.6-9.1-8.2l-0.2-75.7c0-4.8,3.4-8.3,9-8.3l44.9-0.1c5.6,0,9,3.4,9,8.2c0,5-4,9-8.9,9.1
	c0,0,0,0-0.1,0L113.1,307.3L113.1,307.3z"/>
<path class="st4" d="M175.3,298.6c0-10.8,16.9-11.2,16.9,0l0.2,74.8c0,10.9-16.9,11.2-16.9,0L175.3,298.6z"/>
<path class="st4" d="M210.3,297.7c0-4.4,3.6-8,8.1-8c4.3,0.2,7.7,3.7,7.6,8l0.2,65.6l34.8-0.1c12.5,0,12.8,17.2,0,17.2l-42.3,0.1
	c-4.3,0.2-8-3.2-8.1-7.6c0-0.1,0-0.3,0-0.4L210.3,297.7L210.3,297.7z"/>
<path class="st4" d="M294.6,381.3c-4.4,0-7.9-3.5-8-7.9c0-0.1,0-0.2,0-0.3l-0.2-74.9c-0.2-4.3,3.2-8,7.5-8.2c0.1,0,0.3,0,0.4,0
	l45.9-0.1c11.8,0,11.6,17.1,0,17.1l-36.8,0.1l0.1,19.8l32.2-0.1c11.4,0,11.4,17.3,0,17.3l-32.2,0.1l0.1,19.8l39-0.1
	c11.6,0,12.6,17.2,0,17.3L294.6,381.3z"/>
</svg>
