<?xml version="1.0" encoding="utf-8"?>
<!-- Generator: Adobe Illustrator 25.4.1, SVG Export Plug-In . SVG Version: 6.00 Build 0)  -->
<svg version="1.1" id="Layer_1" xmlns="http://www.w3.org/2000/svg" xmlns:xlink="http://www.w3.org/1999/xlink" x="0px" y="0px"
	 viewBox="0 0 512 512" style="enable-background:new 0 0 512 512;" xml:space="preserve">
<style type="text/css">
	.st0{fill:#E2E5E7;}
	.st1{fill:#B0B7BD;}
	.st2{fill:#CAD1D8;}
	.st3{fill:#50BEE8;}
	.st4{fill:#FFFFFF;}
</style>
<path class="st0" d="M128,0c-17.6,0-32,14.4-32,32v448c0,17.6,14.4,32,32,32h320c17.6,0,32-14.4,32-32V128L352,0H128z"/>
<path class="st1" d="M384,128h96L352,0v96C352,113.6,366.4,128,384,128z"/>
<polygon class="st2" points="480,224 384,128 480,128 "/>
<path class="st3" d="M416,416c0,8.8-7.2,16-16,16H48c-8.8,0-16-7.2-16-16V256c0-8.8,7.2-16,16-16h352c8.8,0,16,7.2,16,16V416z"/>
<path class="st2" d="M400,432H96v16h304c8.8,0,16-7.2,16-16v-16C416,424.8,408.8,432,400,432z"/>
<path class="st4" d="M259.4,349.7l19.1-52.7c3.8-10.3,19.3-5.5,15.5,5.6l-25.3,68.7c-2.3,7.3-4.5,9.5-8.8,9.5c-4.6,0-6-2.8-8.6-7.4
	l-22.4-50.6l-21.2,49.8c-2.3,5.4-4.5,8.4-9.1,8.4s-6.8-3.1-8.8-8.7L165,302.6c-3.8-11.5,12.4-15.7,15.7-5.6l19,52.7l22.6-52.7
	c3.1-7.8,11.1-8.2,14.4-0.4L259.4,349.7z"/>
<path class="st4" d="M312.4,300.2c0.1-4.8,3.9-8.7,8.7-8.9h29.5c16.6,0,31.6,11.1,31.6,32.5c0,20.2-15,31.5-31.6,31.5h-21.4v16.9
	c0,5.6-3.6,8.8-8.2,8.8c-4.8,0-8.7-3.8-8.7-8.5c0,0,0,0,0-0.1v-0.3L312.4,300.2z M329.2,307.5v31.9h21.4c8.6,0,15.4-7.5,15.4-15.5
	c0-9-6.8-16.4-15.4-16.4H329.2z"/>
<path class="st4" d="M71.9,372.6v-72.7c0-4.6,3.3-7.9,9.1-7.9c4.2-0.1,7.7,3.2,7.8,7.4c0,0,0,0,0,0.1v28.4h41.7V300
	c0-4.6,4.1-7.9,8.7-7.9c4.3-0.1,7.8,3.2,7.9,7.5v73c0.1,4.3-3.3,7.8-7.6,7.9c0,0-0.1,0-0.1,0h-0.2c-4.6,0-8.7-3.5-8.7-7.9v-28H88.8
	v28c0.1,4.2-3.2,7.8-7.4,7.9c0,0-0.1,0-0.1,0H81C75.2,380.5,71.9,377.1,71.9,372.6z"/>
</svg>
