<?xml version="1.0" encoding="utf-8"?>
<!-- Generator: Adobe Illustrator 25.4.1, SVG Export Plug-In . SVG Version: 6.00 Build 0)  -->
<svg version="1.1" id="Layer_1" xmlns="http://www.w3.org/2000/svg" xmlns:xlink="http://www.w3.org/1999/xlink" x="0px" y="0px"
	 viewBox="0 0 512 512" style="enable-background:new 0 0 512 512;" xml:space="preserve">
<style type="text/css">
	.st0{fill:#E2E5E7;}
	.st1{fill:#B0B7BD;}
	.st2{fill:#CAD1D8;}
	.st3{fill:#F15642;}
	.st4{fill:#FFFFFF;}
</style>
<path class="st0" d="M128,0c-17.6,0-32,14.4-32,32v448c0,17.6,14.4,32,32,32h320c17.6,0,32-14.4,32-32V128L352,0H128z"/>
<path class="st1" d="M384,128h96L352,0v96C352,113.6,366.4,128,384,128z"/>
<polygon class="st2" points="480,224 384,128 480,128 "/>
<path class="st3" d="M416,416c0,8.8-7.2,16-16,16H48c-8.8,0-16-7.2-16-16V256c0-8.8,7.2-16,16-16h352c8.8,0,16,7.2,16,16V416z"/>
<path class="st2" d="M400,432H96v16h304c8.8,0,16-7.2,16-16v-16C416,424.8,408.8,432,400,432z"/>
<g>
	<path class="st4" d="M192.2,378.8c-4.2,0-8.8-2.3-8.8-7.9v-72.7c0-4.6,4.6-7.9,8.8-7.9h29.3c58.5,0,57.2,88.5,1.2,88.5H192.2z
		 M200.3,305.9v57.3h21.2c34.6,0,36.1-57.3,0-57.3H200.3z"/>
	<path class="st4" d="M295.6,306.9v20.3h32.6c4.6,0,9.2,4.6,9.2,9.1c0,4.2-4.6,7.7-9.2,7.7h-32.6v26.9c0.2,4.1-3,7.7-7.1,7.9
		c0,0-0.1,0-0.1,0H288c-5.6,0-9.1-3.4-9.1-7.9v-72.7c0-4.6,3.5-7.9,9.1-7.9h44.9c5.6,0,9,3.3,9,7.9c-0.1,4.9-4.1,8.8-9,8.7
		c0,0,0,0,0,0H295.6z"/>
	<path class="st4" d="M150.7,298.9c0-10.8,16.9-10.8,16.9,0v50.5c0,20.1-9.6,32.3-31.7,32.3c-10.9,0-20-3-27.9-13.2
		c-6.5-7.8,5.8-19,12.4-10.9c5.4,6.7,11.1,8.2,16.8,7.9c7.1-0.3,13.4-3.5,13.6-16.1L150.7,298.9L150.7,298.9z"/>
</g>
</svg>
