<?xml version="1.0" encoding="utf-8"?>
<!-- Generator: Adobe Illustrator 25.4.1, SVG Export Plug-In . SVG Version: 6.00 Build 0)  -->
<svg version="1.1" id="Layer_1" xmlns="http://www.w3.org/2000/svg" xmlns:xlink="http://www.w3.org/1999/xlink" x="0px" y="0px"
	 viewBox="0 0 512 512" style="enable-background:new 0 0 512 512;" xml:space="preserve">
<style type="text/css">
	.st0{fill:#E2E5E7;}
	.st1{fill:#B0B7BD;}
	.st2{fill:#CAD1D8;}
	.st3{fill:#50BEE8;}
	.st4{fill:#FFFFFF;}
	.st5{font-family:'ArialRoundedMTBold';}
	.st6{font-size:127.69px;}
</style>
<path class="st0" d="M128,0c-17.6,0-32,14.4-32,32v448c0,17.6,14.4,32,32,32h320c17.6,0,32-14.4,32-32V128L352,0H128z"/>
<path class="st1" d="M384,128h96L352,0v96C352,113.6,366.4,128,384,128z"/>
<polygon class="st2" points="480,224 384,128 480,128 "/>
<path class="st3" d="M416,416c0,8.8-7.2,16-16,16H48c-8.8,0-16-7.2-16-16V256c0-8.8,7.2-16,16-16h352c8.8,0,16,7.2,16,16V416z"/>
<path class="st2" d="M400,432H96v16h304c8.8,0,16-7.2,16-16v-16C416,424.8,408.8,432,400,432z"/>
<g>
	<path class="st4" d="M112.9,324.7V372c0,5.6-4.6,8.8-9.2,8.8c-4.1,0-7.7-3.2-7.7-8.8v-72c-0.2-4.5,3.2-8.4,7.7-8.8
		c3.7,0,5.9,2.2,8.1,4.6l28.2,38l29.1-39.4c4.2-5.2,14.6-3.2,14.6,5.6v72c0,5.6-3.6,8.8-7.7,8.8c-4.6,0-8.2-3.2-8.2-8.8v-47.3
		l-21.2,26.9c-4.6,5.6-10.4,5.6-14.6,0L112.9,324.7z"/>
	<path class="st4" d="M206,300c0-4.8,3.9-8.8,8.7-8.8h29.6c16.6,0,31.6,11.1,31.6,32.5c0,20.2-15,31.5-31.6,31.5h-21.4V372
		c0,5.6-3.6,8.8-8.2,8.8c-4.8,0-8.7-3.8-8.7-8.6c0-0.1,0-0.2,0-0.2V300L206,300z M222.9,307.3v31.9h21.4c8.6,0,15.4-7.5,15.4-15.5
		c0-9-6.8-16.4-15.4-16.4H222.9z"/>
	<text transform="matrix(1.12 0 0 1 279.5971 380.8499)" class="st4 st5 st6">4</text>
</g>
</svg>
