<?xml version="1.0" encoding="utf-8"?>
<!-- Generator: Adobe Illustrator 25.4.1, SVG Export Plug-In . SVG Version: 6.00 Build 0)  -->
<svg version="1.1" id="Layer_1" xmlns="http://www.w3.org/2000/svg" xmlns:xlink="http://www.w3.org/1999/xlink" x="0px" y="0px"
	 viewBox="0 0 512 512" style="enable-background:new 0 0 512 512;" xml:space="preserve">
<style type="text/css">
	.st0{fill:#E2E5E7;}
	.st1{fill:#B0B7BD;}
	.st2{fill:#CAD1D8;}
	.st3{fill:#D35231;}
	.st4{fill:#FFFFFF;}
</style>
<path class="st0" d="M128,0c-17.6,0-32,14.4-32,32v448c0,17.6,14.4,32,32,32h320c17.6,0,32-14.4,32-32V128L352,0H128z"/>
<path class="st1" d="M384,128h96L352,0v96C352,113.6,366.4,128,384,128z"/>
<polygon class="st2" points="480,224 384,128 480,128 "/>
<path class="st3" d="M416,416c0,8.8-7.2,16-16,16H48c-8.8,0-16-7.2-16-16V256c0-8.8,7.2-16,16-16h352c8.8,0,16,7.2,16,16V416z"/>
<path class="st2" d="M400,432H96v16h304c8.8,0,16-7.2,16-16v-16C416,424.8,408.8,432,400,432z"/>
<g>
	<path class="st4" d="M59.9,298.3c0-4.4,3.3-9.2,8.7-9.2h29.6c16.6,0,31.6,11.7,31.6,34c0,21.2-15,33-31.6,33H76.7v17.7
		c0,5.9-3.6,9.2-8.2,9.2c-4.9-0.1-8.8-4.1-8.7-8.9c0-0.1,0-0.2,0-0.3L59.9,298.3z M76.7,305.9v33.4h21.4c8.6,0,15.4-7.9,15.4-16.2
		c0-9.4-6.8-17.1-15.4-17.1L76.7,305.9z"/>
	<path class="st4" d="M142.9,298.3c0-4.4,3.3-9.2,8.7-9.2h29.6c16.6,0,31.6,11.7,31.6,34c0,21.2-15,33-31.6,33h-21.4v17.7
		c0,5.9-3.6,9.2-8.2,9.2c-4.9-0.1-8.8-4.1-8.7-8.9c0-0.1,0-0.2,0-0.3L142.9,298.3z M159.7,305.9v33.4h21.4c8.6,0,15.4-7.9,15.4-16.2
		c0-9.4-6.8-17.1-15.4-17.1L159.7,305.9z"/>
	<path class="st4" d="M349,321.9l22.3-29.3c6.7-9.1,19.6,2.5,12.3,11.3c-7.7,9.6-15.7,19.9-23.4,30.5l26.1,34.2
		c7,10.1-7,19.8-14,9.8l-23.6-31.8l-23.1,32.4c-6.5,9.8-21-1.2-13.7-10.4l25.7-34.3c-8-10.6-15.9-21-23.7-30.5
		c-8.1-10.1,6.9-20.4,12.8-11L349,321.9z"/>
	<path class="st4" d="M250.9,306.3h-22.4c-11.1,0-11.1-17.2,0-17.2H289c11.4,0,11.4,17.2,0,17.2h-21.2v67.8c0,11.7-16.9,12-16.9,0
		L250.9,306.3L250.9,306.3z"/>
</g>
</svg>
