<?xml version="1.0" encoding="utf-8"?>
<!-- Generator: Adobe Illustrator 25.4.1, SVG Export Plug-In . SVG Version: 6.00 Build 0)  -->
<svg version="1.1" id="Layer_1" xmlns="http://www.w3.org/2000/svg" xmlns:xlink="http://www.w3.org/1999/xlink" x="0px" y="0px"
	 viewBox="0 0 512 512" style="enable-background:new 0 0 512 512;" xml:space="preserve">
<style type="text/css">
	.st0{fill:#E2E5E7;}
	.st1{fill:#B0B7BD;}
	.st2{fill:#CAD1D8;}
	.st3{fill:#84BD5A;}
	.st4{fill:#FFFFFF;}
</style>
<path class="st0" d="M128,0c-17.6,0-32,14.4-32,32v448c0,17.6,14.4,32,32,32h320c17.6,0,32-14.4,32-32V128L352,0H128z"/>
<path class="st1" d="M384,128h96L352,0v96C352,113.6,366.4,128,384,128z"/>
<polygon class="st2" points="480,224 384,128 480,128 "/>
<path class="st3" d="M416,416c0,8.8-7.2,16-16,16H48c-8.8,0-16-7.2-16-16V256c0-8.8,7.2-16,16-16h352c8.8,0,16,7.2,16,16V416z"/>
<path class="st2" d="M400,432H96v16h304c8.8,0,16-7.2,16-16v-16C416,424.8,408.8,432,400,432z"/>
<g>
	<path class="st4" d="M156.2,299.2c0-4.2,3.6-7.8,8.1-7.8c4.1,0,7.6,3.6,7.6,7.8v64.1h34.8c12.5,0,12.8,16.8,0,16.8h-42.3
		c-4.5,0-8.1-3.2-8.1-7.8L156.2,299.2L156.2,299.2z"/>
	<path class="st4" d="M106.7,322.6l22.3-27.9c6.7-8.7,19.6,2.4,12.3,10.8c-7.7,9.1-15.7,18.9-23.4,29L144,367c7,9.6-7,18.8-14,9.3
		l-23.5-30.2l-23.2,30.8c-6.5,9.3-21-1.2-13.7-9.9l25.7-32.6c-8-10.1-15.9-19.9-23.7-29c-8.1-9.6,6.9-19.4,12.8-10.5L106.7,322.6z"
		/>
	<path class="st4" d="M341.2,322.3l22.3-27.9c6.7-8.7,19.6,2.4,12.3,10.8c-7.7,9.1-15.7,18.9-23.4,29l26.1,32.5c7,9.6-7,18.8-14,9.3
		L341,345.8l-23.2,30.8c-6.5,9.3-21-1.2-13.7-9.9l25.7-32.6c-8-10.1-15.9-19.9-23.7-29c-8.1-9.6,6.9-19.4,12.8-10.5L341.2,322.3z"/>
	<path class="st4" d="M226.9,311.6c2.9-24.8,40.4-29.3,58.1-15.7c8.7,7-0.5,18.2-8.2,12.5c-9.5-6-31-8.8-33.6,4.5
		c-3.5,21,52.2,9,51.3,43c-0.9,32.5-48,33.3-65.6,18.7c-4.2-3.4-4.1-9.1-1.8-12.5c3.3-3.3,7-4.5,11.4-0.9
		c10.5,7.2,37.5,12.5,39.4-5.6C276.1,336.6,222.9,348,226.9,311.6z"/>
</g>
</svg>
