<svg id="레이어_1" data-name="레이어 1" xmlns="http://www.w3.org/2000/svg" xmlns:xlink="http://www.w3.org/1999/xlink" viewBox="0 0 215.3 213.3"><defs><style>.cls-1{stroke:#fff;}.cls-1,.cls-2{stroke-miterlimit:10;}.cls-2{fill:#b3b3b3;stroke:#e6e6e6;}.cls-3{fill:#fff;opacity:0.5;}.cls-4{fill:#4fa569;}.cls-5{fill:#2c8640;}.cls-6{fill:#15793d;}.cls-7{opacity:0.7;fill:url(#무제_그라디언트_11);}</style><linearGradient id="무제_그라디언트_11" x1="278.76" y1="124.96" x2="278.76" y2="138.34" gradientUnits="userSpaceOnUse"><stop offset="0" stop-color="#fff"/><stop offset="0.07" stop-color="#fff2f7" stop-opacity="0.9"/><stop offset="0.27" stop-color="#ffcfe1" stop-opacity="0.63"/><stop offset="0.46" stop-color="#ffb1ce" stop-opacity="0.41"/><stop offset="0.63" stop-color="#ff9abf" stop-opacity="0.23"/><stop offset="0.78" stop-color="#ff89b5" stop-opacity="0.1"/><stop offset="0.91" stop-color="#ff7fae" stop-opacity="0.03"/><stop offset="1" stop-color="#ff7bac" stop-opacity="0"/></linearGradient></defs><polygon class="cls-1" points="0.6 0.5 129.8 0.5 129.8 108.6 214.8 108.6 214.8 212.8 55 212.8 0.6 0.5"/><line class="cls-1" x1="53.9" y1="209" x2="214.8" y2="209"/><line class="cls-1" x1="53.1" y1="205.1" x2="214.8" y2="205.1"/><line class="cls-1" x1="52.1" y1="201.2" x2="214.8" y2="201.2"/><line class="cls-1" x1="51.1" y1="197.4" x2="214.8" y2="197.4"/><line class="cls-1" x1="50.1" y1="193.5" x2="214.8" y2="193.5"/><line class="cls-1" x1="49" y1="189.7" x2="214.8" y2="189.7"/><line class="cls-1" x1="48.2" y1="185.8" x2="214.8" y2="185.8"/><line class="cls-1" x1="47.1" y1="181.9" x2="214.8" y2="181.9"/><line class="cls-1" x1="46.1" y1="178.1" x2="214.8" y2="178.1"/><line class="cls-1" x1="45.2" y1="174.2" x2="214.8" y2="174.2"/><line class="cls-1" x1="43.9" y1="170.4" x2="214.8" y2="170.4"/><line class="cls-1" x1="43.2" y1="166.5" x2="214.8" y2="166.5"/><line class="cls-1" x1="42.3" y1="162.6" x2="214.8" y2="162.6"/><line class="cls-1" x1="41.4" y1="158.8" x2="214.8" y2="158.8"/><line class="cls-1" x1="40.4" y1="154.9" x2="214.8" y2="154.9"/><line class="cls-1" x1="39.2" y1="151.1" x2="214.8" y2="151.1"/><line class="cls-1" x1="38.2" y1="147.2" x2="214.8" y2="147.2"/><line class="cls-1" x1="37.2" y1="143.3" x2="214.8" y2="143.3"/><line class="cls-1" x1="36" y1="139.5" x2="214.8" y2="139.5"/><line class="cls-1" x1="35.4" y1="135.6" x2="214.8" y2="135.6"/><line class="cls-1" x1="34.6" y1="131.8" x2="214.8" y2="131.8"/><line class="cls-1" x1="33.3" y1="127.9" x2="214.8" y2="127.9"/><line class="cls-1" x1="32.3" y1="124" x2="214.8" y2="124"/><line class="cls-1" x1="31.3" y1="120.2" x2="214.8" y2="120.2"/><line class="cls-1" x1="30.3" y1="116.3" x2="214.8" y2="116.3"/><line class="cls-1" x1="29.3" y1="112.5" x2="214.8" y2="112.5"/><line class="cls-1" x1="28.3" y1="108.6" x2="214.8" y2="108.6"/><line class="cls-1" x1="27.4" y1="104.7" x2="129.8" y2="104.7"/><line class="cls-1" x1="26.4" y1="100.9" x2="129.6" y2="100.9"/><line class="cls-1" x1="25.4" y1="97" x2="129.6" y2="97"/><line class="cls-1" x1="24" y1="93.2" x2="129.6" y2="93.2"/><line class="cls-1" x1="23" y1="89.3" x2="129.6" y2="89.3"/><line class="cls-1" x1="22" y1="85.4" x2="129.6" y2="85.4"/><line class="cls-1" x1="21.4" y1="81.6" x2="129.6" y2="81.6"/><line class="cls-1" x1="20.1" y1="77.7" x2="129.6" y2="77.7"/><line class="cls-1" x1="19.2" y1="73.9" x2="129.6" y2="73.9"/><line class="cls-1" x1="18" y1="70" x2="129.6" y2="70"/><line class="cls-1" x1="17.4" y1="66.1" x2="129.6" y2="66.1"/><line class="cls-1" x1="16.2" y1="62.3" x2="129.6" y2="62.3"/><line class="cls-1" x1="15.3" y1="58.4" x2="129.6" y2="58.4"/><line class="cls-1" x1="14.4" y1="54.5" x2="129.6" y2="54.5"/><line class="cls-1" x1="13.4" y1="50.7" x2="129.6" y2="50.7"/><line class="cls-1" x1="12.5" y1="46.8" x2="129.6" y2="46.8"/><line class="cls-1" x1="11.5" y1="43" x2="129.6" y2="43"/><line class="cls-1" x1="10.5" y1="39.1" x2="129.8" y2="39.1"/><line class="cls-1" x1="9.5" y1="35.2" x2="129.8" y2="35.2"/><line class="cls-1" x1="8.6" y1="31.4" x2="129.8" y2="31.4"/><line class="cls-1" x1="7.4" y1="27.5" x2="129.8" y2="27.5"/><line class="cls-1" x1="6.6" y1="23.7" x2="129.8" y2="23.7"/><line class="cls-1" x1="5.6" y1="19.8" x2="129.8" y2="19.8"/><line class="cls-1" x1="4.6" y1="15.9" x2="129.8" y2="15.9"/><line class="cls-1" x1="3.6" y1="12.1" x2="129.8" y2="12.1"/><line class="cls-1" x1="2.6" y1="8.2" x2="129.8" y2="8.2"/><line class="cls-1" x1="1.6" y1="4.4" x2="129.8" y2="4.4"/><line class="cls-1" x1="211.4" y1="108.6" x2="211.4" y2="212.8"/><line class="cls-1" x1="208" y1="108.6" x2="208" y2="212.8"/><line class="cls-1" x1="204.6" y1="108.6" x2="204.6" y2="212.8"/><line class="cls-1" x1="201.2" y1="108.6" x2="201.2" y2="212.8"/><line class="cls-1" x1="197.8" y1="108.6" x2="197.8" y2="212.8"/><line class="cls-1" x1="194.4" y1="108.6" x2="194.4" y2="212.8"/><line class="cls-1" x1="191" y1="108.6" x2="191" y2="212.8"/><line class="cls-1" x1="187.6" y1="108.6" x2="187.6" y2="212.8"/><line class="cls-1" x1="184.2" y1="108.6" x2="184.2" y2="212.8"/><line class="cls-1" x1="180.8" y1="108.6" x2="180.8" y2="212.8"/><line class="cls-1" x1="177.4" y1="108.6" x2="177.4" y2="212.8"/><line class="cls-1" x1="174" y1="108.6" x2="174" y2="212.8"/><line class="cls-1" x1="170.6" y1="108.6" x2="170.6" y2="212.8"/><line class="cls-1" x1="167.2" y1="108.6" x2="167.2" y2="212.8"/><line class="cls-1" x1="163.8" y1="108.6" x2="163.8" y2="212.8"/><line class="cls-1" x1="160.4" y1="108.6" x2="160.4" y2="212.8"/><line class="cls-1" x1="157" y1="108.6" x2="157" y2="212.8"/><line class="cls-1" x1="153.6" y1="108.6" x2="153.6" y2="212.8"/><line class="cls-1" x1="150.2" y1="108.6" x2="150.2" y2="212.8"/><line class="cls-1" x1="146.8" y1="108.6" x2="146.8" y2="212.8"/><line class="cls-1" x1="143.4" y1="108.6" x2="143.4" y2="212.8"/><line class="cls-1" x1="140" y1="108.6" x2="140" y2="212.8"/><line class="cls-1" x1="136.6" y1="108.6" x2="136.6" y2="212.8"/><line class="cls-1" x1="133.2" y1="108.6" x2="133.2" y2="212.8"/><line class="cls-1" x1="129.8" y1="0.5" x2="129.8" y2="212.8"/><line class="cls-1" x1="126.4" y1="0.5" x2="126.4" y2="212.8"/><line class="cls-1" x1="123" y1="0.5" x2="123" y2="212.8"/><line class="cls-1" x1="119.6" y1="0.5" x2="119.6" y2="212.8"/><line class="cls-1" x1="116.2" y1="0.5" x2="116.2" y2="212.8"/><line class="cls-1" x1="112.8" y1="0.5" x2="112.8" y2="212.8"/><line class="cls-1" x1="109.4" y1="0.5" x2="109.4" y2="212.8"/><line class="cls-1" x1="106" y1="0.5" x2="106" y2="212.8"/><line class="cls-1" x1="102.6" y1="0.5" x2="102.6" y2="212.8"/><line class="cls-1" x1="99.2" y1="0.5" x2="99.2" y2="212.8"/><line class="cls-1" x1="95.8" y1="0.5" x2="95.8" y2="212.8"/><line class="cls-1" x1="92.4" y1="0.5" x2="92.4" y2="212.8"/><line class="cls-1" x1="89" y1="0.5" x2="89" y2="212.8"/><line class="cls-1" x1="85.6" y1="0.5" x2="85.6" y2="212.8"/><line class="cls-1" x1="82.2" y1="0.5" x2="82.2" y2="212.8"/><line class="cls-1" x1="78.8" y1="0.5" x2="78.8" y2="212.8"/><line class="cls-1" x1="75.4" y1="0.5" x2="75.4" y2="212.8"/><line class="cls-1" x1="72" y1="0.5" x2="72" y2="212.8"/><line class="cls-1" x1="68.6" y1="0.5" x2="68.6" y2="212.8"/><line class="cls-1" x1="65.2" y1="0.5" x2="65.2" y2="212.8"/><line class="cls-1" x1="61.8" y1="0.5" x2="61.8" y2="212.8"/><line class="cls-1" x1="58.4" y1="0.5" x2="58.4" y2="212.8"/><line class="cls-1" x1="55" y1="0.5" x2="55" y2="212.8"/><line class="cls-1" x1="51.6" y1="0.5" x2="51.6" y2="197.8"/><line class="cls-1" x1="48.2" y1="0.5" x2="48.2" y2="185.8"/><line class="cls-1" x1="44.8" y1="0.5" x2="44.8" y2="173"/><line class="cls-1" x1="41.4" y1="0.5" x2="41.4" y2="159.7"/><line class="cls-1" x1="38" y1="0.5" x2="38" y2="146.5"/><line class="cls-1" x1="34.6" y1="0.5" x2="34.6" y2="131.8"/><line class="cls-1" x1="31.2" y1="0.5" x2="31.2" y2="120.2"/><line class="cls-1" x1="27.8" y1="0.5" x2="27.8" y2="104.7"/><line class="cls-1" x1="24.4" y1="0.5" x2="24.4" y2="93.2"/><line class="cls-1" x1="21" y1="0.5" x2="21" y2="79.9"/><line class="cls-1" x1="17.6" y1="0.5" x2="17.6" y2="66.1"/><line class="cls-1" x1="14.2" y1="0.5" x2="14.2" y2="53.6"/><line class="cls-1" x1="10.8" y1="0.5" x2="10.8" y2="39.1"/><line class="cls-1" x1="7.4" y1="0.5" x2="7.4" y2="27"/><line class="cls-1" x1="4" y1="0.5" x2="4" y2="13.8"/><polygon class="cls-2" points="91.4 5 65.4 5 34.6 35.8 34.6 61.8 65.4 92.6 91.4 92.6 122.2 61.8 122.2 35.8 91.4 5"/><circle class="cls-3" cx="78.4" cy="48.8" r="34.1"/><circle class="cls-4" cx="78.4" cy="48.8" r="31.5"/><circle class="cls-5" cx="78.4" cy="48.8" r="26.9"/><ellipse class="cls-6" cx="78.4" cy="48.8" rx="23.5" ry="23.3"/><ellipse class="cls-5" cx="78.4" cy="48.8" rx="20.7" ry="20.6"/><ellipse class="cls-6" cx="78.4" cy="48.8" rx="18.5" ry="18.4"/><ellipse class="cls-5" cx="78.4" cy="48.8" rx="14.4" ry="14.3"/><circle class="cls-6" cx="78.4" cy="48.8" r="11.4"/><circle class="cls-4" cx="78.4" cy="48.8" r="8.9"/><circle class="cls-6" cx="78.4" cy="48.8" r="7"/><circle class="cls-4" cx="78.4" cy="48.8" r="5.7"/><circle class="cls-6" cx="78.4" cy="48.8" r="2.4"/><path class="cls-6" d="M278.8,182.4" transform="translate(-200.3 -99.5)"/><path class="cls-6" d="M278.8,148.3" transform="translate(-200.3 -99.5)"/><path class="cls-6" d="M311.2,158.9" transform="translate(-200.3 -99.5)"/><path class="cls-6" d="M278.8,148.3" transform="translate(-200.3 -99.5)"/><path class="cls-6" d="M298.8,120.7" transform="translate(-200.3 -99.5)"/><path class="cls-6" d="M278.8,148.3" transform="translate(-200.3 -99.5)"/><path class="cls-6" d="M258.7,120.7" transform="translate(-200.3 -99.5)"/><path class="cls-6" d="M278.8,148.3" transform="translate(-200.3 -99.5)"/><path class="cls-6" d="M246.3,158.9" transform="translate(-200.3 -99.5)"/><path class="cls-6" d="M278.8,148.3" transform="translate(-200.3 -99.5)"/><path class="cls-7" d="M300,138.3H257.5c7.6-14.5,21.3-13.3,21.3-13.3C293.6,124.1,300,138.3,300,138.3Z" transform="translate(-200.3 -99.5)"/></svg>