<svg id="레이어_1" data-name="레이어 1" xmlns="http://www.w3.org/2000/svg" xmlns:xlink="http://www.w3.org/1999/xlink" viewBox="0 0 399 237.6"><defs><style>.cls-1,.cls-2,.cls-3,.cls-4,.cls-5{stroke:#000;}.cls-1,.cls-10,.cls-2,.cls-3,.cls-4,.cls-5,.cls-6,.cls-7,.cls-9{stroke-miterlimit:10;}.cls-1{fill:url(#무제_그라디언트_23);}.cls-2{fill:url(#무제_그라디언트_14);}.cls-3{fill:url(#무제_그라디언트_5);}.cls-4{fill:url(#무제_그라디언트_5-2);}.cls-5{fill:url(#무제_그라디언트_5-3);}.cls-6{fill:#22ac38;stroke:#bbbcbc;}.cls-10,.cls-7{fill:none;}.cls-7{stroke:#0c0a08;}.cls-8{fill:#0c0a08;}.cls-9{stroke:#ccc;fill:url(#무제_그라디언트_13);}.cls-10{stroke:#b3b3b3;stroke-width:1.5px;}</style><linearGradient id="무제_그라디언트_23" x1="147.69" y1="18.42" x2="349.32" y2="18.42" gradientUnits="userSpaceOnUse"><stop offset="0" stop-color="#6d6e6f"/><stop offset="0.5" stop-color="#bbbcbc"/><stop offset="1" stop-color="#6d6e6f"/></linearGradient><linearGradient id="무제_그라디언트_14" x1="31.62" y1="121.02" x2="31.62" y2="90.65" gradientUnits="userSpaceOnUse"><stop offset="0" stop-color="#ccc"/><stop offset="0.5" stop-color="#fbfbfb"/><stop offset="1" stop-color="#ccc"/></linearGradient><linearGradient id="무제_그라디언트_5" x1="89.59" y1="191.47" x2="89.59" y2="26.31" gradientUnits="userSpaceOnUse"><stop offset="0" stop-color="#7d7e7f"/><stop offset="0.5" stop-color="#fbfbfb"/><stop offset="1" stop-color="#7d7e7f"/></linearGradient><linearGradient id="무제_그라디언트_5-2" x1="244.06" y1="205.25" x2="244.06" y2="12.54" xlink:href="#무제_그라디언트_5"/><linearGradient id="무제_그라디언트_5-3" x1="62.73" y1="208.02" x2="62.73" y2="14.94" xlink:href="#무제_그라디언트_5"/><linearGradient id="무제_그라디언트_13" x1="252.84" y1="225.19" x2="252.84" y2="137.95" gradientUnits="userSpaceOnUse"><stop offset="0" stop-color="#e6e6e6"/><stop offset="0.48" stop-color="#928c92"/><stop offset="1" stop-color="#e6e6e6"/></linearGradient></defs><rect class="cls-1" x="147.7" y="0.5" width="201.6" height="35.85"/><rect class="cls-2" x="0.5" y="90.7" width="62.2" height="30.37"/><polygon class="cls-3" points="112 26.3 112 191.5 72.4 191.5 72.4 184.8 67.2 184.8 67.2 33 72.4 33 72.4 26.3 112 26.3"/><polygon class="cls-4" points="398.5 22.3 398.5 195.5 382.2 195.5 382.2 205.3 89.6 205.3 89.6 12.5 382.2 12.5 382.2 22.3 398.5 22.3"/><rect class="cls-5" x="57" y="14.9" width="11.4" height="193.08" rx="4.3"/><rect class="cls-6" x="153.1" y="34.4" width="191.7" height="103.55"/><polyline class="cls-7" points="35.9 90.7 35.9 99.5 20.9 99.5 20.9 90.7"/><rect class="cls-8" x="24.8" y="100.2" width="7.2" height="3.6"/><polyline class="cls-7" points="20.9 121 20.9 112.1 35.9 112.1 35.9 121"/><rect class="cls-8" x="64.8" y="259.6" width="7.2" height="3.6" transform="translate(96.8 371.1) rotate(180)"/><rect class="cls-9" x="200.7" y="137.9" width="104.2" height="87.24"/><rect class="cls-8" x="177" y="137.9" width="25.4" height="87.24"/><line class="cls-10" x1="181.3" y1="148.4" x2="198.1" y2="148.4"/><line class="cls-10" x1="181.3" y1="164.1" x2="198.1" y2="164.1"/><line class="cls-10" x1="181.3" y1="179.8" x2="198.1" y2="179.8"/><line class="cls-10" x1="181.3" y1="195.4" x2="198.1" y2="195.4"/><line class="cls-10" x1="181.3" y1="211.1" x2="198.1" y2="211.1"/><polygon class="cls-8" points="189.7 221.1 177 237.6 202.4 237.6 189.7 221.1"/><rect class="cls-8" x="296.8" y="137.9" width="25.4" height="87.24"/><line class="cls-10" x1="301.1" y1="148.4" x2="318" y2="148.4"/><line class="cls-10" x1="301.1" y1="164.1" x2="318" y2="164.1"/><line class="cls-10" x1="301.1" y1="179.8" x2="318" y2="179.8"/><line class="cls-10" x1="301.1" y1="195.4" x2="318" y2="195.4"/><line class="cls-10" x1="301.1" y1="211.1" x2="318" y2="211.1"/><polygon class="cls-8" points="309.5 221.1 296.8 237.6 322.2 237.6 309.5 221.1"/></svg>