<svg id="레이어_1" data-name="레이어 1" xmlns="http://www.w3.org/2000/svg" xmlns:xlink="http://www.w3.org/1999/xlink" viewBox="0 0 256.6 256.6"><defs><style>.cls-1{fill:#b3b3b3;stroke:#e6e6e6;stroke-miterlimit:10;}.cls-2{fill:#fff;opacity:0.5;}.cls-3{fill:#4fa569;}.cls-4{fill:#2c8640;}.cls-5{fill:#15793d;}.cls-6{opacity:0.7;fill:url(#무제_그라디언트_11);}</style><linearGradient id="무제_그라디언트_11" x1="234.52" y1="189.38" x2="234.52" y2="228.41" gradientUnits="userSpaceOnUse"><stop offset="0" stop-color="#fff"/><stop offset="0.07" stop-color="#fff2f7" stop-opacity="0.9"/><stop offset="0.27" stop-color="#ffcfe1" stop-opacity="0.63"/><stop offset="0.46" stop-color="#ffb1ce" stop-opacity="0.41"/><stop offset="0.63" stop-color="#ff9abf" stop-opacity="0.23"/><stop offset="0.78" stop-color="#ff89b5" stop-opacity="0.1"/><stop offset="0.91" stop-color="#ff7fae" stop-opacity="0.03"/><stop offset="1" stop-color="#ff7bac" stop-opacity="0"/></linearGradient></defs><polygon class="cls-1" points="166.2 0.5 90.4 0.5 0.5 90.4 0.5 166.2 90.4 256.1 166.2 256.1 256.1 166.2 256.1 90.4 166.2 0.5"/><circle class="cls-2" cx="128.3" cy="128.3" r="99.5"/><circle class="cls-3" cx="128.3" cy="128.3" r="92"/><circle class="cls-4" cx="128.3" cy="128.3" r="78.4"/><ellipse class="cls-5" cx="128.3" cy="128.3" rx="68.5" ry="68.1"/><ellipse class="cls-4" cx="128.3" cy="128.3" rx="60.4" ry="60.1"/><ellipse class="cls-5" cx="128.3" cy="128.3" rx="53.9" ry="53.6"/><ellipse class="cls-4" cx="128.3" cy="128.3" rx="42" ry="41.8"/><circle class="cls-5" cx="128.3" cy="128.3" r="33.2"/><circle class="cls-3" cx="128.3" cy="128.3" r="26.1"/><circle class="cls-5" cx="128.3" cy="128.3" r="20.4"/><circle class="cls-3" cx="128.3" cy="128.3" r="16.6"/><circle class="cls-5" cx="128.3" cy="128.3" r="7.1"/><path class="cls-5" d="M234.5,357.1" transform="translate(-106.2 -129.3)"/><path class="cls-5" d="M234.5,257.6" transform="translate(-106.2 -129.3)"/><path class="cls-5" d="M329.2,288.3" transform="translate(-106.2 -129.3)"/><path class="cls-5" d="M234.5,257.6" transform="translate(-106.2 -129.3)"/><path class="cls-5" d="M293,177.1" transform="translate(-106.2 -129.3)"/><path class="cls-5" d="M234.5,257.6" transform="translate(-106.2 -129.3)"/><path class="cls-5" d="M176,177.1" transform="translate(-106.2 -129.3)"/><path class="cls-5" d="M234.5,257.6" transform="translate(-106.2 -129.3)"/><path class="cls-5" d="M139.9,288.3" transform="translate(-106.2 -129.3)"/><path class="cls-5" d="M234.5,257.6" transform="translate(-106.2 -129.3)"/><path class="cls-6" d="M296.4,228.4H172.6c22-42.4,61.9-38.9,61.9-38.9C277.9,186.8,296.4,228.4,296.4,228.4Z" transform="translate(-106.2 -129.3)"/></svg>