<svg id="레이어_1" data-name="레이어 1" xmlns="http://www.w3.org/2000/svg" xmlns:xlink="http://www.w3.org/1999/xlink" viewBox="0 0 213.9 280.9"><defs><style>.cls-1{fill:#666;}.cls-1,.cls-2,.cls-3,.cls-4,.cls-5,.cls-6,.cls-7,.cls-8{stroke:#000;stroke-miterlimit:10;}.cls-2{fill:url(#무제_그라디언트_10);}.cls-3{fill:url(#무제_그라디언트_10-2);}.cls-4{fill:none;}.cls-5{fill:url(#무제_그라디언트_10-3);}.cls-6{fill:url(#무제_그라디언트_10-4);}.cls-7{fill:url(#무제_그라디언트_3);}.cls-8{fill:url(#무제_그라디언트_7);}</style><linearGradient id="무제_그라디언트_10" x1="14.3" y1="232.22" x2="37.95" y2="232.22" gradientUnits="userSpaceOnUse"><stop offset="0" stop-color="#c8c8c8"/><stop offset="1" stop-color="#545454"/></linearGradient><linearGradient id="무제_그라디언트_10-2" x1="8.1" y1="276.43" x2="44.14" y2="276.43" xlink:href="#무제_그라디언트_10"/><linearGradient id="무제_그라디언트_10-3" x1="177.04" y1="232.22" x2="200.69" y2="232.22" xlink:href="#무제_그라디언트_10"/><linearGradient id="무제_그라디언트_10-4" x1="170.84" y1="276.43" x2="206.88" y2="276.43" xlink:href="#무제_그라디언트_10"/><linearGradient id="무제_그라디언트_3" x1="0.5" y1="98.06" x2="213.36" y2="98.06" gradientUnits="userSpaceOnUse"><stop offset="0" stop-color="#c8c8c8"/><stop offset="1" stop-color="#3f3f3f"/></linearGradient><linearGradient id="무제_그라디언트_7" x1="107.67" y1="169.19" x2="277.16" y2="169.19" gradientUnits="userSpaceOnUse"><stop offset="0" stop-color="#7e7e7e"/><stop offset="0.51" stop-color="#3a3a3a"/><stop offset="1" stop-color="#7a7a7a"/></linearGradient></defs><polygon class="cls-1" points="75.7 253.2 75.7 262.2 47 262.2 47 253.2 51.5 253.2 51.5 178.9 71.2 178.9 71.2 253.2 75.7 253.2"/><rect class="cls-2" x="14.3" y="188" width="23.7" height="88.41"/><rect class="cls-3" x="8.1" y="272.5" width="36" height="7.88"/><line class="cls-4" x1="26.1" y1="188" x2="26.1" y2="272.5"/><line class="cls-4" x1="19.9" y1="188" x2="19.9" y2="272.5"/><line class="cls-4" x1="32.3" y1="188" x2="32.3" y2="272.5"/><rect class="cls-5" x="177" y="188" width="23.7" height="88.41"/><rect class="cls-6" x="170.8" y="272.5" width="36" height="7.88"/><line class="cls-4" x1="188.9" y1="188" x2="188.9" y2="272.5"/><line class="cls-4" x1="182.7" y1="188" x2="182.7" y2="272.5"/><line class="cls-4" x1="195.1" y1="188" x2="195.1" y2="272.5"/><polygon class="cls-1" points="168.6 253.2 168.6 262.2 139.9 262.2 139.9 253.2 144.4 253.2 144.4 178.9 164.1 178.9 164.1 253.2 168.6 253.2"/><rect class="cls-7" x="0.5" y="0.5" width="212.9" height="195.12" rx="12"/><path class="cls-8" d="M195.3,79.3s67.8-2.9,77.3,43.9c0,0,7.7-1.9-3.4,32.5,0,0-10.3,17.2,6,46.8,0,0,9.4,44-12.9,50.7,0,0-42.1-5.7-67,0,0,0-23.2,13.4-59.2,0,0,0-36.9-15.3-26.6-41.1,0,0,6,9.6,3.4-35.4,0,0-1.7-13.3,3.4-25.8a126.7,126.7,0,0,0-2.5-41.1s4.3-25.8,26.6-26.7C140.4,83.1,181.6,92.6,195.3,79.3Z" transform="translate(-85.5 -71.1)"/></svg>