<svg id="레이어_1" data-name="레이어 1" xmlns="http://www.w3.org/2000/svg" viewBox="0 0 199.6 388"><defs><style>.cls-1{fill:#f4f4c9;}.cls-1,.cls-4{stroke:#9aab00;}.cls-1,.cls-2,.cls-3,.cls-4{stroke-miterlimit:10;}.cls-2{fill:#ff0;stroke:#000;}.cls-3,.cls-4{fill:none;}.cls-3{stroke:#d3cd07;}.cls-5{fill:#9aab00;}.cls-6{fill:#ffff92;}</style></defs><rect class="cls-1" x="89.4" y="104.4" width="21.2" height="264.18"/><rect class="cls-2" x="71.5" y="89.4" width="57" height="21.79"/><path class="cls-2" d="M284.4,78.7v81.4h-68V78.7a18.5,18.5,0,0,1,18.5-18.4h31A18.5,18.5,0,0,1,284.4,78.7Z" transform="translate(-150.4 -59.8)"/><polygon class="cls-2" points="99.1 368 185.6 387.5 199.1 387.5 199.1 348.5 185.6 348.5 99.1 368"/><polygon class="cls-2" points="99.1 368 13.9 387.5 0.5 387.5 0.5 348.5 13.9 348.5 99.1 368"/><rect x="75.6" y="34.6" width="48.8" height="65.75"/><line class="cls-3" x1="100" y1="34.6" x2="100" y2="98.7"/><line class="cls-4" x1="86.1" y1="34.6" x2="86.1" y2="98.7"/><line class="cls-4" x1="113.3" y1="34.6" x2="113.3" y2="98.7"/><rect class="cls-5" x="72" y="63.5" width="34" height="34.05"/><rect class="cls-6" x="69.8" y="65.8" width="34" height="34.05"/></svg>