<svg id="레이어_1" data-name="레이어 1" xmlns="http://www.w3.org/2000/svg" xmlns:xlink="http://www.w3.org/1999/xlink" viewBox="0 0 213.9 196.1"><defs><style>.cls-1,.cls-2{stroke:#000;stroke-miterlimit:10;}.cls-1{fill:url(#무제_그라디언트_3);}.cls-2{fill:url(#무제_그라디언트_7);}</style><linearGradient id="무제_그라디언트_3" x1="0.5" y1="98.06" x2="213.36" y2="98.06" gradientUnits="userSpaceOnUse"><stop offset="0" stop-color="#c8c8c8"/><stop offset="1" stop-color="#3f3f3f"/></linearGradient><linearGradient id="무제_그라디언트_7" x1="164.91" y1="249.5" x2="334.41" y2="249.5" gradientUnits="userSpaceOnUse"><stop offset="0" stop-color="#7e7e7e"/><stop offset="0.51" stop-color="#3a3a3a"/><stop offset="1" stop-color="#7a7a7a"/></linearGradient></defs><rect class="cls-1" x="0.5" y="0.5" width="212.9" height="195.12" rx="12"/><path class="cls-2" d="M252.6,159.6s67.8-2.9,77.2,43.9c0,0,7.8-1.9-3.4,32.5,0,0-10.2,17.2,6,46.9,0,0,9.5,43.9-12.9,50.6,0,0-42-5.7-66.9,0,0,0-23.2,13.4-59.3,0,0,0-36.9-15.3-26.6-41.1,0,0,6,9.6,3.5-35.3,0,0-1.8-13.4,3.4-25.8a125.2,125.2,0,0,0-2.6-41.1s4.3-25.8,26.6-26.8C197.6,163.4,238.8,173,252.6,159.6Z" transform="translate(-142.7 -151.4)"/></svg>