<svg id="레이어_1" data-name="레이어 1" xmlns="http://www.w3.org/2000/svg" xmlns:xlink="http://www.w3.org/1999/xlink" viewBox="0 0 233.8 440.9"><defs><style>.cls-1{fill:#efefef;stroke-width:0.3px;}.cls-1,.cls-2,.cls-3,.cls-4,.cls-5,.cls-6,.cls-9{stroke:#999;stroke-miterlimit:10;}.cls-2{fill:#727171;}.cls-2,.cls-3,.cls-4,.cls-5,.cls-6{stroke-width:0.5px;}.cls-3{fill:url(#무제_그라디언트_6);}.cls-4{fill:url(#무제_그라디언트_6-2);}.cls-5{fill:#b5b5b6;}.cls-6{fill:url(#무제_그라디언트_6-3);}.cls-7,.cls-8{fill:#999;}.cls-8{opacity:0.5;}.cls-9{fill:none;}</style><linearGradient id="무제_그라디언트_6" x1="0.25" y1="131.75" x2="203.66" y2="131.75" gradientUnits="userSpaceOnUse"><stop offset="0" stop-color="#cfd4d9"/><stop offset="0.5" stop-color="#f3f9fc"/><stop offset="1" stop-color="#cfd4d9"/></linearGradient><linearGradient id="무제_그라디언트_6-2" x1="218.59" y1="113.95" x2="218.59" y2="0.25" xlink:href="#무제_그라디언트_6"/><linearGradient id="무제_그라디언트_6-3" x1="15.29" y1="301.71" x2="188.62" y2="301.71" xlink:href="#무제_그라디언트_6"/></defs><rect class="cls-1" x="79.2" y="367" width="45.4" height="15.71"/><rect class="cls-2" x="28" y="277.5" width="20.5" height="140.73"/><rect class="cls-2" x="155.5" y="277.5" width="20.5" height="140.73"/><rect class="cls-3" x="0.3" y="24.5" width="203.4" height="214.5"/><rect class="cls-4" x="203.7" y="0.3" width="29.8" height="113.7"/><rect class="cls-5" x="0.3" y="239" width="15.1" height="201.61"/><rect class="cls-5" x="188.6" y="239" width="15.1" height="201.61"/><polygon class="cls-6" points="188.6 239.2 15.3 239.2 15.3 281.8 79.8 364.2 124.1 364.2 188.6 281.8 188.6 239.2"/><polygon class="cls-7" points="124.1 361.9 79.8 361.9 74.3 361.9 74.3 372.1 87.7 372.1 116.2 372.1 129.6 372.1 129.6 361.9 124.1 361.9"/><polygon class="cls-8" points="203.7 97 106.8 97 203.7 171.9 203.7 97"/><line class="cls-9" x1="106.8" y1="97" x2="203.7" y2="97"/></svg>