<svg id="레이어_1" data-name="레이어 1" xmlns="http://www.w3.org/2000/svg" xmlns:xlink="http://www.w3.org/1999/xlink" viewBox="0 0 1667.7 945.9"><defs><style>.cls-1,.cls-124,.cls-126,.cls-127,.cls-128,.cls-131,.cls-2,.cls-3,.cls-39,.cls-40,.cls-41,.cls-42,.cls-43,.cls-44,.cls-45,.cls-47,.cls-48,.cls-49,.cls-5,.cls-50,.cls-52,.cls-55,.cls-56,.cls-6,.cls-62,.cls-67,.cls-7,.cls-70,.cls-74,.cls-75,.cls-8,.cls-91,.cls-92,.cls-93,.cls-96{stroke:#000;}.cls-1,.cls-124,.cls-126,.cls-127,.cls-128,.cls-130,.cls-131,.cls-132,.cls-2,.cls-29,.cls-3,.cls-39,.cls-40,.cls-41,.cls-42,.cls-43,.cls-44,.cls-45,.cls-47,.cls-48,.cls-49,.cls-5,.cls-50,.cls-52,.cls-54,.cls-55,.cls-56,.cls-57,.cls-58,.cls-6,.cls-61,.cls-62,.cls-63,.cls-64,.cls-67,.cls-69,.cls-7,.cls-70,.cls-71,.cls-72,.cls-74,.cls-75,.cls-8,.cls-91,.cls-92,.cls-93,.cls-94,.cls-96{stroke-miterlimit:10;}.cls-1{fill:url(#무제_그라디언트_19);}.cls-2{fill:url(#무제_그라디언트_12);}.cls-3{fill:#efefef;}.cls-39,.cls-4{fill:#666;}.cls-5{fill:#ccc;}.cls-130,.cls-54,.cls-6,.cls-75{stroke-width:2px;}.cls-7{fill:#3f3f3f;}.cls-8{fill:url(#무제_그라디언트_27);}.cls-9{fill:url(#무제_그라디언트_41);}.cls-10{fill:url(#무제_그라디언트_46);}.cls-11{fill:url(#무제_그라디언트_13);}.cls-12{fill:url(#무제_그라디언트_13-2);}.cls-13{fill:url(#무제_그라디언트_13-3);}.cls-14{fill:url(#무제_그라디언트_13-4);}.cls-15{fill:url(#무제_그라디언트_41-2);}.cls-16{fill:url(#무제_그라디언트_41-3);}.cls-17{fill:url(#무제_그라디언트_13-5);}.cls-18{fill:url(#무제_그라디언트_13-6);}.cls-19{fill:url(#무제_그라디언트_13-7);}.cls-20{fill:url(#무제_그라디언트_13-8);}.cls-21{fill:url(#무제_그라디언트_13-9);}.cls-22{fill:url(#무제_그라디언트_13-10);}.cls-23{fill:url(#무제_그라디언트_13-11);}.cls-24{fill:url(#무제_그라디언트_13-12);}.cls-25{fill:url(#무제_그라디언트_13-13);}.cls-26{fill:url(#무제_그라디언트_13-14);}.cls-27{fill:url(#무제_그라디언트_13-15);}.cls-28{fill:url(#무제_그라디언트_13-16);}.cls-130,.cls-29,.cls-42,.cls-51,.cls-57,.cls-58,.cls-63,.cls-64,.cls-71,.cls-72,.cls-94{fill:none;}.cls-29{stroke:#666;}.cls-30{fill:url(#무제_그라디언트_13-17);}.cls-31{fill:url(#무제_그라디언트_41-4);}.cls-32{fill:url(#무제_그라디언트_41-5);}.cls-33{fill:url(#무제_그라디언트_41-6);}.cls-34{fill:url(#무제_그라디언트_41-7);}.cls-35{fill:url(#무제_그라디언트_41-8);}.cls-36{fill:url(#무제_그라디언트_41-9);}.cls-37{fill:url(#무제_그라디언트_27-2);}.cls-38{fill:url(#무제_그라디언트_27-3);}.cls-40{fill:url(#무제_그라디언트_10);}.cls-41{fill:url(#무제_그라디언트_10-2);}.cls-43{fill:url(#무제_그라디언트_10-3);}.cls-44{fill:url(#무제_그라디언트_10-4);}.cls-45{fill:url(#무제_그라디언트_3);}.cls-46{fill:url(#무제_그라디언트_7);}.cls-47{fill:url(#무제_그라디언트_10-5);}.cls-48{fill:url(#무제_그라디언트_10-6);}.cls-49{fill:url(#무제_그라디언트_10-7);}.cls-50{fill:url(#무제_그라디언트_10-8);}.cls-52{fill:url(#무제_그라디언트_3-2);}.cls-53{fill:url(#무제_그라디언트_7-2);}.cls-54{fill:#c9f4f4;stroke:aqua;}.cls-55,.cls-60{fill:aqua;}.cls-56{fill:#00767f;}.cls-57{stroke:#00767f;}.cls-58{stroke:#024749;}.cls-131,.cls-59{fill:#fff;}.cls-61{fill:#f4f4c9;}.cls-61,.cls-64{stroke:#9aab00;}.cls-62{fill:#ff0;}.cls-63{stroke:#d3cd07;}.cls-65{fill:#9aab00;}.cls-66{fill:#ffff92;}.cls-67{fill:url(#무제_그라디언트_3-3);}.cls-68{fill:url(#무제_그라디언트_7-3);}.cls-69{fill:#9ef69e;stroke:lime;}.cls-70{fill:lime;}.cls-71{stroke:#077507;}.cls-72{stroke:#002800;}.cls-73{fill:#9fffa9;}.cls-74{fill:url(#무제_그라디언트_3-5);}.cls-75{fill:#bcbcbb;}.cls-76{fill:url(#무제_그라디언트_8);}.cls-77{fill:#26ff00;}.cls-78{fill:url(#무제_그라디언트_8-2);}.cls-79{fill:red;}.cls-80{fill:url(#무제_그라디언트_8-3);}.cls-81{fill:url(#무제_그라디언트_8-4);}.cls-82{fill:url(#무제_그라디언트_8-5);}.cls-83{fill:url(#무제_그라디언트_8-6);}.cls-84{fill:url(#무제_그라디언트_8-7);}.cls-85{fill:#0c4400;}.cls-86{fill:url(#무제_그라디언트_8-8);}.cls-87{fill:url(#무제_그라디언트_8-9);}.cls-88{fill:url(#무제_그라디언트_8-10);}.cls-89{fill:url(#무제_그라디언트_8-11);}.cls-90{fill:url(#무제_그라디언트_8-12);}.cls-91,.cls-97{fill:#999;}.cls-92{fill:#e6e6e6;}.cls-93{fill:#f2f2f2;}.cls-94{stroke:#9f8600;stroke-width:1.5px;}.cls-95{fill:blue;}.cls-96{fill:#797979;}.cls-98{fill:#363636;}.cls-99{fill:url(#무제_그라디언트_13-18);}.cls-100{fill:url(#무제_그라디언트_27-4);}.cls-101{fill:url(#무제_그라디언트_13-19);}.cls-102{fill:url(#무제_그라디언트_13-20);}.cls-103{fill:url(#무제_그라디언트_13-21);}.cls-104{fill:url(#무제_그라디언트_13-22);}.cls-105{fill:url(#무제_그라디언트_13-23);}.cls-106{fill:url(#무제_그라디언트_13-24);}.cls-107{fill:url(#무제_그라디언트_13-25);}.cls-108{fill:url(#무제_그라디언트_13-26);}.cls-109{fill:url(#무제_그라디언트_13-27);}.cls-110{fill:url(#무제_그라디언트_13-28);}.cls-111{fill:url(#무제_그라디언트_13-29);}.cls-112{fill:url(#무제_그라디언트_13-30);}.cls-113{fill:url(#무제_그라디언트_13-31);}.cls-114{fill:url(#무제_그라디언트_13-32);}.cls-115{fill:url(#무제_그라디언트_13-33);}.cls-116{fill:url(#무제_그라디언트_13-34);}.cls-117{fill:url(#무제_그라디언트_13-35);}.cls-118{fill:url(#무제_그라디언트_13-36);}.cls-119{fill:url(#무제_그라디언트_13-37);}.cls-120{fill:url(#무제_그라디언트_13-38);}.cls-121{fill:url(#무제_그라디언트_13-39);}.cls-122{fill:url(#무제_그라디언트_13-40);}.cls-123{fill:url(#무제_그라디언트_13-41);}.cls-124{fill:url(#무제_그라디언트_3-6);}.cls-125{fill:url(#무제_그라디언트_7-4);}.cls-126{fill:url(#무제_그라디언트_19-2);}.cls-127{fill:url(#무제_그라디언트_12-2);}.cls-128{fill:url(#무제_그라디언트_27-5);}.cls-129{fill:url(#무제_그라디언트_60);}.cls-130,.cls-132{stroke:#fff;}.cls-130{stroke-linecap:round;}.cls-132{fill:#b96aff;}.cls-133{fill:#50009f;}.cls-134{fill:url(#무제_그라디언트_13-42);}.cls-135{fill:url(#무제_그라디언트_13-43);}.cls-136{fill:url(#무제_그라디언트_13-44);}.cls-137{fill:url(#무제_그라디언트_13-45);}.cls-138{fill:url(#무제_그라디언트_13-46);}.cls-139{fill:url(#무제_그라디언트_13-47);}.cls-140{fill:url(#무제_그라디언트_13-48);}.cls-141{fill:url(#무제_그라디언트_13-49);}.cls-142{fill:url(#무제_그라디언트_27-6);}.cls-143{fill:url(#무제_그라디언트_27-7);}</style><linearGradient id="무제_그라디언트_19" x1="1235.19" y1="614.19" x2="1275.52" y2="614.19" gradientUnits="userSpaceOnUse"><stop offset="0.02" stop-color="#88b9bb"/><stop offset="0.57" stop-color="#bff"/><stop offset="0.65" stop-color="#b6f9f9"/><stop offset="0.76" stop-color="#a8e7e8"/><stop offset="0.9" stop-color="#91c9cb"/><stop offset="1" stop-color="#7baeb1"/></linearGradient><radialGradient id="무제_그라디언트_12" cx="1184.97" cy="645.97" r="82.03" gradientUnits="userSpaceOnUse"><stop offset="0.57" stop-color="#bff"/><stop offset="0.65" stop-color="#b6f9f9"/><stop offset="0.76" stop-color="#a8e7e8"/><stop offset="0.9" stop-color="#91c9cb"/><stop offset="1" stop-color="#7baeb1"/></radialGradient><linearGradient id="무제_그라디언트_27" x1="815.03" y1="246.46" x2="815.03" y2="162.69" gradientTransform="translate(583.3 579.6)" gradientUnits="userSpaceOnUse"><stop offset="0" stop-color="#545454"/><stop offset="0.53" stop-color="#c8c8c8"/><stop offset="1" stop-color="#3f3f3f"/></linearGradient><linearGradient id="무제_그라디언트_41" x1="82.29" y1="910.4" x2="82.29" y2="879.9" gradientTransform="translate(1775.5 -225.2)" gradientUnits="userSpaceOnUse"><stop offset="0" stop-color="#333"/><stop offset="0.02" stop-color="#3a3a3a"/><stop offset="0.11" stop-color="#4e4e4e"/><stop offset="0.2" stop-color="#5c5c5c"/><stop offset="0.32" stop-color="#646464"/><stop offset="0.53" stop-color="#666"/><stop offset="0.78" stop-color="#646464"/><stop offset="0.87" stop-color="#5d5d5d"/><stop offset="0.94" stop-color="#515151"/><stop offset="1" stop-color="#404040"/><stop offset="1" stop-color="#3f3f3f"/></linearGradient><linearGradient id="무제_그라디언트_46" x1="171.4" y1="701.28" x2="171.4" y2="670.79" gradientTransform="translate(1401.9 13.2)" gradientUnits="userSpaceOnUse"><stop offset="0" stop-color="gray"/><stop offset="0.53" stop-color="#c8c8c8"/><stop offset="1" stop-color="#999"/></linearGradient><linearGradient id="무제_그라디언트_13" x1="718.52" y1="1311.35" x2="685.96" y2="1311.35" gradientTransform="translate(1142.9 -734.7)" xlink:href="#무제_그라디언트_27"/><linearGradient id="무제_그라디언트_13-2" x1="-248.37" y1="477.89" x2="-280.93" y2="477.89" gradientTransform="translate(1379.7 1006.1) rotate(180)" xlink:href="#무제_그라디언트_27"/><linearGradient id="무제_그라디언트_13-3" x1="-223.23" y1="513.76" x2="-223.23" y2="473.82" gradientTransform="translate(2039.5 82.8)" xlink:href="#무제_그라디언트_27"/><linearGradient id="무제_그라디언트_13-4" x1="826.96" y1="-608.49" x2="826.96" y2="-648.43" gradientTransform="translate(1030.8 1256.5)" xlink:href="#무제_그라디언트_27"/><linearGradient id="무제_그라디언트_41-2" x1="429.03" y1="705.15" x2="429.03" y2="674.65" gradientTransform="translate(843.9 -112.8)" xlink:href="#무제_그라디언트_41"/><linearGradient id="무제_그라디언트_41-3" x1="84.37" y1="706.61" x2="84.37" y2="676.12" gradientTransform="translate(1533.2 -115.7)" xlink:href="#무제_그라디언트_41"/><linearGradient id="무제_그라디언트_13-5" x1="1343.15" y1="64.48" x2="1306.58" y2="64.48" gradientTransform="translate(-69.1 427.3)" xlink:href="#무제_그라디언트_27"/><linearGradient id="무제_그라디언트_13-6" x1="-210.74" y1="214.9" x2="-247.31" y2="214.9" gradientTransform="translate(1026.8 745.9) rotate(180)" xlink:href="#무제_그라디언트_27"/><linearGradient id="무제_그라디언트_13-7" x1="817.04" y1="960.17" x2="780.84" y2="960.17" gradientTransform="translate(274.9 1310.2) rotate(-90)" xlink:href="#무제_그라디언트_27"/><linearGradient id="무제_그라디언트_13-8" x1="999.27" y1="-511.03" x2="999.27" y2="-555.89" gradientTransform="translate(469.9 1068.1)" xlink:href="#무제_그라디언트_27"/><linearGradient id="무제_그라디언트_13-9" x1="1082.12" y1="-511.03" x2="1082.12" y2="-555.89" gradientTransform="translate(387 1151)" xlink:href="#무제_그라디언트_27"/><linearGradient id="무제_그라디언트_13-10" x1="1758.26" y1="698.63" x2="1758.26" y2="654.25" gradientTransform="translate(-546.9 -165.1)" xlink:href="#무제_그라디언트_27"/><linearGradient id="무제_그라디언트_13-11" x1="515.73" y1="-696" x2="479.54" y2="-696" gradientTransform="translate(582.1 13.9) rotate(90)" xlink:href="#무제_그라디언트_27"/><linearGradient id="무제_그라디언트_13-12" x1="1851.51" y1="699.62" x2="1851.51" y2="655.23" gradientTransform="translate(-546.9 -165.1)" xlink:href="#무제_그라디언트_27"/><linearGradient id="무제_그라디언트_13-13" x1="2045.8" y1="698.63" x2="2045.8" y2="654.25" gradientTransform="translate(-546.9 -165.1)" xlink:href="#무제_그라디언트_27"/><linearGradient id="무제_그라디언트_13-14" x1="2094.27" y1="695.93" x2="2094.27" y2="656.95" gradientTransform="translate(-546.9 -165.1)" xlink:href="#무제_그라디언트_27"/><linearGradient id="무제_그라디언트_13-15" x1="2139.05" y1="699.62" x2="2139.05" y2="655.23" gradientTransform="translate(-546.9 -165.1)" xlink:href="#무제_그라디언트_27"/><linearGradient id="무제_그라디언트_13-16" x1="1283.4" y1="446.03" x2="1228.97" y2="446.03" gradientTransform="matrix(1, 0, 0, 1, 0, 0)" xlink:href="#무제_그라디언트_27"/><linearGradient id="무제_그라디언트_13-17" x1="101.45" y1="788.38" x2="66.29" y2="788.38" gradientTransform="matrix(1, 0, 0, 1, 0, 0)" xlink:href="#무제_그라디언트_27"/><linearGradient id="무제_그라디언트_41-4" x1="524.85" y1="353.52" x2="524.85" y2="323.02" gradientTransform="matrix(1, 0, 0, 1, 0, 0)" xlink:href="#무제_그라디언트_41"/><linearGradient id="무제_그라디언트_41-5" x1="558.29" y1="565.45" x2="558.29" y2="534.95" gradientTransform="translate(281 -68.5)" xlink:href="#무제_그라디언트_41"/><linearGradient id="무제_그라디언트_41-6" x1="778.2" y1="705.15" x2="778.2" y2="674.65" gradientTransform="translate(145.5 -112.8)" xlink:href="#무제_그라디언트_41"/><linearGradient id="무제_그라디언트_41-7" x1="1042.31" y1="705.15" x2="1042.31" y2="674.65" gradientTransform="translate(-382.7 -112.8)" xlink:href="#무제_그라디언트_41"/><linearGradient id="무제_그라디언트_41-8" x1="1313.29" y1="340.56" x2="1313.29" y2="310.06" gradientTransform="translate(-924.6 616.4)" xlink:href="#무제_그라디언트_41"/><linearGradient id="무제_그라디언트_41-9" x1="1056.81" y1="455.81" x2="1056.81" y2="425.32" gradientTransform="translate(-574.8 305.9)" xlink:href="#무제_그라디언트_41"/><linearGradient id="무제_그라디언트_27-2" x1="629.29" y1="414.44" x2="592.84" y2="414.44" gradientTransform="translate(33.8 -11.8)" xlink:href="#무제_그라디언트_27"/><linearGradient id="무제_그라디언트_27-3" x1="435.64" y1="320.47" x2="399.19" y2="320.47" gradientTransform="matrix(1, 0, 0, 1, 0, 0)" xlink:href="#무제_그라디언트_27"/><linearGradient id="무제_그라디언트_10" x1="342.52" y1="262.23" x2="361.55" y2="262.23" gradientUnits="userSpaceOnUse"><stop offset="0" stop-color="#c8c8c8"/><stop offset="1" stop-color="#545454"/></linearGradient><linearGradient id="무제_그라디언트_10-2" x1="337.54" y1="297.8" x2="366.53" y2="297.8" xlink:href="#무제_그라디언트_10"/><linearGradient id="무제_그라디언트_10-3" x1="473.46" y1="262.23" x2="492.49" y2="262.23" xlink:href="#무제_그라디언트_10"/><linearGradient id="무제_그라디언트_10-4" x1="468.47" y1="297.8" x2="497.47" y2="297.8" xlink:href="#무제_그라디언트_10"/><linearGradient id="무제_그라디언트_3" x1="544.77" y1="218.64" x2="716.03" y2="218.64" gradientUnits="userSpaceOnUse"><stop offset="0" stop-color="#c8c8c8"/><stop offset="1" stop-color="#3f3f3f"/></linearGradient><linearGradient id="무제_그라디언트_7" x1="562.21" y1="218.64" x2="698.59" y2="218.64" gradientUnits="userSpaceOnUse"><stop offset="0" stop-color="#7e7e7e"/><stop offset="0.51" stop-color="#3a3a3a"/><stop offset="1" stop-color="#7a7a7a"/></linearGradient><linearGradient id="무제_그라디언트_10-5" x1="10.69" y1="775.27" x2="29.31" y2="775.27" xlink:href="#무제_그라디언트_10"/><linearGradient id="무제_그라디언트_10-6" x1="5.82" y1="810.07" x2="34.18" y2="810.07" xlink:href="#무제_그라디언트_10"/><linearGradient id="무제_그라디언트_10-7" x1="138.8" y1="775.27" x2="157.42" y2="775.27" xlink:href="#무제_그라디언트_10"/><linearGradient id="무제_그라디언트_10-8" x1="133.93" y1="810.07" x2="162.29" y2="810.07" xlink:href="#무제_그라디언트_10"/><linearGradient id="무제_그라디언트_3-2" x1="213.85" y1="730.28" x2="381.39" y2="730.28" xlink:href="#무제_그라디언트_3"/><linearGradient id="무제_그라디언트_7-2" x1="230.91" y1="730.28" x2="364.32" y2="730.28" xlink:href="#무제_그라디언트_7"/><linearGradient id="무제_그라디언트_3-3" x1="1387.18" y1="424.85" x2="1548.72" y2="424.85" xlink:href="#무제_그라디언트_3"/><linearGradient id="무제_그라디언트_7-3" x1="1403.63" y1="424.85" x2="1532.27" y2="424.85" xlink:href="#무제_그라디언트_7"/><linearGradient id="무제_그라디언트_3-5" x1="960.5" y1="540.5" x2="960.5" y2="540.5" xlink:href="#무제_그라디언트_3"/><linearGradient id="무제_그라디언트_8" x1="109.53" y1="157.52" x2="109.53" y2="87.21" gradientUnits="userSpaceOnUse"><stop offset="0" stop-color="#585858"/><stop offset="0.09" stop-color="#6f6f6f"/><stop offset="0.31" stop-color="#9d9d9d"/><stop offset="0.51" stop-color="#c2c2c2"/><stop offset="0.7" stop-color="#dcdcdc"/><stop offset="0.87" stop-color="#ececec"/><stop offset="1" stop-color="#f2f2f2"/></linearGradient><linearGradient id="무제_그라디언트_8-2" x1="109.53" y1="76.61" x2="109.53" y2="6.3" xlink:href="#무제_그라디언트_8"/><linearGradient id="무제_그라디언트_8-3" x1="109.53" y1="480.73" x2="109.53" y2="410.42" xlink:href="#무제_그라디언트_8"/><linearGradient id="무제_그라디언트_8-4" x1="109.53" y1="399.82" x2="109.53" y2="329.51" xlink:href="#무제_그라디언트_8"/><linearGradient id="무제_그라디언트_8-5" x1="679.81" y1="934.3" x2="679.81" y2="863.99" xlink:href="#무제_그라디언트_8"/><linearGradient id="무제_그라디언트_8-6" x1="679.81" y1="853.39" x2="679.81" y2="783.08" xlink:href="#무제_그라디언트_8"/><linearGradient id="무제_그라디언트_8-7" x1="1260.32" y1="187.87" x2="1260.32" y2="117.56" xlink:href="#무제_그라디언트_8"/><linearGradient id="무제_그라디언트_8-8" x1="1260.32" y1="106.96" x2="1260.32" y2="36.65" xlink:href="#무제_그라디언트_8"/><linearGradient id="무제_그라디언트_8-9" x1="1544.37" y1="187.87" x2="1544.37" y2="117.56" xlink:href="#무제_그라디언트_8"/><linearGradient id="무제_그라디언트_8-10" x1="1544.37" y1="106.96" x2="1544.37" y2="36.65" xlink:href="#무제_그라디언트_8"/><linearGradient id="무제_그라디언트_8-11" x1="1229.37" y1="939.6" x2="1229.37" y2="869.29" xlink:href="#무제_그라디언트_8"/><linearGradient id="무제_그라디언트_8-12" x1="1229.37" y1="858.69" x2="1229.37" y2="788.38" xlink:href="#무제_그라디언트_8"/><linearGradient id="무제_그라디언트_13-18" x1="440.27" y1="260.65" x2="393.99" y2="260.65" gradientTransform="matrix(1, 0, 0, 1, 0, 0)" xlink:href="#무제_그라디언트_27"/><linearGradient id="무제_그라디언트_27-4" x1="463.79" y1="360.63" x2="463.79" y2="315.91" gradientTransform="matrix(1, 0, 0, 1, 0, 0)" xlink:href="#무제_그라디언트_27"/><linearGradient id="무제_그라디언트_13-19" x1="893.02" y1="291.35" x2="856.57" y2="291.35" gradientTransform="translate(-49.6 112.7)" xlink:href="#무제_그라디언트_27"/><linearGradient id="무제_그라디언트_13-20" x1="772.08" y1="648.55" x2="735.63" y2="648.55" gradientTransform="translate(1379.7 1006.1) rotate(180)" xlink:href="#무제_그라디언트_27"/><linearGradient id="무제_그라디언트_13-21" x1="800.22" y1="688.71" x2="800.22" y2="643.99" gradientTransform="translate(-7.4 -262.3)" xlink:href="#무제_그라디언트_27"/><linearGradient id="무제_그라디언트_13-22" x1="660.55" y1="412.39" x2="660.55" y2="367.68" gradientTransform="translate(178.7 71.6)" xlink:href="#무제_그라디언트_27"/><linearGradient id="무제_그라디언트_13-23" x1="578.79" y1="1103.48" x2="542.34" y2="1103.48" gradientTransform="translate(1084.8 -418.3)" xlink:href="#무제_그라디언트_27"/><linearGradient id="무제_그라디언트_13-24" x1="-40.05" y1="334.31" x2="-76.5" y2="334.31" gradientTransform="translate(1293.2 641) rotate(-90)" xlink:href="#무제_그라디언트_27"/><linearGradient id="무제_그라디언트_13-25" x1="-11.9" y1="374.47" x2="-11.9" y2="329.75" gradientTransform="translate(1870.6 365.1)" xlink:href="#무제_그라디언트_27"/><linearGradient id="무제_그라디언트_13-26" x1="974.79" y1="-399.73" x2="974.79" y2="-444.45" gradientTransform="translate(826.3 1185.7)" xlink:href="#무제_그라디언트_27"/><linearGradient id="무제_그라디언트_13-27" x1="920.7" y1="4.46" x2="884.25" y2="4.46" gradientTransform="translate(-420.4 586.7)" xlink:href="#무제_그라디언트_27"/><linearGradient id="무제_그라디언트_13-28" x1="1058.97" y1="676.22" x2="1022.52" y2="676.22" gradientTransform="translate(962.7 -528) rotate(90)" xlink:href="#무제_그라디언트_27"/><linearGradient id="무제_그라디언트_13-29" x1="1087.11" y1="716.38" x2="1087.11" y2="671.67" gradientTransform="translate(-605.1 -70.6)" xlink:href="#무제_그라디언트_27"/><linearGradient id="무제_그라디언트_13-30" x1="632.88" y1="699.28" x2="632.88" y2="654.57" gradientTransform="translate(-306.6 -164.2)" xlink:href="#무제_그라디언트_27"/><linearGradient id="무제_그라디언트_13-31" x1="784.67" y1="-219.37" x2="748.22" y2="-219.37" gradientTransform="translate(-496.1 1082.7)" xlink:href="#무제_그라디언트_27"/><linearGradient id="무제_그라디언트_13-32" x1="1282.8" y1="540.19" x2="1246.35" y2="540.19" gradientTransform="translate(-287.6 2142) rotate(-90)" xlink:href="#무제_그라디언트_27"/><linearGradient id="무제_그라디언트_13-33" x1="1310.94" y1="580.36" x2="1310.94" y2="535.64" gradientTransform="translate(-827.2 337.4)" xlink:href="#무제_그라디언트_27"/><linearGradient id="무제_그라디언트_13-34" x1="768.9" y1="923.11" x2="768.9" y2="878.4" gradientTransform="translate(-342.8 41)" xlink:href="#무제_그라디언트_27"/><linearGradient id="무제_그라디언트_13-35" x1="782.6" y1="-129.96" x2="746.15" y2="-129.96" gradientTransform="translate(-453.7 1071.6)" xlink:href="#무제_그라디언트_27"/><linearGradient id="무제_그라디언트_13-36" x1="1193.38" y1="538.13" x2="1156.93" y2="538.13" gradientTransform="translate(-1091.9 321.4)" xlink:href="#무제_그라디언트_27"/><linearGradient id="무제_그라디언트_13-37" x1="1221.53" y1="578.29" x2="1221.53" y2="533.57" gradientTransform="translate(-1091.9 321.4)" xlink:href="#무제_그라디언트_27"/><linearGradient id="무제_그라디언트_13-38" x1="770.97" y1="833.7" x2="770.97" y2="788.99" gradientTransform="translate(-474.4 72.7)" xlink:href="#무제_그라디언트_27"/><linearGradient id="무제_그라디언트_13-39" x1="1630.69" y1="59.19" x2="1594.12" y2="59.19" gradientTransform="translate(-69.1 427.3)" xlink:href="#무제_그라디언트_27"/><linearGradient id="무제_그라디언트_13-40" x1="999.27" y1="-798.57" x2="999.27" y2="-843.43" gradientTransform="translate(757.4 1355.7)" xlink:href="#무제_그라디언트_27"/><linearGradient id="무제_그라디언트_13-41" x1="1569.8" y1="446.03" x2="1515.37" y2="446.03" gradientTransform="matrix(1, 0, 0, 1, 0, 0)" xlink:href="#무제_그라디언트_27"/><linearGradient id="무제_그라디언트_3-6" x1="1673.58" y1="424.85" x2="1835.12" y2="424.85" xlink:href="#무제_그라디언트_3"/><linearGradient id="무제_그라디언트_7-4" x1="1690.03" y1="424.85" x2="1818.67" y2="424.85" xlink:href="#무제_그라디언트_7"/><linearGradient id="무제_그라디언트_19-2" x1="603.98" y1="614.19" x2="644.32" y2="614.19" xlink:href="#무제_그라디언트_19"/><radialGradient id="무제_그라디언트_12-2" cx="553.77" cy="645.97" r="82.03" xlink:href="#무제_그라디언트_12"/><linearGradient id="무제_그라디언트_27-5" x1="815.03" y1="877.66" x2="815.03" y2="793.89" gradientTransform="translate(-47.9 -51.6)" xlink:href="#무제_그라디언트_27"/><linearGradient id="무제_그라디언트_60" x1="832" y1="533.23" x2="832" y2="492.28" gradientUnits="userSpaceOnUse"><stop offset="0" stop-color="#3f3f3f"/><stop offset="0.34" stop-color="#525252"/><stop offset="1" stop-color="gray"/></linearGradient><linearGradient id="무제_그라디언트_13-42" x1="711.8" y1="64.96" x2="675.23" y2="64.96" gradientTransform="translate(-69.1 427.3)" xlink:href="#무제_그라디언트_27"/><linearGradient id="무제_그라디언트_13-43" x1="420.61" y1="214.42" x2="384.04" y2="214.42" gradientTransform="translate(1026.8 745.9) rotate(180)" xlink:href="#무제_그라디언트_27"/><linearGradient id="무제_그라디언트_13-44" x1="816.56" y1="328.82" x2="780.36" y2="328.82" gradientTransform="translate(274.9 1310.2) rotate(-90)" xlink:href="#무제_그라디언트_27"/><linearGradient id="무제_그라디언트_13-45" x1="999.75" y1="120.32" x2="999.75" y2="75.46" gradientTransform="translate(-161.9 437.2)" xlink:href="#무제_그라디언트_27"/><linearGradient id="무제_그라디언트_13-46" x1="1082.6" y1="120.32" x2="1082.6" y2="75.46" gradientTransform="translate(-244.8 520.1)" xlink:href="#무제_그라디언트_27"/><linearGradient id="무제_그라디언트_13-47" x1="1126.91" y1="699.11" x2="1126.91" y2="654.73" gradientTransform="translate(-546.9 -165.1)" xlink:href="#무제_그라디언트_27"/><linearGradient id="무제_그라디언트_13-48" x1="516.21" y1="-64.65" x2="480.01" y2="-64.65" gradientTransform="translate(582.1 13.9) rotate(90)" xlink:href="#무제_그라디언트_27"/><linearGradient id="무제_그라디언트_13-49" x1="1220.16" y1="700.09" x2="1220.16" y2="655.71" gradientTransform="translate(-546.9 -165.1)" xlink:href="#무제_그라디언트_27"/><linearGradient id="무제_그라디언트_27-6" x1="753.21" y1="535.11" x2="753.21" y2="490.4" gradientTransform="matrix(1, 0, 0, 1, 0, 0)" xlink:href="#무제_그라디언트_27"/><linearGradient id="무제_그라디언트_27-7" x1="907.79" y1="535.11" x2="907.79" y2="490.4" gradientTransform="matrix(1, 0, 0, 1, 0, 0)" xlink:href="#무제_그라디언트_27"/></defs><polygon class="cls-1" points="1271.6 659.6 1246.7 643.1 1235.2 672.4 1237.5 556 1275.5 556 1271.6 659.6"/><ellipse class="cls-2" cx="1185" cy="646" rx="87.9" ry="75.7"/><circle class="cls-3" cx="1185" cy="646" r="52.5"/><circle class="cls-4" cx="1185" cy="646" r="48.3"/><circle class="cls-5" cx="1185" cy="646" r="34.1"/><line class="cls-6" x1="1185" y1="638.9" x2="1185" y2="611.9"/><line class="cls-6" x1="1180" y1="641" x2="1160.9" y2="621.9"/><line class="cls-6" x1="1177.9" y1="646" x2="1150.9" y2="646"/><line class="cls-6" x1="1180" y1="651" x2="1160.9" y2="670.1"/><line class="cls-6" x1="1185" y1="653" x2="1185" y2="680.1"/><line class="cls-6" x1="1190" y1="651" x2="1209.1" y2="670.1"/><line class="cls-6" x1="1192" y1="646" x2="1219.1" y2="646"/><line class="cls-6" x1="1190" y1="641" x2="1209.1" y2="621.9"/><circle class="cls-7" cx="1185" cy="646" r="10.1"/><rect class="cls-8" x="1391.8" y="742.3" width="13.1" height="83.77" transform="translate(1969.1 -678.5) rotate(90)"/><rect class="cls-9" x="1810" y="654.7" width="95.5" height="30.5" transform="translate(974.4 2463.4) rotate(-90)"/><rect class="cls-10" x="1544.4" y="684" width="57.9" height="30.5"/><rect class="cls-11" x="1828.9" y="547.8" width="32.6" height="57.7" transform="translate(1055.2 2357.5) rotate(-90)"/><polygon class="cls-12" points="1628.1 528.2 1660.7 496 1660.7 560.4 1628.1 560.4 1628.1 528.2"/><rect class="cls-13" x="1810.5" y="556.7" width="11.7" height="39.94" transform="translate(3419.3 1088.9) rotate(180)"/><rect class="cls-14" x="1851.9" y="608.1" width="11.7" height="39.94" transform="translate(2272.5 -1294) rotate(90)"/><rect class="cls-15" x="1121.1" y="561.9" width="303.5" height="30.5" transform="translate(2332.5 1089.9) rotate(180)"/><rect class="cls-16" x="1513.8" y="560.4" width="207.6" height="30.5" transform="translate(3021.8 1086.9) rotate(180)"/><polygon class="cls-17" points="1274.1 499.7 1255.8 511.5 1237.5 499.7 1237.5 472.1 1274.1 472.1 1274.1 499.7"/><polygon class="cls-18" points="1237.5 523.1 1255.8 511.3 1274.1 523.1 1274.1 550.6 1237.5 550.6 1237.5 523.1"/><polygon class="cls-19" points="1237.5 493.2 1255.8 511.3 1237.5 529.4 1214.3 529.4 1214.3 493.2 1237.5 493.2"/><rect class="cls-20" x="1462.6" y="512.2" width="13" height="44.86" transform="translate(1790.5 -998.9) rotate(90)"/><rect class="cls-21" x="1462.6" y="595.1" width="13" height="44.86" transform="translate(1873.3 -916) rotate(90)"/><rect class="cls-22" x="1204.7" y="489.1" width="13.2" height="44.38"/><polygon class="cls-23" points="1274.1 529.6 1255.8 511.5 1274.1 493.4 1300.4 493.4 1300.4 529.6 1274.1 529.6"/><rect class="cls-24" x="1298" y="490.1" width="13.2" height="44.38"/><rect class="cls-25" x="1492.3" y="489.1" width="13.2" height="44.38"/><rect class="cls-26" x="1505.4" y="491.8" width="83.8" height="38.98"/><rect class="cls-27" x="1585.5" y="490.1" width="13.2" height="44.38"/><rect class="cls-28" x="1229" y="421.7" width="54.4" height="48.56"/><line class="cls-29" x1="1229" y1="436" x2="1283.4" y2="436"/><line class="cls-29" x1="1229" y1="447.2" x2="1283.4" y2="447.2"/><line class="cls-29" x1="1229" y1="458.3" x2="1283.4" y2="458.3"/><rect class="cls-30" x="66.3" y="754.4" width="35.2" height="67.96"/><line class="cls-29" x1="66.3" y1="774.3" x2="101.4" y2="774.3"/><line class="cls-29" x1="66.3" y1="790" x2="101.4" y2="790"/><line class="cls-29" x1="66.3" y1="805.6" x2="101.4" y2="805.6"/><rect class="cls-31" x="448.8" y="323" width="152.2" height="30.5"/><rect class="cls-32" x="782.5" y="466.5" width="113.5" height="30.5" transform="translate(1107.6 -421.9) rotate(90)"/><rect class="cls-33" x="887.5" y="561.9" width="72.5" height="30.5" transform="translate(1634.1 1089.9) rotate(180)"/><rect class="cls-34" x="514.1" y="561.9" width="291" height="30.5" transform="translate(1105.9 1089.9) rotate(180)"/><rect class="cls-35" x="334.2" y="926.4" width="108.9" height="30.5" transform="translate(563.9 1819) rotate(180)"/><rect class="cls-36" x="331.3" y="731.3" width="301.4" height="30.5" transform="translate(-477.8 1164.2) rotate(-90)"/><rect class="cls-37" x="626.6" y="370.3" width="36.4" height="64.6" transform="translate(834.1 -306.6) rotate(90)"/><polygon class="cls-38" points="435.6 320.5 399.2 356.5 399.2 284.4 435.6 284.4 435.6 320.5"/><polygon class="cls-39" points="391.9 279.1 391.9 286.4 368.8 286.4 368.8 279.1 372.4 279.1 372.4 219.3 388.3 219.3 388.3 279.1 391.9 279.1"/><rect class="cls-40" x="342.5" y="226.7" width="19" height="71.13"/><rect class="cls-41" x="337.5" y="294.6" width="29" height="6.34"/><line class="cls-42" x1="352" y1="226.7" x2="352" y2="294.6"/><line class="cls-42" x1="347" y1="226.7" x2="347" y2="294.6"/><line class="cls-42" x1="357" y1="226.7" x2="357" y2="294.6"/><rect class="cls-43" x="473.5" y="226.7" width="19" height="71.13"/><rect class="cls-44" x="468.5" y="294.6" width="29" height="6.34"/><line class="cls-42" x1="483" y1="226.7" x2="483" y2="294.6"/><line class="cls-42" x1="478" y1="226.7" x2="478" y2="294.6"/><line class="cls-42" x1="488" y1="226.7" x2="488" y2="294.6"/><polygon class="cls-39" points="466.7 279.1 466.7 286.4 443.6 286.4 443.6 279.1 447.2 279.1 447.2 219.3 463 219.3 463 279.1 466.7 279.1"/><path class="cls-45" d="M692.1,207.8c9-27.7,2.8-26.1,2.8-26.1-7.6-37.7-62.2-35.4-62.2-35.4-11,10.7-44.2,3.1-44.2,3.1-17.9.7-21.4,21.5-21.4,21.5a100.6,100.6,0,0,1,2.1,33.1c-4.1,10-2.8,20.7-2.8,20.7,2.1,36.2-2.7,28.5-2.7,28.5-8.3,20.7,21.4,33,21.4,33,29,10.8,47.6,0,47.6,0,20.1-4.6,53.9,0,53.9,0,18-5.4,10.4-40.7,10.4-40.7C683.9,221.6,692.1,207.8,692.1,207.8Z" transform="translate(-213.4 -64.3)"/><path class="cls-46" d="M692.1,207.8c9-27.7,2.8-26.1,2.8-26.1-7.6-37.7-62.2-35.4-62.2-35.4-11,10.7-44.2,3.1-44.2,3.1-17.9.7-21.4,21.5-21.4,21.5a100.6,100.6,0,0,1,2.1,33.1c-4.1,10-2.8,20.7-2.8,20.7,2.1,36.2-2.7,28.5-2.7,28.5-8.3,20.7,21.4,33,21.4,33,29,10.8,47.6,0,47.6,0,20.1-4.6,53.9,0,53.9,0,18-5.4,10.4-40.7,10.4-40.7C683.9,221.6,692.1,207.8,692.1,207.8Z" transform="translate(-213.4 -64.3)"/><polygon class="cls-39" points="59 791.8 59 798.9 36.4 798.9 36.4 791.8 39.9 791.8 39.9 733.3 55.5 733.3 55.5 791.8 59 791.8"/><rect class="cls-47" x="10.7" y="740.5" width="18.6" height="69.58"/><rect class="cls-48" x="5.8" y="807" width="28.4" height="6.2"/><line class="cls-42" x1="20" y1="740.5" x2="20" y2="807"/><line class="cls-42" x1="15.1" y1="740.5" x2="15.1" y2="807"/><line class="cls-42" x1="24.9" y1="740.5" x2="24.9" y2="807"/><rect class="cls-49" x="138.8" y="740.5" width="18.6" height="69.58"/><rect class="cls-50" x="133.9" y="807" width="28.4" height="6.2"/><line class="cls-42" x1="148.1" y1="740.5" x2="148.1" y2="807"/><line class="cls-42" x1="143.2" y1="740.5" x2="143.2" y2="807"/><line class="cls-42" x1="153" y1="740.5" x2="153" y2="807"/><polygon class="cls-39" points="132.1 791.8 132.1 798.9 109.5 798.9 109.5 791.8 113.1 791.8 113.1 733.3 128.6 733.3 128.6 791.8 132.1 791.8"/><path class="cls-51" d="M358,719.7c8.8-27.1,2.7-25.6,2.7-25.6-7.4-36.9-60.8-34.6-60.8-34.6-10.8,10.5-43.2,3-43.2,3-17.6.8-21,21.1-21,21.1a97.2,97.2,0,0,1,2,32.3c-4,9.8-2.7,20.3-2.7,20.3,2.1,35.4-2.7,27.9-2.7,27.9-8.1,20.3,21,32.3,21,32.3,28.4,10.5,46.6,0,46.6,0,19.6-4.5,52.7,0,52.7,0,17.6-5.3,10.2-39.9,10.2-39.9C350,733.2,358,719.7,358,719.7Z" transform="translate(-213.4 -64.3)"/><path class="cls-51" d="M358,719.7c8.8-27.1,2.7-25.6,2.7-25.6-7.4-36.9-60.8-34.6-60.8-34.6-10.8,10.5-43.2,3-43.2,3-17.6.8-21,21.1-21,21.1a97.2,97.2,0,0,1,2,32.3c-4,9.8-2.7,20.3-2.7,20.3,2.1,35.4-2.7,27.9-2.7,27.9-8.1,20.3,21,32.3,21,32.3,28.4,10.5,46.6,0,46.6,0,19.6-4.5,52.7,0,52.7,0,17.6-5.3,10.2-39.9,10.2-39.9C350,733.2,358,719.7,358,719.7Z" transform="translate(-213.4 -64.3)"/><path class="cls-52" d="M358,719.7c8.8-27.1,2.7-25.6,2.7-25.6-7.4-36.9-60.8-34.6-60.8-34.6-10.8,10.5-43.2,3-43.2,3-17.6.8-21,21.1-21,21.1a97.2,97.2,0,0,1,2,32.3c-4,9.8-2.7,20.3-2.7,20.3,2.1,35.4-2.7,27.9-2.7,27.9-8.1,20.3,21,32.3,21,32.3,28.4,10.5,46.6,0,46.6,0,19.6-4.5,52.7,0,52.7,0,17.6-5.3,10.2-39.9,10.2-39.9C350,733.2,358,719.7,358,719.7Z" transform="translate(-213.4 -64.3)"/><path class="cls-53" d="M358,719.7c8.8-27.1,2.7-25.6,2.7-25.6-7.4-36.9-60.8-34.6-60.8-34.6-10.8,10.5-43.2,3-43.2,3-17.6.8-21,21.1-21,21.1a97.2,97.2,0,0,1,2,32.3c-4,9.8-2.7,20.3-2.7,20.3,2.1,35.4-2.7,27.9-2.7,27.9-8.1,20.3,21,32.3,21,32.3,28.4,10.5,46.6,0,46.6,0,19.6-4.5,52.7,0,52.7,0,17.6-5.3,10.2-39.9,10.2-39.9C350,733.2,358,719.7,358,719.7Z" transform="translate(-213.4 -64.3)"/><rect class="cls-54" x="79" y="573.5" width="11.3" height="141.09"/><rect class="cls-55" x="69.4" y="565.5" width="30.4" height="11.64"/><path class="cls-55" d="M316.1,592.2v43.5H279.9V592.2a9.9,9.9,0,0,1,9.8-9.9h16.6A9.9,9.9,0,0,1,316.1,592.2Z" transform="translate(-213.4 -64.3)"/><polygon class="cls-55" points="83.9 714.6 130.1 725 137.3 725 137.3 704.2 130.1 704.2 83.9 714.6"/><polygon class="cls-56" points="84.7 714.6 73.7 703.5 73.7 725.7 84.7 714.6"/><polygon class="cls-56" points="84.7 714.6 95.6 703.5 95.6 725.7 84.7 714.6"/><polygon class="cls-55" points="83.9 714.6 38.4 725 31.2 725 31.2 704.2 38.4 704.2 83.9 714.6"/><rect x="71.6" y="536.2" width="26.1" height="35.12"/><line class="cls-57" x1="84.7" y1="536.2" x2="84.7" y2="570.5"/><line class="cls-58" x1="77.2" y1="536.2" x2="77.2" y2="570.5"/><line class="cls-58" x1="91.8" y1="536.2" x2="91.8" y2="570.5"/><rect class="cls-59" x="69.7" y="551.7" width="18.2" height="18.18"/><rect class="cls-60" x="68.5" y="552.9" width="18.2" height="18.18"/><rect class="cls-61" x="411.4" y="60.3" width="11.4" height="141.78"/><rect class="cls-62" x="401.8" y="52.3" width="30.6" height="11.7"/><path class="cls-62" d="M648.7,78.8v43.7H612.3V78.8a9.9,9.9,0,0,1,9.9-9.9h16.6A9.9,9.9,0,0,1,648.7,78.8Z" transform="translate(-213.4 -64.3)"/><polygon class="cls-62" points="416.7 201.8 463.1 212.3 470.4 212.3 470.4 191.3 463.1 191.3 416.7 201.8"/><polygon class="cls-62" points="416.7 201.8 370.9 212.3 363.7 212.3 363.7 191.3 370.9 191.3 416.7 201.8"/><rect x="404" y="22.9" width="26.2" height="35.29"/><line class="cls-63" x1="417.1" y1="22.9" x2="417.1" y2="57.3"/><line class="cls-64" x1="409.7" y1="22.9" x2="409.7" y2="57.3"/><line class="cls-64" x1="424.3" y1="22.9" x2="424.3" y2="57.3"/><rect class="cls-65" x="402.1" y="38.4" width="18.3" height="18.27"/><rect class="cls-66" x="400.9" y="39.6" width="18.3" height="18.27"/><path class="cls-51" d="M1526.2,412.8c8.5-30.7,2.6-29,2.6-29-7.2-41.8-58.6-39.2-58.6-39.2-10.5,11.9-41.7,3.4-41.7,3.4-17,.8-20.2,23.9-20.2,23.9a131.5,131.5,0,0,1,1.9,36.7c-3.9,11-2.6,23-2.6,23,2,40.1-2.6,31.6-2.6,31.6-7.8,23,20.2,36.7,20.2,36.7,27.4,11.9,45,0,45,0,18.9-5.2,50.8,0,50.8,0,16.9-6,9.8-45.3,9.8-45.3C1518.4,428.2,1526.2,412.8,1526.2,412.8Z" transform="translate(-213.4 -64.3)"/><path class="cls-67" d="M1526.2,412.8c8.5-30.7,2.6-29,2.6-29-7.2-41.8-58.6-39.2-58.6-39.2-10.5,11.9-41.7,3.4-41.7,3.4-17,.8-20.2,23.9-20.2,23.9a131.5,131.5,0,0,1,1.9,36.7c-3.9,11-2.6,23-2.6,23,2,40.1-2.6,31.6-2.6,31.6-7.8,23,20.2,36.7,20.2,36.7,27.4,11.9,45,0,45,0,18.9-5.2,50.8,0,50.8,0,16.9-6,9.8-45.3,9.8-45.3C1518.4,428.2,1526.2,412.8,1526.2,412.8Z" transform="translate(-213.4 -64.3)"/><path class="cls-68" d="M1526.2,412.8c8.5-30.7,2.6-29,2.6-29-7.2-41.8-58.6-39.2-58.6-39.2-10.5,11.9-41.7,3.4-41.7,3.4-17,.8-20.2,23.9-20.2,23.9a131.5,131.5,0,0,1,1.9,36.7c-3.9,11-2.6,23-2.6,23,2,40.1-2.6,31.6-2.6,31.6-7.8,23,20.2,36.7,20.2,36.7,27.4,11.9,45,0,45,0,18.9-5.2,50.8,0,50.8,0,16.9-6,9.8-45.3,9.8-45.3C1518.4,428.2,1526.2,412.8,1526.2,412.8Z" transform="translate(-213.4 -64.3)"/><rect class="cls-69" x="1251.2" y="260.8" width="11.5" height="143.71"/><rect class="cls-70" x="1241.5" y="252.6" width="31" height="11.85"/><path class="cls-70" d="M1488.8,278.6v44.3h-36.9V278.6a10,10,0,0,1,10-10h16.9A10,10,0,0,1,1488.8,278.6Z" transform="translate(-213.4 -64.3)"/><polygon class="cls-70" points="1257 404.5 1268.1 393.2 1268.1 415.8 1257 404.5"/><polygon class="cls-70" points="1256.2 404.5 1303.2 415.1 1310.6 415.1 1310.6 393.9 1303.2 393.9 1256.2 404.5"/><polygon class="cls-70" points="1256.2 404.5 1209.8 415.1 1202.6 415.1 1202.6 393.9 1209.8 393.9 1256.2 404.5"/><rect x="1243.7" y="222.8" width="26.6" height="35.77"/><line class="cls-71" x1="1257" y1="222.8" x2="1257" y2="257.7"/><line class="cls-72" x1="1249.4" y1="222.8" x2="1249.4" y2="257.7"/><line class="cls-72" x1="1264.2" y1="222.8" x2="1264.2" y2="257.7"/><rect class="cls-59" x="1241.8" y="238.5" width="18.5" height="18.52"/><rect class="cls-73" x="1240.6" y="239.8" width="18.5" height="18.52"/><polygon class="cls-70" points="1257 404.5 1245.9 393.2 1245.9 415.8 1257 404.5"/><path class="cls-67" d="M1536.7,337.7H1399.2a12,12,0,0,0-12,12V499.9a12,12,0,0,0,12,12h137.5a12,12,0,0,0,12-12V349.7A12,12,0,0,0,1536.7,337.7ZM1521,499.9s-31.9-5.2-50.8,0c0,0-17.6,11.9-45,0,0,0-28-13.7-20.2-36.7,0,0,4.6,8.5,2.6-31.6,0,0-1.3-12,2.6-23a131.5,131.5,0,0,0-1.9-36.7s3.2-23.1,20.2-23.9c0,0,31.2,8.5,41.7-3.4,0,0,51.4-2.6,58.6,39.2,0,0,5.9-1.7-2.6,29,0,0-7.8,15.4,4.6,41.8C1530.8,454.6,1537.9,493.9,1521,499.9Z" transform="translate(-213.4 -64.3)"/><path class="cls-74" d="M371.9,656.4H223.3a9.5,9.5,0,0,0-9.4,9.5V800.6l83.7,55.6,83.8-55.6V665.9A9.6,9.6,0,0,0,371.9,656.4Zm-19.3,140s-33.1-4.5-52.7,0c0,0-18.2,10.5-46.6,0,0,0-29.1-12-21-32.3,0,0,4.8,7.5,2.7-27.9,0,0-1.3-10.5,2.7-20.3a97.2,97.2,0,0,0-2-32.3s3.4-20.3,21-21.1c0,0,32.4,7.5,43.2-3,0,0,53.4-2.3,60.8,34.6,0,0,6.1-1.5-2.7,25.6,0,0-8,13.5,4.8,36.8C362.8,756.5,370.2,791.1,352.6,796.4Z" transform="translate(-213.4 -64.3)"/><rect class="cls-75" x="69.1" y="81.9" width="80.9" height="80.91"/><circle class="cls-76" cx="109.5" cy="122.4" r="35.2"/><circle class="cls-77" cx="109.5" cy="122.4" r="28.6"/><rect class="cls-75" x="69.1" y="1" width="80.9" height="80.91"/><circle class="cls-78" cx="109.5" cy="41.5" r="35.2"/><circle class="cls-79" cx="109.5" cy="41.5" r="28.6"/><rect class="cls-75" x="69.1" y="405.1" width="80.9" height="80.91"/><circle class="cls-80" cx="109.5" cy="445.6" r="35.2"/><circle class="cls-77" cx="109.5" cy="445.6" r="28.6"/><rect class="cls-75" x="69.1" y="324.2" width="80.9" height="80.91"/><circle class="cls-81" cx="109.5" cy="364.7" r="35.2"/><circle class="cls-79" cx="109.5" cy="364.7" r="28.6"/><rect class="cls-75" x="639.4" y="858.7" width="80.9" height="80.91"/><circle class="cls-82" cx="679.8" cy="899.1" r="35.2"/><circle class="cls-77" cx="679.8" cy="899.1" r="28.6"/><rect class="cls-75" x="639.4" y="777.8" width="80.9" height="80.91"/><circle class="cls-83" cx="679.8" cy="818.2" r="35.2"/><circle class="cls-79" cx="679.8" cy="818.2" r="28.6"/><rect class="cls-75" x="1219.9" y="112.3" width="80.9" height="80.91"/><circle class="cls-84" cx="1260.3" cy="152.7" r="35.2"/><circle class="cls-85" cx="1260.3" cy="152.7" r="28.6"/><rect class="cls-75" x="1219.9" y="31.3" width="80.9" height="80.91"/><circle class="cls-86" cx="1260.3" cy="71.8" r="35.2"/><circle class="cls-79" cx="1260.3" cy="71.8" r="28.6"/><rect class="cls-75" x="1503.9" y="112.3" width="80.9" height="80.91"/><circle class="cls-87" cx="1544.4" cy="152.7" r="35.2"/><circle class="cls-85" cx="1544.4" cy="152.7" r="28.6"/><rect class="cls-75" x="1503.9" y="31.3" width="80.9" height="80.91"/><circle class="cls-88" cx="1544.4" cy="71.8" r="35.2"/><circle class="cls-79" cx="1544.4" cy="71.8" r="28.6"/><rect class="cls-75" x="1188.9" y="864" width="80.9" height="80.91"/><circle class="cls-89" cx="1229.4" cy="904.4" r="35.2"/><circle class="cls-85" cx="1229.4" cy="904.4" r="28.6"/><rect class="cls-75" x="1188.9" y="783.1" width="80.9" height="80.91"/><circle class="cls-90" cx="1229.4" cy="823.5" r="35.2"/><circle class="cls-79" cx="1229.4" cy="823.5" r="28.6"/><rect class="cls-91" x="801.4" y="341.1" width="65" height="88.65" rx="15.2"/><rect class="cls-92" x="807.7" y="347.8" width="52.4" height="75.23" rx="11.2"/><rect class="cls-91" x="811.6" y="315.3" width="44.8" height="38.3"/><rect class="cls-93" x="824.3" y="333.2" width="19.3" height="5.82"/><rect class="cls-91" x="804.6" y="308.4" width="58.7" height="6.81"/><rect class="cls-91" x="788.5" y="286.4" width="90.9" height="22.01"/><line class="cls-94" x1="833.9" y1="367.9" x2="833.9" y2="423"/><rect class="cls-95" x="826.8" y="353.6" width="14.3" height="18.51"/><rect class="cls-39" x="819.2" y="412.9" width="29.5" height="8.96"/><rect class="cls-91" x="811.6" y="422.5" width="44.8" height="38.3"/><rect class="cls-91" x="810.6" y="418" width="46.6" height="8.96"/><rect class="cls-91" x="1008.8" y="523.2" width="77" height="6.87" transform="translate(1881.2 988.9) rotate(180)"/><rect class="cls-91" x="1001.8" y="530.1" width="90.9" height="22.21" transform="translate(1881.2 1018) rotate(180)"/><rect class="cls-96" x="788.9" y="447.1" width="11.2" height="5.7"/><rect class="cls-96" x="808.6" y="447.1" width="11.2" height="5.7"/><rect class="cls-96" x="828.3" y="447.1" width="11.2" height="5.7"/><rect class="cls-96" x="848" y="447.1" width="11.2" height="5.7"/><rect class="cls-96" x="867.7" y="447.1" width="11.2" height="5.7"/><rect class="cls-97" x="788.1" y="451.6" width="91.7" height="8.71"/><line class="cls-42" x1="788.1" y1="451.6" x2="879.8" y2="451.6"/><rect x="774" y="291.7" width="6.4" height="4.93"/><rect x="792.6" y="291.7" width="6.4" height="4.93"/><rect x="811.2" y="291.7" width="6.4" height="4.93"/><rect x="829.8" y="291.7" width="6.4" height="4.93"/><rect x="848.4" y="291.7" width="6.4" height="4.93"/><rect x="867" y="291.7" width="6.4" height="4.93"/><rect x="885.5" y="291.7" width="6.4" height="4.93"/><rect class="cls-98" x="771.3" y="294.6" width="124" height="6.72"/><line class="cls-42" x1="817.6" y1="400.5" x2="851.6" y2="400.5"/><rect class="cls-95" x="824.3" y="391.1" width="19.3" height="13.18"/><rect class="cls-99" x="394" y="226.7" width="46.3" height="67.96"/><line class="cls-29" x1="394" y1="246.6" x2="440.3" y2="246.6"/><line class="cls-29" x1="394" y1="262.2" x2="440.3" y2="262.2"/><line class="cls-29" x1="394" y1="277.9" x2="440.3" y2="277.9"/><rect class="cls-100" x="457.2" y="315.9" width="13.1" height="44.72"/><rect class="cls-101" x="806.9" y="371.8" width="36.4" height="64.6" transform="translate(207.8 1164.9) rotate(-90)"/><polygon class="cls-102" points="607.7 357.5 644.1 321.5 644.1 393.6 607.7 393.6 607.7 357.5"/><rect class="cls-103" x="786.3" y="381.7" width="13.1" height="44.72" transform="translate(1372.4 743.8) rotate(180)"/><rect class="cls-104" x="832.7" y="439.3" width="13.1" height="44.72" transform="translate(1087.6 -441.9) rotate(90)"/><rect class="cls-105" x="1627.1" y="652.9" width="36.4" height="64.6"/><polygon class="cls-106" points="1627.5 681 1663.6 717.5 1591.5 717.5 1591.5 681 1627.5 681"/><rect class="cls-107" x="1852.1" y="694.9" width="13.1" height="44.72" transform="translate(928.1 2511.6) rotate(-90)"/><rect class="cls-108" x="1794.5" y="741.2" width="13.1" height="44.72" transform="translate(3388.8 1462.9) rotate(180)"/><rect class="cls-109" x="463.8" y="558.8" width="36.4" height="64.6" transform="translate(750.7 1117.9) rotate(180)"/><polygon class="cls-110" points="286.5 530.9 250.5 494.5 322.5 494.5 322.5 530.9 286.5 530.9"/><rect class="cls-111" x="475.5" y="601.1" width="13.1" height="44.72" transform="translate(892.1 77) rotate(90)"/><rect class="cls-112" x="319.7" y="490.4" width="13.1" height="44.72"/><rect class="cls-113" x="252.1" y="831" width="36.4" height="64.6"/><polygon class="cls-114" points="252.5 859.2 288.6 895.6 216.5 895.6 216.5 859.2 252.5 859.2"/><rect class="cls-115" x="477.1" y="873" width="13.1" height="44.72" transform="translate(-625 1314.7) rotate(-90)"/><rect class="cls-116" x="419.5" y="919.4" width="13.1" height="44.72" transform="translate(638.8 1819.1) rotate(180)"/><rect class="cls-117" x="292.4" y="909.4" width="36.4" height="64.6" transform="translate(1039 566.7) rotate(90)"/><polygon class="cls-118" points="101.4 859.5 65 895.6 65 823.5 101.4 823.5 101.4 859.5"/><rect class="cls-119" x="123" y="855" width="13.1" height="44.72"/><rect class="cls-120" x="290" y="861.7" width="13.1" height="44.72" transform="translate(-800.9 1116.3) rotate(-90)"/><polygon class="cls-121" points="1561.6 492.3 1543.3 500.9 1525.1 492.3 1525.1 472.1 1561.6 472.1 1561.6 492.3"/><rect class="cls-122" x="1750.2" y="512.2" width="13" height="44.86" transform="translate(2078 -1286.4) rotate(90)"/><rect class="cls-123" x="1515.4" y="421.7" width="54.4" height="48.56"/><line class="cls-29" x1="1515.4" y1="436" x2="1569.8" y2="436"/><line class="cls-29" x1="1515.4" y1="447.2" x2="1569.8" y2="447.2"/><line class="cls-29" x1="1515.4" y1="458.3" x2="1569.8" y2="458.3"/><path class="cls-51" d="M1812.6,412.8c8.5-30.7,2.6-29,2.6-29-7.2-41.8-58.6-39.2-58.6-39.2-10.5,11.9-41.7,3.4-41.7,3.4-17,.8-20.2,23.9-20.2,23.9a131.5,131.5,0,0,1,1.9,36.7c-3.9,11-2.6,23-2.6,23,2,40.1-2.6,31.6-2.6,31.6-7.8,23,20.2,36.7,20.2,36.7,27.4,11.9,45,0,45,0,18.9-5.2,50.8,0,50.8,0,16.9-6,9.8-45.3,9.8-45.3C1804.8,428.2,1812.6,412.8,1812.6,412.8Z" transform="translate(-213.4 -64.3)"/><path class="cls-124" d="M1812.6,412.8c8.5-30.7,2.6-29,2.6-29-7.2-41.8-58.6-39.2-58.6-39.2-10.5,11.9-41.7,3.4-41.7,3.4-17,.8-20.2,23.9-20.2,23.9a131.5,131.5,0,0,1,1.9,36.7c-3.9,11-2.6,23-2.6,23,2,40.1-2.6,31.6-2.6,31.6-7.8,23,20.2,36.7,20.2,36.7,27.4,11.9,45,0,45,0,18.9-5.2,50.8,0,50.8,0,16.9-6,9.8-45.3,9.8-45.3C1804.8,428.2,1812.6,412.8,1812.6,412.8Z" transform="translate(-213.4 -64.3)"/><path class="cls-125" d="M1812.6,412.8c8.5-30.7,2.6-29,2.6-29-7.2-41.8-58.6-39.2-58.6-39.2-10.5,11.9-41.7,3.4-41.7,3.4-17,.8-20.2,23.9-20.2,23.9a131.5,131.5,0,0,1,1.9,36.7c-3.9,11-2.6,23-2.6,23,2,40.1-2.6,31.6-2.6,31.6-7.8,23,20.2,36.7,20.2,36.7,27.4,11.9,45,0,45,0,18.9-5.2,50.8,0,50.8,0,16.9-6,9.8-45.3,9.8-45.3C1804.8,428.2,1812.6,412.8,1812.6,412.8Z" transform="translate(-213.4 -64.3)"/><rect class="cls-69" x="1537.6" y="260.8" width="11.5" height="143.71"/><rect class="cls-70" x="1527.9" y="252.6" width="31" height="11.85"/><path class="cls-70" d="M1775.2,278.6v44.3h-36.9V278.6a10,10,0,0,1,10-10h16.9A10,10,0,0,1,1775.2,278.6Z" transform="translate(-213.4 -64.3)"/><polygon class="cls-70" points="1543.4 404.5 1554.5 393.2 1554.5 415.8 1543.4 404.5"/><polygon class="cls-70" points="1542.6 404.5 1589.6 415.1 1597 415.1 1597 393.9 1589.6 393.9 1542.6 404.5"/><polygon class="cls-70" points="1542.6 404.5 1496.2 415.1 1489 415.1 1489 393.9 1496.2 393.9 1542.6 404.5"/><rect x="1530.1" y="222.8" width="26.6" height="35.77"/><line class="cls-71" x1="1543.4" y1="222.8" x2="1543.4" y2="257.7"/><line class="cls-72" x1="1535.8" y1="222.8" x2="1535.8" y2="257.7"/><line class="cls-72" x1="1550.7" y1="222.8" x2="1550.7" y2="257.7"/><rect class="cls-59" x="1528.2" y="238.5" width="18.5" height="18.52"/><rect class="cls-73" x="1527" y="239.8" width="18.5" height="18.52"/><polygon class="cls-70" points="1543.4 404.5 1532.3 393.2 1532.3 415.8 1543.4 404.5"/><path class="cls-124" d="M1823.1,337.7H1685.6a12,12,0,0,0-12,12V499.9a12,12,0,0,0,12,12h137.5a12,12,0,0,0,12-12V349.7A12,12,0,0,0,1823.1,337.7Zm-15.7,162.2s-31.9-5.2-50.8,0c0,0-17.6,11.9-45,0,0,0-28-13.7-20.2-36.7,0,0,4.6,8.5,2.6-31.6,0,0-1.3-12,2.6-23a131.5,131.5,0,0,0-1.9-36.7s3.2-23.1,20.2-23.9c0,0,31.2,8.5,41.7-3.4,0,0,51.4-2.6,58.6,39.2,0,0,5.9-1.7-2.6,29,0,0-7.8,15.4,4.6,41.8C1817.2,454.6,1824.3,493.9,1807.4,499.9Z" transform="translate(-213.4 -64.3)"/><polygon class="cls-126" points="640.4 659.6 615.5 643.1 604 672.4 606.3 556 644.3 556 640.4 659.6"/><ellipse class="cls-127" cx="553.8" cy="646" rx="87.9" ry="75.7"/><circle class="cls-3" cx="553.8" cy="646" r="52.5"/><circle class="cls-4" cx="553.8" cy="646" r="48.3"/><circle class="cls-5" cx="553.8" cy="646" r="34.1"/><line class="cls-6" x1="553.8" y1="638.9" x2="553.8" y2="611.9"/><line class="cls-6" x1="548.8" y1="641" x2="529.7" y2="621.9"/><line class="cls-6" x1="546.7" y1="646" x2="519.7" y2="646"/><line class="cls-6" x1="548.8" y1="651" x2="529.7" y2="670.1"/><line class="cls-6" x1="553.8" y1="653" x2="553.8" y2="680.1"/><line class="cls-6" x1="558.8" y1="651" x2="577.9" y2="670.1"/><line class="cls-6" x1="560.8" y1="646" x2="587.9" y2="646"/><line class="cls-6" x1="558.8" y1="641" x2="577.9" y2="621.9"/><circle class="cls-7" cx="553.8" cy="646" r="10.1"/><rect class="cls-128" x="760.6" y="742.3" width="13.1" height="83.77" transform="translate(1337.9 -47.3) rotate(90)"/><polygon class="cls-5" points="893.1 487.9 768.2 487.9 752.2 502.5 752.2 523 768.2 537.6 893.1 537.6 912.1 523 912.1 502.5 893.1 487.9"/><polygon class="cls-129" points="882.3 492.3 779.2 492.3 766 504.3 766 521.2 779.2 533.2 882.3 533.2 898 521.2 898 504.3 882.3 492.3"/><line class="cls-130" x1="863.6" y1="530.8" x2="805.6" y2="494.8"/><circle class="cls-131" cx="834.6" cy="512.8" r="1.5"/><rect class="cls-132" x="752.2" y="589.7" width="159.9" height="7.44"/><rect class="cls-131" x="821.8" y="564.4" width="20.7" height="58.13"/><rect class="cls-133" x="827.6" y="572.5" width="9" height="41.98"/><rect class="cls-79" x="753.2" y="562.5" width="2.6" height="22.62"/><rect class="cls-79" x="753.2" y="601.2" width="2.6" height="22.62"/><rect class="cls-79" x="908.6" y="601.2" width="2.6" height="22.62"/><rect class="cls-79" x="908.6" y="562.5" width="2.6" height="22.62"/><rect class="cls-95" x="779.7" y="601.2" width="3.6" height="22.62"/><rect class="cls-95" x="779.7" y="562.5" width="3.6" height="22.62"/><rect class="cls-95" x="846" y="562.5" width="3.6" height="22.62"/><rect class="cls-95" x="846" y="601.2" width="3.6" height="22.62"/><polygon class="cls-134" points="642.7 500.2 624.5 512 606.2 500.2 606.2 472.6 642.7 472.6 642.7 500.2"/><polygon class="cls-135" points="606.2 523.6 624.5 511.8 642.7 523.6 642.7 551.1 606.2 551.1 606.2 523.6"/><polygon class="cls-136" points="606.2 493.7 624.5 511.8 606.2 529.9 582.9 529.9 582.9 493.7 606.2 493.7"/><rect class="cls-137" x="831.3" y="512.7" width="13" height="44.86" transform="translate(1159.6 -367) rotate(90)"/><rect class="cls-138" x="831.3" y="595.5" width="13" height="44.86" transform="translate(1242.4 -284.2) rotate(90)"/><rect class="cls-139" x="573.4" y="489.6" width="13.2" height="44.38"/><polygon class="cls-140" points="642.7 530.1 624.5 512 642.7 493.9 669.1 493.9 669.1 530.1 642.7 530.1"/><rect class="cls-141" x="666.6" y="490.6" width="13.2" height="44.38"/><rect class="cls-142" x="746.6" y="490.4" width="13.1" height="44.72"/><rect class="cls-143" x="901.2" y="490.4" width="13.1" height="44.72"/><path class="cls-45" d="M704,140.1H556.8a12,12,0,0,0-12,12v133a12,12,0,0,0,12,12H704a12,12,0,0,0,12-12v-133A12,12,0,0,0,704,140.1ZM686.6,286.2s-33.8-4.6-53.9,0c0,0-18.6,10.8-47.6,0,0,0-29.7-12.3-21.4-33,0,0,4.8,7.7,2.7-28.5,0,0-1.3-10.7,2.8-20.7a100.6,100.6,0,0,0-2.1-33.1s3.5-20.8,21.4-21.5c0,0,33.2,7.6,44.2-3.1,0,0,54.6-2.3,62.2,35.4,0,0,6.2-1.6-2.8,26.1,0,0-8.2,13.8,4.9,37.7C697,245.5,704.6,280.8,686.6,286.2Z" transform="translate(-213.4 -64.3)"/></svg>